<svg xmlns="http://www.w3.org/2000/svg" xmlns:xlink="http://www.w3.org/1999/xlink" width="260" height="260" viewBox="0 0 260 260">
  <defs>
    <clipPath id="clip-path">
      <path id="Trazado_625355" data-name="Trazado 625355" d="M1383.214,1206.818a2.874,2.874,0,1,0-1.8,1.013A3.329,3.329,0,0,0,1383.214,1206.818Z" transform="translate(-1379.405 -1206.342)" fill="none"/>
    </clipPath>
  </defs>
  <g id="Air_pollution" data-name="Air pollution" transform="translate(-334.898 -335)">
    <circle id="Elipse_5000" data-name="Elipse 5000" cx="130" cy="130" r="130" transform="translate(334.898 335)" fill="#f2e6dc"/>
    <g id="Grupo_989900" data-name="Grupo 989900" transform="translate(335.169 420.396)">
      <g id="Grupo_989892" data-name="Grupo 989892" transform="translate(39.116 15.208)">
        <rect id="Rectángulo_344212" data-name="Rectángulo 344212" width="33.839" height="63.543" fill="#f7f1eb"/>
        <g id="Grupo_989891" data-name="Grupo 989891" transform="translate(3.915 5.796)">
          <rect id="Rectángulo_344213" data-name="Rectángulo 344213" width="2.687" height="5.045" fill="#fff"/>
          <rect id="Rectángulo_344214" data-name="Rectángulo 344214" width="2.687" height="5.045" transform="translate(7.696)" fill="#fff"/>
          <rect id="Rectángulo_344215" data-name="Rectángulo 344215" width="2.687" height="5.045" transform="translate(15.392)" fill="#fff"/>
          <rect id="Rectángulo_344216" data-name="Rectángulo 344216" width="2.687" height="5.045" transform="translate(23.089)" fill="#fff"/>
          <rect id="Rectángulo_344217" data-name="Rectángulo 344217" width="2.687" height="5.045" transform="translate(0 11.541)" fill="#fff"/>
          <rect id="Rectángulo_344218" data-name="Rectángulo 344218" width="2.687" height="5.045" transform="translate(7.696 11.541)" fill="#fff"/>
          <rect id="Rectángulo_344219" data-name="Rectángulo 344219" width="2.687" height="5.045" transform="translate(15.392 11.541)" fill="#fff"/>
          <rect id="Rectángulo_344220" data-name="Rectángulo 344220" width="2.687" height="5.045" transform="translate(23.089 11.541)" fill="#fff"/>
          <rect id="Rectángulo_344221" data-name="Rectángulo 344221" width="2.687" height="5.045" transform="translate(0 23.082)" fill="#fff"/>
          <rect id="Rectángulo_344222" data-name="Rectángulo 344222" width="2.687" height="5.045" transform="translate(7.696 23.082)" fill="#fff"/>
          <rect id="Rectángulo_344223" data-name="Rectángulo 344223" width="2.687" height="5.045" transform="translate(15.392 23.082)" fill="#fff"/>
          <rect id="Rectángulo_344224" data-name="Rectángulo 344224" width="2.687" height="5.045" transform="translate(23.089 23.082)" fill="#fff"/>
          <rect id="Rectángulo_344225" data-name="Rectángulo 344225" width="2.687" height="5.045" transform="translate(0 34.623)" fill="#fff"/>
          <rect id="Rectángulo_344226" data-name="Rectángulo 344226" width="2.687" height="5.045" transform="translate(7.696 34.623)" fill="#fff"/>
          <rect id="Rectángulo_344227" data-name="Rectángulo 344227" width="2.687" height="5.045" transform="translate(15.392 34.623)" fill="#fff"/>
          <rect id="Rectángulo_344228" data-name="Rectángulo 344228" width="2.687" height="5.045" transform="translate(23.089 34.623)" fill="#fff"/>
          <rect id="Rectángulo_344229" data-name="Rectángulo 344229" width="2.687" height="5.045" transform="translate(0 46.164)" fill="#fff"/>
          <rect id="Rectángulo_344230" data-name="Rectángulo 344230" width="2.687" height="5.045" transform="translate(7.696 46.164)" fill="#fff"/>
          <rect id="Rectángulo_344231" data-name="Rectángulo 344231" width="2.687" height="5.045" transform="translate(15.392 46.164)" fill="#fff"/>
          <rect id="Rectángulo_344232" data-name="Rectángulo 344232" width="2.687" height="5.045" transform="translate(23.089 46.164)" fill="#fff"/>
        </g>
      </g>
      <g id="Grupo_989893" data-name="Grupo 989893" transform="translate(11.097 0)">
        <rect id="Rectángulo_344233" data-name="Rectángulo 344233" width="28.365" height="77.419" transform="translate(0.142 0.142)" fill="#e6d0be"/>
        <path id="Trazado_625267" data-name="Trazado 625267" d="M442.969,977.619H414.6a.142.142,0,1,1,0-.284h28.365a.142.142,0,1,1,0,.284Z" transform="translate(-414.462 -971.474)" fill="#fff"/>
        <path id="Trazado_625268" data-name="Trazado 625268" d="M442.969,1018.877H414.6a.142.142,0,1,1,0-.284h28.365a.142.142,0,1,1,0,.284Z" transform="translate(-414.462 -1006.87)" fill="#fff"/>
        <path id="Trazado_625269" data-name="Trazado 625269" d="M442.969,1060.135H414.6a.142.142,0,1,1,0-.284h28.365a.142.142,0,1,1,0,.284Z" transform="translate(-414.462 -1042.266)" fill="#fff"/>
        <path id="Trazado_625270" data-name="Trazado 625270" d="M442.969,1101.393H414.6a.142.142,0,1,1,0-.284h28.365a.142.142,0,1,1,0,.284Z" transform="translate(-414.462 -1077.663)" fill="#fff"/>
        <path id="Trazado_625271" data-name="Trazado 625271" d="M442.969,1142.651H414.6a.142.142,0,0,1,0-.284h28.365a.142.142,0,0,1,0,.284Z" transform="translate(-414.462 -1113.059)" fill="#fff"/>
        <path id="Trazado_625272" data-name="Trazado 625272" d="M442.969,1183.909H414.6a.142.142,0,1,1,0-.284h28.365a.142.142,0,1,1,0,.284Z" transform="translate(-414.462 -1148.456)" fill="#fff"/>
        <path id="Trazado_625273" data-name="Trazado 625273" d="M442.969,1225.167H414.6a.142.142,0,1,1,0-.284h28.365a.142.142,0,1,1,0,.284Z" transform="translate(-414.462 -1183.852)" fill="#fff"/>
        <path id="Trazado_625274" data-name="Trazado 625274" d="M442.969,1266.425H414.6a.142.142,0,1,1,0-.284h28.365a.142.142,0,1,1,0,.284Z" transform="translate(-414.462 -1219.249)" fill="#fff"/>
        <path id="Trazado_625275" data-name="Trazado 625275" d="M442.969,1307.683H414.6a.142.142,0,1,1,0-.284h28.365a.142.142,0,1,1,0,.284Z" transform="translate(-414.462 -1254.645)" fill="#fff"/>
        <path id="Trazado_625276" data-name="Trazado 625276" d="M453.8,1013.78a.142.142,0,0,1-.142-.142V936.219a.142.142,0,1,1,.284,0v77.419A.142.142,0,0,1,453.8,1013.78Z" transform="translate(-448.089 -936.077)" fill="#fff"/>
        <path id="Trazado_625277" data-name="Trazado 625277" d="M515.686,1013.78a.142.142,0,0,1-.142-.142V936.219a.142.142,0,1,1,.284,0v77.419A.142.142,0,0,1,515.686,1013.78Z" transform="translate(-501.183 -936.077)" fill="#fff"/>
        <path id="Trazado_625278" data-name="Trazado 625278" d="M577.573,1013.78a.142.142,0,0,1-.142-.142V936.219a.142.142,0,1,1,.284,0v77.419A.142.142,0,0,1,577.573,1013.78Z" transform="translate(-554.278 -936.077)" fill="#fff"/>
      </g>
      <g id="Grupo_989895" data-name="Grupo 989895" transform="translate(21.968 44.228)">
        <rect id="Rectángulo_344234" data-name="Rectángulo 344234" width="27.027" height="47.661" fill="#e6d0be"/>
        <g id="Grupo_989894" data-name="Grupo 989894" transform="translate(3.127 4.348)">
          <rect id="Rectángulo_344235" data-name="Rectángulo 344235" width="2.146" height="3.784" fill="#fff"/>
          <rect id="Rectángulo_344236" data-name="Rectángulo 344236" width="2.146" height="3.784" transform="translate(6.147)" fill="#fff"/>
          <rect id="Rectángulo_344237" data-name="Rectángulo 344237" width="2.146" height="3.784" transform="translate(12.294)" fill="#fff"/>
          <rect id="Rectángulo_344238" data-name="Rectángulo 344238" width="2.146" height="3.784" transform="translate(18.44)" fill="#fff"/>
          <rect id="Rectángulo_344239" data-name="Rectángulo 344239" width="2.146" height="3.784" transform="translate(0 8.656)" fill="#fff"/>
          <rect id="Rectángulo_344240" data-name="Rectángulo 344240" width="2.146" height="3.784" transform="translate(6.147 8.656)" fill="#fff"/>
          <rect id="Rectángulo_344241" data-name="Rectángulo 344241" width="2.146" height="3.784" transform="translate(12.294 8.656)" fill="#fff"/>
          <rect id="Rectángulo_344242" data-name="Rectángulo 344242" width="2.146" height="3.784" transform="translate(18.44 8.656)" fill="#fff"/>
          <rect id="Rectángulo_344243" data-name="Rectángulo 344243" width="2.146" height="3.784" transform="translate(0 17.313)" fill="#fff"/>
          <rect id="Rectángulo_344244" data-name="Rectángulo 344244" width="2.146" height="3.784" transform="translate(6.147 17.313)" fill="#fff"/>
          <rect id="Rectángulo_344245" data-name="Rectángulo 344245" width="2.146" height="3.784" transform="translate(12.294 17.313)" fill="#fff"/>
          <rect id="Rectángulo_344246" data-name="Rectángulo 344246" width="2.146" height="3.784" transform="translate(18.44 17.313)" fill="#fff"/>
          <rect id="Rectángulo_344247" data-name="Rectángulo 344247" width="2.146" height="3.784" transform="translate(0 25.969)" fill="#fff"/>
          <rect id="Rectángulo_344248" data-name="Rectángulo 344248" width="2.146" height="3.784" transform="translate(6.147 25.969)" fill="#fff"/>
          <rect id="Rectángulo_344249" data-name="Rectángulo 344249" width="2.146" height="3.784" transform="translate(12.294 25.969)" fill="#fff"/>
          <rect id="Rectángulo_344250" data-name="Rectángulo 344250" width="2.146" height="3.784" transform="translate(18.44 25.969)" fill="#fff"/>
          <rect id="Rectángulo_344251" data-name="Rectángulo 344251" width="2.146" height="3.784" transform="translate(0 34.625)" fill="#fff"/>
          <rect id="Rectángulo_344252" data-name="Rectángulo 344252" width="2.146" height="3.784" transform="translate(6.147 34.625)" fill="#fff"/>
          <rect id="Rectángulo_344253" data-name="Rectángulo 344253" width="2.146" height="3.784" transform="translate(12.294 34.625)" fill="#fff"/>
          <rect id="Rectángulo_344254" data-name="Rectángulo 344254" width="2.146" height="3.784" transform="translate(18.44 34.625)" fill="#fff"/>
        </g>
      </g>
      <g id="Grupo_989897" data-name="Grupo 989897" transform="translate(0 59.855)">
        <rect id="Rectángulo_344255" data-name="Rectángulo 344255" width="33.839" height="59.674" fill="#e6d0be"/>
        <g id="Grupo_989896" data-name="Grupo 989896" transform="translate(3.915 5.444)">
          <rect id="Rectángulo_344256" data-name="Rectángulo 344256" width="2.687" height="4.738" fill="#fff"/>
          <rect id="Rectángulo_344257" data-name="Rectángulo 344257" width="2.687" height="4.738" transform="translate(7.696)" fill="#fff"/>
          <rect id="Rectángulo_344258" data-name="Rectángulo 344258" width="2.687" height="4.738" transform="translate(15.392)" fill="#fff"/>
          <rect id="Rectángulo_344259" data-name="Rectángulo 344259" width="2.687" height="4.738" transform="translate(23.089)" fill="#fff"/>
          <rect id="Rectángulo_344260" data-name="Rectángulo 344260" width="2.687" height="4.738" transform="translate(0 10.838)" fill="#fff"/>
          <rect id="Rectángulo_344261" data-name="Rectángulo 344261" width="2.687" height="4.738" transform="translate(7.696 10.838)" fill="#fff"/>
          <rect id="Rectángulo_344262" data-name="Rectángulo 344262" width="2.687" height="4.738" transform="translate(15.392 10.838)" fill="#fff"/>
          <rect id="Rectángulo_344263" data-name="Rectángulo 344263" width="2.687" height="4.738" transform="translate(23.089 10.838)" fill="#fff"/>
          <rect id="Rectángulo_344264" data-name="Rectángulo 344264" width="2.687" height="4.738" transform="translate(0 21.677)" fill="#fff"/>
          <rect id="Rectángulo_344265" data-name="Rectángulo 344265" width="2.687" height="4.738" transform="translate(7.696 21.677)" fill="#fff"/>
          <rect id="Rectángulo_344266" data-name="Rectángulo 344266" width="2.687" height="4.738" transform="translate(15.392 21.677)" fill="#fff"/>
          <rect id="Rectángulo_344267" data-name="Rectángulo 344267" width="2.687" height="4.738" transform="translate(23.089 21.677)" fill="#fff"/>
          <rect id="Rectángulo_344268" data-name="Rectángulo 344268" width="2.687" height="4.738" transform="translate(0 32.515)" fill="#fff"/>
          <rect id="Rectángulo_344269" data-name="Rectángulo 344269" width="2.687" height="4.738" transform="translate(7.696 32.515)" fill="#fff"/>
          <rect id="Rectángulo_344270" data-name="Rectángulo 344270" width="2.687" height="4.738" transform="translate(15.392 32.515)" fill="#fff"/>
          <rect id="Rectángulo_344271" data-name="Rectángulo 344271" width="2.687" height="4.738" transform="translate(23.089 32.515)" fill="#fff"/>
          <rect id="Rectángulo_344272" data-name="Rectángulo 344272" width="2.687" height="4.738" transform="translate(0 43.353)" fill="#fff"/>
          <rect id="Rectángulo_344273" data-name="Rectángulo 344273" width="2.687" height="4.738" transform="translate(7.696 43.353)" fill="#fff"/>
          <rect id="Rectángulo_344274" data-name="Rectángulo 344274" width="2.687" height="4.738" transform="translate(15.392 43.353)" fill="#fff"/>
          <rect id="Rectángulo_344275" data-name="Rectángulo 344275" width="2.687" height="4.738" transform="translate(23.089 43.353)" fill="#fff"/>
        </g>
      </g>
      <g id="Grupo_989899" data-name="Grupo 989899" transform="translate(59.212 26.188)">
        <rect id="Rectángulo_344276" data-name="Rectángulo 344276" width="33.839" height="59.674" fill="#e6d0be"/>
        <g id="Grupo_989898" data-name="Grupo 989898" transform="translate(3.915 5.444)">
          <rect id="Rectángulo_344277" data-name="Rectángulo 344277" width="2.687" height="4.738" fill="#fff"/>
          <rect id="Rectángulo_344278" data-name="Rectángulo 344278" width="2.687" height="4.738" transform="translate(7.696)" fill="#fff"/>
          <rect id="Rectángulo_344279" data-name="Rectángulo 344279" width="2.687" height="4.738" transform="translate(15.392)" fill="#fff"/>
          <rect id="Rectángulo_344280" data-name="Rectángulo 344280" width="2.687" height="4.738" transform="translate(23.089)" fill="#fff"/>
          <rect id="Rectángulo_344281" data-name="Rectángulo 344281" width="2.687" height="4.738" transform="translate(0 10.838)" fill="#fff"/>
          <rect id="Rectángulo_344282" data-name="Rectángulo 344282" width="2.687" height="4.738" transform="translate(7.696 10.838)" fill="#fff"/>
          <rect id="Rectángulo_344283" data-name="Rectángulo 344283" width="2.687" height="4.738" transform="translate(15.392 10.838)" fill="#fff"/>
          <rect id="Rectángulo_344284" data-name="Rectángulo 344284" width="2.687" height="4.738" transform="translate(23.089 10.838)" fill="#fff"/>
          <rect id="Rectángulo_344285" data-name="Rectángulo 344285" width="2.687" height="4.738" transform="translate(0 21.677)" fill="#fff"/>
          <rect id="Rectángulo_344286" data-name="Rectángulo 344286" width="2.687" height="4.738" transform="translate(7.696 21.677)" fill="#fff"/>
          <rect id="Rectángulo_344287" data-name="Rectángulo 344287" width="2.687" height="4.738" transform="translate(15.392 21.677)" fill="#fff"/>
          <rect id="Rectángulo_344288" data-name="Rectángulo 344288" width="2.687" height="4.738" transform="translate(23.089 21.677)" fill="#fff"/>
          <rect id="Rectángulo_344289" data-name="Rectángulo 344289" width="2.687" height="4.738" transform="translate(0 43.353)" fill="#fff"/>
          <rect id="Rectángulo_344290" data-name="Rectángulo 344290" width="2.687" height="4.738" transform="translate(7.696 43.353)" fill="#fff"/>
          <rect id="Rectángulo_344291" data-name="Rectángulo 344291" width="2.687" height="4.738" transform="translate(15.392 43.353)" fill="#fff"/>
          <rect id="Rectángulo_344292" data-name="Rectángulo 344292" width="2.687" height="4.738" transform="translate(23.089 43.353)" fill="#fff"/>
        </g>
      </g>
    </g>
    <g id="Grupo_989910" data-name="Grupo 989910" transform="translate(366.185 339.579)">
      <g id="Grupo_989901" data-name="Grupo 989901" transform="translate(51.037 116.035)">
        <path id="Trazado_625279" data-name="Trazado 625279" d="M991.828,1287.746a368.735,368.735,0,0,1-10.023-85.228l-.061-.516H923.929c0,.035,0,.069,0,.1a368.745,368.745,0,0,1-10.025,85.64Z" transform="translate(-913.904 -1199.44)" fill="#e0aa63"/>
        <rect id="Rectángulo_344293" data-name="Rectángulo 344293" width="60.064" height="2.562" transform="translate(8.93)" fill="#efbc73"/>
      </g>
      <g id="Grupo_989902" data-name="Grupo 989902" transform="translate(91.758 95.414)">
        <path id="Trazado_625280" data-name="Trazado 625280" d="M1296.65,1166.838a454.828,454.828,0,0,1-12.364-105.13l-.075-.636H1212.9c0,.042,0,.085,0,.128a454.856,454.856,0,0,1-12.366,105.638Z" transform="translate(-1200.53 -1057.911)" fill="#ffd092"/>
        <path id="Trazado_625281" data-name="Trazado 625281" d="M1689.3,1166.837h22.283a454.848,454.848,0,0,1-12.364-105.13l-.075-.636h-13.962A524.955,524.955,0,0,0,1689.3,1166.837Z" transform="translate(-1615.46 -1057.911)" fill="#e0aa63"/>
        <rect id="Rectángulo_344294" data-name="Rectángulo 344294" width="74.089" height="3.161" transform="translate(11.015)" fill="#e0aa63"/>
      </g>
      <g id="Grupo_989903" data-name="Grupo 989903" transform="translate(181.34 45.233)">
        <path id="Trazado_625282" data-name="Trazado 625282" d="M1858.178,853.013h-17.286l3.133-157.572h11.021Z" transform="translate(-1839.495 -694.044)" fill="#fff"/>
        <path id="Trazado_625283" data-name="Trazado 625283" d="M1908.044,853.011h7.746l-3.132-157.572h-4.614Z" transform="translate(-1897.108 -694.043)" fill="#f7f1eb"/>
        <path id="Trazado_625284" data-name="Trazado 625284" d="M1873.011,704.927l-.188-9.488H1861.8l-.189,9.488Z" transform="translate(-1857.272 -694.043)" fill="#d87355"/>
        <path id="Trazado_625285" data-name="Trazado 625285" d="M1858.982,837.216h12.146l-.189-9.488h-11.769Z" transform="translate(-1855.016 -807.538)" fill="#d87355"/>
        <path id="Trazado_625286" data-name="Trazado 625286" d="M1856.352,969.505h12.893l-.189-9.488h-12.516Z" transform="translate(-1852.76 -921.033)" fill="#d87355"/>
        <path id="Trazado_625287" data-name="Trazado 625287" d="M1853.722,1101.795h13.641l-.189-9.488h-13.263Z" transform="translate(-1850.503 -1034.527)" fill="#d87355"/>
        <path id="Trazado_625288" data-name="Trazado 625288" d="M1848.494,843.471h-17.286a.143.143,0,0,1-.142-.145l3.133-157.572a.142.142,0,0,1,.142-.139h11.021a.142.142,0,0,1,.142.139l3.132,157.572a.142.142,0,0,1-.142.145Zm-17.141-.284h17L1845.223,685.9H1834.48Z" transform="translate(-1831.066 -685.615)" fill="#84524d"/>
      </g>
      <g id="Grupo_989904" data-name="Grupo 989904" transform="translate(209.218 45.233)">
        <path id="Trazado_625289" data-name="Trazado 625289" d="M2056.612,853.013h-17.286l3.133-157.572h11.021Z" transform="translate(-2037.616 -694.044)" fill="#fff"/>
        <path id="Trazado_625290" data-name="Trazado 625290" d="M2106.478,853.011h7.746l-3.133-157.572h-4.614Z" transform="translate(-2095.228 -694.043)" fill="#f7f1eb"/>
        <path id="Trazado_625291" data-name="Trazado 625291" d="M2071.444,704.927l-.188-9.488h-11.022l-.189,9.488Z" transform="translate(-2055.393 -694.043)" fill="#d87355"/>
        <path id="Trazado_625292" data-name="Trazado 625292" d="M2057.416,837.216h12.146l-.189-9.488H2057.6Z" transform="translate(-2053.136 -807.538)" fill="#d87355"/>
        <path id="Trazado_625293" data-name="Trazado 625293" d="M2054.786,969.505h12.893l-.189-9.488h-12.516Z" transform="translate(-2050.88 -921.033)" fill="#d87355"/>
        <path id="Trazado_625294" data-name="Trazado 625294" d="M2052.156,1101.795H2065.8l-.188-9.488h-13.263Z" transform="translate(-2048.624 -1034.527)" fill="#d87355"/>
        <path id="Trazado_625295" data-name="Trazado 625295" d="M2044.723,843.471h-17.286a.142.142,0,0,1-.142-.145l3.132-157.572a.142.142,0,0,1,.142-.139h11.021a.142.142,0,0,1,.142.139l3.132,157.572a.142.142,0,0,1-.142.145Zm-17.141-.284h17L2041.451,685.9h-10.743Z" transform="translate(-2027.294 -685.615)" fill="#84524d"/>
      </g>
      <g id="Grupo_989905" data-name="Grupo 989905" transform="translate(171.756 173.137)">
        <rect id="Rectángulo_344295" data-name="Rectángulo 344295" width="40.076" height="31.285" transform="translate(16.881)" fill="#e0aa63"/>
        <rect id="Rectángulo_344296" data-name="Rectángulo 344296" width="40.076" height="31.285" fill="#efbc73"/>
      </g>
      <g id="Grupo_989906" data-name="Grupo 989906" transform="translate(20.652 137.292)">
        <path id="Trazado_625296" data-name="Trazado 625296" d="M759.474,1412.754a281.283,281.283,0,0,1-7.646-65.014l-.047-.393h-44.1c0,.026,0,.053,0,.079a281.294,281.294,0,0,1-7.648,65.329Z" transform="translate(-700.031 -1345.391)" fill="#efbc73"/>
        <rect id="Rectángulo_344297" data-name="Rectángulo 344297" width="45.818" height="1.955" transform="translate(6.812)" fill="#ffd092"/>
      </g>
      <path id="Trazado_625297" data-name="Trazado 625297" d="M562.665,590.266a10.616,10.616,0,0,1,3.868-.152,12.5,12.5,0,0,1,9.238-8.259,12.729,12.729,0,0,1,8.982,1.243,13.846,13.846,0,0,1,8.37-5.58,13.656,13.656,0,0,1,12.411,3.279,14.1,14.1,0,0,1,21.691-3.543,19.806,19.806,0,0,1,5.356-2.053c8.719-1.964,17.306,2.14,20.9,9.419,8-.508,15.311,4.506,17.032,12.146,1.92,8.523-3.843,17.081-12.872,19.115-.294.066-.587.124-.88.175-1.9,9.815-5.343,20.309-8.475,29.08l-.321-.018c-.279-9.338-3.112-20.971-7.332-23.285a13.911,13.911,0,0,1-5.615,2.676c-7.088,1.6-14.036-2.445-15.519-9.026v-.006a11.99,11.99,0,0,1-5.835,3.232c-4.888,1.1-9.841-1.027-13.111-5.092A15.327,15.327,0,0,1,593.837,617a14.694,14.694,0,0,1-15.588-6,8.307,8.307,0,0,1-4.853,3.118,7.9,7.9,0,0,1-9.348-4.961,9.653,9.653,0,0,1-9.156-7.347C553.731,596.664,557.212,591.495,562.665,590.266Z" transform="translate(-554.668 -544.309)" fill="#e6d0be"/>
      <g id="Grupo_989907" data-name="Grupo 989907" transform="translate(149.297 4.36)">
        <ellipse id="Elipse_5001" data-name="Elipse 5001" cx="8.702" cy="7.208" rx="8.702" ry="7.208" transform="translate(26.128 5.477)" fill="#40484c"/>
        <circle id="Elipse_5002" data-name="Elipse 5002" cx="8.79" cy="8.79" r="8.79" transform="translate(19.448 10.048)" fill="#40484c"/>
        <circle id="Elipse_5003" data-name="Elipse 5003" cx="8.79" cy="8.79" r="8.79" transform="translate(6.439 6.707)" fill="#40484c"/>
        <circle id="Elipse_5004" data-name="Elipse 5004" cx="6.592" cy="6.592" r="6.592" transform="translate(0 5.3)" fill="#40484c"/>
        <circle id="Elipse_5005" data-name="Elipse 5005" cx="6.856" cy="6.856" r="6.856" transform="translate(18.79 3.851) rotate(-9.217)" fill="#40484c"/>
        <circle id="Elipse_5006" data-name="Elipse 5006" cx="6.856" cy="6.856" r="6.856" transform="translate(3.992 9.696) rotate(-45)" fill="#40484c"/>
        <path id="Trazado_625298" data-name="Trazado 625298" d="M1855.982,472.353c1.888,3.893.615,32.083.615,32.083-.933-11.406-3.368-19.141-5.784-18.237Z" transform="translate(-1815.965 -461.778)" fill="#40484c"/>
      </g>
      <g id="Grupo_989908" data-name="Grupo 989908" transform="translate(174.678 0)">
        <ellipse id="Elipse_5007" data-name="Elipse 5007" cx="8.702" cy="7.208" rx="8.702" ry="7.208" transform="translate(29.182 5.496)" fill="#363e44"/>
        <circle id="Elipse_5008" data-name="Elipse 5008" cx="8.79" cy="8.79" r="8.79" transform="translate(22.502 10.067)" fill="#363e44"/>
        <circle id="Elipse_5009" data-name="Elipse 5009" cx="8.79" cy="8.79" r="8.79" transform="translate(9.493 6.727)" fill="#363e44"/>
        <circle id="Elipse_5010" data-name="Elipse 5010" cx="6.592" cy="6.592" r="6.592" transform="translate(0 6.024)" fill="#363e44"/>
        <circle id="Elipse_5011" data-name="Elipse 5011" cx="6.856" cy="6.856" r="6.856" transform="translate(18.996 9.696) rotate(-45)" fill="#363e44"/>
        <circle id="Elipse_5012" data-name="Elipse 5012" cx="6.856" cy="6.856" r="6.856" transform="translate(6.688 13.426) rotate(-67.5)" fill="#363e44"/>
        <path id="Trazado_625299" data-name="Trazado 625299" d="M2059.2,443.588c1.888,3.893-2.509,31.829-2.509,31.829-.933-11.406-3.294-18.042-5.792-20.552Z" transform="translate(-2013.007 -432.74)" fill="#363e44"/>
      </g>
      <g id="Grupo_989909" data-name="Grupo 989909" transform="translate(43.543 19.166)">
        <ellipse id="Elipse_5013" data-name="Elipse 5013" cx="18.795" cy="17.741" rx="18.795" ry="17.741" transform="matrix(0.976, -0.22, 0.22, 0.976, 61.455, 8.338)" fill="#40484c"/>
        <ellipse id="Elipse_5014" data-name="Elipse 5014" cx="16.758" cy="15.819" rx="16.758" ry="15.819" transform="translate(81.549 17.707) rotate(-12.696)" fill="#40484c"/>
        <ellipse id="Elipse_5015" data-name="Elipse 5015" cx="13.469" cy="12.714" rx="13.469" ry="12.714" transform="translate(27.192 9.486) rotate(-12.696)" fill="#40484c"/>
        <ellipse id="Elipse_5016" data-name="Elipse 5016" cx="14.722" cy="13.897" rx="14.722" ry="13.897" transform="translate(20.575 22.132) rotate(-12.695)" fill="#40484c"/>
        <ellipse id="Elipse_5017" data-name="Elipse 5017" cx="12.373" cy="11.679" rx="12.373" ry="11.679" transform="translate(10.91 13.581) rotate(-12.696)" fill="#40484c"/>
        <ellipse id="Elipse_5018" data-name="Elipse 5018" cx="10.121" cy="9.554" rx="10.121" ry="9.554" transform="translate(0 21.498) rotate(-12.696)" fill="#40484c"/>
        <ellipse id="Elipse_5019" data-name="Elipse 5019" cx="8.066" cy="7.614" rx="8.066" ry="7.614" transform="translate(9.389 30.044) rotate(-12.696)" fill="#40484c"/>
        <ellipse id="Elipse_5020" data-name="Elipse 5020" cx="13.391" cy="15.393" rx="13.391" ry="15.393" transform="translate(41.042 20.624) rotate(-12.696)" fill="#40484c"/>
        <ellipse id="Elipse_5021" data-name="Elipse 5021" cx="13.626" cy="12.862" rx="13.626" ry="12.862" transform="translate(48.64 5.989) rotate(-12.696)" fill="#40484c"/>
        <ellipse id="Elipse_5022" data-name="Elipse 5022" cx="13.156" cy="12.216" rx="13.156" ry="12.216" transform="matrix(0.976, -0.22, 0.22, 0.976, 64.023, 32.572)" fill="#40484c"/>
        <path id="Trazado_625300" data-name="Trazado 625300" d="M1482.194,678.426c1.2,12.221-2.885,33.159-7.041,48.729h0c-.329-11.006-7-24.855-12.521-23.218Z" transform="translate(-1377.18 -653.38)" fill="#40484c"/>
      </g>
    </g>
    <g id="Grupo_989914" data-name="Grupo 989914" transform="translate(508.722 523.061)">
      <rect id="Rectángulo_344298" data-name="Rectángulo 344298" width="3.781" height="1.28" transform="translate(7.123 26.597)" fill="#363e44"/>
      <path id="Trazado_625301" data-name="Trazado 625301" d="M1693.864,1724.142H1628.93a3.516,3.516,0,0,1-3.516-3.516v-2.48h0a5.663,5.663,0,0,0,1.408-3.737v-1.85a2.208,2.208,0,0,1,2.208-2.208h3.3a36.134,36.134,0,0,1,24.682-9.83l4.021-.01a15.969,15.969,0,0,1,10.12,3.583l6.684,5.44a4.718,4.718,0,0,0,2.287,1.008l9.353,1.5a9.457,9.457,0,0,1,7.879,8.134h0A3.516,3.516,0,0,1,1693.864,1724.142Z" transform="translate(-1615.829 -1694.571)" fill="#d87355"/>
      <g id="Grupo_989911" data-name="Grupo 989911" transform="translate(62.005 22.566)">
        <circle id="Elipse_5023" data-name="Elipse 5023" cx="5.777" cy="5.777" r="5.777" fill="#363e44"/>
        <circle id="Elipse_5024" data-name="Elipse 5024" cx="4.085" cy="4.085" r="4.085" transform="translate(1.692 1.692)" fill="#d3bba3"/>
      </g>
      <g id="Grupo_989912" data-name="Grupo 989912" transform="translate(18.359 22.566)">
        <circle id="Elipse_5025" data-name="Elipse 5025" cx="5.777" cy="5.777" r="5.777" fill="#363e44"/>
        <circle id="Elipse_5026" data-name="Elipse 5026" cx="4.085" cy="4.085" r="4.085" transform="translate(1.692 1.692)" fill="#d3bba3"/>
      </g>
      <path id="Trazado_625302" data-name="Trazado 625302" d="M1714.591,1720.253h37.053l-9.895-7.485a4.416,4.416,0,0,0-2.293-.879h0a43.389,43.389,0,0,0-26.272,6.184Z" transform="translate(-1691.129 -1704.2)" fill="#40484c"/>
      <path id="Trazado_625303" data-name="Trazado 625303" d="M2075.772,1795.509c-.262.694-2.209.6-4.35-.2s-3.664-2.023-3.4-2.717,2.209-.6,4.35.2S2076.034,1794.815,2075.772,1795.509Z" transform="translate(-1995.528 -1773.168)" fill="#fff"/>
      <path id="Trazado_625304" data-name="Trazado 625304" d="M1637.58,1790.034h-3.009l.126-2.63h4.048Z" transform="translate(-1623.685 -1769.12)" fill="#fff"/>
      <path id="Trazado_625305" data-name="Trazado 625305" d="M1768.907,1738.065h-26.558a.142.142,0,0,1-.115-.059l-8.119-11.328a.142.142,0,0,1-.012-.146l1.651-3.3a.142.142,0,0,1,.254.127l-1.613,3.226,8.026,11.2h26.388l2.226-5.771a7.087,7.087,0,0,0-2.955-8.631l-8.717-5.109a.142.142,0,0,1,.144-.245l8.718,5.111a7.372,7.372,0,0,1,3.075,8.977l-2.261,5.862A.142.142,0,0,1,1768.907,1738.065Z" transform="translate(-1709.063 -1709.58)" fill="#e6d0be"/>
      <path id="Trazado_625306" data-name="Trazado 625306" d="M1855.152,1780.4a.142.142,0,0,1-.141-.122l-1.787-12.8a.142.142,0,1,1,.282-.039l1.786,12.8a.142.142,0,0,1-.121.16Z" transform="translate(-1811.273 -1751.886)" fill="#e6d0be"/>
      <ellipse id="Elipse_5027" data-name="Elipse 5027" cx="2.569" cy="0.371" rx="2.569" ry="0.371" transform="translate(27.647 17.713)" fill="#ffd092"/>
      <ellipse id="Elipse_5028" data-name="Elipse 5028" cx="2.569" cy="0.371" rx="2.569" ry="0.371" transform="translate(44.542 17.713)" fill="#ffd092"/>
      <path id="Trazado_625307" data-name="Trazado 625307" d="M1634.094,1826.388h-3.487a4.313,4.313,0,0,1,3.486-2.6h0a1.3,1.3,0,0,1,1.3,1.3h0A1.3,1.3,0,0,1,1634.094,1826.388Z" transform="translate(-1620.284 -1800.337)" fill="#ffd092"/>
      <path id="Trazado_625308" data-name="Trazado 625308" d="M2108.429,1835.461H2107.1a.6.6,0,0,1-.595-.665l.148-1.333a.6.6,0,0,1,.595-.532h1.326a.6.6,0,0,1,.595.665l-.148,1.333A.6.6,0,0,1,2108.429,1835.461Z" transform="translate(-2028.57 -1808.178)" fill="#ffd092"/>
      <g id="Grupo_989913" data-name="Grupo 989913">
        <path id="Trazado_625309" data-name="Trazado 625309" d="M1562.853,1685.462a.142.142,0,0,1-.054-.011,7.588,7.588,0,0,1-3.606-2.873c-2.016-3.149-1.531-7.775,1.06-10.1a7.911,7.911,0,0,1,4.52-1.811,6.669,6.669,0,0,1,2.149.162,6.2,6.2,0,0,0,2.078.151,6.269,6.269,0,0,0,4.444-1.983c1.653-2.066,1.406-6.26-1.389-8.573a6.885,6.885,0,0,0-7.2-.76.142.142,0,0,1-.121-.257,7.174,7.174,0,0,1,7.5.8c2.916,2.413,3.163,6.8,1.43,8.969a7.446,7.446,0,0,1-6.8,1.933,6.342,6.342,0,0,0-2.068-.158,7.627,7.627,0,0,0-4.355,1.739c-2.493,2.239-2.956,6.7-1.011,9.738a7.312,7.312,0,0,0,3.476,2.764.142.142,0,0,1-.054.273Z" transform="translate(-1557.947 -1658.706)" fill="#363e44"/>
        <path id="Trazado_625310" data-name="Trazado 625310" d="M1575.518,1766.4a.142.142,0,0,1-.073-.02,6.055,6.055,0,0,1,3.209-11.384.142.142,0,0,1,.139.145.148.148,0,0,1-.145.139,5.772,5.772,0,0,0-3.056,10.856.142.142,0,0,1-.073.264Z" transform="translate(-1570.246 -1741.314)" fill="#363e44"/>
        <path id="Trazado_625311" data-name="Trazado 625311" d="M1585.835,1780.059a.141.141,0,0,1-.047-.008,5.254,5.254,0,0,1-3.055-2.743,4.358,4.358,0,0,1-.163-3.395,4.1,4.1,0,0,1,1.278-1.689.142.142,0,1,1,.176.223,3.82,3.82,0,0,0-1.19,1.571,4.072,4.072,0,0,0,.157,3.172,4.969,4.969,0,0,0,2.89,2.593.142.142,0,0,1-.047.276Z" transform="translate(-1578.841 -1756.069)" fill="#363e44"/>
      </g>
    </g>
    <g id="Grupo_989918" data-name="Grupo 989918" transform="translate(339.814 419.021)">
      <path id="Trazado_625312" data-name="Trazado 625312" d="M525.214,1100.626a32,32,0,0,1-5.1-.464c-4.63-.728-11.531-3.11-18.115-10.323-15.755-17.258-9.709-52.393-5.294-78.048q.16-.933.345-1.978l.017-.1c1.814-10.333,4.85-27.627,2.847-49.5-.554-6.049-1.262-9.845-3.6-13.8-4.768-8.085-15.026-14.557-26.132-16.491-9.057-1.577-17.106.1-22.663,4.714-2.763,2.3-7.579,7.763-8.788,18.589a1.47,1.47,0,0,1-2.921-.326c1.323-11.851,6.727-17.945,9.831-20.524,6.231-5.176,15.125-7.076,25.045-5.349,11.918,2.075,22.972,9.1,28.16,17.893,2.6,4.411,3.41,8.684,3.991,15.026,2.039,22.263-1.039,39.8-2.878,50.278q-.193,1.1-.361,2.069c-2.091,12.154-4.694,27.28-4.837,41.181-.164,16.027,2.912,27.275,9.4,34.388,6.01,6.583,12.236,8.746,16.4,9.4,2.721.428,9.091,1.429,13.385-2.48,4.438-4.04,3.912-10.828,3.887-11.115-.463-5.409-3.969-8.446-8.029-11.963-3.8-3.288-8.1-7.013-10.29-13.279-2.117-6.044-1.732-13.078,1.145-20.906a1.47,1.47,0,0,1,2.759,1.014c-2.636,7.172-3.016,13.537-1.13,18.921,1.936,5.528,5.751,8.833,9.44,12.028,4.355,3.773,8.469,7.336,9.033,13.935.074.868.567,8.62-4.837,13.539C533.26,1099.39,529.652,1100.626,525.214,1100.626ZM463.728,929.057a38,38,0,0,1,6.511.582c11.185,1.947,21.519,8.473,26.328,16.626,2.361,4,3.076,7.828,3.634,13.919,2.006,21.915-1.034,39.232-2.85,49.579l-.017.1q-.183,1.044-.345,1.977c-4.4,25.6-10.437,60.653,5.224,77.808,6.529,7.152,13.365,9.513,17.95,10.234a31.723,31.723,0,0,0,5.053.461c4.365,0,7.908-1.211,10.532-3.6,5.3-4.827,4.818-12.451,4.745-13.3-.555-6.484-4.626-10.01-8.936-13.744-3.717-3.22-7.561-6.55-9.522-12.149-1.908-5.447-1.527-11.877,1.132-19.112a1.185,1.185,0,1,0-2.225-.818c-2.854,7.765-3.239,14.734-1.144,20.714,2.17,6.194,6.44,9.893,10.207,13.157,4.107,3.558,7.654,6.63,8.126,12.155.025.293.562,7.216-3.979,11.35-4.395,4-10.86,2.984-13.621,2.55-4.21-.662-10.5-2.845-16.567-9.49-6.543-7.168-9.644-18.48-9.479-34.582.143-13.924,2.748-29.062,4.841-41.226q.168-.973.361-2.068c1.837-10.466,4.911-27.98,2.876-50.205-.577-6.3-1.378-10.542-3.952-14.908-5.147-8.726-16.124-15.7-27.964-17.758-9.836-1.712-18.649.166-24.814,5.288-3.071,2.551-8.417,8.585-9.73,20.336a1.186,1.186,0,0,0,2.356.263c1.22-10.925,6.093-16.453,8.889-18.776C451.591,930.888,457.267,929.057,463.728,929.057Z" transform="translate(-426.324 -926.402)" fill="#363e44"/>
      <rect id="Rectángulo_344299" data-name="Rectángulo 344299" width="58.791" height="133.134" transform="translate(3.558 42.209)" fill="#d87355"/>
      <g id="Grupo_989915" data-name="Grupo 989915" transform="translate(9.104 122.1)">
        <path id="Trazado_625313" data-name="Trazado 625313" d="M446.893,1793.318H435.4a.142.142,0,0,1-.142-.142v-7.207a.142.142,0,0,1,.142-.142h11.494a.142.142,0,0,1,.142.142v7.207A.142.142,0,0,1,446.893,1793.318Zm-11.352-.284h11.21v-6.923h-11.21Z" transform="translate(-434.954 -1785.827)" fill="#84524d"/>
        <path id="Trazado_625314" data-name="Trazado 625314" d="M446.893,1877.417H435.4a.142.142,0,0,1-.142-.142v-7.207a.142.142,0,0,1,.142-.142h11.494a.142.142,0,0,1,.142.142v7.207A.142.142,0,0,1,446.893,1877.417Zm-11.352-.284h11.21v-6.922h-11.21Z" transform="translate(-434.954 -1857.978)" fill="#84524d"/>
        <path id="Trazado_625315" data-name="Trazado 625315" d="M444.764,1960.182H433.27a.142.142,0,0,1-.142-.142v-7.207a.142.142,0,0,1,.142-.142h11.494a.142.142,0,0,1,.142.142v7.207A.142.142,0,0,1,444.764,1960.182Zm-11.352-.284h11.21v-6.922h-11.21Z" transform="translate(-433.128 -1928.984)" fill="#84524d"/>
        <path id="Trazado_625316" data-name="Trazado 625316" d="M690.733,1795.1H679.239a.142.142,0,0,1-.142-.142v-7.207a.142.142,0,0,1,.142-.142h11.494a.142.142,0,0,1,.142.142v7.207A.142.142,0,0,1,690.733,1795.1Zm-11.352-.284h11.21v-6.922h-11.21Z" transform="translate(-644.152 -1787.352)" fill="#84524d"/>
        <path id="Trazado_625317" data-name="Trazado 625317" d="M690.733,1879.2H679.239a.142.142,0,0,1-.142-.142v-7.207a.142.142,0,0,1,.142-.142h11.494a.142.142,0,0,1,.142.142v7.207A.142.142,0,0,1,690.733,1879.2Zm-11.352-.284h11.21v-6.922h-11.21Z" transform="translate(-644.152 -1859.504)" fill="#84524d"/>
        <path id="Trazado_625318" data-name="Trazado 625318" d="M688.6,1961.96H677.11a.142.142,0,0,1-.142-.142v-7.207a.142.142,0,0,1,.142-.142H688.6a.142.142,0,0,1,.142.142v7.207A.142.142,0,0,1,688.6,1961.96Zm-11.352-.284h11.21v-6.922h-11.21Z" transform="translate(-642.325 -1930.51)" fill="#84524d"/>
        <path id="Trazado_625319" data-name="Trazado 625319" d="M568.918,1793.977H557.424a.142.142,0,0,1-.142-.142v-7.206a.142.142,0,0,1,.142-.142h11.494a.142.142,0,0,1,.142.142v7.206A.142.142,0,0,1,568.918,1793.977Zm-11.352-.284h11.21v-6.922h-11.21Z" transform="translate(-539.643 -1786.392)" fill="#84524d"/>
        <path id="Trazado_625320" data-name="Trazado 625320" d="M568.918,1878.076H557.424a.142.142,0,0,1-.142-.142v-7.207a.142.142,0,0,1,.142-.142h11.494a.142.142,0,0,1,.142.142v7.207A.142.142,0,0,1,568.918,1878.076Zm-11.352-.284h11.21v-6.923h-11.21Z" transform="translate(-539.643 -1858.543)" fill="#84524d"/>
        <path id="Trazado_625321" data-name="Trazado 625321" d="M566.789,1960.841H555.3a.142.142,0,0,1-.142-.142v-7.207a.142.142,0,0,1,.142-.142h11.494a.142.142,0,0,1,.142.142v7.207A.142.142,0,0,1,566.789,1960.841Zm-11.352-.284h11.21v-6.923h-11.21Z" transform="translate(-537.817 -1929.55)" fill="#84524d"/>
      </g>
      <path id="Trazado_625322" data-name="Trazado 625322" d="M477.837,1318.862H430.614a.142.142,0,0,1-.142-.142V1244a.142.142,0,0,1,.142-.142h47.223a.142.142,0,0,1,.142.142v74.722A.142.142,0,0,1,477.837,1318.862Zm-47.081-.284h46.938V1244.14H430.756Z" transform="translate(-421.746 -1198.755)" fill="#f2e6dc"/>
      <path id="Trazado_625323" data-name="Trazado 625323" d="M716.265,2083.082a3.461,3.461,0,1,1,3.461-3.461A3.465,3.465,0,0,1,716.265,2083.082Zm0-6.638a3.177,3.177,0,1,0,3.177,3.177A3.18,3.18,0,0,0,716.265,2076.444Z" transform="translate(-663.966 -1912.812)" fill="#84524d"/>
      <path id="Trazado_625324" data-name="Trazado 625324" d="M431.4,1334.923H369.192a.142.142,0,0,1-.142-.142V1198.612a.142.142,0,0,1,.142-.142H431.4a.142.142,0,0,1,.142.142v136.168A.142.142,0,0,1,431.4,1334.923Zm-62.063-.284h61.921V1198.754H369.334Z" transform="translate(-369.05 -1159.817)" fill="#363e44"/>
      <rect id="Rectángulo_344300" data-name="Rectángulo 344300" width="5.5" height="56.136" transform="translate(91.556 2.319)" fill="#b77250"/>
      <rect id="Rectángulo_344301" data-name="Rectángulo 344301" width="6.069" height="23.517" transform="translate(90.987 106.31)" fill="#b77250"/>
      <path id="Trazado_625325" data-name="Trazado 625325" d="M1028.661,1003.513a.142.142,0,0,1-.142-.142v-16.6a.142.142,0,1,1,.284,0v16.6A.142.142,0,0,1,1028.661,1003.513Z" transform="translate(-934.827 -978.071)" fill="#fff"/>
      <g id="Grupo_989917" data-name="Grupo 989917" transform="translate(11.523 48.42)">
        <rect id="Rectángulo_344302" data-name="Rectángulo 344302" width="42.482" height="69.27" fill="#f2e6dc"/>
        <path id="Trazado_625326" data-name="Trazado 625326" d="M502.492,1318.036h0L465.321,1318a.142.142,0,0,1,0-.284h0l37.171.031a.142.142,0,0,1,0,.284Z" transform="translate(-463.045 -1310.545)" fill="#fff"/>
        <path id="Trazado_625327" data-name="Trazado 625327" d="M505.542,1734.869h0l-37.55-.38a.142.142,0,0,1-.141-.143.138.138,0,0,1,.143-.141l37.551.379a.142.142,0,0,1,0,.284Z" transform="translate(-465.335 -1667.86)" fill="#fff"/>
        <rect id="Rectángulo_344303" data-name="Rectángulo 344303" width="7.839" height="2.655" transform="translate(32.116 1.627)" fill="#f7f1eb"/>
        <g id="Grupo_989916" data-name="Grupo 989916" transform="translate(2.845 15.412)">
          <rect id="Rectángulo_344304" data-name="Rectángulo 344304" width="36.982" height="4.362" fill="#8b865c"/>
          <rect id="Rectángulo_344305" data-name="Rectángulo 344305" width="9.103" height="4.362" transform="translate(8.471)" fill="#efbc73"/>
          <rect id="Rectángulo_344306" data-name="Rectángulo 344306" width="9.672" height="4.362" transform="translate(17.574)" fill="#d87355"/>
          <rect id="Rectángulo_344307" data-name="Rectángulo 344307" width="9.988" height="4.362" transform="translate(26.994)" fill="#84524d"/>
        </g>
        <rect id="Rectángulo_344308" data-name="Rectángulo 344308" width="10.747" height="3.287" transform="translate(3.288 23.504)" fill="#e6d0be"/>
        <rect id="Rectángulo_344309" data-name="Rectángulo 344309" width="10.747" height="3.287" transform="translate(3.272 29.778)" fill="#e6d0be"/>
        <rect id="Rectángulo_344310" data-name="Rectángulo 344310" width="10.747" height="3.287" transform="translate(3.288 36.021)" fill="#e6d0be"/>
        <rect id="Rectángulo_344311" data-name="Rectángulo 344311" width="10.747" height="3.287" transform="translate(3.272 42.39)" fill="#e6d0be"/>
        <rect id="Rectángulo_344312" data-name="Rectángulo 344312" width="6.759" height="2.655" transform="translate(2.656 61.968)" fill="#e6d0be"/>
        <rect id="Rectángulo_344313" data-name="Rectángulo 344313" width="6.759" height="2.655" transform="translate(18.795 61.968)" fill="#e6d0be"/>
        <rect id="Rectángulo_344314" data-name="Rectángulo 344314" width="6.759" height="2.655" transform="translate(33.541 61.968)" fill="#e6d0be"/>
      </g>
      <rect id="Rectángulo_344315" data-name="Rectángulo 344315" width="6.069" height="11.379" transform="translate(7.604 32.474)" fill="#d87355"/>
      <rect id="Rectángulo_344316" data-name="Rectángulo 344316" width="4.362" height="6.069" transform="translate(8.679 27.037)" fill="#b77250"/>
      <rect id="Rectángulo_344317" data-name="Rectángulo 344317" width="12.138" height="84.015" transform="translate(88.27 36.709)" fill="#d87355"/>
      <rect id="Rectángulo_344318" data-name="Rectángulo 344318" width="5.5" height="13.465" transform="translate(91.745 43.916)" fill="#f2e6dc"/>
    </g>
    <g id="Grupo_989934" data-name="Grupo 989934" transform="translate(440.9 450.125)">
      <g id="Grupo_989922" data-name="Grupo 989922" transform="translate(0 49.187)">
        <g id="Grupo_989919" data-name="Grupo 989919" transform="translate(0 67.898)">
          <path id="Trazado_625328" data-name="Trazado 625328" d="M1224.785,1969.467l-3.089,13.023-9.939,0,2.405-13.023Z" transform="translate(-1193.118 -1969.463)" fill="#84524d"/>
          <path id="Trazado_625329" data-name="Trazado 625329" d="M1109.141,2058.049l-1.1,14.721-27.481-.01c3.72-5.7,9.771-12.277,18.672-14.714Z" transform="translate(-1080.562 -2045.461)" fill="#d3bba3"/>
        </g>
        <g id="Grupo_989920" data-name="Grupo 989920" transform="translate(43.119 68.662)">
          <path id="Trazado_625330" data-name="Trazado 625330" d="M1449.531,1975.631l-2.743,12.376h-8.669v-13.167Z" transform="translate(-1430.439 -1974.841)" fill="#84524d"/>
          <path id="Trazado_625331" data-name="Trazado 625331" d="M1400.522,2063.941c0,.539,3.484,14.142,3.484,14.142h-19.945l7.846-14.142Z" transform="translate(-1384.061 -2051.282)" fill="#d3bba3"/>
        </g>
        <g id="Grupo_989921" data-name="Grupo 989921" transform="translate(19.915)">
          <path id="Trazado_625332" data-name="Trazado 625332" d="M1253.659,1493.724s2.714,17.548-18.855,70.137h-14.067s11.128-64.211,12.316-72.31Z" transform="translate(-1220.737 -1491.551)" fill="#363e44"/>
          <path id="Trazado_625333" data-name="Trazado 625333" d="M1411.77,1524.922s5.453,27.665-1.877,67.569h-13.076s-2.345-57.889-5.714-66.581Z" transform="translate(-1366.899 -1520.181)" fill="#363e44"/>
          <path id="Trazado_625334" data-name="Trazado 625334" d="M1380.9,1621.549a.142.142,0,0,1-.142-.135l-.609-11.957-4.214-1.447a.142.142,0,0,1,.093-.269l4.3,1.479a.142.142,0,0,1,.1.127l.614,12.053a.142.142,0,0,1-.135.149Z" transform="translate(-1353.806 -1591.227)" fill="#d3bba3"/>
        </g>
      </g>
      <g id="Grupo_989928" data-name="Grupo 989928" transform="translate(3.061 7.28)">
        <path id="Trazado_625335" data-name="Trazado 625335" d="M1515.393,1331.911l-.531.2-9.58-13.191,9.884-8.794,4.842,10.6A8.277,8.277,0,0,1,1515.393,1331.911Z" transform="translate(-1448.003 -1293.994)" fill="#84524d"/>
        <g id="Grupo_989924" data-name="Grupo 989924">
          <g id="Grupo_989923" data-name="Grupo 989923">
            <path id="Trazado_625336" data-name="Trazado 625336" d="M1129.737,1210.888s-5.12,4.7-7.939,1.656c-2.926-3.157-6.343-6.793-8.115-8.5-3.653-3.526-9.562-8.2-10.207-7.369-.368.474.306,1.278,2.25,3.307a1.343,1.343,0,0,0-1.083.627,1.1,1.1,0,0,0,.133,1.28,1.539,1.539,0,0,0-1.2.4,1.27,1.27,0,0,0-.07,1.476,1.578,1.578,0,0,0-1.211.5,1.323,1.323,0,0,0,.343,1.692c.783.734,2.973,2.686,4,3.865,1.276,1.467,6.28,7.566,9.788,11.854a9.2,9.2,0,0,0,9.111,3.151l4.046-.9Z" transform="translate(-1102.111 -1196.575)" fill="#84524d"/>
            <path id="Trazado_625337" data-name="Trazado 625337" d="M1141.226,1239.943a.142.142,0,0,1-.127-.078,5.472,5.472,0,0,1-.509-2.687c0-.775-.013-1.155-.43-1.316a2.8,2.8,0,0,1-1.252-1.181.6.6,0,0,1,.029-.684.6.6,0,0,1,.66-.215l3.164.953a.142.142,0,0,1-.082.272l-3.164-.953a.318.318,0,0,0-.352.115.31.31,0,0,0-.016.36,2.57,2.57,0,0,0,1.115,1.068c.618.239.615.832.611,1.582a5.233,5.233,0,0,0,.479,2.558.142.142,0,0,1-.127.206Z" transform="translate(-1133.599 -1228.473)" fill="#363e44"/>
            <path id="Trazado_625338" data-name="Trazado 625338" d="M1114.91,1228.819a.142.142,0,0,1-.1-.24,1.506,1.506,0,0,0,.014-2.052l-.447-.484a.142.142,0,0,1,.186-.213l1.059.746a.917.917,0,0,0,1.168-.093.909.909,0,0,0,0-1.305l-1.238-1.2a.142.142,0,0,1,.186-.214l.657.513a.708.708,0,0,0,.978-.109.7.7,0,0,0-.042-.932l-.846-.863a.142.142,0,0,1,.2-.2l.846.863a.981.981,0,0,1,.059,1.31.993.993,0,0,1-.886.353l.281.272a1.193,1.193,0,0,1,0,1.713,1.2,1.2,0,0,1-1.53.122l-.173-.122a1.793,1.793,0,0,1-.27,2.088A.141.141,0,0,1,1114.91,1228.819Z" transform="translate(-1112.599 -1218.502)" fill="#363e44"/>
          </g>
        </g>
        <path id="Trazado_625339" data-name="Trazado 625339" d="M1288.078,1273.816l9.732-4.094a61.183,61.183,0,0,0-4.5-9.631c-2.423-3.781-5.778-5.375-10.253-5.858-6.354-.685-17.82.265-26,2.905-10.34,3.336-10.8,3.639-10.8,3.639l5.322,14.1,3.5-.91-4.27,27.335,41.745,1.535S1289.294,1278.667,1288.078,1273.816Z" transform="translate(-1225.781 -1245.857)" fill="#8b865c"/>
        <g id="Grupo_989925" data-name="Grupo 989925" transform="translate(24.086 16.445)">
          <path id="Trazado_625340" data-name="Trazado 625340" d="M1279.364,1353.876h12.245l-6.439-18.027h-12.1a1.42,1.42,0,0,0-1.341,1.9l5.134,14.372A2.655,2.655,0,0,0,1279.364,1353.876Z" transform="translate(-1271.645 -1332.508)" fill="#f7f1eb"/>
          <path id="Trazado_625341" data-name="Trazado 625341" d="M1291.08,1332.186h8l-.734-2.222h-8.149Z" transform="translate(-1287.559 -1327.458)" fill="#8b865c"/>
          <path id="Trazado_625342" data-name="Trazado 625342" d="M1298.106,1331.811a.142.142,0,0,1-.136-.1l-.579-2.02h-8.1a.142.142,0,0,1,0-.284h8.319l.638,2.225a.142.142,0,0,1-.1.176A.137.137,0,0,1,1298.106,1331.811Z" transform="translate(-1286.658 -1326.978)" fill="#363e44"/>
          <path id="Trazado_625343" data-name="Trazado 625343" d="M1302.434,1314.736a.142.142,0,0,1-.137-.1l-.579-2.02h-3.962l.556,1.941a.142.142,0,1,1-.273.078l-.66-2.3h4.553l.638,2.226a.142.142,0,0,1-.1.176A.139.139,0,0,1,1302.434,1314.736Z" transform="translate(-1293.724 -1312.329)" fill="#363e44"/>
          <path id="Trazado_625344" data-name="Trazado 625344" d="M1312.3,1319.011a.673.673,0,1,1,.674-.673A.674.674,0,0,1,1312.3,1319.011Zm0-1.061a.389.389,0,1,0,.39.388A.39.39,0,0,0,1312.3,1317.949Z" transform="translate(-1305.942 -1316.907)" fill="#363e44"/>
        </g>
        <g id="Grupo_989927" data-name="Grupo 989927" transform="translate(34.317 27.715)">
          <path id="Trazado_625345" data-name="Trazado 625345" d="M1374.289,1393.379c-4.83.322-16.242.519-17.355.583-2.081.118-13.232,1.044-13.273,2.663-.019.774,2.137.692,2.865.643-.569.328-2.889,1.354-2.685,2.2.24.991,3.193.191,3.247.207-.611.275-3.091,1.273-2.963,1.911.167.83,2.754.592,3.525.485-.066.116-2.558.721-2.4,1.719.116.733,2.488.511,3.518.417,1.849-.1,23.418-.153,27.426-.673C1377.763,1403.329,1376.411,1394.887,1374.289,1393.379Z" transform="translate(-1343.661 -1393.134)" fill="#84524d"/>
          <path id="Trazado_625346" data-name="Trazado 625346" d="M1485.161,1392.388a.142.142,0,0,1,0-.284c2.456-.08,8.86-.364,10.415-.451a.142.142,0,0,1,.016.284c-1.557.086-7.964.371-10.422.451Z" transform="translate(-1464.937 -1391.653)" fill="#363e44"/>
          <g id="Grupo_989926" data-name="Grupo 989926" transform="translate(2.693 3.146)">
            <path id="Trazado_625347" data-name="Trazado 625347" d="M1362.759,1414.852a.142.142,0,0,1-.056-.273,9.671,9.671,0,0,1,3.614-.782h0a.142.142,0,0,1,0,.284,9.4,9.4,0,0,0-3.509.759A.143.143,0,0,1,1362.759,1414.852Z" transform="translate(-1362.617 -1413.797)" fill="#363e44"/>
            <path id="Trazado_625348" data-name="Trazado 625348" d="M1366.617,1434.089a.142.142,0,0,1-.042-.278q.133-.041.273-.079a9.754,9.754,0,0,1,2.359-.343h0a.142.142,0,0,1,0,.284,9.462,9.462,0,0,0-2.29.333q-.135.037-.264.077A.142.142,0,0,1,1366.617,1434.089Z" transform="translate(-1365.926 -1430.606)" fill="#363e44"/>
            <path id="Trazado_625349" data-name="Trazado 625349" d="M1371.231,1452.7a.142.142,0,0,1-.026-.282,9.8,9.8,0,0,1,1.556-.159h0a.142.142,0,0,1,0,.284,9.551,9.551,0,0,0-1.51.155Z" transform="translate(-1369.886 -1446.792)" fill="#363e44"/>
          </g>
        </g>
      </g>
      <g id="Grupo_989933" data-name="Grupo 989933" transform="translate(37.434 0)">
        <path id="Trazado_625350" data-name="Trazado 625350" d="M1377.274,1184.636c1.234,1.011,5.08-1.229,5.08-1.229l2.409-4.231a4.068,4.068,0,0,0-8.116-.57S1376.017,1183.606,1377.274,1184.636Z" transform="translate(-1371.88 -1170.644)" fill="#84524d"/>
        <path id="Trazado_625351" data-name="Trazado 625351" d="M1393.662,1203.986h0a2.818,2.818,0,0,1-2.613-3.009l.692-9.8,5.622.395-.692,9.8A2.818,2.818,0,0,1,1393.662,1203.986Z" transform="translate(-1384.366 -1184.665)" fill="#84524d"/>
        <path id="Trazado_625352" data-name="Trazado 625352" d="M1373.195,1209.1s-1.222,1.109-1.184,1.427c.046.38,1.3.7,1.3.7S1373.164,1209.1,1373.195,1209.1Z" transform="translate(-1368.038 -1200.042)" fill="#84524d"/>
        <g id="Grupo_989931" data-name="Grupo 989931" transform="translate(5.023 8.667)">
          <path id="Trazado_625353" data-name="Trazado 625353" d="M1396.946,1206.857a3.537,3.537,0,0,0-1.473-.469c-.174-.012.056,1.4.227,1.334A3.538,3.538,0,0,0,1396.946,1206.857Z" transform="translate(-1393.137 -1206.381)" fill="#fff"/>
          <g id="Grupo_989930" data-name="Grupo 989930">
            <g id="Grupo_989929" data-name="Grupo 989929" clip-path="url(#clip-path)">
              <path id="Trazado_625354" data-name="Trazado 625354" d="M1380.885,1203.237a1.389,1.389,0,1,0-.138,1.956A1.393,1.393,0,0,0,1380.885,1203.237Z" transform="translate(-1378.581 -1203.268)" fill="#363e44"/>
            </g>
          </g>
        </g>
        <path id="Trazado_625356" data-name="Trazado 625356" d="M1374.368,1157.287a3.582,3.582,0,0,1-3.133,1.962c-2.186-.039-2.582-.105-2.582-.105l-.427,2.045a1.485,1.485,0,0,0,1.408,1.785l1.564.051a3.173,3.173,0,0,0,3.231-2.621l.3-1.714,2.1-.59s3.462-1.369,2.361-3.8a1.724,1.724,0,0,0-2.113-1.067l-4.281-4.19c-.96-.851-1.96-.163-2.929.677,0,0-2.029,1.344-1.116,2.155l.664.591-.688-.188c-.556-.152-1.289.992-1.289.992a1.622,1.622,0,0,0,1.328,2.151,4.58,4.58,0,0,0,1.886-.192C1372.75,1154.8,1374.841,1155.483,1374.368,1157.287Z" transform="translate(-1364.041 -1148.177)" fill="#363e44"/>
        <path id="Trazado_625357" data-name="Trazado 625357" d="M1415.621,1209.683a1.18,1.18,0,1,0,1.611-.783A1.27,1.27,0,0,0,1415.621,1209.683Z" transform="translate(-1405.342 -1199.798)" fill="#84524d"/>
        <path id="Trazado_625358" data-name="Trazado 625358" d="M1385.221,1225.172a.72.72,0,0,1-.429-.142.142.142,0,0,1,.17-.228.428.428,0,0,0,.685-.362.142.142,0,0,1,.284-.014.71.71,0,0,1-.71.746Z" transform="translate(-1378.955 -1213.074)" fill="#84524d"/>
        <path id="Trazado_625359" data-name="Trazado 625359" d="M1419.808,1219.432a.142.142,0,0,1-.081-.259l.605-.417a.142.142,0,0,1,.161.234l-.605.417A.141.141,0,0,1,1419.808,1219.432Z" transform="translate(-1408.923 -1208.304)" fill="#363e44"/>
        <g id="Grupo_989932" data-name="Grupo 989932">
          <path id="Trazado_625360" data-name="Trazado 625360" d="M1364.751,1150.178c.007-.028.013-.056.02-.083a6.439,6.439,0,0,1,12.44,3.327c-.008.028-.017.055-.024.083Z" transform="translate(-1361.81 -1145.336)" fill="#d87355"/>
          <path id="Trazado_625361" data-name="Trazado 625361" d="M1388.726,1156.282a.142.142,0,0,1-.132-.09,6.308,6.308,0,0,0-9.6-2.768.142.142,0,1,1-.168-.229,6.591,6.591,0,0,1,10.029,2.893.142.142,0,0,1-.08.184A.139.139,0,0,1,1388.726,1156.282Z" transform="translate(-1373.838 -1150.982)" fill="#efbc73"/>
          <path id="Trazado_625362" data-name="Trazado 625362" d="M1387.933,1165.582a.142.142,0,0,1-.128-.081,6.519,6.519,0,0,0-8.989-2.565.142.142,0,1,1-.15-.241,6.8,6.8,0,0,1,9.4,2.683.142.142,0,0,1-.067.19A.141.141,0,0,1,1387.933,1165.582Z" transform="translate(-1373.69 -1159.439)" fill="#efbc73"/>
          <path id="Trazado_625363" data-name="Trazado 625363" d="M1344.582,1176.818l15.388,4.115a.717.717,0,0,0,.878-.505h0a.715.715,0,0,0-.507-.875l-15.388-4.115a.717.717,0,0,0-.878.505h0A.715.715,0,0,0,1344.582,1176.818Z" transform="translate(-1344.051 -1171.14)" fill="#d87355"/>
        </g>
      </g>
    </g>
  </g>
</svg>
