<svg xmlns="http://www.w3.org/2000/svg" xmlns:xlink="http://www.w3.org/1999/xlink" width="400" height="373.102" viewBox="0 0 400 373.102">
  <defs>
    <clipPath id="clip-path">
      <path id="Trazado_625355" data-name="Trazado 625355" d="M1379.4,1207.038a4.2,4.2,0,1,1,2.625,1.481A4.867,4.867,0,0,1,1379.4,1207.038Z" transform="translate(-1379.405 -1206.342)" fill="none"/>
    </clipPath>
  </defs>
  <g id="Grupo_990939" data-name="Grupo 990939" transform="translate(-180 -3208.883)">
    <path id="Rectángulo_33828" data-name="Rectángulo 33828" d="M0,0H370a30,30,0,0,1,30,30v91a30,30,0,0,1-30,30H0a0,0,0,0,1,0,0V0A0,0,0,0,1,0,0Z" transform="translate(180 3354)" fill="#ffc721"/>
    <g id="Air_pollution" data-name="Air pollution" transform="translate(190 3208.883)">
      <g id="Grupo_989900" data-name="Grupo 989900" transform="translate(243.687 118.156)">
        <g id="Grupo_989892" data-name="Grupo 989892" transform="translate(29.381 22.234)">
          <rect id="Rectángulo_344212" data-name="Rectángulo 344212" width="49.474" height="92.901" fill="#f7f1eb"/>
          <g id="Grupo_989891" data-name="Grupo 989891" transform="translate(6.066 8.475)">
            <rect id="Rectángulo_344213" data-name="Rectángulo 344213" width="3.928" height="7.376" transform="translate(33.756)" fill="#fff"/>
            <rect id="Rectángulo_344214" data-name="Rectángulo 344214" width="3.928" height="7.376" transform="translate(22.504)" fill="#fff"/>
            <rect id="Rectángulo_344215" data-name="Rectángulo 344215" width="3.928" height="7.376" transform="translate(11.252)" fill="#fff"/>
            <rect id="Rectángulo_344216" data-name="Rectángulo 344216" width="3.928" height="7.376" transform="translate(0)" fill="#fff"/>
            <rect id="Rectángulo_344217" data-name="Rectángulo 344217" width="3.928" height="7.377" transform="translate(33.756 16.873)" fill="#fff"/>
            <rect id="Rectángulo_344218" data-name="Rectángulo 344218" width="3.928" height="7.377" transform="translate(22.504 16.873)" fill="#fff"/>
            <rect id="Rectángulo_344219" data-name="Rectángulo 344219" width="3.928" height="7.377" transform="translate(11.252 16.873)" fill="#fff"/>
            <rect id="Rectángulo_344220" data-name="Rectángulo 344220" width="3.928" height="7.377" transform="translate(0 16.873)" fill="#fff"/>
            <rect id="Rectángulo_344221" data-name="Rectángulo 344221" width="3.928" height="7.376" transform="translate(33.756 33.746)" fill="#fff"/>
            <rect id="Rectángulo_344222" data-name="Rectángulo 344222" width="3.928" height="7.376" transform="translate(22.504 33.746)" fill="#fff"/>
            <rect id="Rectángulo_344223" data-name="Rectángulo 344223" width="3.928" height="7.376" transform="translate(11.252 33.746)" fill="#fff"/>
            <rect id="Rectángulo_344224" data-name="Rectángulo 344224" width="3.928" height="7.376" transform="translate(0 33.746)" fill="#fff"/>
            <rect id="Rectángulo_344225" data-name="Rectángulo 344225" width="3.928" height="7.376" transform="translate(33.756 50.619)" fill="#fff"/>
            <rect id="Rectángulo_344226" data-name="Rectángulo 344226" width="3.928" height="7.376" transform="translate(22.504 50.619)" fill="#fff"/>
            <rect id="Rectángulo_344227" data-name="Rectángulo 344227" width="3.928" height="7.376" transform="translate(11.252 50.619)" fill="#fff"/>
            <rect id="Rectángulo_344228" data-name="Rectángulo 344228" width="3.928" height="7.376" transform="translate(0 50.619)" fill="#fff"/>
            <rect id="Rectángulo_344229" data-name="Rectángulo 344229" width="3.928" height="7.376" transform="translate(33.756 67.492)" fill="#fff"/>
            <rect id="Rectángulo_344230" data-name="Rectángulo 344230" width="3.928" height="7.376" transform="translate(22.504 67.492)" fill="#fff"/>
            <rect id="Rectángulo_344231" data-name="Rectángulo 344231" width="3.928" height="7.376" transform="translate(11.252 67.492)" fill="#fff"/>
            <rect id="Rectángulo_344232" data-name="Rectángulo 344232" width="3.928" height="7.376" transform="translate(0 67.492)" fill="#fff"/>
          </g>
        </g>
        <g id="Grupo_989893" data-name="Grupo 989893" transform="translate(77.933 0)">
          <rect id="Rectángulo_344233" data-name="Rectángulo 344233" width="41.471" height="113.188" transform="translate(0.208 0.208)" fill="#e6d0be"/>
          <path id="Trazado_625267" data-name="Trazado 625267" d="M414.67,977.75h41.471a.208.208,0,1,0,0-.415H414.67a.208.208,0,1,0,0,.415Z" transform="translate(-414.462 -968.765)" fill="#fff"/>
          <path id="Trazado_625268" data-name="Trazado 625268" d="M414.67,1019.008h41.471a.208.208,0,1,0,0-.415H414.67a.208.208,0,1,0,0,.415Z" transform="translate(-414.462 -1001.453)" fill="#fff"/>
          <path id="Trazado_625269" data-name="Trazado 625269" d="M414.67,1060.266h41.471a.208.208,0,1,0,0-.415H414.67a.208.208,0,1,0,0,.415Z" transform="translate(-414.462 -1034.142)" fill="#fff"/>
          <path id="Trazado_625270" data-name="Trazado 625270" d="M414.67,1101.524h41.471a.208.208,0,1,0,0-.415H414.67a.208.208,0,1,0,0,.415Z" transform="translate(-414.462 -1066.83)" fill="#fff"/>
          <path id="Trazado_625271" data-name="Trazado 625271" d="M414.67,1142.782h41.471a.208.208,0,0,0,0-.416H414.67a.208.208,0,0,0,0,.416Z" transform="translate(-414.462 -1099.518)" fill="#fff"/>
          <path id="Trazado_625272" data-name="Trazado 625272" d="M414.67,1184.04h41.471a.208.208,0,1,0,0-.415H414.67a.208.208,0,1,0,0,.415Z" transform="translate(-414.462 -1132.207)" fill="#fff"/>
          <path id="Trazado_625273" data-name="Trazado 625273" d="M414.67,1225.3h41.471a.208.208,0,1,0,0-.415H414.67a.208.208,0,1,0,0,.415Z" transform="translate(-414.462 -1164.895)" fill="#fff"/>
          <path id="Trazado_625274" data-name="Trazado 625274" d="M414.67,1266.557h41.471a.208.208,0,1,0,0-.415H414.67a.208.208,0,1,0,0,.415Z" transform="translate(-414.462 -1197.583)" fill="#fff"/>
          <path id="Trazado_625275" data-name="Trazado 625275" d="M414.67,1307.814h41.471a.208.208,0,1,0,0-.415H414.67a.208.208,0,1,0,0,.415Z" transform="translate(-414.462 -1230.271)" fill="#fff"/>
          <path id="Trazado_625276" data-name="Trazado 625276" d="M453.865,1049.68a.208.208,0,0,0,.208-.208V936.285a.208.208,0,0,0-.415,0v113.188A.207.207,0,0,0,453.865,1049.68Z" transform="translate(-420.327 -936.077)" fill="#fff"/>
          <path id="Trazado_625277" data-name="Trazado 625277" d="M515.752,1049.68a.208.208,0,0,0,.208-.208V936.285a.208.208,0,0,0-.415,0v113.188A.207.207,0,0,0,515.752,1049.68Z" transform="translate(-495.069 -936.077)" fill="#fff"/>
          <path id="Trazado_625278" data-name="Trazado 625278" d="M577.638,1049.68a.208.208,0,0,0,.208-.208V936.285a.208.208,0,0,0-.415,0v113.188A.208.208,0,0,0,577.638,1049.68Z" transform="translate(-569.811 -936.077)" fill="#fff"/>
        </g>
        <g id="Grupo_989895" data-name="Grupo 989895" transform="translate(64.411 64.662)">
          <rect id="Rectángulo_344234" data-name="Rectángulo 344234" width="39.514" height="69.681" fill="#e6d0be"/>
          <g id="Grupo_989894" data-name="Grupo 989894" transform="translate(4.845 6.356)">
            <rect id="Rectángulo_344235" data-name="Rectángulo 344235" width="3.137" height="5.533" transform="translate(26.96)" fill="#fff"/>
            <rect id="Rectángulo_344236" data-name="Rectángulo 344236" width="3.137" height="5.533" transform="translate(17.973)" fill="#fff"/>
            <rect id="Rectángulo_344237" data-name="Rectángulo 344237" width="3.137" height="5.533" transform="translate(8.987)" fill="#fff"/>
            <rect id="Rectángulo_344238" data-name="Rectángulo 344238" width="3.137" height="5.533" transform="translate(0)" fill="#fff"/>
            <rect id="Rectángulo_344239" data-name="Rectángulo 344239" width="3.137" height="5.533" transform="translate(26.96 12.656)" fill="#fff"/>
            <rect id="Rectángulo_344240" data-name="Rectángulo 344240" width="3.137" height="5.533" transform="translate(17.973 12.656)" fill="#fff"/>
            <rect id="Rectángulo_344241" data-name="Rectángulo 344241" width="3.137" height="5.533" transform="translate(8.987 12.656)" fill="#fff"/>
            <rect id="Rectángulo_344242" data-name="Rectángulo 344242" width="3.137" height="5.533" transform="translate(0 12.656)" fill="#fff"/>
            <rect id="Rectángulo_344243" data-name="Rectángulo 344243" width="3.137" height="5.533" transform="translate(26.96 25.312)" fill="#fff"/>
            <rect id="Rectángulo_344244" data-name="Rectángulo 344244" width="3.137" height="5.533" transform="translate(17.973 25.312)" fill="#fff"/>
            <rect id="Rectángulo_344245" data-name="Rectángulo 344245" width="3.137" height="5.533" transform="translate(8.987 25.312)" fill="#fff"/>
            <rect id="Rectángulo_344246" data-name="Rectángulo 344246" width="3.137" height="5.533" transform="translate(0 25.312)" fill="#fff"/>
            <rect id="Rectángulo_344247" data-name="Rectángulo 344247" width="3.137" height="5.533" transform="translate(26.96 37.967)" fill="#fff"/>
            <rect id="Rectángulo_344248" data-name="Rectángulo 344248" width="3.137" height="5.533" transform="translate(17.973 37.967)" fill="#fff"/>
            <rect id="Rectángulo_344249" data-name="Rectángulo 344249" width="3.137" height="5.533" transform="translate(8.987 37.967)" fill="#fff"/>
            <rect id="Rectángulo_344250" data-name="Rectángulo 344250" width="3.137" height="5.533" transform="translate(0 37.967)" fill="#fff"/>
            <rect id="Rectángulo_344251" data-name="Rectángulo 344251" width="3.137" height="5.533" transform="translate(26.96 50.623)" fill="#fff"/>
            <rect id="Rectángulo_344252" data-name="Rectángulo 344252" width="3.137" height="5.533" transform="translate(17.973 50.623)" fill="#fff"/>
            <rect id="Rectángulo_344253" data-name="Rectángulo 344253" width="3.137" height="5.533" transform="translate(8.987 50.623)" fill="#fff"/>
            <rect id="Rectángulo_344254" data-name="Rectángulo 344254" width="3.137" height="5.533" transform="translate(0 50.623)" fill="#fff"/>
          </g>
        </g>
        <g id="Grupo_989897" data-name="Grupo 989897" transform="translate(86.569 87.509)">
          <rect id="Rectángulo_344255" data-name="Rectángulo 344255" width="49.474" height="87.245" transform="translate(0)" fill="#e6d0be"/>
          <g id="Grupo_989896" data-name="Grupo 989896" transform="translate(6.066 7.959)">
            <rect id="Rectángulo_344256" data-name="Rectángulo 344256" width="3.928" height="6.927" transform="translate(33.756)" fill="#fff"/>
            <rect id="Rectángulo_344257" data-name="Rectángulo 344257" width="3.928" height="6.927" transform="translate(22.504)" fill="#fff"/>
            <rect id="Rectángulo_344258" data-name="Rectángulo 344258" width="3.928" height="6.927" transform="translate(11.252)" fill="#fff"/>
            <rect id="Rectángulo_344259" data-name="Rectángulo 344259" width="3.928" height="6.927" transform="translate(0)" fill="#fff"/>
            <rect id="Rectángulo_344260" data-name="Rectángulo 344260" width="3.928" height="6.927" transform="translate(33.756 15.846)" fill="#fff"/>
            <rect id="Rectángulo_344261" data-name="Rectángulo 344261" width="3.928" height="6.927" transform="translate(22.504 15.846)" fill="#fff"/>
            <rect id="Rectángulo_344262" data-name="Rectángulo 344262" width="3.928" height="6.927" transform="translate(11.252 15.846)" fill="#fff"/>
            <rect id="Rectángulo_344263" data-name="Rectángulo 344263" width="3.928" height="6.927" transform="translate(0 15.846)" fill="#fff"/>
            <rect id="Rectángulo_344264" data-name="Rectángulo 344264" width="3.928" height="6.927" transform="translate(33.756 31.692)" fill="#fff"/>
            <rect id="Rectángulo_344265" data-name="Rectángulo 344265" width="3.928" height="6.927" transform="translate(22.504 31.692)" fill="#fff"/>
            <rect id="Rectángulo_344266" data-name="Rectángulo 344266" width="3.928" height="6.927" transform="translate(11.252 31.692)" fill="#fff"/>
            <rect id="Rectángulo_344267" data-name="Rectángulo 344267" width="3.928" height="6.927" transform="translate(0 31.692)" fill="#fff"/>
            <rect id="Rectángulo_344268" data-name="Rectángulo 344268" width="3.928" height="6.927" transform="translate(33.756 47.538)" fill="#fff"/>
            <rect id="Rectángulo_344269" data-name="Rectángulo 344269" width="3.928" height="6.927" transform="translate(22.504 47.538)" fill="#fff"/>
            <rect id="Rectángulo_344270" data-name="Rectángulo 344270" width="3.928" height="6.927" transform="translate(11.252 47.538)" fill="#fff"/>
            <rect id="Rectángulo_344271" data-name="Rectángulo 344271" width="3.928" height="6.927" transform="translate(0 47.538)" fill="#fff"/>
            <rect id="Rectángulo_344272" data-name="Rectángulo 344272" width="3.928" height="6.927" transform="translate(33.756 63.383)" fill="#fff"/>
            <rect id="Rectángulo_344273" data-name="Rectángulo 344273" width="3.928" height="6.927" transform="translate(22.504 63.383)" fill="#fff"/>
            <rect id="Rectángulo_344274" data-name="Rectángulo 344274" width="3.928" height="6.927" transform="translate(11.252 63.383)" fill="#fff"/>
            <rect id="Rectángulo_344275" data-name="Rectángulo 344275" width="3.928" height="6.927" transform="translate(0 63.383)" fill="#fff"/>
          </g>
        </g>
        <g id="Grupo_989899" data-name="Grupo 989899" transform="translate(0 38.288)">
          <rect id="Rectángulo_344276" data-name="Rectángulo 344276" width="49.474" height="87.245" fill="#e6d0be"/>
          <g id="Grupo_989898" data-name="Grupo 989898" transform="translate(6.066 7.959)">
            <rect id="Rectángulo_344277" data-name="Rectángulo 344277" width="3.928" height="6.927" transform="translate(33.756)" fill="#fff"/>
            <rect id="Rectángulo_344278" data-name="Rectángulo 344278" width="3.928" height="6.927" transform="translate(22.504)" fill="#fff"/>
            <rect id="Rectángulo_344279" data-name="Rectángulo 344279" width="3.928" height="6.927" transform="translate(11.252)" fill="#fff"/>
            <rect id="Rectángulo_344280" data-name="Rectángulo 344280" width="3.928" height="6.927" transform="translate(0)" fill="#fff"/>
            <rect id="Rectángulo_344281" data-name="Rectángulo 344281" width="3.928" height="6.927" transform="translate(33.756 15.846)" fill="#fff"/>
            <rect id="Rectángulo_344282" data-name="Rectángulo 344282" width="3.928" height="6.927" transform="translate(22.504 15.846)" fill="#fff"/>
            <rect id="Rectángulo_344283" data-name="Rectángulo 344283" width="3.928" height="6.927" transform="translate(11.252 15.846)" fill="#fff"/>
            <rect id="Rectángulo_344284" data-name="Rectángulo 344284" width="3.928" height="6.927" transform="translate(0 15.846)" fill="#fff"/>
            <rect id="Rectángulo_344285" data-name="Rectángulo 344285" width="3.928" height="6.927" transform="translate(33.756 31.692)" fill="#fff"/>
            <rect id="Rectángulo_344286" data-name="Rectángulo 344286" width="3.928" height="6.927" transform="translate(22.504 31.692)" fill="#fff"/>
            <rect id="Rectángulo_344287" data-name="Rectángulo 344287" width="3.928" height="6.927" transform="translate(11.252 31.692)" fill="#fff"/>
            <rect id="Rectángulo_344288" data-name="Rectángulo 344288" width="3.928" height="6.927" transform="translate(0 31.692)" fill="#fff"/>
            <rect id="Rectángulo_344289" data-name="Rectángulo 344289" width="3.928" height="6.927" transform="translate(33.756 63.383)" fill="#fff"/>
            <rect id="Rectángulo_344290" data-name="Rectángulo 344290" width="3.928" height="6.927" transform="translate(22.504 63.383)" fill="#fff"/>
            <rect id="Rectángulo_344291" data-name="Rectángulo 344291" width="3.928" height="6.927" transform="translate(11.252 63.383)" fill="#fff"/>
            <rect id="Rectángulo_344292" data-name="Rectángulo 344292" width="3.928" height="6.927" transform="translate(0 63.383)" fill="#fff"/>
          </g>
        </g>
      </g>
      <g id="Grupo_989910" data-name="Grupo 989910" transform="translate(0 0)">
        <g id="Grupo_989901" data-name="Grupo 989901" transform="translate(145.84 169.645)">
          <path id="Trazado_625279" data-name="Trazado 625279" d="M913.9,1327.361a539.1,539.1,0,0,0,14.655-124.6l.089-.754h84.526c0,.051,0,.1,0,.151a539.116,539.116,0,0,0,14.657,125.207Z" transform="translate(-913.904 -1198.256)" fill="#e0aa63"/>
          <rect id="Rectángulo_344293" data-name="Rectángulo 344293" width="87.814" height="3.746" transform="translate(13.056)" fill="#efbc73"/>
        </g>
        <g id="Grupo_989902" data-name="Grupo 989902" transform="translate(59.701 139.497)">
          <path id="Trazado_625280" data-name="Trazado 625280" d="M1200.53,1215.7a664.958,664.958,0,0,0,18.077-153.7l.11-.93H1322.98c0,.062,0,.125,0,.187a665.008,665.008,0,0,0,18.079,154.445Z" transform="translate(-1200.53 -1056.451)" fill="#ffd092"/>
          <path id="Trazado_625281" data-name="Trazado 625281" d="M1716.75,1215.7h-32.578a664.991,664.991,0,0,0,18.077-153.7l.11-.93h20.412A767.506,767.506,0,0,1,1716.75,1215.7Z" transform="translate(-1684.172 -1056.45)" fill="#e0aa63"/>
          <rect id="Rectángulo_344294" data-name="Rectángulo 344294" width="108.32" height="4.621" transform="translate(16.105)" fill="#e0aa63"/>
        </g>
        <g id="Grupo_989903" data-name="Grupo 989903" transform="translate(41.947 66.132)">
          <path id="Trazado_625282" data-name="Trazado 625282" d="M1840.891,925.814h25.273l-4.58-230.374h-16.114Z" transform="translate(-1840.891 -693.399)" fill="#fff"/>
          <path id="Trazado_625283" data-name="Trazado 625283" d="M1919.369,925.813h-11.325l4.58-230.374h6.745Z" transform="translate(-1908.044 -693.399)" fill="#f7f1eb"/>
          <path id="Trazado_625284" data-name="Trazado 625284" d="M1861.612,709.31l.275-13.871H1878l.276,13.871Z" transform="translate(-1857.308 -693.399)" fill="#d87355"/>
          <path id="Trazado_625285" data-name="Trazado 625285" d="M1876.74,841.6h-17.758l.276-13.871h17.206Z" transform="translate(-1855.225 -798.21)" fill="#d87355"/>
          <path id="Trazado_625286" data-name="Trazado 625286" d="M1875.2,973.889h-18.85l.276-13.871h18.3Z" transform="translate(-1853.141 -903.021)" fill="#d87355"/>
          <path id="Trazado_625287" data-name="Trazado 625287" d="M1873.665,1106.178h-19.943l.276-13.872h19.391Z" transform="translate(-1851.057 -1007.832)" fill="#d87355"/>
          <path id="Trazado_625288" data-name="Trazado 625288" d="M1831.273,916.4h25.273a.208.208,0,0,0,.208-.212l-4.58-230.374a.208.208,0,0,0-.208-.2h-16.114a.208.208,0,0,0-.208.2l-4.58,230.374a.208.208,0,0,0,.208.212Zm25.061-.415h-24.849l4.571-229.958h15.707Z" transform="translate(-1829.44 -685.615)" fill="#84524d"/>
        </g>
        <g id="Grupo_989904" data-name="Grupo 989904" transform="translate(0.73 66.132)">
          <path id="Trazado_625289" data-name="Trazado 625289" d="M2039.325,925.814H2064.6l-4.58-230.374H2043.9Z" transform="translate(-2039.325 -693.399)" fill="#fff"/>
          <path id="Trazado_625290" data-name="Trazado 625290" d="M2117.8,925.813h-11.325l4.58-230.374h6.745Z" transform="translate(-2106.478 -693.399)" fill="#f7f1eb"/>
          <path id="Trazado_625291" data-name="Trazado 625291" d="M2060.046,709.31l.275-13.871h16.114l.276,13.871Z" transform="translate(-2055.741 -693.399)" fill="#d87355"/>
          <path id="Trazado_625292" data-name="Trazado 625292" d="M2075.174,841.6h-17.758l.276-13.871H2074.9Z" transform="translate(-2053.658 -798.21)" fill="#d87355"/>
          <path id="Trazado_625293" data-name="Trazado 625293" d="M2073.636,973.889h-18.85l.276-13.871h18.3Z" transform="translate(-2051.574 -903.021)" fill="#d87355"/>
          <path id="Trazado_625294" data-name="Trazado 625294" d="M2072.1,1106.178h-19.943l.276-13.872h19.391Z" transform="translate(-2049.49 -1007.832)" fill="#d87355"/>
          <path id="Trazado_625295" data-name="Trazado 625295" d="M2027.5,916.4h25.273a.208.208,0,0,0,.208-.212l-4.58-230.374a.208.208,0,0,0-.208-.2h-16.114a.208.208,0,0,0-.208.2l-4.58,230.374a.208.208,0,0,0,.208.212Zm25.061-.415h-24.849l4.571-229.958h15.707Z" transform="translate(-2025.21 -685.615)" fill="#84524d"/>
        </g>
        <g id="Grupo_989905" data-name="Grupo 989905" transform="translate(0 253.129)">
          <rect id="Rectángulo_344295" data-name="Rectángulo 344295" width="58.592" height="45.74" transform="translate(0)" fill="#e0aa63"/>
          <rect id="Rectángulo_344296" data-name="Rectángulo 344296" width="58.592" height="45.74" transform="translate(24.681)" fill="#efbc73"/>
        </g>
        <g id="Grupo_989906" data-name="Grupo 989906" transform="translate(217.284 200.723)">
          <path id="Trazado_625296" data-name="Trazado 625296" d="M700.031,1442.973a411.244,411.244,0,0,0,11.179-95.052l.068-.575h64.479c0,.038,0,.077,0,.115a411.253,411.253,0,0,0,11.181,95.512Z" transform="translate(-700.031 -1344.488)" fill="#efbc73"/>
          <rect id="Rectángulo_344297" data-name="Rectángulo 344297" width="66.987" height="2.858" transform="translate(9.959)" fill="#ffd092"/>
        </g>
        <g id="Grupo_989907" data-name="Grupo 989907" transform="translate(52.462 6.374)">
          <ellipse id="Elipse_5001" data-name="Elipse 5001" cx="12.723" cy="10.538" rx="12.723" ry="10.538" transform="translate(0 8.007)" fill="#40484c"/>
          <ellipse id="Elipse_5002" data-name="Elipse 5002" cx="12.851" cy="12.851" rx="12.851" ry="12.851" transform="translate(9.51 14.69)" fill="#40484c"/>
          <ellipse id="Elipse_5003" data-name="Elipse 5003" cx="12.851" cy="12.851" rx="12.851" ry="12.851" transform="translate(28.529 9.806)" fill="#40484c"/>
          <ellipse id="Elipse_5004" data-name="Elipse 5004" cx="9.638" cy="9.638" rx="9.638" ry="9.638" transform="translate(44.369 7.749)" fill="#40484c"/>
          <ellipse id="Elipse_5005" data-name="Elipse 5005" cx="10.024" cy="10.024" rx="10.024" ry="10.024" transform="translate(32.963 25.419) rotate(-170.783)" fill="#40484c"/>
          <circle id="Elipse_5006" data-name="Elipse 5006" cx="10.024" cy="10.024" r="10.024" transform="translate(43.633 28.352) rotate(-135)" fill="#40484c"/>
          <path id="Trazado_625298" data-name="Trazado 625298" d="M1852.326,472.353c-2.76,5.692-.9,46.906-.9,46.906,1.364-16.676,4.924-27.985,8.456-26.663Z" transform="translate(-1847.185 -456.892)" fill="#40484c"/>
        </g>
        <g id="Grupo_989908" data-name="Grupo 989908" transform="translate(10.774 0)">
          <ellipse id="Elipse_5007" data-name="Elipse 5007" cx="12.723" cy="10.538" rx="12.723" ry="10.538" transform="translate(0.116 8.035)" fill="#363e44"/>
          <ellipse id="Elipse_5008" data-name="Elipse 5008" cx="12.851" cy="12.851" rx="12.851" ry="12.851" transform="translate(9.626 14.718)" fill="#363e44"/>
          <ellipse id="Elipse_5009" data-name="Elipse 5009" cx="12.851" cy="12.851" rx="12.851" ry="12.851" transform="translate(28.645 9.834)" fill="#363e44"/>
          <ellipse id="Elipse_5010" data-name="Elipse 5010" cx="9.638" cy="9.638" rx="9.638" ry="9.638" transform="translate(48.95 8.807)" fill="#363e44"/>
          <circle id="Elipse_5011" data-name="Elipse 5011" cx="10.024" cy="10.024" r="10.024" transform="translate(26.278 28.352) rotate(-135)" fill="#363e44"/>
          <ellipse id="Elipse_5012" data-name="Elipse 5012" cx="10.024" cy="10.024" rx="10.024" ry="10.024" transform="translate(39.927 27.3) rotate(-112.5)" fill="#363e44"/>
          <path id="Trazado_625299" data-name="Trazado 625299" d="M2051.59,443.588c-2.76,5.692,3.668,46.535,3.668,46.535,1.364-16.676,4.815-26.378,8.468-30.048Z" transform="translate(-2050.901 -427.728)" fill="#363e44"/>
        </g>
      </g>
      <g id="Grupo_989914" data-name="Grupo 989914" transform="translate(6.761 268.254)">
        <rect id="Rectángulo_344298" data-name="Rectángulo 344298" width="5.528" height="1.871" transform="translate(103.287 38.885)" fill="#363e44"/>
        <path id="Trazado_625301" data-name="Trazado 625301" d="M1630.555,1735.06h94.934a5.141,5.141,0,0,0,5.141-5.14v-3.626h0a8.28,8.28,0,0,1-2.059-5.463v-2.7a3.228,3.228,0,0,0-3.228-3.229h-4.819a52.83,52.83,0,0,0-36.085-14.372l-5.878-.015a23.347,23.347,0,0,0-14.8,5.238l-9.772,7.954a6.9,6.9,0,0,1-3.344,1.473l-13.674,2.2a13.826,13.826,0,0,0-11.519,11.892h0A5.141,5.141,0,0,0,1630.555,1735.06Z" transform="translate(-1625.414 -1691.827)" fill="#d87355"/>
        <g id="Grupo_989911" data-name="Grupo 989911" transform="translate(11.685 32.992)">
          <ellipse id="Elipse_5023" data-name="Elipse 5023" cx="8.446" cy="8.446" rx="8.446" ry="8.446" fill="#363e44"/>
          <ellipse id="Elipse_5024" data-name="Elipse 5024" cx="5.972" cy="5.972" rx="5.972" ry="5.972" transform="translate(2.474 2.474)" fill="#d3bba3"/>
        </g>
        <g id="Grupo_989912" data-name="Grupo 989912" transform="translate(75.496 32.992)">
          <ellipse id="Elipse_5025" data-name="Elipse 5025" cx="8.446" cy="8.446" rx="8.446" ry="8.446" transform="translate(0)" fill="#363e44"/>
          <ellipse id="Elipse_5026" data-name="Elipse 5026" cx="5.972" cy="5.972" rx="5.972" ry="5.972" transform="translate(2.474 2.474)" fill="#d3bba3"/>
        </g>
        <path id="Trazado_625302" data-name="Trazado 625302" d="M1767.356,1724.188h-54.172l14.466-10.944a6.458,6.458,0,0,1,3.352-1.284h0a63.436,63.436,0,0,1,38.411,9.042Z" transform="translate(-1682.428 -1700.72)" fill="#40484c"/>
        <path id="Trazado_625303" data-name="Trazado 625303" d="M2068.033,1797.074c.383,1.015,3.229.883,6.36-.3s5.357-2.957,4.975-3.972-3.229-.883-6.359.3S2067.651,1796.058,2068.033,1797.074Z" transform="translate(-2066.122 -1764.411)" fill="#fff"/>
        <path id="Trazado_625304" data-name="Trazado 625304" d="M1636.274,1791.249h4.4l-.185-3.845h-5.918Z" transform="translate(-1537.36 -1760.672)" fill="#fff"/>
        <path id="Trazado_625305" data-name="Trazado 625305" d="M1738.314,1747.333h38.829a.208.208,0,0,0,.168-.087l11.87-16.562a.209.209,0,0,0,.017-.214l-2.415-4.829a.208.208,0,0,0-.372.186l2.359,4.717-11.735,16.373h-38.58l-3.255-8.437a10.361,10.361,0,0,1,4.321-12.619l12.744-7.47a.208.208,0,1,0-.21-.359l-12.746,7.472a10.777,10.777,0,0,0-4.5,13.125l3.306,8.571A.208.208,0,0,0,1738.314,1747.333Z" transform="translate(-1706.578 -1705.687)" fill="#e6d0be"/>
        <path id="Trazado_625306" data-name="Trazado 625306" d="M1853.431,1786.443a.208.208,0,0,0,.206-.179l2.612-18.71a.208.208,0,0,0-.412-.058l-2.612,18.71a.208.208,0,0,0,.177.235Z" transform="translate(-1798.354 -1744.757)" fill="#e6d0be"/>
        <ellipse id="Elipse_5027" data-name="Elipse 5027" cx="3.755" cy="0.542" rx="3.755" ry="0.542" transform="translate(71.298 25.897)" fill="#ffd092"/>
        <ellipse id="Elipse_5028" data-name="Elipse 5028" cx="3.755" cy="0.542" rx="3.755" ry="0.542" transform="translate(46.597 25.897)" fill="#ffd092"/>
        <path id="Trazado_625307" data-name="Trazado 625307" d="M1632.505,1827.588h5.1a6.306,6.306,0,0,0-5.1-3.8h0a1.9,1.9,0,0,0-1.9,1.9h0A1.9,1.9,0,0,0,1632.505,1827.588Z" transform="translate(-1533.467 -1789.501)" fill="#ffd092"/>
        <path id="Trazado_625308" data-name="Trazado 625308" d="M2107.6,1836.63h1.938a.875.875,0,0,0,.87-.972l-.217-1.949a.875.875,0,0,0-.87-.778h-1.938a.875.875,0,0,0-.87.972l.217,1.949A.875.875,0,0,0,2107.6,1836.63Z" transform="translate(-2105.122 -1796.742)" fill="#ffd092"/>
        <g id="Grupo_989913" data-name="Grupo 989913" transform="translate(94.659)">
          <path id="Trazado_625309" data-name="Trazado 625309" d="M1575.343,1697.824a.207.207,0,0,0,.079-.016,11.093,11.093,0,0,0,5.272-4.2c2.948-4.6,2.238-11.368-1.549-14.77a11.565,11.565,0,0,0-6.609-2.647,9.755,9.755,0,0,0-3.142.237,9.059,9.059,0,0,1-3.038.221c-2.959-.281-5.206-1.284-6.5-2.9-2.416-3.02-2.055-9.153,2.031-12.533a10.067,10.067,0,0,1,10.526-1.11.208.208,0,0,0,.177-.376,10.488,10.488,0,0,0-10.968,1.166c-4.264,3.527-4.625,9.945-2.091,13.113,1.365,1.705,3.71,2.761,6.783,3.053a9.532,9.532,0,0,0,3.162-.227,9.275,9.275,0,0,1,3.023-.23,11.152,11.152,0,0,1,6.367,2.543c3.645,3.274,4.321,9.793,1.478,14.236a10.689,10.689,0,0,1-5.082,4.041.208.208,0,0,0,.08.4Z" transform="translate(-1557.946 -1658.706)" fill="#363e44"/>
          <path id="Trazado_625310" data-name="Trazado 625310" d="M1577.07,1771.67a.208.208,0,0,0,.107-.03,8.853,8.853,0,0,0-4.691-16.643.207.207,0,0,0-.2.212.216.216,0,0,0,.212.2,8.438,8.438,0,0,1,4.468,15.872.208.208,0,0,0,.107.386Z" transform="translate(-1560.207 -1734.994)" fill="#363e44"/>
          <path id="Trazado_625311" data-name="Trazado 625311" d="M1582.509,1783.693a.2.2,0,0,0,.068-.012,7.681,7.681,0,0,0,4.467-4.01,6.372,6.372,0,0,0,.238-4.963,6,6,0,0,0-1.868-2.47.207.207,0,1,0-.258.325,5.587,5.587,0,0,1,1.74,2.3,5.954,5.954,0,0,1-.229,4.637,7.265,7.265,0,0,1-4.225,3.791.208.208,0,0,0,.068.4Z" transform="translate(-1568.164 -1748.62)" fill="#363e44"/>
        </g>
      </g>
      <g id="Grupo_989963" data-name="Grupo 989963" transform="translate(136.761 268.254)">
        <rect id="Rectángulo_344298-2" data-name="Rectángulo 344298" width="5.528" height="1.871" transform="translate(103.287 38.885)" fill="#363e44"/>
        <path id="Trazado_625301-2" data-name="Trazado 625301" d="M1630.555,1735.06h94.934a5.141,5.141,0,0,0,5.141-5.14v-3.626h0a8.28,8.28,0,0,1-2.059-5.463v-2.7a3.228,3.228,0,0,0-3.228-3.229h-4.819a52.83,52.83,0,0,0-36.085-14.372l-5.878-.015a23.347,23.347,0,0,0-14.8,5.238l-9.772,7.954a6.9,6.9,0,0,1-3.344,1.473l-13.674,2.2a13.826,13.826,0,0,0-11.519,11.892h0A5.141,5.141,0,0,0,1630.555,1735.06Z" transform="translate(-1625.414 -1691.827)" fill="#465fc4"/>
        <g id="Grupo_989911-2" data-name="Grupo 989911" transform="translate(11.685 32.992)">
          <ellipse id="Elipse_5023-2" data-name="Elipse 5023" cx="8.446" cy="8.446" rx="8.446" ry="8.446" fill="#363e44"/>
          <ellipse id="Elipse_5024-2" data-name="Elipse 5024" cx="5.972" cy="5.972" rx="5.972" ry="5.972" transform="translate(2.474 2.474)" fill="#d3bba3"/>
        </g>
        <g id="Grupo_989912-2" data-name="Grupo 989912" transform="translate(75.496 32.992)">
          <ellipse id="Elipse_5025-2" data-name="Elipse 5025" cx="8.446" cy="8.446" rx="8.446" ry="8.446" transform="translate(0)" fill="#363e44"/>
          <ellipse id="Elipse_5026-2" data-name="Elipse 5026" cx="5.972" cy="5.972" rx="5.972" ry="5.972" transform="translate(2.474 2.474)" fill="#d3bba3"/>
        </g>
        <path id="Trazado_625302-2" data-name="Trazado 625302" d="M1767.356,1724.188h-54.172l14.466-10.944a6.458,6.458,0,0,1,3.352-1.284h0a63.436,63.436,0,0,1,38.411,9.042Z" transform="translate(-1682.428 -1700.72)" fill="#40484c"/>
        <path id="Trazado_625303-2" data-name="Trazado 625303" d="M2068.033,1797.074c.383,1.015,3.229.883,6.36-.3s5.357-2.957,4.975-3.972-3.229-.883-6.359.3S2067.651,1796.058,2068.033,1797.074Z" transform="translate(-2066.122 -1764.411)" fill="#fff"/>
        <path id="Trazado_625304-2" data-name="Trazado 625304" d="M1636.274,1791.249h4.4l-.185-3.845h-5.918Z" transform="translate(-1537.36 -1760.672)" fill="#fff"/>
        <path id="Trazado_625305-2" data-name="Trazado 625305" d="M1738.314,1747.333h38.829a.208.208,0,0,0,.168-.087l11.87-16.562a.209.209,0,0,0,.017-.214l-2.415-4.829a.208.208,0,0,0-.372.186l2.359,4.717-11.735,16.373h-38.58l-3.255-8.437a10.361,10.361,0,0,1,4.321-12.619l12.744-7.47a.208.208,0,1,0-.21-.359l-12.746,7.472a10.777,10.777,0,0,0-4.5,13.125l3.306,8.571A.208.208,0,0,0,1738.314,1747.333Z" transform="translate(-1706.578 -1705.687)" fill="#e6d0be"/>
        <path id="Trazado_625306-2" data-name="Trazado 625306" d="M1853.431,1786.443a.208.208,0,0,0,.206-.179l2.612-18.71a.208.208,0,0,0-.412-.058l-2.612,18.71a.208.208,0,0,0,.177.235Z" transform="translate(-1798.354 -1744.757)" fill="#e6d0be"/>
        <ellipse id="Elipse_5027-2" data-name="Elipse 5027" cx="3.755" cy="0.542" rx="3.755" ry="0.542" transform="translate(71.298 25.897)" fill="#ffd092"/>
        <ellipse id="Elipse_5028-2" data-name="Elipse 5028" cx="3.755" cy="0.542" rx="3.755" ry="0.542" transform="translate(46.597 25.897)" fill="#ffd092"/>
        <path id="Trazado_625307-2" data-name="Trazado 625307" d="M1632.505,1827.588h5.1a6.306,6.306,0,0,0-5.1-3.8h0a1.9,1.9,0,0,0-1.9,1.9h0A1.9,1.9,0,0,0,1632.505,1827.588Z" transform="translate(-1533.467 -1789.501)" fill="#ffd092"/>
        <path id="Trazado_625308-2" data-name="Trazado 625308" d="M2107.6,1836.63h1.938a.875.875,0,0,0,.87-.972l-.217-1.949a.875.875,0,0,0-.87-.778h-1.938a.875.875,0,0,0-.87.972l.217,1.949A.875.875,0,0,0,2107.6,1836.63Z" transform="translate(-2105.122 -1796.742)" fill="#ffd092"/>
        <g id="Grupo_989913-2" data-name="Grupo 989913" transform="translate(94.659)">
          <path id="Trazado_625309-2" data-name="Trazado 625309" d="M1575.343,1697.824a.207.207,0,0,0,.079-.016,11.093,11.093,0,0,0,5.272-4.2c2.948-4.6,2.238-11.368-1.549-14.77a11.565,11.565,0,0,0-6.609-2.647,9.755,9.755,0,0,0-3.142.237,9.059,9.059,0,0,1-3.038.221c-2.959-.281-5.206-1.284-6.5-2.9-2.416-3.02-2.055-9.153,2.031-12.533a10.067,10.067,0,0,1,10.526-1.11.208.208,0,0,0,.177-.376,10.488,10.488,0,0,0-10.968,1.166c-4.264,3.527-4.625,9.945-2.091,13.113,1.365,1.705,3.71,2.761,6.783,3.053a9.532,9.532,0,0,0,3.162-.227,9.275,9.275,0,0,1,3.023-.23,11.152,11.152,0,0,1,6.367,2.543c3.645,3.274,4.321,9.793,1.478,14.236a10.689,10.689,0,0,1-5.082,4.041.208.208,0,0,0,.08.4Z" transform="translate(-1557.946 -1658.706)" fill="#363e44"/>
          <path id="Trazado_625310-2" data-name="Trazado 625310" d="M1577.07,1771.67a.208.208,0,0,0,.107-.03,8.853,8.853,0,0,0-4.691-16.643.207.207,0,0,0-.2.212.216.216,0,0,0,.212.2,8.438,8.438,0,0,1,4.468,15.872.208.208,0,0,0,.107.386Z" transform="translate(-1560.207 -1734.994)" fill="#363e44"/>
          <path id="Trazado_625311-2" data-name="Trazado 625311" d="M1582.509,1783.693a.2.2,0,0,0,.068-.012,7.681,7.681,0,0,0,4.467-4.01,6.372,6.372,0,0,0,.238-4.963,6,6,0,0,0-1.868-2.47.207.207,0,1,0-.258.325,5.587,5.587,0,0,1,1.74,2.3,5.954,5.954,0,0,1-.229,4.637,7.265,7.265,0,0,1-4.225,3.791.208.208,0,0,0,.068.4Z" transform="translate(-1568.164 -1748.62)" fill="#363e44"/>
        </g>
      </g>
      <g id="Grupo_989934" data-name="Grupo 989934" transform="translate(114.304 161.621)">
        <g id="Grupo_989922" data-name="Grupo 989922" transform="translate(13.275 71.913)">
          <g id="Grupo_989919" data-name="Grupo 989919" transform="translate(51.272 99.268)">
            <path id="Trazado_625328" data-name="Trazado 625328" d="M1211.757,1969.468l4.517,19.04,14.531-.005-3.516-19.04Z" transform="translate(-1211.757 -1969.463)" fill="#84524d"/>
            <path id="Trazado_625329" data-name="Trazado 625329" d="M1080.562,2058.05l1.606,21.522,40.177-.015c-5.439-8.331-14.285-17.949-27.3-21.512Z" transform="translate(-1076.047 -2039.646)" fill="#d3bba3"/>
          </g>
          <g id="Grupo_989920" data-name="Grupo 989920" transform="translate(5.37 100.385)">
            <path id="Trazado_625330" data-name="Trazado 625330" d="M1438.119,1976l4.01,18.094H1454.8v-19.25Z" transform="translate(-1436.872 -1974.84)" fill="#84524d"/>
            <path id="Trazado_625331" data-name="Trazado 625331" d="M1389.154,2063.941c0,.788-5.093,20.676-5.093,20.676h29.16l-11.471-20.676Z" transform="translate(-1384.061 -2045.434)" fill="#d3bba3"/>
          </g>
          <g id="Grupo_989921" data-name="Grupo 989921" transform="translate(0)">
            <path id="Trazado_625332" data-name="Trazado 625332" d="M1220.9,1494.728s-3.968,25.656,27.566,102.542h20.566s-16.269-93.877-18.007-105.719Z" transform="translate(-1200.575 -1491.551)" fill="#363e44"/>
            <path id="Trazado_625333" data-name="Trazado 625333" d="M1393.954,1524.922s-7.973,40.446,2.744,98.787h19.118s3.429-84.635,8.353-97.343Z" transform="translate(-1391.103 -1517.99)" fill="#363e44"/>
            <path id="Trazado_625334" data-name="Trazado 625334" d="M1376.05,1627.932a.208.208,0,0,0,.207-.2l.89-17.482,6.16-2.116a.208.208,0,0,0-.135-.393l-6.292,2.162a.209.209,0,0,0-.14.186l-.9,17.622a.208.208,0,0,0,.2.218Z" transform="translate(-1347.211 -1583.601)" fill="#d3bba3"/>
          </g>
        </g>
        <g id="Grupo_989928" data-name="Grupo 989928" transform="translate(0 10.643)">
          <path id="Trazado_625335" data-name="Trazado 625335" d="M1513.126,1341.975l.776.293,14.006-19.285-14.451-12.857-7.079,15.5A12.1,12.1,0,0,0,1513.126,1341.975Z" transform="translate(-1505.282 -1286.541)" fill="#84524d"/>
          <g id="Grupo_989924" data-name="Grupo 989924" transform="translate(65.979)">
            <g id="Grupo_989923" data-name="Grupo 989923" transform="translate(0)">
              <path id="Trazado_625336" data-name="Trazado 625336" d="M1102.111,1217.5s7.486,6.866,11.607,2.422c4.278-4.615,9.274-9.932,11.865-12.432,5.341-5.155,13.979-11.99,14.923-10.773.537.693-.447,1.868-3.289,4.835a1.964,1.964,0,0,1,1.583.917,1.6,1.6,0,0,1-.194,1.871,2.251,2.251,0,0,1,1.75.585,1.856,1.856,0,0,1,.1,2.158,2.308,2.308,0,0,1,1.77.73,1.934,1.934,0,0,1-.5,2.473c-1.145,1.073-4.347,3.927-5.847,5.651-1.866,2.145-9.181,11.062-14.31,17.331a13.452,13.452,0,0,1-13.321,4.607l-5.915-1.31Z" transform="translate(-1102.111 -1196.575)" fill="#84524d"/>
              <path id="Trazado_625337" data-name="Trazado 625337" d="M1141.205,1242.8a.207.207,0,0,0,.186-.114,8,8,0,0,0,.744-3.928c-.006-1.133.019-1.688.628-1.924a4.1,4.1,0,0,0,1.831-1.726.87.87,0,0,0-.042-1,.881.881,0,0,0-.965-.315l-4.626,1.394a.208.208,0,0,0,.12.4l4.626-1.394a.464.464,0,0,1,.514.168.453.453,0,0,1,.023.526,3.758,3.758,0,0,1-1.63,1.562c-.9.349-.9,1.216-.893,2.313a7.65,7.65,0,0,1-.7,3.74.208.208,0,0,0,.093.279A.205.205,0,0,0,1141.205,1242.8Z" transform="translate(-1111.965 -1226.032)" fill="#363e44"/>
              <path id="Trazado_625338" data-name="Trazado 625338" d="M1118.576,1231.907a.208.208,0,0,0,.151-.35,2.2,2.2,0,0,1-.02-3l.653-.708a.208.208,0,0,0-.272-.311l-1.548,1.091a1.341,1.341,0,0,1-1.708-.136,1.329,1.329,0,0,1,0-1.908l1.81-1.754a.208.208,0,0,0-.272-.313l-.961.75a1.035,1.035,0,0,1-1.43-.159,1.02,1.02,0,0,1,.062-1.362l1.237-1.261a.208.208,0,0,0-.3-.291l-1.238,1.261a1.435,1.435,0,0,0-.087,1.916,1.452,1.452,0,0,0,1.3.516l-.411.4a1.744,1.744,0,0,0,0,2.5,1.756,1.756,0,0,0,2.237.178l.253-.178a2.622,2.622,0,0,0,.394,3.052A.207.207,0,0,0,1118.576,1231.907Z" transform="translate(-1081.563 -1216.825)" fill="#363e44"/>
            </g>
          </g>
          <path id="Trazado_625339" data-name="Trazado 625339" d="M1260.489,1282.963l-14.229-5.985s3.23-8.861,6.576-14.081c3.543-5.528,8.448-7.859,14.99-8.564,9.29-1,26.053.388,38.017,4.247,15.118,4.877,15.785,5.32,15.785,5.32l-7.781,20.615-5.114-1.33,6.242,39.964-61.032,2.244S1258.71,1290.056,1260.489,1282.963Z" transform="translate(-1245.199 -1242.086)" fill="#8b865c"/>
          <g id="Grupo_989925" data-name="Grupo 989925" transform="translate(41.968 24.043)">
            <path id="Trazado_625340" data-name="Trazado 625340" d="M1289.547,1362.2h-17.9l9.415-26.356h17.689a2.076,2.076,0,0,1,1.961,2.771l-7.506,21.013A3.881,3.881,0,0,1,1289.547,1362.2Z" transform="translate(-1271.645 -1330.964)" fill="#f7f1eb"/>
            <path id="Trazado_625341" data-name="Trazado 625341" d="M1301.886,1333.213h-11.692l1.073-3.249h11.914Z" transform="translate(-1277.847 -1326.301)" fill="#8b865c"/>
            <path id="Trazado_625342" data-name="Trazado 625342" d="M1289.352,1332.923a.207.207,0,0,0,.2-.151l.846-2.953h11.849a.208.208,0,0,0,0-.415h-12.162l-.932,3.254a.208.208,0,0,0,.142.257A.2.2,0,0,0,1289.352,1332.923Z" transform="translate(-1276.902 -1325.857)" fill="#363e44"/>
            <path id="Trazado_625343" data-name="Trazado 625343" d="M1297.587,1315.848a.208.208,0,0,0,.2-.151l.846-2.953h5.793l-.813,2.838a.208.208,0,0,0,.4.115l.965-3.368h-6.657l-.932,3.254a.207.207,0,0,0,.143.257A.2.2,0,0,0,1297.587,1315.848Z" transform="translate(-1281.136 -1312.329)" fill="#363e44"/>
            <path id="Trazado_625344" data-name="Trazado 625344" d="M1312.607,1319.632a.984.984,0,1,0-.986-.984A.986.986,0,0,0,1312.607,1319.632Zm0-1.552a.568.568,0,1,1-.57.568A.57.57,0,0,1,1312.607,1318.081Z" transform="translate(-1292.709 -1316.556)" fill="#363e44"/>
          </g>
          <g id="Grupo_989927" data-name="Grupo 989927" transform="translate(7.637 40.52)">
            <path id="Trazado_625345" data-name="Trazado 625345" d="M1347.443,1393.379c7.061.471,23.745.759,25.373.852,3.042.173,19.346,1.527,19.405,3.893.028,1.131-3.125,1.011-4.189.94.832.48,4.224,1.979,3.925,3.212-.352,1.448-4.669.279-4.748.3.894.4,4.52,1.861,4.332,2.794-.245,1.214-4.026.865-5.153.709.1.169,3.74,1.054,3.51,2.514-.169,1.072-3.637.747-5.143.61-2.7-.152-34.238-.224-40.1-.983C1342.363,1407.925,1344.34,1395.584,1347.443,1393.379Z" transform="translate(-1343.661 -1393.021)" fill="#84524d"/>
            <path id="Trazado_625346" data-name="Trazado 625346" d="M1500.459,1392.728a.208.208,0,0,0,.007-.415c-3.591-.117-12.953-.533-15.227-.659a.208.208,0,0,0-.023.415c2.276.126,11.643.542,15.236.66Z" transform="translate(-1481.468 -1391.653)" fill="#363e44"/>
            <g id="Grupo_989926" data-name="Grupo 989926" transform="translate(39.001 4.6)">
              <path id="Trazado_625347" data-name="Trazado 625347" d="M1368.032,1415.339a.208.208,0,0,0,.082-.4,14.136,14.136,0,0,0-5.284-1.144h0a.208.208,0,0,0,0,.415,13.746,13.746,0,0,1,5.13,1.11A.208.208,0,0,0,1368.032,1415.339Z" transform="translate(-1362.617 -1413.797)" fill="#363e44"/>
              <path id="Trazado_625348" data-name="Trazado 625348" d="M1370.473,1434.413a.208.208,0,0,0,.061-.406q-.2-.06-.4-.116a14.262,14.262,0,0,0-3.449-.5h0a.208.208,0,0,0,0,.415,13.838,13.838,0,0,1,3.348.487q.2.054.386.112A.2.2,0,0,0,1370.473,1434.413Z" transform="translate(-1365.86 -1429.32)" fill="#363e44"/>
              <path id="Trazado_625349" data-name="Trazado 625349" d="M1373.538,1452.9a.208.208,0,0,0,.038-.412,14.329,14.329,0,0,0-2.274-.233h0a.208.208,0,0,0,0,.415,13.973,13.973,0,0,1,2.208.226A.208.208,0,0,0,1373.538,1452.9Z" transform="translate(-1369.883 -1444.268)" fill="#363e44"/>
            </g>
          </g>
        </g>
        <g id="Grupo_989933" data-name="Grupo 989933" transform="translate(31.522 0)">
          <path id="Trazado_625350" data-name="Trazado 625350" d="M1387.451,1189.164c-1.8,1.478-7.426-1.8-7.426-1.8l-3.521-6.186a5.948,5.948,0,0,1,11.866-.833S1389.289,1187.659,1387.451,1189.164Z" transform="translate(-1370.744 -1168.707)" fill="#84524d"/>
          <path id="Trazado_625351" data-name="Trazado 625351" d="M1396.452,1209.9h0a4.12,4.12,0,0,0,3.821-4.4l-1.012-14.326-8.219.577,1.012,14.33A4.12,4.12,0,0,0,1396.452,1209.9Z" transform="translate(-1385.45 -1181.656)" fill="#84524d"/>
          <path id="Trazado_625352" data-name="Trazado 625352" d="M1372.176,1209.1s1.787,1.622,1.731,2.087c-.067.555-1.9,1.02-1.9,1.02S1372.22,1209.1,1372.176,1209.1Z" transform="translate(-1355.122 -1195.856)" fill="#84524d"/>
          <g id="Grupo_989931" data-name="Grupo 989931" transform="translate(11.682 12.672)">
            <path id="Trazado_625353" data-name="Trazado 625353" d="M1395.411,1207.074a5.172,5.172,0,0,1,2.153-.686c.255-.018-.083,2.048-.332,1.95A5.174,5.174,0,0,1,1395.411,1207.074Z" transform="translate(-1395.411 -1206.378)" fill="#fff"/>
            <g id="Grupo_989930" data-name="Grupo 989930" transform="translate(0)">
              <g id="Grupo_989929" data-name="Grupo 989929" clip-path="url(#clip-path)">
                <path id="Trazado_625354" data-name="Trazado 625354" d="M1378.942,1203.457a2.03,2.03,0,1,1,.2,2.859A2.037,2.037,0,0,1,1378.942,1203.457Z" transform="translate(-1376.742 -1203.503)" fill="#363e44"/>
              </g>
            </g>
          </g>
          <path id="Trazado_625356" data-name="Trazado 625356" d="M1374.712,1161.278a5.237,5.237,0,0,0,4.581,2.868c3.2-.057,3.774-.154,3.774-.154l.624,2.99a2.171,2.171,0,0,1-2.059,2.61l-2.286.075a4.639,4.639,0,0,1-4.724-3.832l-.438-2.506-3.065-.863s-5.062-2-3.451-5.563a2.521,2.521,0,0,1,3.089-1.56l6.259-6.127c1.4-1.244,2.865-.238,4.283.99,0,0,2.966,1.965,1.632,3.151l-.971.864,1.006-.275c.813-.222,1.884,1.451,1.884,1.451a2.372,2.372,0,0,1-1.941,3.145,6.7,6.7,0,0,1-2.757-.281C1377.077,1157.637,1374.021,1158.64,1374.712,1161.278Z" transform="translate(-1365.216 -1147.96)" fill="#363e44"/>
          <path id="Trazado_625357" data-name="Trazado 625357" d="M1418.811,1210.084a1.725,1.725,0,1,1-2.356-1.145A1.856,1.856,0,0,1,1418.811,1210.084Z" transform="translate(-1409.245 -1195.631)" fill="#84524d"/>
          <path id="Trazado_625358" data-name="Trazado 625358" d="M1385.774,1225.579a1.052,1.052,0,0,0,.627-.208.208.208,0,0,0-.248-.333.626.626,0,0,1-1-.53.208.208,0,0,0-.415-.02,1.037,1.037,0,0,0,1.038,1.091Z" transform="translate(-1370.341 -1207.891)" fill="#84524d"/>
          <path id="Trazado_625359" data-name="Trazado 625359" d="M1420.758,1219.756a.208.208,0,0,0,.118-.379l-.885-.609a.208.208,0,0,0-.236.343l.885.609A.207.207,0,0,0,1420.758,1219.756Z" transform="translate(-1412.078 -1203.486)" fill="#363e44"/>
          <g id="Grupo_989932" data-name="Grupo 989932">
            <path id="Trazado_625360" data-name="Trazado 625360" d="M1383.292,1152.416c-.01-.041-.019-.081-.03-.122a9.413,9.413,0,0,0-18.188,4.865c.011.041.025.08.036.121Z" transform="translate(-1362.998 -1145.336)" fill="#d87355"/>
            <path id="Trazado_625361" data-name="Trazado 625361" d="M1378.979,1158.3a.208.208,0,0,0,.193-.132,9.222,9.222,0,0,1,14.031-4.047.208.208,0,1,0,.245-.335,9.636,9.636,0,0,0-14.663,4.229.207.207,0,0,0,.117.269A.2.2,0,0,0,1378.979,1158.3Z" transform="translate(-1376.151 -1150.55)" fill="#efbc73"/>
            <path id="Trazado_625362" data-name="Trazado 625362" d="M1378.806,1167.34a.208.208,0,0,0,.188-.118,9.531,9.531,0,0,1,13.142-3.75.208.208,0,1,0,.22-.352,9.946,9.946,0,0,0-13.736,3.922.208.208,0,0,0,.187.3Z" transform="translate(-1375.036 -1158.36)" fill="#efbc73"/>
            <path id="Trazado_625363" data-name="Trazado 625363" d="M1367.868,1177.468l-22.5,6.017a1.048,1.048,0,0,1-1.284-.738h0a1.045,1.045,0,0,1,.741-1.28l22.5-6.017a1.048,1.048,0,0,1,1.284.738h0A1.044,1.044,0,0,1,1367.868,1177.468Z" transform="translate(-1344.051 -1169.165)" fill="#d87355"/>
          </g>
        </g>
      </g>
      <g id="Grupo_989918" data-name="Grupo 989918" transform="translate(205.545 116.146)">
        <path id="Trazado_625312" data-name="Trazado 625312" d="M458.623,1181.122a46.792,46.792,0,0,0,7.452-.679c6.769-1.064,16.858-4.546,26.485-15.092,23.034-25.231,14.194-76.6,7.74-114.108q-.235-1.364-.5-2.892l-.025-.145c-2.652-15.107-7.091-40.391-4.162-72.376.81-8.844,1.845-14.393,5.257-20.177,6.972-11.82,21.968-21.283,38.205-24.11,13.241-2.3,25.009.143,33.133,6.893,4.04,3.356,11.081,11.35,12.847,27.178a2.149,2.149,0,0,0,4.271-.477c-1.935-17.326-9.835-26.236-14.373-30.006-9.109-7.568-22.112-10.345-36.616-7.821-17.425,3.033-33.585,13.3-41.17,26.16-3.8,6.45-4.985,12.7-5.834,21.968-2.98,32.549,1.519,58.188,4.208,73.507q.282,1.605.528,3.025c3.058,17.769,6.863,39.884,7.071,60.207.24,23.432-4.258,39.877-13.75,50.275-8.787,9.625-17.89,12.787-23.979,13.744-3.978.625-13.292,2.089-19.57-3.625-6.488-5.906-5.719-15.831-5.683-16.251.677-7.908,5.8-12.349,11.738-17.49,5.549-4.807,11.836-10.253,15.044-19.414,3.1-8.836,2.532-19.12-1.675-30.565a2.149,2.149,0,0,0-4.034,1.482c3.853,10.485,4.41,19.792,1.653,27.662-2.831,8.083-8.409,12.914-13.8,17.586-6.367,5.516-12.381,10.725-13.206,20.373-.108,1.269-.829,12.6,7.072,19.794C446.861,1179.314,452.135,1181.121,458.623,1181.122Zm89.894-250.838a55.563,55.563,0,0,0-9.519.851c-16.352,2.846-31.461,12.388-38.492,24.308-3.452,5.852-4.5,11.445-5.312,20.35-2.933,32.04,1.511,57.358,4.167,72.486l.026.145q.268,1.526.5,2.89c6.44,37.423,15.26,88.676-7.637,113.757-9.546,10.457-19.54,13.908-26.243,14.962a46.409,46.409,0,0,1-7.387.673c-6.381,0-11.562-1.771-15.4-5.263-7.753-7.057-7.044-18.2-6.938-19.452.811-9.48,6.763-14.636,13.064-20.094,5.435-4.708,11.055-9.576,13.922-17.762,2.79-7.964,2.233-17.365-1.655-27.943a1.733,1.733,0,0,1,3.254-1.2c4.172,11.353,4.735,21.542,1.673,30.284-3.172,9.056-9.415,14.464-14.924,19.236-6.005,5.2-11.19,9.694-11.881,17.77-.037.428-.822,10.551,5.817,16.594,6.425,5.849,15.877,4.363,19.914,3.729,6.155-.968,15.353-4.16,24.221-13.874,9.566-10.479,14.1-27.018,13.858-50.56-.208-20.357-4.017-42.489-7.077-60.273q-.245-1.422-.527-3.023c-2.686-15.3-7.18-40.907-4.2-73.4.843-9.211,2.014-15.413,5.778-21.8,7.526-12.758,23.573-22.949,40.883-25.962,14.381-2.5,27.265.243,36.279,7.732,4.489,3.729,12.306,12.551,14.225,29.732a1.733,1.733,0,0,1-3.445.385c-1.783-15.973-8.907-24.055-13-27.451C566.262,932.961,557.963,930.284,548.518,930.284Z" transform="translate(-435.809 -926.402)" fill="#363e44"/>
        <rect id="Rectángulo_344299" data-name="Rectángulo 344299" width="85.954" height="194.645" transform="translate(76.237 61.71)" fill="#afafaf"/>
        <g id="Grupo_989915" data-name="Grupo 989915" transform="translate(85.773 178.512)">
          <path id="Trazado_625313" data-name="Trazado 625313" d="M435.465,1796.779h16.8a.208.208,0,0,0,.208-.208v-10.536a.208.208,0,0,0-.208-.208h-16.8a.208.208,0,0,0-.208.208v10.536A.208.208,0,0,0,435.465,1796.779Zm16.6-.415H435.672v-10.121h16.389Z" transform="translate(-384.609 -1785.827)" fill="#84524d"/>
          <path id="Trazado_625314" data-name="Trazado 625314" d="M435.465,1880.878h16.8a.208.208,0,0,0,.208-.208v-10.537a.208.208,0,0,0-.208-.208h-16.8a.208.208,0,0,0-.208.208v10.537A.208.208,0,0,0,435.465,1880.878Zm16.6-.415H435.672v-10.121h16.389Z" transform="translate(-384.609 -1852.458)" fill="#84524d"/>
          <path id="Trazado_625315" data-name="Trazado 625315" d="M433.336,1963.642h16.8a.208.208,0,0,0,.208-.208V1952.9a.208.208,0,0,0-.208-.208h-16.8a.208.208,0,0,0-.208.208v10.536A.208.208,0,0,0,433.336,1963.642Zm16.6-.415H433.543v-10.121h16.389Z" transform="translate(-382.037 -1918.031)" fill="#84524d"/>
          <path id="Trazado_625316" data-name="Trazado 625316" d="M679.3,1798.557h16.8a.208.208,0,0,0,.208-.208v-10.536a.208.208,0,0,0-.208-.208H679.3a.208.208,0,0,0-.208.208v10.536A.208.208,0,0,0,679.3,1798.557Zm16.6-.416H679.512v-10.121H695.9Z" transform="translate(-679.097 -1787.236)" fill="#84524d"/>
          <path id="Trazado_625317" data-name="Trazado 625317" d="M679.3,1882.656h16.8a.208.208,0,0,0,.208-.208v-10.536a.208.208,0,0,0-.208-.208H679.3a.208.208,0,0,0-.208.208v10.536A.208.208,0,0,0,679.3,1882.656Zm16.6-.415H679.512V1872.12H695.9Z" transform="translate(-679.097 -1853.867)" fill="#84524d"/>
          <path id="Trazado_625318" data-name="Trazado 625318" d="M677.176,1965.421h16.8a.208.208,0,0,0,.208-.208v-10.536a.208.208,0,0,0-.208-.208h-16.8a.208.208,0,0,0-.208.208v10.536A.208.208,0,0,0,677.176,1965.421Zm16.6-.416H677.383v-10.121h16.389Z" transform="translate(-676.526 -1919.44)" fill="#84524d"/>
          <path id="Trazado_625319" data-name="Trazado 625319" d="M557.49,1797.438h16.8a.208.208,0,0,0,.208-.208v-10.536a.208.208,0,0,0-.208-.208h-16.8a.208.208,0,0,0-.208.208v10.536A.208.208,0,0,0,557.49,1797.438Zm16.6-.416H557.7V1786.9h16.389Z" transform="translate(-531.98 -1786.349)" fill="#84524d"/>
          <path id="Trazado_625320" data-name="Trazado 625320" d="M557.49,1881.537h16.8a.208.208,0,0,0,.208-.208v-10.536a.208.208,0,0,0-.208-.208h-16.8a.208.208,0,0,0-.208.208v10.536A.208.208,0,0,0,557.49,1881.537Zm16.6-.416H557.7V1871h16.389Z" transform="translate(-531.98 -1852.98)" fill="#84524d"/>
          <path id="Trazado_625321" data-name="Trazado 625321" d="M555.361,1964.3h16.8a.208.208,0,0,0,.208-.208v-10.536a.207.207,0,0,0-.208-.207h-16.8a.207.207,0,0,0-.208.207v10.536A.207.207,0,0,0,555.361,1964.3Zm16.6-.415H555.568v-10.121h16.389Z" transform="translate(-529.409 -1918.554)" fill="#84524d"/>
        </g>
        <path id="Trazado_625322" data-name="Trazado 625322" d="M430.68,1353.516h69.04a.208.208,0,0,0,.208-.208V1244.064a.208.208,0,0,0-.208-.208H430.68a.208.208,0,0,0-.208.208v109.245A.208.208,0,0,0,430.68,1353.516Zm68.833-.415H430.887v-108.83h68.625Z" transform="translate(-345.293 -1177.917)" fill="#f2e6dc"/>
        <path id="Trazado_625323" data-name="Trazado 625323" d="M717.864,2086.28a5.06,5.06,0,1,0-5.06-5.06A5.066,5.066,0,0,0,717.864,2086.28Zm0-9.7a4.644,4.644,0,1,1-4.645,4.644A4.649,4.649,0,0,1,717.864,2076.575Z" transform="translate(-626.932 -1837.342)" fill="#84524d"/>
        <path id="Trazado_625324" data-name="Trazado 625324" d="M369.258,1397.966H460.2a.208.208,0,0,0,.208-.208V1198.678a.208.208,0,0,0-.208-.208H369.258a.208.208,0,0,0-.208.208v199.081A.208.208,0,0,0,369.258,1397.966Zm90.738-.415h-90.53V1198.885H460Z" transform="translate(-293.017 -1141.958)" fill="#363e44"/>
        <rect id="Rectángulo_344300" data-name="Rectángulo 344300" width="8.041" height="82.072" transform="translate(25.496 3.391)" fill="#636363"/>
        <rect id="Rectángulo_344301" data-name="Rectángulo 344301" width="8.873" height="34.382" transform="translate(25.496 155.428)" fill="#636363"/>
        <path id="Trazado_625325" data-name="Trazado 625325" d="M1028.727,1011.315a.208.208,0,0,0,.208-.208V986.835a.208.208,0,1,0-.416,0v24.272A.208.208,0,0,0,1028.727,1011.315Z" transform="translate(-998.521 -974.118)" fill="#fff"/>
        <g id="Grupo_989917" data-name="Grupo 989917" transform="translate(88.438 70.791)">
          <rect id="Rectángulo_344302" data-name="Rectángulo 344302" width="62.109" height="101.274" transform="translate(0)" fill="#f2e6dc"/>
          <path id="Trazado_625326" data-name="Trazado 625326" d="M465.387,1318.182h0l54.345-.046a.208.208,0,0,0,0-.415h0l-54.345.046a.208.208,0,0,0,0,.416Z" transform="translate(-460.951 -1307.23)" fill="#fff"/>
          <path id="Trazado_625327" data-name="Trazado 625327" d="M468.057,1735.175h0l54.9-.555a.207.207,0,0,0,.206-.209.2.2,0,0,0-.21-.206l-54.9.555a.208.208,0,0,0,0,.415Z" transform="translate(-464.73 -1637.207)" fill="#fff"/>
          <rect id="Rectángulo_344303" data-name="Rectángulo 344303" width="11.461" height="3.882" transform="translate(3.695 2.379)" fill="#f7f1eb"/>
          <g id="Grupo_989916" data-name="Grupo 989916" transform="translate(3.881 22.533)">
            <rect id="Rectángulo_344304" data-name="Rectángulo 344304" width="54.068" height="6.377" fill="#8b865c"/>
            <rect id="Rectángulo_344305" data-name="Rectángulo 344305" width="13.309" height="6.377" transform="translate(28.374)" fill="#efbc73"/>
            <rect id="Rectángulo_344306" data-name="Rectángulo 344306" width="14.141" height="6.377" transform="translate(14.233)" fill="#d87355"/>
            <rect id="Rectángulo_344307" data-name="Rectángulo 344307" width="14.603" height="6.377" transform="translate(0)" fill="#84524d"/>
          </g>
          <rect id="Rectángulo_344308" data-name="Rectángulo 344308" width="15.712" height="4.806" transform="translate(41.59 34.363)" fill="#e6d0be"/>
          <rect id="Rectángulo_344309" data-name="Rectángulo 344309" width="15.712" height="4.806" transform="translate(41.613 43.536)" fill="#e6d0be"/>
          <rect id="Rectángulo_344310" data-name="Rectángulo 344310" width="15.712" height="4.806" transform="translate(41.59 52.663)" fill="#e6d0be"/>
          <rect id="Rectángulo_344311" data-name="Rectángulo 344311" width="15.712" height="4.806" transform="translate(41.613 61.974)" fill="#e6d0be"/>
          <rect id="Rectángulo_344312" data-name="Rectángulo 344312" width="9.882" height="3.882" transform="translate(48.344 90.598)" fill="#e6d0be"/>
          <rect id="Rectángulo_344313" data-name="Rectángulo 344313" width="9.882" height="3.882" transform="translate(24.749 90.598)" fill="#e6d0be"/>
          <rect id="Rectángulo_344314" data-name="Rectángulo 344314" width="9.882" height="3.882" transform="translate(3.189 90.598)" fill="#e6d0be"/>
        </g>
        <rect id="Rectángulo_344315" data-name="Rectángulo 344315" width="8.873" height="16.636" transform="translate(147.403 47.477)" fill="#afafaf"/>
        <rect id="Rectángulo_344316" data-name="Rectángulo 344316" width="6.377" height="8.873" transform="translate(148.328 39.528)" fill="#636363"/>
        <rect id="Rectángulo_344317" data-name="Rectángulo 344317" width="17.745" height="122.831" transform="translate(20.596 53.669)" fill="#afafaf"/>
        <rect id="Rectángulo_344318" data-name="Rectángulo 344318" width="8.041" height="19.686" transform="translate(25.219 64.206)" fill="#f2e6dc"/>
      </g>
    </g>
  </g>
</svg>
