<svg xmlns="http://www.w3.org/2000/svg" width="256.23" height="256.311" viewBox="0 0 256.23 256.311">
  <g id="Global_warming" data-name="Global warming" transform="translate(-335.289 -335)">
    <ellipse id="Elipse_5155" data-name="Elipse 5155" cx="128.115" cy="128.155" rx="128.115" ry="128.155" transform="translate(335.289 335)" fill="#f2e6dc"/>
    <g id="Grupo_990888" data-name="Grupo 990888" transform="translate(344.219 343.286)">
      <g id="Grupo_990884" data-name="Grupo 990884" transform="translate(8.614)">
        <path id="Trazado_626897" data-name="Trazado 626897" d="M460.55,445.316h24.4l-1.166-21.138-6.088-8.033,5.2-8.033-.77-13.951H463.372l-.77,13.951,5.2,8.033-6.088,8.033Z" transform="translate(-460.55 -394.162)" fill="#363e44"/>
        <path id="Trazado_626898" data-name="Trazado 626898" d="M490.948,509.837H468.877l.886-16.065h20.3Z" transform="translate(-467.711 -479.82)" fill="#d87355"/>
      </g>
      <g id="Grupo_990885" data-name="Grupo 990885" transform="translate(36.839)">
        <path id="Trazado_626899" data-name="Trazado 626899" d="M662.07,445.316h24.4l-1.166-21.138-6.088-8.033,5.2-8.033-.77-13.951H664.893l-.77,13.951,5.2,8.033-6.088,8.033Z" transform="translate(-662.07 -394.162)" fill="#363e44"/>
        <path id="Trazado_626900" data-name="Trazado 626900" d="M692.469,509.837H670.4l.887-16.065h20.3Z" transform="translate(-669.231 -479.82)" fill="#d87355"/>
      </g>
      <g id="Grupo_990886" data-name="Grupo 990886" transform="translate(0 51.155)">
        <rect id="Rectángulo_344636" data-name="Rectángulo 344636" width="70.757" height="21.329" transform="translate(70.757 21.329) rotate(180)" fill="#d3bba3"/>
        <rect id="Rectángulo_344637" data-name="Rectángulo 344637" width="67.035" height="3.573" transform="translate(68.937 8.395) rotate(180)" fill="#e6d0be"/>
        <rect id="Rectángulo_344638" data-name="Rectángulo 344638" width="67.035" height="3.573" transform="translate(68.937 16.181) rotate(180)" fill="#e6d0be"/>
      </g>
      <g id="Grupo_990887" data-name="Grupo 990887" transform="translate(65.915 19.725)">
        <path id="Trazado_626901" data-name="Trazado 626901" d="M880.956,548.486V534.994l11.29,13.492V534.994l11.29,13.492V534.994L925.6,566.62H869.666V534.994Z" transform="translate(-869.666 -534.994)" fill="#d3bba3"/>
        <rect id="Rectángulo_344639" data-name="Rectángulo 344639" width="51.158" height="31.708" transform="translate(55.888 52.759) rotate(180)" fill="#e6d0be"/>
        <rect id="Rectángulo_344640" data-name="Rectángulo 344640" width="11.181" height="7.436" transform="translate(20.554 34.135) rotate(180)" fill="#d3bba3"/>
        <rect id="Rectángulo_344641" data-name="Rectángulo 344641" width="11.181" height="7.436" transform="translate(20.554 47.112) rotate(180)" fill="#d3bba3"/>
        <rect id="Rectángulo_344642" data-name="Rectángulo 344642" width="11.181" height="7.436" transform="translate(35.931 34.135) rotate(180)" fill="#d3bba3"/>
        <rect id="Rectángulo_344643" data-name="Rectángulo 344643" width="11.181" height="7.436" transform="translate(35.931 47.112) rotate(180)" fill="#d3bba3"/>
        <rect id="Rectángulo_344644" data-name="Rectángulo 344644" width="11.181" height="7.436" transform="translate(51.309 34.135) rotate(180)" fill="#d3bba3"/>
        <rect id="Rectángulo_344645" data-name="Rectángulo 344645" width="11.181" height="7.436" transform="translate(51.309 47.112) rotate(180)" fill="#d3bba3"/>
      </g>
    </g>
    <path id="Trazado_626902" data-name="Trazado 626902" d="M932.284,386.977a45.016,45.016,0,0,0-45.009-45.023c-11.66,0-24.648,5.687-35.87,13.533l-99.848,67.251L867.74,506.492l57.435-95.22A44.823,44.823,0,0,0,932.284,386.977Z" transform="translate(-357.965 -5.98)" fill="#ffd092" opacity="0.4"/>
    <g id="Grupo_990890" data-name="Grupo 990890" transform="translate(341.281 393.557)">
      <path id="Trazado_626903" data-name="Trazado 626903" d="M539.659,837.454s4.879,33.021-2.6,45.633A85.472,85.472,0,0,1,384.6,806.736c4.29-10.311,25.462-16.719,25.462-16.719s7.066-22.869,15.52-27.067a85.561,85.561,0,0,1,80.608,2.54c4.371,2.526,9.409,12.611,9.409,12.611s8.7,1.259,11.306,4.142a85.633,85.633,0,0,1,13.7,20.4C546.027,813.959,539.659,837.454,539.659,837.454Z" transform="translate(-378.073 -753.946)" fill="#d3bba3"/>
      <path id="Trazado_626904" data-name="Trazado 626904" d="M489.671,836.748c-2.446,1.474-1.114,5.306-3.551,6.68-4.18,2.356-15.364-4.82-14.711-10.193.707-5.816,15.4-10.468,20.721-5.973,3.427,2.894,1.6,8.419,4.917,9.837,2.813,1.2,7.727-1.23,8.78-4.919,1.391-4.871-4.75-9.135-5.268-9.486-6.211-4.194-14.764-1.9-17.911-1.054-6.8,1.824-8.345,4.5-11.59,3.513-3.427-1.042-4.135-4.763-5.371-7.739A85.768,85.768,0,0,0,424.708,861.2c3.05,4.326,10.484,4.839,12.984,12.438,1.315,4,.4,7.316,3.161,9.486,2.814,2.209,5.822.381,8.078,2.81,1.338,1.441.809,2.655,1.756,7.729.914,4.9,1.372,7.345,2.81,8.783,4.147,4.146,14.345.979,14.4-.7.036-1.114-4.4-.783-5.971-3.865-1.638-3.214,1.867-6.162.351-9.134-1.663-3.261-6.874-1.666-8.429-4.567-1.606-3,1.458-9.337,6.322-11.945,7.135-3.825,12.222,3.56,19.316.7,8.828-3.555,6.267-17.131,16.858-22.133,5.34-2.522,9.445-.7,10.185-2.81C507.928,844,494.525,833.823,489.671,836.748Z" transform="translate(-418.176 -808.405)" fill="#f7f1eb"/>
      <path id="Trazado_626905" data-name="Trazado 626905" d="M748.285,1373a21.261,21.261,0,0,1,13.013-.449,22.364,22.364,0,0,1,9.146,4.412c5.759,4.743,4.066,8.674,8.913,11.888,5.239,3.474,10.991,1.385,11.884,4.086.483,1.463-1.184,2.133-2.6,5.572-2.512,6.1.057,10.51-2.6,12.26-1.451.956-4.456,1.115-4.456,1.115a17.711,17.711,0,0,1-.743,6.315c-.706,1.916-1.463,1.855-3.342,4.458-2.632,3.646-1.906,4.815-3.821,7.212-2.864,3.583-5.6,2.362-7.321,4.8-3.626,5.143,5.722,14.6,2.971,17.832-2.083,2.451-10.623.765-14.36-4.458-2.636-3.683-.688-6.057-2.228-15.108a77.181,77.181,0,0,0-4.952-16.346c-2.823-6.755-4.953-9.261-4.165-13.571.678-3.709,2.7-4.261,2.432-6.985-.5-5.186-8.052-5.625-8.913-10.4S742.75,1375.165,748.285,1373Z" transform="translate(-686.785 -1285.083)" fill="#f7f1eb"/>
      <path id="Trazado_626906" data-name="Trazado 626906" d="M1257.843,1082.541c-11.9-2.861-14.985-3.717-20.156-2.3-4.471,1.225-8.063,3.518-15.247,8.1-6.849,4.371-8.056,6.234-8.576,7.149-2.96,5.2-1.535,10.957,0,17.158,1.34,5.414,2.8,11.33,6.671,12.392,1.853.509,2.832-.489,8.576-2.859,7.337-3.028,11.006-4.542,12.388-3.336,2.754,2.4-5.985,11.706-2.382,18.588,2.411,4.6,8.069,3.774,10.006,9.056,1.32,3.6-.8,5.36,0,9.056a13.719,13.719,0,0,0,5.18,7.435,85.6,85.6,0,0,0,3.54-80.441Z" transform="translate(-1095.318 -1033.843)" fill="#f7f1eb"/>
      <g id="Grupo_990889" data-name="Grupo 990889" transform="translate(4.989 0)">
        <path id="Trazado_626907" data-name="Trazado 626907" d="M499.3,924.306l-.509,0a85.753,85.753,0,1,1,.509,0Zm-.03-170.94a85.336,85.336,0,1,0,85.315,85.821h0a85.413,85.413,0,0,0-84.81-85.82Z" transform="translate(-413.697 -753.086)" fill="#363e44"/>
      </g>
      <path id="Trazado_626908" data-name="Trazado 626908" d="M1189.4,852.293a85.813,85.813,0,0,0-20.715-16.752,10.272,10.272,0,0,0,.438,6.729c1.315,2.666,4.047,3.709,3.812,6.2-.232,2.453-3.181,4.5-5.718,5.243-4.328,1.259-7.077-1.414-8.576,0-2.251,2.124,2.795,9.237.477,11.439-1.518,1.442-4.262-1.055-7.147.477-2.732,1.45-4.511,5.939-2.859,9.056,1.285,2.423,4.318,3.4,6.67,3.336,1.974-.056,4.623-.882,11.912-9.056,6.735-7.552,7.7-10.463,10.482-10.485,4.679-.038,8.158,8.129,9.053,7.626.832-.468-3.864-6.559-2.382-10.486C1185.474,853.956,1187.119,852.919,1189.4,852.293Z" transform="translate(-1040.572 -823.992)" fill="#f7f1eb"/>
    </g>
    <g id="Grupo_990891" data-name="Grupo 990891" transform="translate(349.983 479.167)">
      <rect id="Rectángulo_344646" data-name="Rectángulo 344646" width="14.882" height="81.061" rx="7.441" transform="translate(10.663 0)" fill="#fff"/>
      <path id="Trazado_626909" data-name="Trazado 626909" d="M604.161,1440.227H601.3a.14.14,0,0,1,0-.28h2.861a.14.14,0,1,1,0,.28Z" transform="translate(-578.616 -1429.355)" fill="#363e44"/>
      <path id="Trazado_626910" data-name="Trazado 626910" d="M604.161,1506.372H601.3a.14.14,0,0,1,0-.28h2.861a.14.14,0,1,1,0,.28Z" transform="translate(-578.616 -1486.236)" fill="#363e44"/>
      <path id="Trazado_626911" data-name="Trazado 626911" d="M604.161,1572.517H601.3a.14.14,0,0,1,0-.28h2.861a.14.14,0,0,1,0,.28Z" transform="translate(-578.616 -1543.117)" fill="#363e44"/>
      <path id="Trazado_626912" data-name="Trazado 626912" d="M604.161,1638.661H601.3a.14.14,0,0,1,0-.28h2.861a.14.14,0,0,1,0,.28Z" transform="translate(-578.616 -1599.996)" fill="#363e44"/>
      <path id="Trazado_626913" data-name="Trazado 626913" d="M604.161,1704.806H601.3a.14.14,0,0,1,0-.28h2.861a.14.14,0,0,1,0,.28Z" transform="translate(-578.616 -1656.877)" fill="#363e44"/>
      <path id="Trazado_626914" data-name="Trazado 626914" d="M604.161,1770.95H601.3a.14.14,0,0,1,0-.28h2.861a.14.14,0,0,1,0,.28Z" transform="translate(-578.616 -1713.757)" fill="#363e44"/>
      <ellipse id="Elipse_5156" data-name="Elipse 5156" cx="18.104" cy="18.11" rx="18.104" ry="18.11" transform="translate(0 60.362)" fill="#fff"/>
      <ellipse id="Elipse_5157" data-name="Elipse 5157" cx="7.441" cy="7.444" rx="7.441" ry="7.444" transform="translate(10.663 71.028)" fill="#d87355"/>
      <rect id="Rectángulo_344647" data-name="Rectángulo 344647" width="2.912" height="71.648" rx="1.456" transform="translate(16.648 7.616)" fill="#d87355"/>
    </g>
    <g id="Grupo_990893" data-name="Grupo 990893" transform="translate(420.703 335.834)">
      <path id="Trazado_626915" data-name="Trazado 626915" d="M1023.825,470.16a.138.138,0,0,1-.042-.007.14.14,0,0,1-.1-.133.143.143,0,0,1,.007-.043l24.839-77.872-30.166,59.183a.14.14,0,0,1-.249-.127l29.771-58.407a.14.14,0,0,1-.115-.127L1015.233,435.9a.14.14,0,0,1-.252-.085.138.138,0,0,1,.028-.084l33.256-44.23-50.438,44.125a.14.14,0,1,1-.184-.211l43.766-38.288a.139.139,0,0,1,.039-.056l6.956-6.066L986.93,417.995a.14.14,0,0,1-.113-.257l56.219-24.681a.136.136,0,0,1,.053-.04l4.393-1.916-80.457,21.041a.14.14,0,0,1-.171-.1.144.144,0,0,1,0-.036.14.14,0,0,1,.1-.135l79.952-20.909-55.559,7.556a.14.14,0,0,1-.158-.12.136.136,0,0,1,0-.019.14.14,0,0,1,.121-.139l55.807-7.59H999.576a.14.14,0,1,1,0-.28h46.761l-101.086-9.961a.14.14,0,0,1,.027-.279l101.377,9.99-12.51-2.636a.14.14,0,0,1,.058-.274l9.1,1.917-2.464-.64a.14.14,0,0,1-.1-.122l-68.854-18.652a.14.14,0,0,1-.1-.135.135.135,0,0,1,0-.037.14.14,0,0,1,.172-.1l67.315,18.235a.14.14,0,0,1,.122-.023l8.5,2.352-68.853-35.117a.14.14,0,1,1,.127-.249l67.778,34.569a.15.15,0,0,1,.018-.048.14.14,0,0,1,.109-.067l-52.839-39.754a.14.14,0,0,1,.169-.224l52.916,39.813-37.282-35.4a.14.14,0,1,1,.193-.2l36.908,35.04-4.72-5.416a.14.14,0,0,1,.211-.184l5.669,6.506-28.358-48.11a.14.14,0,0,1,.241-.142l27.959,47.433-1.714-3.933a.14.14,0,0,1,.257-.112l2.323,5.328-1.77-31.86a.061.061,0,0,1,0-.008.14.14,0,0,1,.132-.139.138.138,0,0,1,.148.132l1.763,31.741,1.933-7.449a.141.141,0,0,1,.169-.1l.393-1.422a.14.14,0,0,1,.275.037.137.137,0,0,1-.005.038l-2.451,8.864.752-1.241a.14.14,0,1,1,.24.145l-.81,1.336,6.968-6.076a.14.14,0,0,1,.2.014.138.138,0,0,1,.034.092.14.14,0,0,1-.048.105l-6.962,6.07,5.208-2.272a.14.14,0,1,1,.112.257l-5.64,2.46,14.583,3.073a.14.14,0,0,1,.111.137.138.138,0,0,1,0,.029.14.14,0,0,1-.166.108l-9.1-1.917,2.464.64a.14.14,0,0,1,.1.169l1.422.393a.14.14,0,0,1,.1.135.143.143,0,0,1-.005.038.14.14,0,0,1-.172.1l-8.862-2.451,1.241.753a.14.14,0,1,1-.145.239l-1.336-.81,6.074,6.97a.14.14,0,1,1-.211.184l-6.069-6.964,2.271,5.21a.14.14,0,0,1-.257.112l-1.557-3.572,20.268,63.878a.143.143,0,0,1,.007.042.14.14,0,0,1-.274.042l-20.342-64.112,8.246,42.185a.149.149,0,0,1,0,.027.14.14,0,0,1-.277.026l-8.324-42.581,2.617,46.382s0,.006,0,.008a.14.14,0,0,1-.036.094l.8,14.481s0,.005,0,.008a.14.14,0,0,1-.132.139.138.138,0,0,1-.147-.132l-3.409-61.356-5.723,50.236a.14.14,0,0,1-.279-.015.121.121,0,0,1,0-.016l5.684-49.9-1.658,6.391a.14.14,0,0,1-.17.1l-.393,1.422a.14.14,0,0,1-.275-.037.137.137,0,0,1,.005-.038l.809-2.925-23.181,72.676A.14.14,0,0,1,1023.825,470.16Z" transform="translate(-945.125 -340.954)" fill="#efbc73"/>
      <g id="Grupo_990892" data-name="Grupo 990892" transform="translate(68.733 11.698)">
        <ellipse id="Elipse_5158" data-name="Elipse 5158" cx="35.869" cy="35.881" rx="35.869" ry="35.881" fill="#efbc73"/>
      </g>
    </g>
    <g id="Grupo_990896" data-name="Grupo 990896" transform="translate(548.083 400.372)">
      <g id="Grupo_990894" data-name="Grupo 990894" transform="translate(0 0.14)">
        <path id="Trazado_626916" data-name="Trazado 626916" d="M1871.514,851.531H1857.68l-3.087-48.786H1874.6Z" transform="translate(-1854.593 -802.744)" fill="#d87355"/>
        <rect id="Rectángulo_344648" data-name="Rectángulo 344648" width="13.834" height="11.804" transform="translate(3.087 55.511)" fill="#d87355"/>
      </g>
      <g id="Grupo_990895" data-name="Grupo 990895" transform="translate(2.947)">
        <path id="Trazado_626917" data-name="Trazado 626917" d="M1892.7,850.811h-13.834a.14.14,0,0,1-.14-.131l-3.087-48.787a.14.14,0,0,1,.14-.149h20.009a.14.14,0,0,1,.1.044.142.142,0,0,1,.038.1l-3.087,48.787A.14.14,0,0,1,1892.7,850.811Zm-13.7-.28h13.571l3.069-48.506h-19.71Z" transform="translate(-1875.634 -801.744)" fill="#363e44"/>
        <path id="Trazado_626918" data-name="Trazado 626918" d="M1911.65,1210.164h-13.834a.14.14,0,0,1-.14-.14v-11.8a.14.14,0,0,1,.14-.14h13.834a.14.14,0,0,1,.14.14v11.8A.14.14,0,0,1,1911.65,1210.164Zm-13.694-.28h13.554V1198.36h-13.554Z" transform="translate(-1894.589 -1142.569)" fill="#363e44"/>
      </g>
    </g>
    <rect id="Rectángulo_344649" data-name="Rectángulo 344649" width="100.29" height="97.34" transform="translate(590.975 591.061) rotate(180)" fill="#9e9569"/>
    <g id="Grupo_990911" data-name="Grupo 990911" transform="translate(416.369 414.395)">
      <g id="Grupo_990904" data-name="Grupo 990904" transform="translate(0 0)">
        <path id="Trazado_626919" data-name="Trazado 626919" d="M1779.809,1588.668c5.048,12.563,22.153,47.7,5.044,56.136-14.151,6.978-29.067-28.122-35-40.189Z" transform="translate(-1632.806 -1492.474)" fill="#e2a18d"/>
        <path id="Trazado_626920" data-name="Trazado 626920" d="M1098.053,1530.683c-13.073,3.506-55.062,22-61.383,4-5.228-14.891,34.778-26.966,47.466-31.415C1088.214,1513.824,1093.975,1520.127,1098.053,1530.683Z" transform="translate(-1019.112 -1419.036)" fill="#e2a18d"/>
        <g id="Grupo_990900" data-name="Grupo 990900">
          <path id="Trazado_626921" data-name="Trazado 626921" d="M1038.453,1393.674c-6.241-6.152,4.581-26.206,5.8-28.017,8.412-12.46,26-33.144,32.527-28.777,6.151,4.116,4.421,20.924-9.907,39.174C1054.13,1392.289,1043.611,1398.758,1038.453,1393.674Z" transform="translate(-1019.392 -1275.439)" fill="#e2a18d"/>
          <g id="Grupo_990898" data-name="Grupo 990898">
            <path id="Trazado_626922" data-name="Trazado 626922" d="M1162.508,1278.759h0c2.372,2.2,6.273,1.848,8.715-.786l19.512-21.549-8.336-7.734-19.763,21.317C1160.194,1272.64,1160.137,1276.559,1162.508,1278.759Z" transform="translate(-1126.23 -1200.114)" fill="#84524d"/>
            <ellipse id="Elipse_5159" data-name="Elipse 5159" cx="9.952" cy="10.317" rx="9.952" ry="10.317" transform="translate(0 24.251) rotate(-62.205)" fill="#363e44"/>
            <path id="Trazado_626923" data-name="Trazado 626923" d="M995.835,937l-8.522,16.314-50.386-10.931,21.164-40.516Z" transform="translate(-933.742 -901.865)" fill="#d87355"/>
            <rect id="Rectángulo_344650" data-name="Rectángulo 344650" width="18.357" height="12.269" transform="translate(53.58 51.424) rotate(-62.405)" fill="#efbc73"/>
            <g id="Grupo_990897" data-name="Grupo 990897" transform="translate(56.537 38.353)">
              <rect id="Rectángulo_344651" data-name="Rectángulo 344651" width="3.234" height="8.727" transform="translate(0 11.721) rotate(-62.405)" fill="#e0aa63"/>
              <rect id="Rectángulo_344652" data-name="Rectángulo 344652" width="3.234" height="8.727" transform="translate(2.313 7.294) rotate(-62.405)" fill="#e0aa63"/>
              <rect id="Rectángulo_344653" data-name="Rectángulo 344653" width="3.234" height="8.727" transform="translate(4.626 2.866) rotate(-62.405)" fill="#e0aa63"/>
            </g>
          </g>
          <g id="Grupo_990899" data-name="Grupo 990899" transform="translate(35.653 52.903)">
            <path id="Trazado_626924" data-name="Trazado 626924" d="M1238.043,1280.08c.968-.952,2.974-.416,4.683.543,2.781,1.561,4.487,4.809,3.062,6.371-1,1.094-4.215.445-6.658-2.163C1237.533,1283.123,1237.061,1281.046,1238.043,1280.08Z" transform="translate(-1227.898 -1279.58)" fill="#e2a18d"/>
            <path id="Trazado_626925" data-name="Trazado 626925" d="M1169.609,1357.046c1.15-.722,3.18.05,4.457,1.537,1.946,2.265,3.349,5.661,1.622,6.881-1.21.854-4.213-.472-6.037-3.545C1168.456,1359.908,1168.442,1357.778,1169.609,1357.046Z" transform="translate(-1168.744 -1345.961)" fill="#e2a18d"/>
            <path id="Trazado_626926" data-name="Trazado 626926" d="M1213.337,1305.816c1.068-1.007,3.441-.671,5.17.574,2.635,1.9,4.953,5.088,3.381,6.74-1.1,1.158-4.654.472-7.35-2.289C1212.773,1309.036,1212.253,1306.837,1213.337,1305.816Z" transform="translate(-1206.606 -1301.632)" fill="#e2a18d"/>
            <path id="Trazado_626927" data-name="Trazado 626927" d="M1189.325,1330.387c1.181-.873,3.5-.256,5.065,1.187,2.39,2.2,4.312,5.642,2.553,7.1-1.232,1.018-4.677-.087-7.025-3.15C1188.382,1333.516,1188.127,1331.272,1189.325,1330.387Z" transform="translate(-1185.795 -1322.925)" fill="#e2a18d"/>
          </g>
          <path id="Trazado_626928" data-name="Trazado 626928" d="M1279.137,1349.021c1.8-1.778,2.782-5.1,3-7,.683-5.965-2.191-12.426-4.4-12.36a3.22,3.22,0,0,0-2.883,3.268c-.09,2.709.886,3.91.753,5.967-.175,2.693-3.326,3.55-3.977,6.5C1270.455,1350.711,1276.669,1351.455,1279.137,1349.021Z" transform="translate(-1221.439 -1269.746)" fill="#e2a18d"/>
        </g>
        <path id="Trazado_626929" data-name="Trazado 626929" d="M1353.99,1497.526l23.413-23.085s-21.279-19.167-49.729-21.84c-29.6-2.781-56.193,7.713-56.193,7.713l3.686,37.923s2.891-.71,9.776-5.106l1.8,58.6h73.655Z" transform="translate(-1221.438 -1375.061)" fill="#363e44"/>
        <g id="Grupo_990903" data-name="Grupo 990903" transform="translate(63.505 113.815)">
          <g id="Grupo_990901" data-name="Grupo 990901">
            <path id="Trazado_626930" data-name="Trazado 626930" d="M1450.73,1727.613h0c-27.742-4.8-47.332-8.736-53.427-9.714a11.374,11.374,0,0,0-3.238-.124c-5.462.608-6.951,5.047-12.4,8.308-6.185,3.7-11.762,2.281-12.057,4.1-.206,1.264,1.747,2.392,6.244,3.054h0c-3.474-.11-8.193-.054-8.248,1.867.055,2.221,5.606,2.807,8.982,3-4.086-.23-6.327.871-6.091,1.949.371,1.7,3.5,2.614,8.91,2.708h0c-3.755.979-4.52,1.777-4.079,2.679.805,1.648,5.256,1.641,9.19,1.032a22.971,22.971,0,0,0,9.61-4.106h0c19.081,5.376,41.859,11.538,57.1,14.246C1454.448,1757.18,1450.6,1738.1,1450.73,1727.613Z" transform="translate(-1367.599 -1717.255)" fill="#e2a18d"/>
            <path id="Trazado_626931" data-name="Trazado 626931" d="M1454.568,1721.477c-6.934-1.662-9.084-3.732-8.785-4.823.5-1.835,7-2.839,17.444-1.687C1460.977,1717,1456.818,1719.447,1454.568,1721.477Z" transform="translate(-1434.809 -1714.476)" fill="#e2a18d"/>
          </g>
          <path id="Trazado_626932" data-name="Trazado 626932" d="M1843.732,1767.029l-.024,0c-6.125-1.06-12.214-2.141-18.616-3.3a.14.14,0,0,1,.05-.276c6.4,1.162,12.49,2.242,18.614,3.3a.14.14,0,0,1-.024.278Z" transform="translate(-1760.917 -1756.588)" fill="#363e44"/>
          <g id="Grupo_990902" data-name="Grupo 990902" transform="translate(8.232 1.693)">
            <path id="Trazado_626933" data-name="Trazado 626933" d="M1492.229,1731.548a.14.14,0,0,1-.092-.245c.641-.563,1.229-1.126,1.8-1.671a20.2,20.2,0,0,1,3.724-3.051.14.14,0,0,1,.14.242,19.971,19.971,0,0,0-3.67,3.01c-.571.547-1.161,1.112-1.806,1.679A.141.141,0,0,1,1492.229,1731.548Z" transform="translate(-1482.885 -1726.563)" fill="#363e44"/>
            <path id="Trazado_626934" data-name="Trazado 626934" d="M1426.517,1816.192a.14.14,0,0,1-.006-.28,13.939,13.939,0,0,0,6.03-1.685.14.14,0,0,1,.134.246,14.218,14.218,0,0,1-6.151,1.719Z" transform="translate(-1426.377 -1801.934)" fill="#363e44"/>
            <path id="Trazado_626935" data-name="Trazado 626935" d="M1427.982,1850.568a.14.14,0,0,1-.006-.28,13.93,13.93,0,0,0,6.03-1.685.14.14,0,0,1,.134.246,14.215,14.215,0,0,1-6.151,1.719Z" transform="translate(-1427.637 -1831.495)" fill="#363e44"/>
            <path id="Trazado_626936" data-name="Trazado 626936" d="M1451.7,1885.055a.14.14,0,0,1-.006-.28,13.936,13.936,0,0,0,6.03-1.685.14.14,0,1,1,.134.246,14.237,14.237,0,0,1-6.151,1.719Z" transform="translate(-1448.031 -1861.152)" fill="#363e44"/>
          </g>
        </g>
      </g>
      <g id="Grupo_990910" data-name="Grupo 990910" transform="translate(84.836 37.443)">
        <path id="Trazado_626937" data-name="Trazado 626937" d="M1572.463,1344.313h0a7.927,7.927,0,0,0,5.56-9.733l-4.385-16.076a7.927,7.927,0,0,0-9.735-5.561h0a7.927,7.927,0,0,0-5.56,9.734l4.385,16.076A7.927,7.927,0,0,0,1572.463,1344.313Z" transform="translate(-1552.716 -1292.567)" fill="#e2a18d"/>
        <path id="Trazado_626938" data-name="Trazado 626938" d="M1542.355,1225.244c-.534-.338-5.693-3.5-10.8-1.46-3.8,1.519-5.864,4.889-8.476,11.064-3.077,7.273-3.9,12.05-2.578,14.461,2.088,3.81,14.147,3.751,20.853-.566a15.866,15.866,0,0,0,6.9-14.747C1547.724,1228.238,1542.7,1225.46,1542.355,1225.244Z" transform="translate(-1519.898 -1215.553)" fill="#e2a18d"/>
        <g id="Grupo_990907" data-name="Grupo 990907" transform="translate(1.63 10.706)">
          <g id="Grupo_990905" data-name="Grupo 990905">
            <path id="Trazado_626939" data-name="Trazado 626939" d="M1534.875,1247.563c-.017.05-.066.073-.083.123a.05.05,0,0,0,0,.006,12.444,12.444,0,0,1-1.472,1.7,6.932,6.932,0,0,1-.754.463c-.185.132-.361.26-.549.382a10.437,10.437,0,0,1-.372-4.6A10.975,10.975,0,0,1,1534.875,1247.563Z" transform="translate(-1531.538 -1245.634)" fill="#fff"/>
            <path id="Trazado_626940" data-name="Trazado 626940" d="M1535.625,1263.516a7.36,7.36,0,0,1-.633-1.4,4.043,4.043,0,0,1,2.856-2.686,7.748,7.748,0,0,1,1.551,1.845,9.753,9.753,0,0,1,1.025,5.934l-.113.043A9.734,9.734,0,0,1,1535.625,1263.516Z" transform="translate(-1534.508 -1257.502)" fill="#363e44"/>
          </g>
          <g id="Grupo_990906" data-name="Grupo 990906" transform="translate(9.008 10.71)">
            <path id="Trazado_626941" data-name="Trazado 626941" d="M1600.282,1323.966a3.488,3.488,0,0,1-1.546,1.708,10.59,10.59,0,0,1-2.883-2.511,10.559,10.559,0,0,1,5.118-1.032A5.92,5.92,0,0,1,1600.282,1323.966Z" transform="translate(-1595.853 -1322.103)" fill="#fff"/>
            <path id="Trazado_626942" data-name="Trazado 626942" d="M1618.915,1322.308a7.058,7.058,0,0,1,.906.141,9.813,9.813,0,0,1,5.067,3.391,9.81,9.81,0,0,1-6.032.889,7.686,7.686,0,0,1-2.146-.858A4.109,4.109,0,0,1,1618.915,1322.308Z" transform="translate(-1613.79 -1322.279)" fill="#363e44"/>
          </g>
        </g>
        <path id="Trazado_626943" data-name="Trazado 626943" d="M1598.98,1198.891c1.8.736,4.184,3.847,3.989,7.231-.414,7.176-3.927,11.107-12.118,13.22.964-2.38.485-6.332.188-8.436a7.548,7.548,0,0,1,1.884-6.563c-7.623-3.061-10.071-4.549-9.891-5.177.188-.656,3.262-.61,3.262-.61s-6.779-.59-6.857-1.557c-.024-.3.268-1.068,3.429-1.857-6.506.789-6.891.307-6.991-.031-.294-1,2.7-4.447,7.134-6.21a11.891,11.891,0,0,1,9.08.6C1597.728,1192.089,1599.231,1197.02,1598.98,1198.891Z" transform="translate(-1568.018 -1185.59)" fill="#84524d"/>
        <g id="Grupo_990908" data-name="Grupo 990908" transform="translate(19.007 25.816)">
          <path id="Trazado_626944" data-name="Trazado 626944" d="M1657.556,1354.619c-2,1.555-2.555,4.187-1.24,5.878s4,1.8,6,.245,2.555-4.187,1.24-5.878S1659.555,1353.063,1657.556,1354.619Z" transform="translate(-1655.603 -1353.521)" fill="#e2a18d"/>
          <path id="Trazado_626945" data-name="Trazado 626945" d="M1691.494,1372.5a.14.14,0,0,1-.066-.264,2.645,2.645,0,0,0,.375-.244,2.038,2.038,0,0,0,.606-2.791,1.559,1.559,0,0,0-.565-.453.14.14,0,0,1,.121-.253,1.835,1.835,0,0,1,.665.534,2.316,2.316,0,0,1-.655,3.183,2.869,2.869,0,0,1-.415.27A.139.139,0,0,1,1691.494,1372.5Z" transform="translate(-1686.346 -1366.386)" fill="#363e44"/>
        </g>
        <path id="Trazado_626946" data-name="Trazado 626946" d="M1555.921,1322.114a.14.14,0,0,1-.139-.123,1.343,1.343,0,0,1,1.18-1.669,3.975,3.975,0,0,0,.869-.324,3.323,3.323,0,0,0,1.078-.949.14.14,0,0,1,.224.168,3.606,3.606,0,0,1-1.17,1.027,4.192,4.192,0,0,1-.927.347,1.312,1.312,0,0,0-.786.408,1.286,1.286,0,0,0-.191.958.14.14,0,0,1-.122.156Z" transform="translate(-1550.74 -1298.012)" fill="#363e44"/>
        <path id="Trazado_626947" data-name="Trazado 626947" d="M1573.582,1419.049c-.661,0-1.355-.026-2.083-.085a.14.14,0,0,1-.128-.151.138.138,0,0,1,.151-.128c6.409.519,10.226-1.522,10.264-1.543a.14.14,0,0,1,.134.246A18.881,18.881,0,0,1,1573.582,1419.049Z" transform="translate(-1564.161 -1382.4)" fill="#363e44"/>
        <path id="Trazado_626948" data-name="Trazado 626948" d="M1559.9,1369.783a2,2,0,1,0,3.9-.9c-.248-1.077-.873.2-1.95.449S1559.649,1368.706,1559.9,1369.783Z" transform="translate(-1554.265 -1340.551)" fill="#363e44"/>
        <g id="Grupo_990909" data-name="Grupo 990909" transform="translate(14.522)">
          <path id="Trazado_626949" data-name="Trazado 626949" d="M1633.582,1187.728c-2.368-7.789-8.366-11.064-10-12.216a6.67,6.67,0,0,1,1.937-4.625c2.777-2.57,8.884-2.39,13.959,1.8-.475-.172-3.049-.381-3.666.087a8.7,8.7,0,0,1,5.04,1.668c3.78,2.508,5.375,7.94,3.787,13.885a6.192,6.192,0,0,0-1.016-3.176,12.791,12.791,0,0,1,.329,3.229c-.14,5.218-3.5,8.852-4.757,10.084C1639.095,1197.044,1638.613,1191.344,1633.582,1187.728Z" transform="translate(-1623.584 -1169.197)" fill="#84524d"/>
          <path id="Trazado_626950" data-name="Trazado 626950" d="M1668.844,1231.85a.141.141,0,0,1-.073-.021,21.8,21.8,0,0,0-7.417-2.847.14.14,0,0,1-.061-.248,6.576,6.576,0,0,1,6.9-.785.14.14,0,1,1-.12.253,6.293,6.293,0,0,0-6.357.564,22.095,22.095,0,0,1,7.2,2.824.14.14,0,0,1-.073.259Z" transform="translate(-1655.966 -1219.174)" fill="#363e44"/>
        </g>
      </g>
    </g>
  </g>
</svg>
