<svg xmlns="http://www.w3.org/2000/svg" width="40" height="47.524" viewBox="0 0 40 47.524">
  <g id="Grupo_80242" data-name="Grupo 80242" transform="translate(-180 -4344)">
    <path id="Rectángulo_33787" data-name="Rectángulo 33787" d="M0,0H17A23,23,0,0,1,40,23V40a0,0,0,0,1,0,0H0a0,0,0,0,1,0,0V0A0,0,0,0,1,0,0Z" transform="translate(180 4344)" fill="#ffc721"/>
    <g id="Grupo_80241" data-name="Grupo 80241" transform="translate(201 4367.524) rotate(90)">
      <g id="Grupo_80123" data-name="Grupo 80123" transform="translate(13.555 0)">
        <path id="Trazado_113537" data-name="Trazado 113537" d="M2586.375,1388.055l-9.5-9.5a.475.475,0,0,1,0-.671h0a.474.474,0,0,1,.671,0l9.5,9.5a.474.474,0,0,1,0,.671h0A.475.475,0,0,1,2586.375,1388.055Z" transform="translate(-2576.74 -1377.749)" fill="#465fc4"/>
      </g>
      <g id="Grupo_80124" data-name="Grupo 80124" transform="translate(18.215 1.271)">
        <path id="Trazado_113538" data-name="Trazado 113538" d="M2645.294,1399.816l-3.565-3.565a.474.474,0,0,1,0-.671h0a.474.474,0,0,1,.671,0l3.565,3.565a.474.474,0,0,1,0,.671h0A.475.475,0,0,1,2645.294,1399.816Z" transform="translate(-2641.59 -1395.441)" fill="#465fc4"/>
      </g>
      <g id="Grupo_80125" data-name="Grupo 80125" transform="translate(10.166 0)">
        <path id="Trazado_113539" data-name="Trazado 113539" d="M2542.609,1391.443l-12.885-12.884a.474.474,0,0,1,0-.671h0a.474.474,0,0,1,.671,0l12.885,12.884a.474.474,0,0,1,0,.671h0A.475.475,0,0,1,2542.609,1391.443Z" transform="translate(-2529.585 -1377.749)" fill="#465fc4"/>
      </g>
      <g id="Grupo_80126" data-name="Grupo 80126" transform="translate(7.485 0.707)">
        <path id="Trazado_113540" data-name="Trazado 113540" d="M2507.269,1403.255,2492.41,1388.4a.475.475,0,0,1,0-.671h0a.474.474,0,0,1,.671,0l14.859,14.858a.474.474,0,0,1,0,.671h0A.474.474,0,0,1,2507.269,1403.255Z" transform="translate(-2492.271 -1387.586)" fill="#465fc4"/>
      </g>
      <g id="Grupo_80127" data-name="Grupo 80127" transform="translate(5.257 1.867)">
        <path id="Trazado_113541" data-name="Trazado 113541" d="M2477.323,1420.465l-15.928-15.927a.475.475,0,0,1,0-.671h0a.474.474,0,0,1,.671,0l15.927,15.927a.474.474,0,0,1,0,.671h0A.474.474,0,0,1,2477.323,1420.465Z" transform="translate(-2461.256 -1403.728)" fill="#465fc4"/>
      </g>
      <g id="Grupo_80128" data-name="Grupo 80128" transform="translate(3.39 3.391)">
        <path id="Trazado_113542" data-name="Trazado 113542" d="M2451.688,1442.015l-16.271-16.27a.476.476,0,0,1,0-.671h0a.475.475,0,0,1,.671,0l16.27,16.27a.474.474,0,0,1,0,.671h0A.474.474,0,0,1,2451.688,1442.015Z" transform="translate(-2435.279 -1424.935)" fill="#465fc4"/>
      </g>
      <g id="Grupo_80129" data-name="Grupo 80129" transform="translate(1.865 5.256)">
        <path id="Trazado_113543" data-name="Trazado 113543" d="M2430.477,1466.641h-1.342l-14.933-14.933a.475.475,0,0,1,.336-.811.478.478,0,0,1,.333.139Z" transform="translate(-2414.062 -1450.897)" fill="#465fc4"/>
      </g>
      <g id="Grupo_80130" data-name="Grupo 80130" transform="translate(0.706 7.485)">
        <path id="Trazado_113544" data-name="Trazado 113544" d="M2412.107,1495.438h-1.341l-12.706-12.706a.474.474,0,0,1,.336-.809.466.466,0,0,1,.336.139Z" transform="translate(-2397.921 -1481.923)" fill="#465fc4"/>
      </g>
      <g id="Grupo_80131" data-name="Grupo 80131" transform="translate(0 10.166)">
        <path id="Trazado_113545" data-name="Trazado 113545" d="M2399.6,1530.067h-1.342l-10.022-10.022a.474.474,0,1,1,.669-.672Z" transform="translate(-2388.101 -1519.233)" fill="#465fc4"/>
      </g>
      <g id="Grupo_80132" data-name="Grupo 80132" transform="translate(0 13.555)">
        <path id="Trazado_113546" data-name="Trazado 113546" d="M2396.214,1573.84h-1.339l-6.636-6.636a.474.474,0,0,1,.336-.808.479.479,0,0,1,.333.139Z" transform="translate(-2388.101 -1566.395)" fill="#465fc4"/>
      </g>
      <g id="Grupo_80133" data-name="Grupo 80133" transform="translate(1.27 18.216)">
        <path id="Trazado_113547" data-name="Trazado 113547" d="M2409.232,1634.041h-1.339l-1.975-1.975a.474.474,0,1,1,.67-.669Z" transform="translate(-2405.777 -1631.257)" fill="#465fc4"/>
      </g>
    </g>
  </g>
</svg>
