<svg xmlns="http://www.w3.org/2000/svg" xmlns:xlink="http://www.w3.org/1999/xlink" width="599.804" height="533.999" viewBox="0 0 599.804 533.999">
  <defs>
    <radialGradient id="radial-gradient" cx="0.5" cy="0.5" r="0.535" gradientTransform="translate(0.059) scale(0.881 1)" gradientUnits="objectBoundingBox">
      <stop offset="0" stop-color="#274158"/>
      <stop offset="0.266" stop-color="#253d53"/>
      <stop offset="0.542" stop-color="#203347"/>
      <stop offset="0.821" stop-color="#182332"/>
      <stop offset="0.995" stop-color="#121622"/>
    </radialGradient>
    <linearGradient id="linear-gradient" x1="0.5" y1="1" x2="0.5" gradientUnits="objectBoundingBox">
      <stop offset="0" stop-color="#ffc12b"/>
      <stop offset="1" stop-color="#d76200"/>
    </linearGradient>
    <linearGradient id="linear-gradient-2" x1="0.5" y1="1" x2="0.5" gradientUnits="objectBoundingBox">
      <stop offset="0" stop-color="#ffde13"/>
      <stop offset="1" stop-color="#ff9a2b"/>
    </linearGradient>
    <radialGradient id="radial-gradient-2" cy="0.5" r="0.47" gradientTransform="translate(-0.071) scale(1.143 1)" xlink:href="#radial-gradient"/>
    <linearGradient id="linear-gradient-3" x1="0.5" y1="1" x2="0.5" gradientUnits="objectBoundingBox">
      <stop offset="0.006"/>
      <stop offset="0.318" stop-color="#212121"/>
      <stop offset="1" stop-color="#757575"/>
    </linearGradient>
    <linearGradient id="linear-gradient-4" x1="0.5" y1="1" x2="0.5" gradientUnits="objectBoundingBox">
      <stop offset="0.006" stop-color="#4f4f4f"/>
      <stop offset="1" stop-color="#6b6b6b"/>
    </linearGradient>
    <radialGradient id="radial-gradient-3" cy="0.5" r="0.535" xlink:href="#radial-gradient"/>
    <radialGradient id="radial-gradient-4" cy="0.5" r="0.441" gradientTransform="translate(-0.169) scale(1.337 1)" xlink:href="#radial-gradient"/>
    <radialGradient id="radial-gradient-7" cy="0.5" r="0.502" gradientTransform="translate(0.003) scale(0.994 1)" xlink:href="#radial-gradient"/>
    <linearGradient id="linear-gradient-25" x1="0.5" x2="0.5" y2="1" gradientUnits="objectBoundingBox">
      <stop offset="0" stop-color="#5b6775"/>
      <stop offset="1" stop-color="#121622"/>
    </linearGradient>
    <radialGradient id="radial-gradient-10" cy="0.5" r="0.535" xlink:href="#radial-gradient"/>
    <radialGradient id="radial-gradient-11" cy="0.5" r="0.472" gradientTransform="translate(-0.066) scale(1.133 1)" xlink:href="#radial-gradient"/>
    <linearGradient id="linear-gradient-33" x1="0.5" x2="0.5" y2="1" gradientUnits="objectBoundingBox">
      <stop offset="0" stop-color="#535861"/>
      <stop offset="1" stop-color="#121622"/>
    </linearGradient>
  </defs>
  <g id="Grupo_990939" data-name="Grupo 990939" transform="translate(-499 -12336)">
    <g id="Grupo_990261" data-name="Grupo 990261" transform="translate(264.883 12344.134)">
      <path id="Trazado_625584" data-name="Trazado 625584" d="M241.85,110.73a7.733,7.733,0,0,1-6.7-11.6l59.7-103.4a7.731,7.731,0,0,1,6.7-3.866,7.731,7.731,0,0,1,6.7,3.866l59.7,103.4a7.733,7.733,0,0,1-6.7,11.6Z" transform="translate(0 0)" fill="url(#radial-gradient)"/>
      <path id="Trazado_625585" data-name="Trazado 625585" d="M242.5,95.087,296.953.776,351.4,95.087Z" transform="translate(4.594 4.881)" fill="url(#linear-gradient)"/>
      <path id="Trazado_625586" data-name="Trazado 625586" d="M245.886,89.923,295.1,4.683l49.214,85.239Z" transform="translate(6.447 7.022)" fill="url(#linear-gradient-2)"/>
      <path id="Trazado_625587" data-name="Trazado 625587" d="M269.87,36.077a2.532,2.532,0,0,0,3.227,1.539L293.3,30.452l.037.1a1.122,1.122,0,1,0,2.116-.749l-2.772-7.82a1.141,1.141,0,0,0-1.457-.693,1.1,1.1,0,0,0-.672,1.41l.042.118-20.207,7.163a2.532,2.532,0,0,0-1.539,3.227Zm.888-5.06,20.207-7.163,1.972,5.563L272.731,36.58a1.431,1.431,0,0,1-1.825-.87l-1.017-2.868A1.431,1.431,0,0,1,270.759,31.017Zm-.475,1.686a1.015,1.015,0,0,1,.615-1.292l5.97-2.116h15.163l-19.439,6.891a1.009,1.009,0,0,1-1.291-.614ZM292.7,42.972c0-1.579,2.859-5.6,2.859-5.6s2.86,4.026,2.86,5.6a2.86,2.86,0,0,1-5.719,0ZM311.945,61.6a2.52,2.52,0,0,1-2.52,2.518H291.167v1.686h15.74a2.52,2.52,0,0,1,0,5.04h-15.74v1.686h10.121a2.519,2.519,0,1,1,0,5.038H263.656v.384h-.006a1.158,1.158,0,0,1-2.312,0h-.006V51.974h.006a1.158,1.158,0,0,1,2.313,0h.006v.384H267.8l15.56-10.607a3.54,3.54,0,1,1,3.987,5.851l-6.978,4.756h12.493a2.841,2.841,0,0,0,5.386,0h8.657a2.52,2.52,0,0,1,0,5.04h-15.74v1.686h18.258A2.52,2.52,0,0,1,311.945,61.6Z" transform="translate(14.908 16.083)" fill="url(#radial-gradient-2)"/>
      <path id="Trazado_625588" data-name="Trazado 625588" d="M294.567,4.367a1.513,1.513,0,0,0-2.619,0L256.66,65.487c-2.56-.819-5.044-1.7-7.413-2.636l38.624-66.9a6.235,6.235,0,0,1,5.387-3.11,6.237,6.237,0,0,1,5.386,3.11l38.625,66.9c-2.374.936-4.857,1.819-7.413,2.634Z" transform="translate(8.288 0.535)" opacity="0.73" fill="url(#linear-gradient-3)" style="mix-blend-mode: screen;isolation: isolate"/>
      <path id="Trazado_625589" data-name="Trazado 625589" d="M256.414,61.7a122.164,122.164,0,0,0,32.918,4.534A122.216,122.216,0,0,0,322.249,61.7L289.332,4.684Z" transform="translate(12.215 7.022)" opacity="0.73" fill="url(#linear-gradient-4)" style="mix-blend-mode: screen;isolation: isolate"/>
    </g>
    <path id="Trazado_627030" data-name="Trazado 627030" d="M24.282,12.737a4.528,4.528,0,0,1-1.525,3.252,5.355,5.355,0,0,1-3.625,1.187,4.816,4.816,0,0,1-3.872-1.657,6.793,6.793,0,0,1-1.411-4.548v-.782a7.671,7.671,0,0,1,.65-3.252,4.874,4.874,0,0,1,1.859-2.158,5.207,5.207,0,0,1,2.808-.751,5.217,5.217,0,0,1,3.568,1.187A4.866,4.866,0,0,1,24.3,8.545H21.663a2.673,2.673,0,0,0-.69-1.8,2.555,2.555,0,0,0-1.806-.558,2.24,2.24,0,0,0-1.973.945,5.3,5.3,0,0,0-.672,2.931v.967a5.667,5.667,0,0,0,.628,3.032,2.2,2.2,0,0,0,1.982.958,2.6,2.6,0,0,0,1.824-.558,2.521,2.521,0,0,0,.69-1.727Zm1.169-.58A5.64,5.64,0,0,1,26,9.635a3.989,3.989,0,0,1,1.569-1.714,4.577,4.577,0,0,1,2.377-.606,4.33,4.33,0,0,1,3.142,1.178,4.727,4.727,0,0,1,1.358,3.2l.018.65a4.97,4.97,0,0,1-1.222,3.511,4.247,4.247,0,0,1-3.278,1.323,4.268,4.268,0,0,1-3.283-1.318,5.058,5.058,0,0,1-1.226-3.586Zm2.54.18a3.555,3.555,0,0,0,.51,2.073,1.831,1.831,0,0,0,2.9.009,3.89,3.89,0,0,0,.519-2.267,3.519,3.519,0,0,0-.519-2.06,1.686,1.686,0,0,0-1.459-.731,1.658,1.658,0,0,0-1.441.726A3.955,3.955,0,0,0,27.991,12.338ZM41.368,9.872a6.9,6.9,0,0,0-.914-.07,1.86,1.86,0,0,0-1.89.976V17h-2.54V7.49h2.4l.07,1.134a2.354,2.354,0,0,1,2.118-1.31,2.662,2.662,0,0,1,.791.114Zm6.565,0a6.9,6.9,0,0,0-.914-.07,1.86,1.86,0,0,0-1.89.976V17h-2.54V7.49h2.4l.07,1.134a2.354,2.354,0,0,1,2.118-1.31,2.662,2.662,0,0,1,.791.114Zm.51,2.285a5.64,5.64,0,0,1,.545-2.522,3.989,3.989,0,0,1,1.569-1.714,4.577,4.577,0,0,1,2.377-.606,4.33,4.33,0,0,1,3.142,1.178,4.727,4.727,0,0,1,1.358,3.2l.018.65a4.97,4.97,0,0,1-1.222,3.511,4.735,4.735,0,0,1-6.561,0,5.058,5.058,0,0,1-1.226-3.586Zm2.54.18a3.555,3.555,0,0,0,.51,2.073,1.831,1.831,0,0,0,2.9.009,3.89,3.89,0,0,0,.519-2.267,3.519,3.519,0,0,0-.519-2.06,1.686,1.686,0,0,0-1.459-.731,1.658,1.658,0,0,0-1.441.726A3.955,3.955,0,0,0,50.983,12.338Zm13.184,2.035a.818.818,0,0,0-.461-.734,5.241,5.241,0,0,0-1.481-.479q-3.393-.712-3.393-2.883a2.613,2.613,0,0,1,1.05-2.114,4.237,4.237,0,0,1,2.747-.848,4.56,4.56,0,0,1,2.9.853,2.687,2.687,0,0,1,1.085,2.215H64.07a1.229,1.229,0,0,0-.352-.9,1.488,1.488,0,0,0-1.1-.356,1.52,1.52,0,0,0-.993.29.916.916,0,0,0-.352.738.783.783,0,0,0,.4.681,4.114,4.114,0,0,0,1.349.448,11.019,11.019,0,0,1,1.6.426,2.628,2.628,0,0,1,2.013,2.558,2.481,2.481,0,0,1-1.116,2.1,4.815,4.815,0,0,1-2.883.8,5.029,5.029,0,0,1-2.123-.426,3.561,3.561,0,0,1-1.455-1.169,2.716,2.716,0,0,1-.527-1.6h2.408a1.326,1.326,0,0,0,.5,1.037,1.987,1.987,0,0,0,1.248.36,1.839,1.839,0,0,0,1.1-.277A.861.861,0,0,0,64.167,14.372ZM70.952,17H68.4V7.49h2.549Zm-2.7-11.971a1.251,1.251,0,0,1,.382-.94,1.648,1.648,0,0,1,2.079,0,1.244,1.244,0,0,1,.387.94,1.247,1.247,0,0,1-.391.949,1.629,1.629,0,0,1-2.065,0A1.247,1.247,0,0,1,68.253,5.029ZM76.6,13.9,78.37,7.49h2.654L77.816,17H75.39L72.182,7.49h2.654Zm5.01-1.74a5.64,5.64,0,0,1,.545-2.522,3.989,3.989,0,0,1,1.569-1.714A4.577,4.577,0,0,1,86.1,7.314a4.33,4.33,0,0,1,3.142,1.178,4.727,4.727,0,0,1,1.358,3.2l.018.65A4.97,4.97,0,0,1,89.4,15.853a4.735,4.735,0,0,1-6.561,0,5.058,5.058,0,0,1-1.226-3.586Zm2.54.18a3.555,3.555,0,0,0,.51,2.073,1.831,1.831,0,0,0,2.9.009,3.89,3.89,0,0,0,.519-2.267,3.519,3.519,0,0,0-.519-2.06A1.686,1.686,0,0,0,86.1,9.362a1.658,1.658,0,0,0-1.441.726A3.955,3.955,0,0,0,84.153,12.338Zm12.63-.541a13.488,13.488,0,0,1,.536-3.832A10.112,10.112,0,0,1,98.9,4.744,5.907,5.907,0,0,1,101.168,2.8l.492,1.371a6.118,6.118,0,0,0-2,2.936,13.592,13.592,0,0,0-.721,4.641v.272a13.852,13.852,0,0,0,.712,4.658,6.237,6.237,0,0,0,2.013,2.979L101.168,21A5.91,5.91,0,0,1,98.94,19.1a9.943,9.943,0,0,1-1.578-3.133,13.408,13.408,0,0,1-.58-3.709Zm16.418.94a4.528,4.528,0,0,1-1.525,3.252,5.355,5.355,0,0,1-3.625,1.187,4.816,4.816,0,0,1-3.872-1.657,6.793,6.793,0,0,1-1.411-4.548v-.782a7.671,7.671,0,0,1,.65-3.252,4.874,4.874,0,0,1,1.859-2.158,5.809,5.809,0,0,1,6.376.435,4.866,4.866,0,0,1,1.564,3.331h-2.637a2.673,2.673,0,0,0-.69-1.8,2.555,2.555,0,0,0-1.806-.558,2.24,2.24,0,0,0-1.973.945,5.3,5.3,0,0,0-.672,2.931v.967a5.667,5.667,0,0,0,.628,3.032,2.2,2.2,0,0,0,1.982.958,2.6,2.6,0,0,0,1.824-.558,2.521,2.521,0,0,0,.69-1.727ZM118.914,12a12.8,12.8,0,0,1-.571,3.823,10.378,10.378,0,0,1-1.644,3.243A5.921,5.921,0,0,1,114.4,21l-.492-1.345a6.18,6.18,0,0,0,1.969-2.9,13.431,13.431,0,0,0,.747-4.509v-.466a13.735,13.735,0,0,0-.716-4.632,6.442,6.442,0,0,0-2-3.006L114.4,2.8a5.923,5.923,0,0,1,2.254,1.881A10.244,10.244,0,0,1,118.3,7.851a12.708,12.708,0,0,1,.611,3.753Z" transform="translate(500 12463)" fill="#12263f"/>
    <g id="Grupo_990266" data-name="Grupo 990266" transform="translate(477.001 12322.898)">
      <path id="Trazado_625591" data-name="Trazado 625591" d="M29.73,335.495a7.732,7.732,0,0,1-6.694-11.6l59.7-103.4a7.733,7.733,0,0,1,13.392,0l59.7,103.4a7.732,7.732,0,0,1-6.7,11.6Z" transform="translate(0 0)" fill="url(#radial-gradient-3)"/>
      <path id="Trazado_625592" data-name="Trazado 625592" d="M30.384,319.852l54.451-94.311,54.451,94.311Z" transform="translate(4.593 4.881)" fill="url(#linear-gradient)"/>
      <path id="Trazado_625593" data-name="Trazado 625593" d="M33.768,314.687l49.213-85.239,49.213,85.239Z" transform="translate(6.447 7.021)" fill="url(#linear-gradient-2)"/>
      <path id="Trazado_625594" data-name="Trazado 625594" d="M57.514,260.7a17.993,17.993,0,0,0,.19,8.214c1.04-7.386,4.606-5.467,2.89-14.794,1.235.446,5.379,3.469,7.436,8.945,0-12.585,3.8-16.641,12.44-19.9-3.727,8.553.858,10.27,2.3,19.449,1.528-3.266,1.754-8.247,1.354-11.428a21.257,21.257,0,0,1,6.792,19.781c.967-1.723,1.368-3.187,1.368-6.571,7.637,7.637,5.035,30.32-10.624,33.8a14.522,14.522,0,0,0,1.43-7.569,8.824,8.824,0,0,1-4.541,2.848c1.809-2.772,3.06-5.325,1.466-9.437a9.833,9.833,0,0,1-3.56,5.882c.8-7.391-1.238-6.744-1.837-11.443-2.825,2.729-.723,6.764-4.209,11.177a15.941,15.941,0,0,0-1.813-5.427c-1.02,1.018-2.094,4.755-1.313,9.115a5.806,5.806,0,0,1-3.011-4.235c-1.367,4.159.289,7.32,1.189,9.53A23.084,23.084,0,0,1,57.514,260.7Zm29.44,14a7.218,7.218,0,0,1-.978,4.345,13.525,13.525,0,0,0-4.852-13.084,14.492,14.492,0,0,1-.969,7.56c-1.034-6.071-4.309-7.205-1.645-12.862-6.174,2.153-8.889,4.835-8.889,13.16a11.341,11.341,0,0,0-5.314-5.917c1.226,6.17-1.323,4.9-2.066,9.785a11.02,11.02,0,0,1-.135-5.433c-8.383,7.886-7.391,17.15,2.094,25.092-.974-2.209-2.142-6.351.1-10.282a8.868,8.868,0,0,0,2.343,5.078c-.844-4.362.7-8.1,1.8-9.123a14.233,14.233,0,0,1,2.052,5.258c2.551-4.311.814-8.343,4.549-11.253.438,4.837,2.789,5.287,2,11.6,1.754-1.754,2.415-4,2.919-6.465,1.723,4.113,2.054,7.07.1,9.843,2.3-.885,2.771-2.17,3.611-3.192.785,3.354.4,6.28-.734,8.09C91.566,291.745,92.411,279.748,86.954,274.7Zm7.058,26.974H53.1v2.658H94.012Z" transform="translate(15.717 14.537)" fill="url(#radial-gradient-4)"/>
      <path id="Trazado_625595" data-name="Trazado 625595" d="M82.449,228.889a1.513,1.513,0,0,0-2.619,0L44.541,290.01c-2.56-.817-5.044-1.7-7.411-2.634l38.623-66.9a6.221,6.221,0,0,1,10.773,0l38.625,66.9c-2.374.936-4.857,1.819-7.413,2.634Z" transform="translate(8.289 0.403)" opacity="0.73" fill="url(#linear-gradient-3)" style="mix-blend-mode: screen;isolation: isolate"/>
      <path id="Trazado_625596" data-name="Trazado 625596" d="M44.3,286.221a121.811,121.811,0,0,0,65.835,0L77.214,229.207Z" transform="translate(12.215 6.889)" opacity="0.73" fill="url(#linear-gradient-4)" style="mix-blend-mode: screen;isolation: isolate"/>
    </g>
    <path id="Trazado_627032" data-name="Trazado 627032" d="M14,17H11.366V4.2H14Zm4.614-9.51.079,1.1A3.32,3.32,0,0,1,21.43,7.314a2.759,2.759,0,0,1,2.25.888,4.142,4.142,0,0,1,.756,2.654V17H21.9V10.9a1.654,1.654,0,0,0-.352-1.176,1.572,1.572,0,0,0-1.169-.366,1.747,1.747,0,0,0-1.608.916V17h-2.54V7.49ZM32.732,5.451a12.206,12.206,0,0,0-1.406-.088q-1.723,0-1.723,1.48V7.49h1.89V9.354H29.6V17H27.055V9.354H25.64V7.49h1.415V6.752a3.249,3.249,0,0,1,1.037-2.544,4.24,4.24,0,0,1,2.883-.892q1.327,0,4.307.281V17H32.732ZM42.9,17a2.821,2.821,0,0,1-.255-.853,3.073,3.073,0,0,1-2.4,1.028,3.376,3.376,0,0,1-2.316-.809,2.6,2.6,0,0,1-.918-2.039,2.687,2.687,0,0,1,1.121-2.32,5.529,5.529,0,0,1,3.239-.817h1.169v-.545A1.567,1.567,0,0,0,42.2,9.591a1.331,1.331,0,0,0-1.068-.4,1.513,1.513,0,0,0-1.006.308,1.045,1.045,0,0,0-.365.844h-2.54a2.551,2.551,0,0,1,.51-1.529,3.37,3.37,0,0,1,1.441-1.1,5.253,5.253,0,0,1,2.092-.4,4.15,4.15,0,0,1,2.791.883,3.09,3.09,0,0,1,1.033,2.483V14.8a4.546,4.546,0,0,0,.378,2.048V17Zm-2.1-1.767a2.188,2.188,0,0,0,1.037-.25,1.645,1.645,0,0,0,.7-.672V12.676h-.949q-1.907,0-2.03,1.318l-.009.149a1.017,1.017,0,0,0,.334.782A1.3,1.3,0,0,0,40.8,15.233ZM49.423,7.49,49.5,8.554a3.342,3.342,0,0,1,2.733-1.239,2.536,2.536,0,0,1,2.522,1.45,3.265,3.265,0,0,1,2.856-1.45,2.836,2.836,0,0,1,2.3.9,4.141,4.141,0,0,1,.756,2.711V17H58.124V10.922a1.818,1.818,0,0,0-.316-1.185,1.4,1.4,0,0,0-1.116-.374,1.585,1.585,0,0,0-1.582,1.092L55.118,17h-2.54V10.93a1.8,1.8,0,0,0-.325-1.2,1.414,1.414,0,0,0-1.107-.37,1.645,1.645,0,0,0-1.564.9V17h-2.54V7.49ZM68.135,17a2.821,2.821,0,0,1-.255-.853,3.073,3.073,0,0,1-2.4,1.028,3.376,3.376,0,0,1-2.316-.809,2.6,2.6,0,0,1-.918-2.039,2.687,2.687,0,0,1,1.121-2.32,5.529,5.529,0,0,1,3.239-.817h1.169v-.545a1.567,1.567,0,0,0-.338-1.055,1.331,1.331,0,0,0-1.068-.4,1.513,1.513,0,0,0-1.006.308,1.045,1.045,0,0,0-.365.844h-2.54a2.551,2.551,0,0,1,.51-1.529,3.37,3.37,0,0,1,1.441-1.1,5.253,5.253,0,0,1,2.092-.4,4.15,4.15,0,0,1,2.791.883,3.09,3.09,0,0,1,1.033,2.483V14.8a4.546,4.546,0,0,0,.378,2.048V17Zm-2.1-1.767a2.188,2.188,0,0,0,1.037-.25,1.645,1.645,0,0,0,.7-.672V12.676h-.949q-1.907,0-2.03,1.318l-.009.149a1.017,1.017,0,0,0,.334.782A1.3,1.3,0,0,0,66.034,15.233Zm14.81-2.9a5.758,5.758,0,0,1-.976,3.564,3.231,3.231,0,0,1-2.725,1.279,2.969,2.969,0,0,1-2.47-1.187L74.56,17H72.274V3.5h2.54V8.343a2.893,2.893,0,0,1,2.312-1.028,3.258,3.258,0,0,1,2.729,1.279,5.767,5.767,0,0,1,.989,3.6Zm-2.54-.194a3.8,3.8,0,0,0-.457-2.111,1.544,1.544,0,0,0-1.362-.666,1.675,1.675,0,0,0-1.67,1v3.764a1.7,1.7,0,0,0,1.688,1,1.569,1.569,0,0,0,1.617-1.217A6.294,6.294,0,0,0,78.3,12.139ZM85.089,17H82.54V3.5h2.549Zm6.469.176a4.668,4.668,0,0,1-3.406-1.283,4.561,4.561,0,0,1-1.314-3.419v-.246a5.745,5.745,0,0,1,.554-2.562,4.064,4.064,0,0,1,1.569-1.74,4.4,4.4,0,0,1,2.316-.611,3.947,3.947,0,0,1,3.072,1.23,5,5,0,0,1,1.121,3.489v1.037H89.413a2.36,2.36,0,0,0,.743,1.494,2.245,2.245,0,0,0,1.569.563,2.742,2.742,0,0,0,2.294-1.063l1.248,1.4a3.813,3.813,0,0,1-1.547,1.261A5.075,5.075,0,0,1,91.558,17.176Zm-.29-7.813a1.587,1.587,0,0,0-1.226.512,2.651,2.651,0,0,0-.6,1.466h3.533v-.2a1.891,1.891,0,0,0-.457-1.311A1.638,1.638,0,0,0,91.268,9.362ZM101.507,11.8a13.488,13.488,0,0,1,.536-3.832,10.112,10.112,0,0,1,1.582-3.221A5.907,5.907,0,0,1,105.893,2.8l.492,1.371a6.118,6.118,0,0,0-2,2.936,13.592,13.592,0,0,0-.721,4.641v.272a13.852,13.852,0,0,0,.712,4.658,6.237,6.237,0,0,0,2.013,2.979L105.893,21a5.91,5.91,0,0,1-2.228-1.894,9.943,9.943,0,0,1-1.578-3.133,13.408,13.408,0,0,1-.58-3.709Zm14.071-.026h-5.062V17h-2.637V4.2h8.332V6.339h-5.7v3.3h5.063ZM121.95,12a12.8,12.8,0,0,1-.571,3.823,10.378,10.378,0,0,1-1.644,3.243A5.921,5.921,0,0,1,117.441,21l-.492-1.345a6.18,6.18,0,0,0,1.969-2.9,13.431,13.431,0,0,0,.747-4.509v-.466a13.735,13.735,0,0,0-.716-4.632,6.442,6.442,0,0,0-2-3.006l.492-1.345A5.923,5.923,0,0,1,119.7,4.678a10.244,10.244,0,0,1,1.644,3.173,12.708,12.708,0,0,1,.611,3.753Z" transform="translate(500 12663)" fill="#12263f"/>
    <g id="Grupo_990273" data-name="Grupo 990273" transform="translate(44 -90)">
      <g id="Grupo_990270" data-name="Grupo 990270" transform="translate(463.883 12434.134)">
        <path id="Trazado_625584-2" data-name="Trazado 625584" d="M241.85,110.73a7.733,7.733,0,0,1-6.7-11.6l59.7-103.4a7.731,7.731,0,0,1,6.7-3.866,7.731,7.731,0,0,1,6.7,3.866l59.7,103.4a7.733,7.733,0,0,1-6.7,11.6Z" transform="translate(0 0)" fill="url(#radial-gradient)"/>
        <path id="Trazado_625585-2" data-name="Trazado 625585" d="M242.5,95.087,296.953.776,351.4,95.087Z" transform="translate(4.594 4.881)" fill="url(#linear-gradient)"/>
        <path id="Trazado_625586-2" data-name="Trazado 625586" d="M245.886,89.923,295.1,4.683l49.214,85.239Z" transform="translate(6.447 7.022)" fill="url(#linear-gradient-2)"/>
        <path id="Trazado_625588-2" data-name="Trazado 625588" d="M294.567,4.367a1.513,1.513,0,0,0-2.619,0L256.66,65.487c-2.56-.819-5.044-1.7-7.413-2.636l38.624-66.9a6.235,6.235,0,0,1,5.387-3.11,6.237,6.237,0,0,1,5.386,3.11l38.625,66.9c-2.374.936-4.857,1.819-7.413,2.634Z" transform="translate(8.288 0.535)" opacity="0.73" fill="url(#linear-gradient-3)" style="mix-blend-mode: screen;isolation: isolate"/>
        <path id="Trazado_625589-2" data-name="Trazado 625589" d="M256.414,61.7a122.164,122.164,0,0,0,32.918,4.534A122.216,122.216,0,0,0,322.249,61.7L289.332,4.684Z" transform="translate(12.215 7.022)" opacity="0.73" fill="url(#linear-gradient-4)" style="mix-blend-mode: screen;isolation: isolate"/>
      </g>
      <g id="Elipse_5079" data-name="Elipse 5079" transform="translate(738 12477)" fill="none" stroke="#121622" stroke-width="5">
        <circle cx="27" cy="27" r="27" stroke="none"/>
        <circle cx="27" cy="27" r="24.5" fill="none"/>
      </g>
      <text id="X" transform="translate(754 12516)" fill="#121622" font-size="35" font-family="Roboto-Black, Roboto" font-weight="800"><tspan x="0" y="0">X</tspan></text>
    </g>
    <path id="Trazado_627031" data-name="Trazado 627031" d="M21.381,17H18.745V4.2h2.637ZM29,9.872a6.9,6.9,0,0,0-.914-.07,1.86,1.86,0,0,0-1.89.976V17h-2.54V7.49h2.4l.07,1.134a2.354,2.354,0,0,1,2.118-1.31,2.662,2.662,0,0,1,.791.114Zm6.565,0a6.9,6.9,0,0,0-.914-.07,1.86,1.86,0,0,0-1.89.976V17h-2.54V7.49h2.4l.07,1.134a2.354,2.354,0,0,1,2.118-1.31,2.662,2.662,0,0,1,.791.114ZM39.469,17H36.92V7.49h2.549Zm-2.7-11.971a1.251,1.251,0,0,1,.382-.94,1.648,1.648,0,0,1,2.079,0,1.244,1.244,0,0,1,.387.94,1.247,1.247,0,0,1-.391.949,1.629,1.629,0,0,1-2.065,0A1.247,1.247,0,0,1,36.771,5.029Zm7.831.123V7.49h1.626V9.354H44.6V14.1a1.133,1.133,0,0,0,.2.756,1.015,1.015,0,0,0,.773.229,4.051,4.051,0,0,0,.747-.062v1.925a5.229,5.229,0,0,1-1.538.229,2.425,2.425,0,0,1-2.725-2.7V9.354H40.673V7.49h1.389V5.152ZM53.154,17a2.821,2.821,0,0,1-.255-.853,3.073,3.073,0,0,1-2.4,1.028,3.376,3.376,0,0,1-2.316-.809,2.6,2.6,0,0,1-.918-2.039,2.687,2.687,0,0,1,1.121-2.32,5.529,5.529,0,0,1,3.239-.817h1.169v-.545a1.567,1.567,0,0,0-.338-1.055,1.331,1.331,0,0,0-1.068-.4,1.513,1.513,0,0,0-1.006.308,1.045,1.045,0,0,0-.365.844h-2.54a2.551,2.551,0,0,1,.51-1.529,3.37,3.37,0,0,1,1.441-1.1,5.253,5.253,0,0,1,2.092-.4A4.15,4.15,0,0,1,54.31,8.2a3.09,3.09,0,0,1,1.033,2.483V14.8a4.546,4.546,0,0,0,.378,2.048V17Zm-2.1-1.767a2.188,2.188,0,0,0,1.037-.25,1.645,1.645,0,0,0,.7-.672V12.676h-.949q-1.907,0-2.03,1.318l-.009.149a1.017,1.017,0,0,0,.334.782A1.3,1.3,0,0,0,51.053,15.233ZM59.631,7.49l.079,1.1a3.32,3.32,0,0,1,2.733-1.274,2.759,2.759,0,0,1,2.25.888,4.142,4.142,0,0,1,.756,2.654V17H62.91V10.9a1.654,1.654,0,0,0-.352-1.176,1.572,1.572,0,0,0-1.169-.366,1.747,1.747,0,0,0-1.608.916V17h-2.54V7.49ZM70.416,5.152V7.49h1.626V9.354H70.416V14.1a1.133,1.133,0,0,0,.2.756,1.015,1.015,0,0,0,.773.229,4.051,4.051,0,0,0,.747-.062v1.925a5.229,5.229,0,0,1-1.538.229,2.425,2.425,0,0,1-2.725-2.7V9.354H66.487V7.49h1.389V5.152Zm7.418,12.023a4.668,4.668,0,0,1-3.406-1.283,4.561,4.561,0,0,1-1.314-3.419v-.246a5.745,5.745,0,0,1,.554-2.562,4.064,4.064,0,0,1,1.569-1.74,4.4,4.4,0,0,1,2.316-.611,3.947,3.947,0,0,1,3.072,1.23,5,5,0,0,1,1.121,3.489v1.037H75.689a2.36,2.36,0,0,0,.743,1.494A2.245,2.245,0,0,0,78,15.128a2.742,2.742,0,0,0,2.294-1.063l1.248,1.4A3.813,3.813,0,0,1,80,16.723,5.075,5.075,0,0,1,77.833,17.176Zm-.29-7.813a1.587,1.587,0,0,0-1.226.512,2.651,2.651,0,0,0-.6,1.466h3.533v-.2a1.891,1.891,0,0,0-.457-1.311A1.638,1.638,0,0,0,77.543,9.362ZM87.783,11.8a13.488,13.488,0,0,1,.536-3.832A10.112,10.112,0,0,1,89.9,4.744,5.907,5.907,0,0,1,92.168,2.8l.492,1.371a6.118,6.118,0,0,0-2,2.936,13.592,13.592,0,0,0-.721,4.641v.272a13.852,13.852,0,0,0,.712,4.658,6.237,6.237,0,0,0,2.013,2.979L92.168,21A5.91,5.91,0,0,1,89.94,19.1a9.943,9.943,0,0,1-1.578-3.133,13.408,13.408,0,0,1-.58-3.709ZM98.734,8.615l2.4-4.412h3.032l-3.727,6.346L104.262,17h-3.067l-2.461-4.482L96.273,17H93.206l3.823-6.451L93.3,4.2h3.032ZM108.1,17h-2.549V7.49H108.1ZM105.4,5.029a1.251,1.251,0,0,1,.382-.94,1.648,1.648,0,0,1,2.079,0,1.244,1.244,0,0,1,.387.94,1.247,1.247,0,0,1-.391.949,1.629,1.629,0,0,1-2.065,0A1.247,1.247,0,0,1,105.4,5.029ZM114.572,12A12.8,12.8,0,0,1,114,15.822a10.378,10.378,0,0,1-1.644,3.243A5.921,5.921,0,0,1,110.063,21l-.492-1.345a6.18,6.18,0,0,0,1.969-2.9,13.431,13.431,0,0,0,.747-4.509v-.466a13.735,13.735,0,0,0-.716-4.632,6.442,6.442,0,0,0-2-3.006l.492-1.345a5.923,5.923,0,0,1,2.254,1.881,10.244,10.244,0,0,1,1.644,3.173,12.708,12.708,0,0,1,.611,3.753Z" transform="translate(742 12463)" fill="#12263f"/>
    <g id="Grupo_990267" data-name="Grupo 990267" transform="translate(613.709 12425.71)">
      <path id="Trazado_625597" data-name="Trazado 625597" d="M136.022,232.683a7.734,7.734,0,0,1-6.7-11.6l59.7-103.4a7.731,7.731,0,0,1,13.392,0l59.7,103.4a7.734,7.734,0,0,1-6.7,11.6Z" transform="translate(0)" fill="url(#radial-gradient)"/>
      <path id="Trazado_625598" data-name="Trazado 625598" d="M136.676,217.04l54.451-94.311,54.451,94.311Z" transform="translate(4.593 4.881)" fill="url(#linear-gradient)"/>
      <path id="Trazado_625599" data-name="Trazado 625599" d="M140.06,211.875l49.213-85.239,49.213,85.239Z" transform="translate(6.447 7.022)" fill="url(#linear-gradient-2)"/>
      <path id="Trazado_625600" data-name="Trazado 625600" d="M170.795,178.882l-.754-22.945,6.571-14.228Zm20.823-23.106,1.241-10.377L173.48,181Zm16.066,12.506-7.17-1.261L176.8,184.772Zm-8.351-7.711-5.829,2.221-12.448,12.446ZM184.95,131.96l-8.338,33.808L184.95,137Zm-19.808,28.612-1.418,4.243.506,15.54Zm-7.012,15.755-1.47-2.822,2.082,13.279Zm20.405,11.123,35.931-8.567-9.694-1.874Zm39.753-.053-9.573-.9s-19.062,2.226-19.308,2.472Zm-3.822,5.523H176.409l48.732,5.979Zm-28.526,4.063,34.456,8.4-10.191-4.461Zm1.34,7.509,9.169.892-17.285-7.14ZM171.49,199.78a12.737,12.737,0,0,0-2.542,1.6c0,1.063,2.3,2.388,2.867,2.388s2.865-2.684,2.865-3.185S172.236,199.58,171.49,199.78Zm6.312-33.36c-.286-.412-2.577.574-3.077,1.164a12.81,12.81,0,0,0-1.179,2.758c.607.875,3.255.65,3.716.33S178.087,166.833,177.8,166.419Zm-11.12,27.746c.344.958,2.975.243,3.218,0a4.11,4.11,0,0,0-.529-2.908C168.82,190.706,166.462,193.55,166.682,194.166Zm27.417,7.247c-.025-.484-2.3-.152-2.456.226-.24.587,1.277,1.351,1.489,1.34A2.556,2.556,0,0,0,194.1,201.413Zm4.167-17.148c-.025-.484-2.3-.152-2.455.226-.241.587,1.275,1.351,1.489,1.34A2.555,2.555,0,0,0,198.266,184.264ZM189.51,171.41c-.605-.347-2.772,2.02-2.5,2.452.426.67,3.046-.153,3.272-.361S190.115,171.755,189.51,171.41Zm-14.627,22.606c-1.418,0-1.778,1.325-.354,2.068S176.178,194.016,174.883,194.016ZM160.9,182.441c1.262.636,1.463-1.769.314-1.769C159.962,180.672,159.643,181.8,160.9,182.441Zm6.221-15.8c1.422.743,1.65-2.068.354-2.068C166.062,164.576,165.7,165.9,167.125,166.644Zm6.131,19.179c-.621-.621-2.113.46-2.572,0s-.085-2.54-1.057-2.54c-1.443,0-1.6,4.224-.861,4.962S173.876,186.444,173.256,185.823Zm-6.419-5.345c0,.709,2.333.679,3.012,0s-.59-2.246-1.712-2.246C167.25,178.232,166.837,179.769,166.837,180.478Zm15.788,7.248c-.526.475,1.06,2.187,2.02,2.235s1.271-1.943.519-2.775C184.569,186.529,183.151,187.252,182.625,187.727Zm-18.393,7.527c-.517-1.438.782-3.219,2.9-4.029a8.826,8.826,0,0,0-3.227-2.642,4.2,4.2,0,0,1-3.218,2.367.921.921,0,0,1-.115.748,1.051,1.051,0,0,1-1.839-.933,4.211,4.211,0,0,1-2.441-2.181,8.826,8.826,0,1,0,8.583,15.381,2.415,2.415,0,0,1-.856-2.492,1.309,1.309,0,0,1,.074-1.438,1.373,1.373,0,0,1,1.1-.652.892.892,0,0,1,.121-.317,1.011,1.011,0,0,1,1.409-.228,1.084,1.084,0,0,1,.356.41,1.1,1.1,0,0,1,.2.22,2.17,2.17,0,0,1,.587.226,2.23,2.23,0,0,1,.348.356,8.81,8.81,0,0,0,.732-3.509C166.825,197.221,164.741,196.673,164.232,195.254Z" transform="translate(12.58 9.938)" fill="url(#radial-gradient-7)"/>
      <path id="Trazado_625601" data-name="Trazado 625601" d="M188.741,126.365a1.514,1.514,0,0,0-2.62,0l-35.287,61.121c-2.562-.819-5.044-1.7-7.413-2.634l38.625-66.9a6.218,6.218,0,0,1,10.771,0l38.626,66.9c-2.374.936-4.857,1.819-7.414,2.634Z" transform="translate(8.289 0.56)" opacity="0.73" fill="url(#linear-gradient-3)" style="mix-blend-mode: screen;isolation: isolate"/>
      <path id="Trazado_625602" data-name="Trazado 625602" d="M150.588,183.7a121.812,121.812,0,0,0,65.835,0l-32.918-57.016Z" transform="translate(12.215 7.046)" opacity="0.73" fill="url(#linear-gradient-4)" style="mix-blend-mode: screen;isolation: isolate"/>
    </g>
    <path id="Trazado_627033" data-name="Trazado 627033" d="M22.937,11.437H17.875v3.445h5.941V17H15.238V4.2H23.8V6.339H17.875v3.05h5.063Zm5.88-1.107,1.6-2.839h2.716l-2.707,4.658L33.247,17H30.522l-1.7-2.988L27.138,17H24.4l2.821-4.852-2.7-4.658h2.725Zm14.1,2a5.7,5.7,0,0,1-1,3.52,3.2,3.2,0,0,1-2.694,1.323,2.963,2.963,0,0,1-2.329-1v4.482h-2.54V7.49h2.355l.088.932a2.985,2.985,0,0,1,2.408-1.107,3.22,3.22,0,0,1,2.733,1.3,5.858,5.858,0,0,1,.976,3.586Zm-2.54-.194a3.763,3.763,0,0,0-.47-2.054,1.53,1.53,0,0,0-1.367-.723,1.662,1.662,0,0,0-1.644.917v3.906a1.691,1.691,0,0,0,1.661.943Q40.375,15.128,40.375,12.139ZM47.168,17H44.62V3.5h2.549Zm1.7-4.843a5.64,5.64,0,0,1,.545-2.522,3.989,3.989,0,0,1,1.569-1.714,4.577,4.577,0,0,1,2.377-.606A4.33,4.33,0,0,1,56.5,8.492a4.727,4.727,0,0,1,1.358,3.2l.018.65a4.97,4.97,0,0,1-1.222,3.511,4.735,4.735,0,0,1-6.561,0,5.058,5.058,0,0,1-1.226-3.586Zm2.54.18a3.555,3.555,0,0,0,.51,2.073,1.831,1.831,0,0,0,2.9.009,3.89,3.89,0,0,0,.519-2.267,3.519,3.519,0,0,0-.519-2.06,1.686,1.686,0,0,0-1.459-.731,1.658,1.658,0,0,0-1.441.726A3.955,3.955,0,0,0,51.4,12.338Zm13.184,2.035a.818.818,0,0,0-.461-.734,5.241,5.241,0,0,0-1.481-.479q-3.393-.712-3.393-2.883A2.613,2.613,0,0,1,60.3,8.163a4.237,4.237,0,0,1,2.747-.848,4.56,4.56,0,0,1,2.9.853,2.687,2.687,0,0,1,1.085,2.215h-2.54a1.229,1.229,0,0,0-.352-.9,1.488,1.488,0,0,0-1.1-.356,1.52,1.52,0,0,0-.993.29.916.916,0,0,0-.352.738.783.783,0,0,0,.4.681,4.114,4.114,0,0,0,1.349.448,11.019,11.019,0,0,1,1.6.426,2.628,2.628,0,0,1,2.013,2.558,2.481,2.481,0,0,1-1.116,2.1,4.815,4.815,0,0,1-2.883.8,5.029,5.029,0,0,1-2.123-.426,3.561,3.561,0,0,1-1.455-1.169,2.716,2.716,0,0,1-.527-1.6h2.408a1.326,1.326,0,0,0,.5,1.037,1.987,1.987,0,0,0,1.248.36,1.839,1.839,0,0,0,1.1-.277A.861.861,0,0,0,64.588,14.372ZM71.374,17H68.825V7.49h2.549Zm-2.7-11.971a1.251,1.251,0,0,1,.382-.94,1.648,1.648,0,0,1,2.079,0,1.244,1.244,0,0,1,.387.94,1.247,1.247,0,0,1-.391.949,1.629,1.629,0,0,1-2.065,0A1.247,1.247,0,0,1,68.675,5.029Zm8.35,8.868L78.792,7.49h2.654L78.238,17H75.812L72.6,7.49h2.654Zm5.01-1.74a5.64,5.64,0,0,1,.545-2.522,3.989,3.989,0,0,1,1.569-1.714,4.577,4.577,0,0,1,2.377-.606,4.33,4.33,0,0,1,3.142,1.178,4.727,4.727,0,0,1,1.358,3.2l.018.65a4.97,4.97,0,0,1-1.222,3.511,4.735,4.735,0,0,1-6.561,0,5.058,5.058,0,0,1-1.226-3.586Zm2.54.18a3.555,3.555,0,0,0,.51,2.073,1.831,1.831,0,0,0,2.9.009,3.89,3.89,0,0,0,.519-2.267,3.519,3.519,0,0,0-.519-2.06,1.686,1.686,0,0,0-1.459-.731,1.658,1.658,0,0,0-1.441.726A3.955,3.955,0,0,0,84.575,12.338ZM97.2,11.8a13.488,13.488,0,0,1,.536-3.832,10.112,10.112,0,0,1,1.582-3.221A5.907,5.907,0,0,1,101.59,2.8l.492,1.371a6.118,6.118,0,0,0-2,2.936,13.592,13.592,0,0,0-.721,4.641v.272a13.852,13.852,0,0,0,.712,4.658,6.237,6.237,0,0,0,2.013,2.979L101.59,21A5.91,5.91,0,0,1,99.362,19.1a9.943,9.943,0,0,1-1.578-3.133,13.408,13.408,0,0,1-.58-3.709Zm14.071-.36h-5.062v3.445h5.941V17h-8.578V4.2h8.561V6.339h-5.924v3.05h5.063Zm6.636.563a12.8,12.8,0,0,1-.571,3.823,10.378,10.378,0,0,1-1.644,3.243A5.921,5.921,0,0,1,113.4,21l-.492-1.345a6.18,6.18,0,0,0,1.969-2.9,13.431,13.431,0,0,0,.747-4.509v-.466a13.735,13.735,0,0,0-.716-4.632,6.442,6.442,0,0,0-2-3.006L113.4,2.8a5.923,5.923,0,0,1,2.254,1.881A10.244,10.244,0,0,1,117.3,7.851a12.708,12.708,0,0,1,.611,3.753Z" transform="translate(743 12663)" fill="#12263f"/>
    <g id="Grupo_990274" data-name="Grupo 990274" transform="translate(75.02 -90)">
      <g id="Grupo_990271" data-name="Grupo 990271" transform="translate(653.863 12434.134)">
        <path id="Trazado_625584-3" data-name="Trazado 625584" d="M241.85,110.73a7.733,7.733,0,0,1-6.7-11.6l59.7-103.4a7.731,7.731,0,0,1,6.7-3.866,7.731,7.731,0,0,1,6.7,3.866l59.7,103.4a7.733,7.733,0,0,1-6.7,11.6Z" transform="translate(0 0)" fill="url(#radial-gradient)"/>
        <path id="Trazado_625585-3" data-name="Trazado 625585" d="M242.5,95.087,296.953.776,351.4,95.087Z" transform="translate(4.594 4.881)" fill="url(#linear-gradient)"/>
        <path id="Trazado_625586-3" data-name="Trazado 625586" d="M245.886,89.923,295.1,4.683l49.214,85.239Z" transform="translate(6.447 7.022)" fill="url(#linear-gradient-2)"/>
        <path id="Trazado_625588-3" data-name="Trazado 625588" d="M294.567,4.367a1.513,1.513,0,0,0-2.619,0L256.66,65.487c-2.56-.819-5.044-1.7-7.413-2.636l38.624-66.9a6.235,6.235,0,0,1,5.387-3.11,6.237,6.237,0,0,1,5.386,3.11l38.625,66.9c-2.374.936-4.857,1.819-7.413,2.634Z" transform="translate(8.288 0.535)" opacity="0.73" fill="url(#linear-gradient-3)" style="mix-blend-mode: screen;isolation: isolate"/>
        <path id="Trazado_625589-3" data-name="Trazado 625589" d="M256.414,61.7a122.164,122.164,0,0,0,32.918,4.534A122.216,122.216,0,0,0,322.249,61.7L289.332,4.684Z" transform="translate(12.215 7.022)" opacity="0.73" fill="url(#linear-gradient-4)" style="mix-blend-mode: screen;isolation: isolate"/>
      </g>
      <g id="Elipse_5080" data-name="Elipse 5080" transform="translate(929 12477)" fill="none" stroke="#121622" stroke-width="5">
        <circle cx="27" cy="27" r="27" stroke="none"/>
        <circle cx="27" cy="27" r="24.5" fill="none"/>
      </g>
      <text id="X-2" data-name="X" transform="translate(944 12516)" fill="#121622" font-size="35" font-family="Roboto-Black, Roboto" font-weight="800"><tspan x="0" y="0">X</tspan></text>
    </g>
    <path id="Trazado_627034" data-name="Trazado 627034" d="M19.664,17H17.027L11.894,8.58V17H9.257V4.2h2.637l5.142,8.438V4.2h2.628Zm1.74-4.843a5.64,5.64,0,0,1,.545-2.522,3.989,3.989,0,0,1,1.569-1.714A4.577,4.577,0,0,1,25.9,7.314a4.33,4.33,0,0,1,3.142,1.178,4.727,4.727,0,0,1,1.358,3.2l.018.65a4.97,4.97,0,0,1-1.222,3.511,4.247,4.247,0,0,1-3.278,1.323,4.268,4.268,0,0,1-3.283-1.318A5.058,5.058,0,0,1,21.4,12.271Zm2.54.18a3.555,3.555,0,0,0,.51,2.073,1.831,1.831,0,0,0,2.9.009,3.89,3.89,0,0,0,.519-2.267,3.519,3.519,0,0,0-.519-2.06A1.686,1.686,0,0,0,25.9,9.362a1.658,1.658,0,0,0-1.441.726A3.955,3.955,0,0,0,23.944,12.338Zm11.988,2.79a1.666,1.666,0,0,0,1.143-.387,1.355,1.355,0,0,0,.457-1.028h2.382a3.258,3.258,0,0,1-.527,1.771,3.48,3.48,0,0,1-1.419,1.248,4.442,4.442,0,0,1-1.991.444,4.129,4.129,0,0,1-3.217-1.3A5.13,5.13,0,0,1,31.582,12.3v-.167A5.071,5.071,0,0,1,32.75,8.624a4.08,4.08,0,0,1,3.208-1.31A4,4,0,0,1,38.819,8.33a3.594,3.594,0,0,1,1.094,2.7H37.532a1.745,1.745,0,0,0-.457-1.206,1.7,1.7,0,0,0-2.5.183,3.749,3.749,0,0,0-.453,2.1v.264a3.8,3.8,0,0,0,.448,2.113A1.549,1.549,0,0,0,35.932,15.128ZM44.044,17H41.5V7.49h2.549Zm-2.7-11.971a1.251,1.251,0,0,1,.382-.94,1.648,1.648,0,0,1,2.079,0,1.244,1.244,0,0,1,.387.94,1.247,1.247,0,0,1-.391.949,1.629,1.629,0,0,1-2.065,0A1.247,1.247,0,0,1,41.346,5.029ZM49.7,13.9,51.462,7.49h2.654L50.909,17H48.483L45.275,7.49h2.654Zm5.01-1.74a5.64,5.64,0,0,1,.545-2.522,3.989,3.989,0,0,1,1.569-1.714A4.577,4.577,0,0,1,59.2,7.314a4.33,4.33,0,0,1,3.142,1.178,4.727,4.727,0,0,1,1.358,3.2l.018.65a4.97,4.97,0,0,1-1.222,3.511,4.735,4.735,0,0,1-6.561,0,5.058,5.058,0,0,1-1.226-3.586Zm2.54.18a3.555,3.555,0,0,0,.51,2.073,1.831,1.831,0,0,0,2.9.009,3.89,3.89,0,0,0,.519-2.267,3.519,3.519,0,0,0-.519-2.06A1.686,1.686,0,0,0,59.2,9.362a1.658,1.658,0,0,0-1.441.726A3.955,3.955,0,0,0,57.246,12.338Zm12.63-.541a13.488,13.488,0,0,1,.536-3.832,10.112,10.112,0,0,1,1.582-3.221A5.907,5.907,0,0,1,74.261,2.8l.492,1.371a6.118,6.118,0,0,0-2,2.936,13.592,13.592,0,0,0-.721,4.641v.272a13.852,13.852,0,0,0,.712,4.658,6.237,6.237,0,0,0,2.013,2.979L74.261,21A5.91,5.91,0,0,1,72.033,19.1a9.943,9.943,0,0,1-1.578-3.133,13.408,13.408,0,0,1-.58-3.709ZM80.827,8.615l2.4-4.412h3.032l-3.727,6.346L86.355,17H83.288l-2.461-4.482L78.366,17H75.3l3.823-6.451L75.4,4.2h3.032ZM91.892,12a12.8,12.8,0,0,1-.571,3.823,10.378,10.378,0,0,1-1.644,3.243A5.921,5.921,0,0,1,87.383,21l-.492-1.345a6.18,6.18,0,0,0,1.969-2.9,13.431,13.431,0,0,0,.747-4.509v-.466a13.735,13.735,0,0,0-.716-4.632,6.442,6.442,0,0,0-2-3.006L87.383,2.8a5.923,5.923,0,0,1,2.254,1.881,10.244,10.244,0,0,1,1.644,3.173,12.708,12.708,0,0,1,.611,3.753Z" transform="translate(980 12463)" fill="#12263f"/>
    <g id="Grupo_990269" data-name="Grupo 990269" transform="translate(45.02 -90)">
      <path id="Trazado_625597-2" data-name="Trazado 625597" d="M136.022,232.683a7.734,7.734,0,0,1-6.7-11.6l59.7-103.4a7.731,7.731,0,0,1,13.392,0l59.7,103.4a7.734,7.734,0,0,1-6.7,11.6Z" transform="translate(789.689 12515.71)" fill="url(#radial-gradient)"/>
      <path id="Trazado_625598-2" data-name="Trazado 625598" d="M136.676,217.04l54.451-94.311,54.451,94.311Z" transform="translate(794.283 12520.591)" fill="url(#linear-gradient)"/>
      <path id="Trazado_625599-2" data-name="Trazado 625599" d="M140.06,211.875l49.213-85.239,49.213,85.239Z" transform="translate(796.137 12522.731)" fill="url(#linear-gradient-2)"/>
      <path id="Trazado_625601-2" data-name="Trazado 625601" d="M188.741,126.365a1.514,1.514,0,0,0-2.62,0l-35.287,61.121c-2.562-.819-5.044-1.7-7.413-2.634l38.625-66.9a6.218,6.218,0,0,1,10.771,0l38.626,66.9c-2.374.936-4.857,1.819-7.414,2.634Z" transform="translate(797.978 12516.27)" opacity="0.73" fill="url(#linear-gradient-3)" style="mix-blend-mode: screen;isolation: isolate"/>
      <path id="Trazado_625602-2" data-name="Trazado 625602" d="M150.588,183.7a121.812,121.812,0,0,0,65.835,0l-32.918-57.016Z" transform="translate(801.904 12522.756)" opacity="0.73" fill="url(#linear-gradient-4)" style="mix-blend-mode: screen;isolation: isolate"/>
      <g id="Elipse_5078" data-name="Elipse 5078" transform="translate(970 12703)" fill="none" stroke="#131825" stroke-width="5">
        <circle cx="14.5" cy="14.5" r="14.5" stroke="none"/>
        <circle cx="14.5" cy="14.5" r="12" fill="none"/>
      </g>
      <rect id="Rectángulo_344373" data-name="Rectángulo 344373" width="34" height="3" rx="1.5" transform="translate(968 12732)" fill="#131825"/>
      <path id="Trazado_625609" data-name="Trazado 625609" d="M-4896.109,1145.214a3.08,3.08,0,0,0,1.116-2.139c.069-1.353-.312-3.342.376-3.947s2.31-1.961,2.425-2.68.37-4.639.37-4.639l.745-.537h.659l1.374,1.423,1.072-4.44s.269-2.374.925-1.643a22.041,22.041,0,0,1,1.847,4.1s.96,1.148,1.2,0,2.817-12.1,2.817-12.1l.652-.838.75.656.586,3.055.838,1.341.441,5.651s-.169,2.631.354,2.238,3.612-4.874,3.612-4.874h.619l.294.532v4.342s.865,2.416,2.036,1.8,1.788-2.74,1.788-2.74l1.175.183-.4,4.1,1.484,2.174,2.175,1.082.6,4.229s-.57,4.939.232,5.275,2.446.163,2.388-.725-1.025-8.17-1.17-9.069-.319-2.966-.319-2.966l2.563-3.006s-3.5,2.424-4.289,1.463-2.175-11.551-2.175-11.551l.335-1.8-3.345,3.138s-3.529-2.318-3.366-6.193a84.051,84.051,0,0,1,1.588-10.523s-3.627,1.392-4.047,2.809a15.8,15.8,0,0,0,0,4.576s.882,2.452-1.147,2.159,0-11.288,0-11.288l-1.944-5.02-2.968,6.765-1.562,3.48s-2.023,1.9-2.017,3.9a1.933,1.933,0,0,1-1.619,2.159l-.375-5.138-3.212,4.389-.443,6.339s-.376.856-1.115.76-1.01-4.971-1.01-4.971l-1.85,3.35s-2.119,6.74-.694,8.612.982.85.982.85l-.288,1.389-2.97-1.131,1.056,3.66Z" transform="translate(5863.908 11570.949)" fill="url(#linear-gradient-25)"/>
    </g>
    <path id="Trazado_627035" data-name="Trazado 627035" d="M16.391,12.737a4.528,4.528,0,0,1-1.525,3.252,5.355,5.355,0,0,1-3.625,1.187,4.816,4.816,0,0,1-3.872-1.657,6.793,6.793,0,0,1-1.411-4.548v-.782a7.671,7.671,0,0,1,.65-3.252A4.874,4.874,0,0,1,8.468,4.779a5.207,5.207,0,0,1,2.808-.751,5.217,5.217,0,0,1,3.568,1.187,4.866,4.866,0,0,1,1.564,3.331H13.772a2.673,2.673,0,0,0-.69-1.8,2.555,2.555,0,0,0-1.806-.558A2.24,2.24,0,0,0,9.3,7.134a5.3,5.3,0,0,0-.672,2.931v.967a5.667,5.667,0,0,0,.628,3.032,2.2,2.2,0,0,0,1.982.958,2.6,2.6,0,0,0,1.824-.558,2.521,2.521,0,0,0,.69-1.727Zm1.169-.58A5.64,5.64,0,0,1,18.1,9.635a3.989,3.989,0,0,1,1.569-1.714,4.577,4.577,0,0,1,2.377-.606,4.33,4.33,0,0,1,3.142,1.178,4.727,4.727,0,0,1,1.358,3.2l.018.65a4.97,4.97,0,0,1-1.222,3.511,4.247,4.247,0,0,1-3.278,1.323,4.268,4.268,0,0,1-3.283-1.318,5.058,5.058,0,0,1-1.226-3.586Zm2.54.18a3.555,3.555,0,0,0,.51,2.073,1.831,1.831,0,0,0,2.9.009,3.89,3.89,0,0,0,.519-2.267,3.519,3.519,0,0,0-.519-2.06,1.686,1.686,0,0,0-1.459-.731,1.658,1.658,0,0,0-1.441.726A3.955,3.955,0,0,0,20.1,12.338ZM30.515,7.49l.079,1.063a3.342,3.342,0,0,1,2.733-1.239,2.536,2.536,0,0,1,2.522,1.45,3.265,3.265,0,0,1,2.856-1.45,2.836,2.836,0,0,1,2.3.9,4.141,4.141,0,0,1,.756,2.711V17H39.216V10.922A1.818,1.818,0,0,0,38.9,9.737a1.4,1.4,0,0,0-1.116-.374A1.585,1.585,0,0,0,36.2,10.455L36.21,17H33.67V10.93a1.8,1.8,0,0,0-.325-1.2,1.414,1.414,0,0,0-1.107-.37,1.645,1.645,0,0,0-1.564.9V17h-2.54V7.49Zm21.771,4.843A5.758,5.758,0,0,1,51.31,15.9a3.231,3.231,0,0,1-2.725,1.279,2.969,2.969,0,0,1-2.47-1.187L46,17H43.716V3.5h2.54V8.343a2.893,2.893,0,0,1,2.312-1.028A3.258,3.258,0,0,1,51.3,8.593a5.767,5.767,0,0,1,.989,3.6Zm-2.54-.194a3.8,3.8,0,0,0-.457-2.111,1.544,1.544,0,0,0-1.362-.666,1.675,1.675,0,0,0-1.67,1v3.764a1.7,1.7,0,0,0,1.688,1,1.569,1.569,0,0,0,1.617-1.217A6.294,6.294,0,0,0,49.746,12.139Zm9.8,3.894a3.185,3.185,0,0,1-2.6,1.143A3,3,0,0,1,54.61,16.3a3.752,3.752,0,0,1-.822-2.575V7.49h2.54v6.151q0,1.487,1.354,1.487a1.834,1.834,0,0,0,1.775-.9V7.49h2.549V17H59.616Zm9.721-6.161a6.9,6.9,0,0,0-.914-.07,1.86,1.86,0,0,0-1.89.976V17h-2.54V7.49h2.4l.07,1.134a2.354,2.354,0,0,1,2.118-1.31,2.662,2.662,0,0,1,.791.114Zm5.432,7.3a4.668,4.668,0,0,1-3.406-1.283,4.561,4.561,0,0,1-1.314-3.419v-.246a5.745,5.745,0,0,1,.554-2.562A4.064,4.064,0,0,1,72.1,7.925a4.4,4.4,0,0,1,2.316-.611,3.947,3.947,0,0,1,3.072,1.23,5,5,0,0,1,1.121,3.489v1.037H72.553a2.36,2.36,0,0,0,.743,1.494,2.245,2.245,0,0,0,1.569.563,2.742,2.742,0,0,0,2.294-1.063l1.248,1.4a3.813,3.813,0,0,1-1.547,1.261A5.075,5.075,0,0,1,74.7,17.176Zm-.29-7.813a1.587,1.587,0,0,0-1.226.512,2.651,2.651,0,0,0-.6,1.466h3.533v-.2a1.891,1.891,0,0,0-.457-1.311A1.638,1.638,0,0,0,74.408,9.362Zm7.98-1.872.079,1.1A3.32,3.32,0,0,1,85.2,7.314a2.759,2.759,0,0,1,2.25.888,4.142,4.142,0,0,1,.756,2.654V17h-2.54V10.9a1.654,1.654,0,0,0-.352-1.176,1.572,1.572,0,0,0-1.169-.366,1.747,1.747,0,0,0-1.608.916V17H80V7.49ZM93.172,5.152V7.49H94.8V9.354H93.172V14.1a1.133,1.133,0,0,0,.2.756,1.015,1.015,0,0,0,.773.229,4.051,4.051,0,0,0,.747-.062v1.925a5.229,5.229,0,0,1-1.538.229,2.425,2.425,0,0,1-2.725-2.7V9.354H89.244V7.49h1.389V5.152Zm7.418,12.023a4.668,4.668,0,0,1-3.406-1.283,4.561,4.561,0,0,1-1.314-3.419v-.246a5.745,5.745,0,0,1,.554-2.562,4.064,4.064,0,0,1,1.569-1.74,4.4,4.4,0,0,1,2.316-.611,3.947,3.947,0,0,1,3.072,1.23,5,5,0,0,1,1.121,3.489v1.037H98.446a2.36,2.36,0,0,0,.743,1.494,2.245,2.245,0,0,0,1.569.563,2.742,2.742,0,0,0,2.294-1.063l1.248,1.4a3.813,3.813,0,0,1-1.547,1.261A5.075,5.075,0,0,1,100.59,17.176Zm-.29-7.813a1.587,1.587,0,0,0-1.226.512,2.651,2.651,0,0,0-.6,1.466h3.533v-.2a1.891,1.891,0,0,0-.457-1.311A1.638,1.638,0,0,0,100.3,9.362Zm10.793,5.01a.818.818,0,0,0-.461-.734,5.241,5.241,0,0,0-1.481-.479q-3.393-.712-3.393-2.883a2.613,2.613,0,0,1,1.05-2.114,4.237,4.237,0,0,1,2.747-.848,4.56,4.56,0,0,1,2.9.853,2.687,2.687,0,0,1,1.085,2.215H111a1.229,1.229,0,0,0-.352-.9,1.488,1.488,0,0,0-1.1-.356,1.52,1.52,0,0,0-.993.29.916.916,0,0,0-.352.738.783.783,0,0,0,.4.681,4.114,4.114,0,0,0,1.349.448,11.019,11.019,0,0,1,1.6.426,2.628,2.628,0,0,1,2.013,2.558,2.481,2.481,0,0,1-1.116,2.1,4.815,4.815,0,0,1-2.883.8,5.029,5.029,0,0,1-2.123-.426,3.561,3.561,0,0,1-1.455-1.169,2.716,2.716,0,0,1-.527-1.6h2.408a1.326,1.326,0,0,0,.5,1.037,1.987,1.987,0,0,0,1.248.36,1.839,1.839,0,0,0,1.1-.277A.861.861,0,0,0,111.093,14.372Zm8.7-2.575a13.488,13.488,0,0,1,.536-3.832,10.112,10.112,0,0,1,1.582-3.221A5.907,5.907,0,0,1,124.18,2.8l.492,1.371a6.118,6.118,0,0,0-2,2.936,13.592,13.592,0,0,0-.721,4.641v.272a13.852,13.852,0,0,0,.712,4.658,6.237,6.237,0,0,0,2.013,2.979L124.18,21a5.91,5.91,0,0,1-2.228-1.894,9.943,9.943,0,0,1-1.578-3.133,13.408,13.408,0,0,1-.58-3.709Zm16.884-.905a7.725,7.725,0,0,1-.668,3.313,5.03,5.03,0,0,1-1.912,2.2,5.649,5.649,0,0,1-5.691.009,5.08,5.08,0,0,1-1.934-2.184,7.5,7.5,0,0,1-.694-3.265v-.633A7.685,7.685,0,0,1,126.461,7,5.072,5.072,0,0,1,128.386,4.8a5.64,5.64,0,0,1,5.687,0A5.072,5.072,0,0,1,136,7a7.663,7.663,0,0,1,.681,3.318Zm-2.672-.58a5.385,5.385,0,0,0-.721-3.059,2.546,2.546,0,0,0-4.1-.013,5.324,5.324,0,0,0-.729,3.028v.624a5.453,5.453,0,0,0,.721,3.041,2.524,2.524,0,0,0,4.113.04,5.421,5.421,0,0,0,.721-3.037ZM142.8,12a12.8,12.8,0,0,1-.571,3.823,10.378,10.378,0,0,1-1.644,3.243A5.921,5.921,0,0,1,138.3,21l-.492-1.345a6.18,6.18,0,0,0,1.969-2.9,13.431,13.431,0,0,0,.747-4.509v-.466a13.735,13.735,0,0,0-.716-4.632,6.442,6.442,0,0,0-2-3.006L138.3,2.8a5.923,5.923,0,0,1,2.254,1.881,10.244,10.244,0,0,1,1.644,3.173A12.708,12.708,0,0,1,142.8,11.6Z" transform="translate(956 12663)" fill="#12263f"/>
    <g id="Grupo_990268" data-name="Grupo 990268" transform="translate(492.709 12693.703)">
      <path id="Trazado_625603" data-name="Trazado 625603" d="M136.188,131.689a7.9,7.9,0,0,1-6.839-11.846L190.326,14.23a7.9,7.9,0,0,1,13.679,0L264.98,119.843a7.9,7.9,0,0,1-6.839,11.846Z" transform="translate(0 0)" fill="url(#radial-gradient-10)"/>
      <path id="Trazado_625604" data-name="Trazado 625604" d="M136.676,115.522l55.617-96.331,55.617,96.331Z" transform="translate(4.871 5.176)" fill="url(#linear-gradient)"/>
      <path id="Trazado_625605" data-name="Trazado 625605" d="M140.059,110.163,190.327,23.1,240.6,110.163Z" transform="translate(6.837 7.446)" fill="url(#linear-gradient-2)"/>
      <path id="Trazado_625606" data-name="Trazado 625606" d="M168.52,72.212c2.262,0,3.5-1.094,4.047-.974.593.131.735.9.735,2.011h.027v5.364a1.254,1.254,0,0,0,2.452,0V76.573h1.081v2.041a1.253,1.253,0,0,0,2.451,0V76.573h1.081v2.041a1.235,1.235,0,0,0,1.2.983h0l.014,0v0h.009l0,0a1.325,1.325,0,0,0,.868-.343.955.955,0,0,0,.359-.648V76.573h1.08v2.041a.951.951,0,0,0,.36.648,1.318,1.318,0,0,0,.866.343,1.241,1.241,0,0,0,1.225-.991V76.573h1.081v2.041a.955.955,0,0,0,.359.648,1.268,1.268,0,0,0,1.734,0,.955.955,0,0,0,.359-.648V73.249a2.9,2.9,0,0,1,.368-1.8.688.688,0,0,1,.365-.213,1.047,1.047,0,0,1,.544.1,8.572,8.572,0,0,0,3.5.873c2.2,0,4.888-2.364,6.356-6.139.133-.343.256-.7.368-1.064a16.188,16.188,0,0,0,.525-2.322,17.208,17.208,0,0,0,.188-2.55c0-1.371.024-2.721.025-4.033,0-3.279-.144-6.318-1.192-8.844a10.063,10.063,0,0,0-.743-1.453c-2.729-4.386-8.866-6.838-18.6-6.838h-.027c-9.733,0-15.871,2.452-18.6,6.838-2.3,3.7-1.908,8.846-1.908,14.33C161.084,67.213,165.324,72.212,168.52,72.212Zm21.346-16.177c4.754-.862,7.4-1.377,7.8,2.247a13.68,13.68,0,0,1-.052,3.435,12.23,12.23,0,0,1-.3,1.44,10.377,10.377,0,0,1-.719,1.93A5.266,5.266,0,0,1,193.12,68.2a3.736,3.736,0,0,1-1.379-.142c-.4-.095-.86-.231-1.344-.4a21.844,21.844,0,0,1-2.286-.947c-2.058-.994-3.992-2.337-4.258-3.584C182.408,56.322,184.608,56.989,189.866,56.036ZM182.393,66.66c.953,0,4.062,3.761,4.062,4.926s-4.062,1.881-4.062,0Zm-1.572,4.926c0,1.881-4.063,1.165-4.063,0s3.108-4.926,4.063-4.926Zm-15.279-13.3c.4-3.624,3.051-3.108,7.805-2.247,5.257.953,7.458.286,6.011,7.091-.53,2.495-7.731,5.372-9.265,5.07C166.965,67.583,165.024,62.957,165.543,58.282Zm19.623,28.851c-.389.047-.789.09-1.2.122q-1.11.085-2.341.085h-.027c-6.539,0-10.664-1.892-10.542-4.313l.31-10.284.833-.506.757,11.494.378.288V81.978a1.254,1.254,0,0,1,2.452,0v2.041h1.081V81.978a1.253,1.253,0,0,1,2.451,0v2.041h1.081V81.978a1.237,1.237,0,0,1,1.2-.987l.022,0a1.345,1.345,0,0,1,1.13.666.69.69,0,0,1,.1.326v2.041h1.08V81.978a.69.69,0,0,1,.1-.326,1.347,1.347,0,0,1,1.13-.666,1.312,1.312,0,0,1,.985.489.868.868,0,0,1,.24.5v2.041h1.081V81.978a.69.69,0,0,1,.1-.326,1.291,1.291,0,0,1,2.259,0,.69.69,0,0,1,.1.326v2.041l.378-.288.757-11.494.833.506.31,10.284h0a2.283,2.283,0,0,1-.609,1.608c-.025.03-.043.06-.07.089a7.668,7.668,0,0,1-3.635,1.891c-.324.089-.67.169-1.026.242Q186.059,87.021,185.166,87.134Zm19.01,6.03a1.813,1.813,0,0,1-.424.474,2.12,2.12,0,0,1-.391.245c-.781.376-1.53.142-1.873.365a.368.368,0,0,0-.134.155c-.1.2,0,.4.164.634.109.157.247.332.372.538a2.651,2.651,0,0,1,.175.334,2.121,2.121,0,0,1,.18.849h0a2.572,2.572,0,0,1-2.152,2.283,2.455,2.455,0,0,1-2.081-.474c-.16-.128-.308-.258-.444-.391a9.7,9.7,0,0,1-2.133-3.764c-.046-.1-.095-.2-.145-.292a2.3,2.3,0,0,0-.351-.492,1.609,1.609,0,0,0-.479-.353l-8.686-4.2h0a13,13,0,0,0,5.383-1.8l5.026,2.427a1.892,1.892,0,0,0,1.179.126,9.189,9.189,0,0,0,1.141-.31,7.872,7.872,0,0,1,2.9-.479,6.437,6.437,0,0,1,1.129.157,2.389,2.389,0,0,1,1.428.983A2.812,2.812,0,0,1,204.175,93.164ZM172.07,87.27a12.921,12.921,0,0,0,5.374,1.805l-8.691,4.2c-1.507.727-1,3.238-3.552,5.292a2.676,2.676,0,0,1-4.234-1.809c.011-1.32,1.154-1.815.893-2.354s-1.36.049-2.4-.765a2.674,2.674,0,0,1,1.213-4.439c3.2-.727,4.847,1.235,6.354.506ZM157.05,78.78a2.676,2.676,0,0,1-1.214-4.441c1.04-.813,2.139-.224,2.4-.764s-.884-1.036-.893-2.354a2.675,2.675,0,0,1,4.232-1.81c2.558,2.055,2.047,4.564,3.554,5.293l4.585,2.213-.131,4.34L163.4,78.272C161.9,77.545,160.249,79.505,157.05,78.78Zm51.094-2.7a2.8,2.8,0,0,1-1.27,2.411,2.429,2.429,0,0,1-.711.285,7.937,7.937,0,0,1-4.525-.476,2.453,2.453,0,0,0-1.829-.032l-6.15,2.971-.13-4.338,4.556-2.2a1.885,1.885,0,0,0,.83-.846c.561-1.017.77-2.612,2.278-4.057.138-.131.285-.262.444-.391a2.675,2.675,0,0,1,4.232,1.81c-.009,1.319-1.153,1.813-.892,2.354s1.358-.049,2.4.764a1.816,1.816,0,0,1,.424.476A2.454,2.454,0,0,1,208.144,76.084Z" transform="translate(15.558 16.667)" fill="url(#radial-gradient-11)"/>
      <path id="Trazado_625607" data-name="Trazado 625607" d="M189.712,23.027a1.547,1.547,0,0,0-2.677,0l-36.043,62.43c-2.617-.835-5.152-1.736-7.571-2.691l39.452-68.332a6.353,6.353,0,0,1,11,0l39.453,68.333c-2.425.956-4.961,1.858-7.573,2.691Z" transform="translate(8.79 0.568)" opacity="0.73" fill="url(#linear-gradient-3)" style="mix-blend-mode: screen;isolation: isolate"/>
      <path id="Trazado_625608" data-name="Trazado 625608" d="M150.588,81.333a124.842,124.842,0,0,0,33.623,4.629,124.842,124.842,0,0,0,33.623-4.629L184.211,23.1Z" transform="translate(12.954 7.446)" opacity="0.73" fill="url(#linear-gradient-4)" style="mix-blend-mode: screen;isolation: isolate"/>
    </g>
    <path id="Trazado_627036" data-name="Trazado 627036" d="M32.108,6.339h-3.92V17H25.552V6.339H21.685V4.2H32.108Zm-.888,5.818a5.64,5.64,0,0,1,.545-2.522,3.989,3.989,0,0,1,1.569-1.714,4.577,4.577,0,0,1,2.377-.606,4.33,4.33,0,0,1,3.142,1.178,4.727,4.727,0,0,1,1.358,3.2l.018.65a4.97,4.97,0,0,1-1.222,3.511,4.247,4.247,0,0,1-3.278,1.323,4.268,4.268,0,0,1-3.283-1.318,5.058,5.058,0,0,1-1.226-3.586Zm2.54.18a3.555,3.555,0,0,0,.51,2.073,1.831,1.831,0,0,0,2.9.009,3.89,3.89,0,0,0,.519-2.267,3.519,3.519,0,0,0-.519-2.06,1.686,1.686,0,0,0-1.459-.731,1.658,1.658,0,0,0-1.441.726A3.955,3.955,0,0,0,33.761,12.338ZM36.213,3.5h2.769L36.547,6.225H34.481Zm9.018,6.829,1.6-2.839h2.716l-2.707,4.658L49.66,17H46.936l-1.7-2.988L43.552,17H40.818l2.821-4.852-2.7-4.658h2.725ZM53.448,17H50.9V7.49h2.549ZM50.75,5.029a1.251,1.251,0,0,1,.382-.94,1.648,1.648,0,0,1,2.079,0,1.244,1.244,0,0,1,.387.94,1.247,1.247,0,0,1-.391.949,1.629,1.629,0,0,1-2.065,0A1.247,1.247,0,0,1,50.75,5.029Zm8.745,10.1a1.666,1.666,0,0,0,1.143-.387,1.355,1.355,0,0,0,.457-1.028h2.382a3.258,3.258,0,0,1-.527,1.771,3.48,3.48,0,0,1-1.419,1.248,4.442,4.442,0,0,1-1.991.444,4.129,4.129,0,0,1-3.217-1.3A5.13,5.13,0,0,1,55.145,12.3v-.167a5.071,5.071,0,0,1,1.169-3.507,4.08,4.08,0,0,1,3.208-1.31A4,4,0,0,1,62.382,8.33a3.594,3.594,0,0,1,1.094,2.7H61.095a1.745,1.745,0,0,0-.457-1.206,1.7,1.7,0,0,0-2.5.183,3.749,3.749,0,0,0-.453,2.1v.264a3.8,3.8,0,0,0,.448,2.113A1.549,1.549,0,0,0,59.5,15.128Zm5.036-2.971a5.64,5.64,0,0,1,.545-2.522,3.989,3.989,0,0,1,1.569-1.714,4.577,4.577,0,0,1,2.377-.606,4.33,4.33,0,0,1,3.142,1.178,4.727,4.727,0,0,1,1.358,3.2l.018.65a4.97,4.97,0,0,1-1.222,3.511,4.735,4.735,0,0,1-6.561,0,5.058,5.058,0,0,1-1.226-3.586Zm2.54.18a3.555,3.555,0,0,0,.51,2.073,1.831,1.831,0,0,0,2.9.009A3.89,3.89,0,0,0,71,12.153a3.519,3.519,0,0,0-.519-2.06,1.686,1.686,0,0,0-1.459-.731,1.658,1.658,0,0,0-1.441.726A3.955,3.955,0,0,0,67.071,12.338Zm13.184,2.035a.818.818,0,0,0-.461-.734,5.241,5.241,0,0,0-1.481-.479q-3.393-.712-3.393-2.883a2.613,2.613,0,0,1,1.05-2.114,4.237,4.237,0,0,1,2.747-.848,4.56,4.56,0,0,1,2.9.853A2.687,2.687,0,0,1,82.7,10.382h-2.54a1.229,1.229,0,0,0-.352-.9,1.488,1.488,0,0,0-1.1-.356,1.52,1.52,0,0,0-.993.29.916.916,0,0,0-.352.738.783.783,0,0,0,.4.681,4.114,4.114,0,0,0,1.349.448,11.019,11.019,0,0,1,1.6.426,2.628,2.628,0,0,1,2.013,2.558,2.481,2.481,0,0,1-1.116,2.1,4.815,4.815,0,0,1-2.883.8A5.029,5.029,0,0,1,76.6,16.75a3.561,3.561,0,0,1-1.455-1.169,2.716,2.716,0,0,1-.527-1.6h2.408a1.326,1.326,0,0,0,.5,1.037,1.987,1.987,0,0,0,1.248.36,1.839,1.839,0,0,0,1.1-.277A.861.861,0,0,0,80.255,14.372Zm8.7-2.575a13.488,13.488,0,0,1,.536-3.832,10.112,10.112,0,0,1,1.582-3.221A5.907,5.907,0,0,1,93.342,2.8l.492,1.371a6.118,6.118,0,0,0-2,2.936,13.592,13.592,0,0,0-.721,4.641v.272a13.852,13.852,0,0,0,.712,4.658,6.237,6.237,0,0,0,2.013,2.979L93.342,21A5.91,5.91,0,0,1,91.114,19.1a9.943,9.943,0,0,1-1.578-3.133,13.408,13.408,0,0,1-.58-3.709Zm16-5.458h-3.92V17H98.4V6.339H94.537V4.2h10.424ZM110.674,12a12.8,12.8,0,0,1-.571,3.823,10.378,10.378,0,0,1-1.644,3.243A5.921,5.921,0,0,1,106.165,21l-.492-1.345a6.18,6.18,0,0,0,1.969-2.9,13.431,13.431,0,0,0,.747-4.509v-.466a13.735,13.735,0,0,0-.716-4.632,6.442,6.442,0,0,0-2-3.006l.492-1.345a5.923,5.923,0,0,1,2.254,1.881,10.244,10.244,0,0,1,1.644,3.173,12.708,12.708,0,0,1,.611,3.753Z" transform="translate(623 12830)" fill="#12263f"/>
    <g id="Grupo_990275" data-name="Grupo 990275" transform="translate(24.02 -90)">
      <g id="Grupo_990272" data-name="Grupo 990272" transform="translate(704.689 12783.703)">
        <path id="Trazado_625603-2" data-name="Trazado 625603" d="M136.188,131.689a7.9,7.9,0,0,1-6.839-11.846L190.326,14.23a7.9,7.9,0,0,1,13.679,0L264.98,119.843a7.9,7.9,0,0,1-6.839,11.846Z" transform="translate(0 0)" fill="url(#radial-gradient-10)"/>
        <path id="Trazado_625604-2" data-name="Trazado 625604" d="M136.676,115.522l55.617-96.331,55.617,96.331Z" transform="translate(4.871 5.176)" fill="url(#linear-gradient)"/>
        <path id="Trazado_625605-2" data-name="Trazado 625605" d="M140.059,110.163,190.327,23.1,240.6,110.163Z" transform="translate(6.837 7.446)" fill="url(#linear-gradient-2)"/>
        <path id="Trazado_625607-2" data-name="Trazado 625607" d="M189.712,23.027a1.547,1.547,0,0,0-2.677,0l-36.043,62.43c-2.617-.835-5.152-1.736-7.571-2.691l39.452-68.332a6.353,6.353,0,0,1,11,0l39.453,68.333c-2.425.956-4.961,1.858-7.573,2.691Z" transform="translate(8.79 0.568)" opacity="0.73" fill="url(#linear-gradient-3)" style="mix-blend-mode: screen;isolation: isolate"/>
      </g>
      <path id="Trazado_625611" data-name="Trazado 625611" d="M1.278-.344,34,0V6L-2.157,5.693Z" transform="translate(856 12885)" fill="#121622"/>
      <path id="Trazado_625612" data-name="Trazado 625612" d="M0,0,30.176-.315,34,6H0Z" transform="translate(916 12885)" fill="#121622"/>
      <path id="Trazado_625610" data-name="Trazado 625610" d="M-4954.018,1209.556l-9.2,1.545,7.979-3.362,1.225-23.817-12.935-6.631-4.8,1.561,6.356-5.336,10.152,4.611-2.714-7.663-11.674-9.2,11.674,6.507v-8.151l-5.265-9.364,6.241,8.159,1.738-7.163v9.354l1.225,6.22,3.539,11.3,6.16-7.141-.688-18.9,1.785,12.533,8.827-10.2-8.827,12.4,1.168,5.746-2.953,6.9,5.059-3.763,6.706-.963,7.778-8.489-7.252,11.872-5.058.725-7.232,8.6v15.819l7.232,5-9.375,1.276-2.666,3.873Z" transform="translate(5852 11689)" fill="url(#linear-gradient-33)"/>
    </g>
    <path id="Trazado_627037" data-name="Trazado 627037" d="M47.591,12.491V17H44.954V4.2h4.992a5.776,5.776,0,0,1,2.536.527,3.886,3.886,0,0,1,1.683,1.5,4.178,4.178,0,0,1,.589,2.21,3.674,3.674,0,0,1-1.288,2.966A5.363,5.363,0,0,1,49.9,12.491Zm0-2.136h2.355a2.316,2.316,0,0,0,1.6-.492,1.79,1.79,0,0,0,.549-1.406,2.111,2.111,0,0,0-.554-1.521,2.068,2.068,0,0,0-1.529-.6H47.591Zm13.069,6.82a4.668,4.668,0,0,1-3.406-1.283,4.561,4.561,0,0,1-1.314-3.419v-.246a5.745,5.745,0,0,1,.554-2.562,4.064,4.064,0,0,1,1.569-1.74,4.4,4.4,0,0,1,2.316-.611,3.947,3.947,0,0,1,3.072,1.23,5,5,0,0,1,1.121,3.489v1.037H58.516a2.36,2.36,0,0,0,.743,1.494,2.245,2.245,0,0,0,1.569.563,2.742,2.742,0,0,0,2.294-1.063l1.248,1.4a3.813,3.813,0,0,1-1.547,1.261A5.075,5.075,0,0,1,60.66,17.176Zm-.29-7.813a1.587,1.587,0,0,0-1.226.512,2.651,2.651,0,0,0-.6,1.466h3.533v-.2a1.891,1.891,0,0,0-.457-1.311A1.638,1.638,0,0,0,60.37,9.362ZM68.693,17H66.145V3.5h2.549Zm4.772,0H70.917V7.49h2.549Zm-2.7-11.971a1.251,1.251,0,0,1,.382-.94,1.648,1.648,0,0,1,2.079,0,1.244,1.244,0,0,1,.387.94,1.247,1.247,0,0,1-.391.949,1.629,1.629,0,0,1-2.065,0A1.247,1.247,0,0,1,70.768,5.029Zm4.421,7.146A5.573,5.573,0,0,1,76.23,8.65a3.375,3.375,0,0,1,2.808-1.336,2.96,2.96,0,0,1,2.435,1.072l.105-.9h2.3v9.193a4.064,4.064,0,0,1-.567,2.171,3.641,3.641,0,0,1-1.6,1.406,5.608,5.608,0,0,1-2.408.483,5.215,5.215,0,0,1-2.039-.417,3.619,3.619,0,0,1-1.5-1.077L76.894,17.7a2.975,2.975,0,0,0,2.3,1.063,2.178,2.178,0,0,0,1.573-.541,2.027,2.027,0,0,0,.563-1.534v-.51a2.938,2.938,0,0,1-2.312.993,3.366,3.366,0,0,1-2.773-1.34,5.572,5.572,0,0,1-1.059-3.555Zm2.54.181a3.489,3.489,0,0,0,.519,2.035,1.648,1.648,0,0,0,1.424.737,1.762,1.762,0,0,0,1.661-.874V10.236a1.758,1.758,0,0,0-1.644-.874,1.659,1.659,0,0,0-1.437.751A3.933,3.933,0,0,0,77.729,12.356ZM91.176,9.872a6.9,6.9,0,0,0-.914-.07,1.86,1.86,0,0,0-1.89.976V17h-2.54V7.49h2.4l.07,1.134a2.354,2.354,0,0,1,2.118-1.31,2.662,2.662,0,0,1,.791.114Zm.51,2.285a5.64,5.64,0,0,1,.545-2.522A3.989,3.989,0,0,1,93.8,7.921a4.577,4.577,0,0,1,2.377-.606,4.33,4.33,0,0,1,3.142,1.178,4.727,4.727,0,0,1,1.358,3.2l.018.65a4.97,4.97,0,0,1-1.222,3.511,4.735,4.735,0,0,1-6.561,0,5.058,5.058,0,0,1-1.226-3.586Zm2.54.18a3.555,3.555,0,0,0,.51,2.073,1.831,1.831,0,0,0,2.9.009,3.89,3.89,0,0,0,.519-2.267,3.519,3.519,0,0,0-.519-2.06,1.686,1.686,0,0,0-1.459-.731,1.658,1.658,0,0,0-1.441.726A3.955,3.955,0,0,0,94.226,12.338ZM112.252,17a2.821,2.821,0,0,1-.255-.853,3.073,3.073,0,0,1-2.4,1.028,3.376,3.376,0,0,1-2.316-.809,2.6,2.6,0,0,1-.918-2.039,2.687,2.687,0,0,1,1.121-2.32,5.529,5.529,0,0,1,3.239-.817h1.169v-.545a1.567,1.567,0,0,0-.338-1.055,1.331,1.331,0,0,0-1.068-.4,1.513,1.513,0,0,0-1.006.308,1.045,1.045,0,0,0-.365.844h-2.54a2.551,2.551,0,0,1,.51-1.529,3.37,3.37,0,0,1,1.441-1.1,5.253,5.253,0,0,1,2.092-.4,4.15,4.15,0,0,1,2.791.883,3.09,3.09,0,0,1,1.033,2.483V14.8a4.546,4.546,0,0,0,.378,2.048V17Zm-2.1-1.767a2.188,2.188,0,0,0,1.037-.25,1.645,1.645,0,0,0,.7-.672V12.676h-.949q-1.907,0-2.03,1.318l-.009.149a1.017,1.017,0,0,0,.334.782A1.3,1.3,0,0,0,110.151,15.233ZM119.072,17h-2.549V3.5h2.549ZM5.1,31.49l.079,1.063a3.342,3.342,0,0,1,2.733-1.239,2.536,2.536,0,0,1,2.522,1.45,3.265,3.265,0,0,1,2.856-1.45,2.836,2.836,0,0,1,2.3.9,4.141,4.141,0,0,1,.756,2.711V41H13.806V34.922a1.818,1.818,0,0,0-.316-1.185,1.4,1.4,0,0,0-1.116-.374,1.585,1.585,0,0,0-1.582,1.092L10.8,41H8.26V34.93a1.8,1.8,0,0,0-.325-1.2,1.414,1.414,0,0,0-1.107-.37,1.645,1.645,0,0,0-1.564.9V41H2.723V31.49Zm17.578,9.686a4.668,4.668,0,0,1-3.406-1.283,4.561,4.561,0,0,1-1.314-3.419v-.246a5.745,5.745,0,0,1,.554-2.562,4.064,4.064,0,0,1,1.569-1.74,4.4,4.4,0,0,1,2.316-.611,3.947,3.947,0,0,1,3.072,1.23,5,5,0,0,1,1.121,3.489v1.037H20.538a2.36,2.36,0,0,0,.743,1.494,2.245,2.245,0,0,0,1.569.563,2.742,2.742,0,0,0,2.294-1.063l1.248,1.4a3.813,3.813,0,0,1-1.547,1.261A5.075,5.075,0,0,1,22.683,41.176Zm-.29-7.813a1.587,1.587,0,0,0-1.226.512,2.651,2.651,0,0,0-.6,1.466H24.1v-.2a1.891,1.891,0,0,0-.457-1.311A1.638,1.638,0,0,0,22.393,33.362Zm5.247,2.813a5.731,5.731,0,0,1,1-3.542,3.237,3.237,0,0,1,2.729-1.318,2.913,2.913,0,0,1,2.294,1.037V27.5h2.549V41H33.915l-.123-1.011a2.989,2.989,0,0,1-2.443,1.187,3.228,3.228,0,0,1-2.694-1.323A5.916,5.916,0,0,1,27.64,36.175Zm2.54.181a3.775,3.775,0,0,0,.466,2.057A1.516,1.516,0,0,0,32,39.128a1.7,1.7,0,0,0,1.661-1V34.36a1.675,1.675,0,0,0-1.644-1Q30.18,33.362,30.18,36.356ZM40.858,41H38.31V31.49h2.549Zm-2.7-11.971a1.251,1.251,0,0,1,.382-.94,1.648,1.648,0,0,1,2.079,0,1.342,1.342,0,0,1,0,1.89,1.629,1.629,0,0,1-2.065,0A1.247,1.247,0,0,1,38.16,29.029Zm4.395,7.128a5.64,5.64,0,0,1,.545-2.522,3.989,3.989,0,0,1,1.569-1.714,4.577,4.577,0,0,1,2.377-.606,4.33,4.33,0,0,1,3.142,1.178,4.727,4.727,0,0,1,1.358,3.2l.018.65a4.97,4.97,0,0,1-1.222,3.511,4.735,4.735,0,0,1-6.561,0,5.058,5.058,0,0,1-1.226-3.586Zm2.54.18a3.555,3.555,0,0,0,.51,2.073,1.831,1.831,0,0,0,2.9.009,3.89,3.89,0,0,0,.519-2.267,3.519,3.519,0,0,0-.519-2.06,1.686,1.686,0,0,0-1.459-.731,1.658,1.658,0,0,0-1.441.726A3.955,3.955,0,0,0,45.095,36.338ZM63.121,41a2.821,2.821,0,0,1-.255-.853,3.073,3.073,0,0,1-2.4,1.028,3.376,3.376,0,0,1-2.316-.809,2.6,2.6,0,0,1-.918-2.039,2.687,2.687,0,0,1,1.121-2.32,5.529,5.529,0,0,1,3.239-.817h1.169v-.545a1.567,1.567,0,0,0-.338-1.055,1.331,1.331,0,0,0-1.068-.4,1.513,1.513,0,0,0-1.006.308,1.045,1.045,0,0,0-.365.844h-2.54a2.551,2.551,0,0,1,.51-1.529,3.37,3.37,0,0,1,1.441-1.1,5.253,5.253,0,0,1,2.092-.4,4.15,4.15,0,0,1,2.791.883,3.09,3.09,0,0,1,1.033,2.483V38.8a4.546,4.546,0,0,0,.378,2.048V41Zm-2.1-1.767a2.188,2.188,0,0,0,1.037-.25,1.645,1.645,0,0,0,.7-.672V36.676h-.949q-1.907,0-2.03,1.318l-.009.149a1.017,1.017,0,0,0,.334.782A1.3,1.3,0,0,0,61.021,39.233Zm8.622-7.743.079,1.063a3.342,3.342,0,0,1,2.733-1.239,2.536,2.536,0,0,1,2.522,1.45,3.265,3.265,0,0,1,2.856-1.45,2.836,2.836,0,0,1,2.3.9,4.141,4.141,0,0,1,.756,2.711V41H78.344V34.922a1.818,1.818,0,0,0-.316-1.185,1.4,1.4,0,0,0-1.116-.374,1.585,1.585,0,0,0-1.582,1.092L75.338,41H72.8V34.93a1.8,1.8,0,0,0-.325-1.2,1.414,1.414,0,0,0-1.107-.37,1.645,1.645,0,0,0-1.564.9V41h-2.54V31.49Zm21.771,4.843a5.758,5.758,0,0,1-.976,3.564,3.231,3.231,0,0,1-2.725,1.279,2.969,2.969,0,0,1-2.47-1.187L85.129,41H82.844V27.5h2.54v4.843A2.893,2.893,0,0,1,87.7,31.314a3.258,3.258,0,0,1,2.729,1.279,5.767,5.767,0,0,1,.989,3.6Zm-2.54-.194a3.8,3.8,0,0,0-.457-2.111,1.544,1.544,0,0,0-1.362-.666,1.675,1.675,0,0,0-1.67,1v3.764a1.7,1.7,0,0,0,1.688,1,1.569,1.569,0,0,0,1.617-1.217A6.294,6.294,0,0,0,88.873,36.139ZM95.658,41H93.109V31.49h2.549Zm-2.7-11.971a1.251,1.251,0,0,1,.382-.94,1.648,1.648,0,0,1,2.079,0,1.342,1.342,0,0,1,0,1.89,1.629,1.629,0,0,1-2.065,0A1.247,1.247,0,0,1,92.96,29.029Zm9.167,12.146a4.668,4.668,0,0,1-3.406-1.283,4.561,4.561,0,0,1-1.314-3.419v-.246a5.745,5.745,0,0,1,.554-2.562,4.064,4.064,0,0,1,1.569-1.74,4.4,4.4,0,0,1,2.316-.611,3.947,3.947,0,0,1,3.072,1.23,5,5,0,0,1,1.121,3.489v1.037H99.982a2.36,2.36,0,0,0,.743,1.494,2.245,2.245,0,0,0,1.569.563,2.742,2.742,0,0,0,2.294-1.063l1.248,1.4a3.813,3.813,0,0,1-1.547,1.261A5.075,5.075,0,0,1,102.127,41.176Zm-.29-7.813a1.587,1.587,0,0,0-1.226.512,2.651,2.651,0,0,0-.6,1.466h3.533v-.2a1.891,1.891,0,0,0-.457-1.311A1.638,1.638,0,0,0,101.837,33.362Zm7.98-1.872.079,1.1a3.32,3.32,0,0,1,2.733-1.274,2.759,2.759,0,0,1,2.25.888,4.142,4.142,0,0,1,.756,2.654V41H113.1V34.9a1.654,1.654,0,0,0-.352-1.176,1.572,1.572,0,0,0-1.169-.366,1.747,1.747,0,0,0-1.608.916V41h-2.54V31.49ZM120.6,29.152V31.49h1.626v1.863H120.6V38.1a1.133,1.133,0,0,0,.2.756,1.015,1.015,0,0,0,.773.229,4.051,4.051,0,0,0,.747-.062v1.925a5.229,5.229,0,0,1-1.538.229,2.425,2.425,0,0,1-2.725-2.7V33.354h-1.389V31.49h1.389V29.152Zm7.418,12.023a4.668,4.668,0,0,1-3.406-1.283,4.561,4.561,0,0,1-1.314-3.419v-.246a5.745,5.745,0,0,1,.554-2.562,4.064,4.064,0,0,1,1.569-1.74,4.4,4.4,0,0,1,2.316-.611,3.947,3.947,0,0,1,3.072,1.23,5,5,0,0,1,1.121,3.489v1.037h-6.056a2.36,2.36,0,0,0,.743,1.494,2.245,2.245,0,0,0,1.569.563,2.742,2.742,0,0,0,2.294-1.063l1.248,1.4a3.813,3.813,0,0,1-1.547,1.261A5.075,5.075,0,0,1,128.02,41.176Zm-.29-7.813a1.587,1.587,0,0,0-1.226.512,2.651,2.651,0,0,0-.6,1.466h3.533v-.2a1.891,1.891,0,0,0-.457-1.311A1.638,1.638,0,0,0,127.729,33.362ZM137.969,35.8a13.488,13.488,0,0,1,.536-3.832,10.112,10.112,0,0,1,1.582-3.221,5.907,5.907,0,0,1,2.268-1.947l.492,1.371a6.118,6.118,0,0,0-2,2.936,13.592,13.592,0,0,0-.721,4.641v.272a13.852,13.852,0,0,0,.712,4.658,6.237,6.237,0,0,0,2.013,2.979L142.354,45a5.91,5.91,0,0,1-2.228-1.894,9.943,9.943,0,0,1-1.578-3.133,13.408,13.408,0,0,1-.58-3.709ZM154.747,41H152.11l-5.133-8.42V41h-2.637V28.2h2.637l5.142,8.438V28.2h2.628Zm6.513-5a12.8,12.8,0,0,1-.571,3.823,10.378,10.378,0,0,1-1.644,3.243A5.921,5.921,0,0,1,156.751,45l-.492-1.345a6.18,6.18,0,0,0,1.969-2.9,13.431,13.431,0,0,0,.747-4.509v-.466a13.735,13.735,0,0,0-.716-4.632,6.442,6.442,0,0,0-2-3.006l.492-1.345a5.923,5.923,0,0,1,2.254,1.881,10.244,10.244,0,0,1,1.644,3.173,12.708,12.708,0,0,1,.611,3.753Z" transform="translate(844 12825)" fill="#12263f"/>
  </g>
</svg>
