<svg xmlns="http://www.w3.org/2000/svg" width="85" height="85" viewBox="0 0 85 85">
  <g id="Grupo_990301" data-name="Grupo 990301" transform="translate(-180 -6763)">
    <rect id="Rectángulo_33792" data-name="Rectángulo 33792" width="85" height="85" rx="5" transform="translate(180 6763)" fill="#9aeccd"/>
    <g id="Grupo_80313" data-name="Grupo 80313" transform="translate(187.443 6777.179)">
      <g id="Grupo_80111" data-name="Grupo 80111" transform="translate(31.991)">
        <path id="Trazado_113526" data-name="Trazado 113526" d="M294.882,1043.023l-22.411-22.412a1.119,1.119,0,0,1,0-1.583h0a1.12,1.12,0,0,1,1.584,0l22.411,22.411a1.119,1.119,0,0,1,0,1.584h0A1.12,1.12,0,0,1,294.882,1043.023Z" transform="translate(-272.143 -1018.7)" fill="#bfefdd"/>
      </g>
      <g id="Grupo_80112" data-name="Grupo 80112" transform="translate(42.988 3)">
        <path id="Trazado_113527" data-name="Trazado 113527" d="M345.734,1046.715l-8.414-8.414a1.12,1.12,0,0,1,0-1.583h0a1.119,1.119,0,0,1,1.584,0l8.413,8.413a1.119,1.119,0,0,1,0,1.584h0A1.119,1.119,0,0,1,345.734,1046.715Z" transform="translate(-336.993 -1036.39)" fill="#bfefdd"/>
      </g>
      <g id="Grupo_80113" data-name="Grupo 80113" transform="translate(23.994)">
        <path id="Trazado_113528" data-name="Trazado 113528" d="M255.724,1051.018l-30.407-30.407a1.118,1.118,0,0,1,0-1.583h0a1.119,1.119,0,0,1,1.583,0l30.407,30.407a1.119,1.119,0,0,1,0,1.583h0A1.119,1.119,0,0,1,255.724,1051.018Z" transform="translate(-224.989 -1018.7)" fill="#bfefdd"/>
      </g>
      <g id="Grupo_80114" data-name="Grupo 80114" transform="translate(17.667 1.668)">
        <path id="Trazado_113529" data-name="Trazado 113529" d="M223.07,1065.515,188,1030.449a1.119,1.119,0,0,1,0-1.583h0a1.118,1.118,0,0,1,1.583,0l35.067,35.067a1.12,1.12,0,0,1,0,1.583h0A1.119,1.119,0,0,1,223.07,1065.515Z" transform="translate(-187.675 -1028.537)" fill="#bfefdd"/>
      </g>
      <g id="Grupo_80115" data-name="Grupo 80115" transform="translate(12.407 4.405)">
        <path id="Trazado_113530" data-name="Trazado 113530" d="M194.58,1084.177l-37.589-37.589a1.12,1.12,0,0,1,0-1.584h0a1.12,1.12,0,0,1,1.583,0l37.589,37.59a1.12,1.12,0,0,1,0,1.583h0A1.119,1.119,0,0,1,194.58,1084.177Z" transform="translate(-156.663 -1044.677)" fill="#bfefdd"/>
      </g>
      <g id="Grupo_80116" data-name="Grupo 80116" transform="translate(8.002 8.002)">
        <path id="Trazado_113531" data-name="Trazado 113531" d="M169.412,1106.195l-38.4-38.4a1.121,1.121,0,0,1,0-1.584h0a1.12,1.12,0,0,1,1.584,0l38.4,38.4a1.121,1.121,0,0,1,0,1.584h0A1.121,1.121,0,0,1,169.412,1106.195Z" transform="translate(-130.686 -1065.885)" fill="#bfefdd"/>
      </g>
      <g id="Grupo_80117" data-name="Grupo 80117" transform="translate(4.406 12.407)">
        <path id="Trazado_113532" data-name="Trazado 113532" d="M147.4,1131.364l-37.589-37.589a1.12,1.12,0,0,1,0-1.583h0a1.119,1.119,0,0,1,1.584,0l37.589,37.589a1.119,1.119,0,0,1,0,1.584h0A1.12,1.12,0,0,1,147.4,1131.364Z" transform="translate(-109.478 -1091.863)" fill="#bfefdd"/>
      </g>
      <g id="Grupo_80118" data-name="Grupo 80118" transform="translate(1.668 17.666)">
        <path id="Trazado_113533" data-name="Trazado 113533" d="M128.731,1159.854l-35.067-35.067a1.119,1.119,0,0,1,0-1.583h0a1.118,1.118,0,0,1,1.583,0l35.067,35.066a1.12,1.12,0,0,1,0,1.584h0A1.118,1.118,0,0,1,128.731,1159.854Z" transform="translate(-93.336 -1122.875)" fill="#bfefdd"/>
      </g>
      <g id="Grupo_80119" data-name="Grupo 80119" transform="translate(0 23.994)">
        <path id="Trazado_113534" data-name="Trazado 113534" d="M114.235,1192.508,83.827,1162.1a1.119,1.119,0,0,1,0-1.583h0a1.118,1.118,0,0,1,1.583,0l30.408,30.408a1.119,1.119,0,0,1,0,1.583h0A1.119,1.119,0,0,1,114.235,1192.508Z" transform="translate(-83.499 -1160.189)" fill="#bfefdd"/>
      </g>
      <g id="Grupo_80120" data-name="Grupo 80120" transform="translate(0 31.991)">
        <path id="Trazado_113535" data-name="Trazado 113535" d="M106.238,1231.665l-22.411-22.411a1.119,1.119,0,0,1,0-1.584h0a1.119,1.119,0,0,1,1.583,0l22.411,22.411a1.12,1.12,0,0,1,0,1.583h0A1.12,1.12,0,0,1,106.238,1231.665Z" transform="translate(-83.499 -1207.343)" fill="#bfefdd"/>
      </g>
      <g id="Grupo_80121" data-name="Grupo 80121" transform="translate(3 42.988)">
        <path id="Trazado_113536" data-name="Trazado 113536" d="M109.932,1282.517l-8.413-8.413a1.12,1.12,0,0,1,0-1.584h0a1.12,1.12,0,0,1,1.583,0l8.414,8.414a1.12,1.12,0,0,1,0,1.583h0A1.119,1.119,0,0,1,109.932,1282.517Z" transform="translate(-101.191 -1272.193)" fill="#bfefdd"/>
      </g>
    </g>
    <g id="Elipse_4731" data-name="Elipse 4731" transform="translate(190 6825.238)" fill="none" stroke="#ffc721" stroke-width="4">
      <ellipse cx="8.583" cy="8.583" rx="8.583" ry="8.583" stroke="none"/>
      <ellipse cx="8.583" cy="8.583" rx="6.583" ry="6.583" fill="none"/>
    </g>
    <g id="antihistaminicos" transform="translate(194.968 6771.968)">
      <g id="Grupo_990324" data-name="Grupo 990324">
        <g id="Grupo_990304" data-name="Grupo 990304">
          <circle id="Elipse_5086" data-name="Elipse 5086" cx="4.129" cy="4.129" r="4.129" transform="translate(56.774 19.613)" fill="#e6e9ed"/>
        </g>
        <g id="Grupo_990305" data-name="Grupo 990305">
          <path id="Trazado_625646" data-name="Trazado 625646" d="M12.387,37.161v2.065c0,.114,0,.217-.01.33A12.561,12.561,0,0,0,8.96,43.293H8.95a3.83,3.83,0,0,1-.692.062H7.35a1.153,1.153,0,0,1-.815-1.972,5.864,5.864,0,0,0,1.724-4.17,2.065,2.065,0,1,1,4.129-.052Z" fill="#e6e9ed"/>
        </g>
        <g id="Grupo_990306" data-name="Grupo 990306">
          <path id="Trazado_625647" data-name="Trazado 625647" d="M16.516,37.161v.465a12.48,12.48,0,0,0-4.139,1.93c.01-.114.01-.217.01-.33V37.161a2.065,2.065,0,1,0-4.129.052,5.864,5.864,0,0,1-1.724,4.17,1.153,1.153,0,0,0,.815,1.972h.908a3.83,3.83,0,0,0,.692-.062,12.547,12.547,0,0,0-1.538,4.191H7.35A5.3,5.3,0,0,1,2.065,42.2a5.221,5.221,0,0,1,1.548-3.737,1.757,1.757,0,0,0,.516-1.249,6.194,6.194,0,1,1,12.387-.052Z" fill="#ccd1d9"/>
        </g>
        <g id="Grupo_990307" data-name="Grupo 990307">
          <path id="Trazado_625648" data-name="Trazado 625648" d="M15.484,2.065a6.2,6.2,0,0,1,5.884,4.263,13.759,13.759,0,0,0-3.819,9.528,13.2,13.2,0,0,0,.093,1.569,8.272,8.272,0,0,1-4.222,1.156h-.908A5.3,5.3,0,0,1,7.226,13.3,5.221,5.221,0,0,1,8.774,9.559,1.757,1.757,0,0,0,9.29,8.31,6.21,6.21,0,0,1,15.484,2.065Z" fill="#ccd1d9"/>
        </g>
        <g id="Grupo_990308" data-name="Grupo 990308">
          <path id="Trazado_625649" data-name="Trazado 625649" d="M56.774,11.479a5.221,5.221,0,0,1-1.548,3.737,1.757,1.757,0,0,0-.516,1.249,6.21,6.21,0,0,1-6.194,6.245H48.33a2.881,2.881,0,0,0-.795-1.228L48.1,19.2c.052-.217.1-.423.145-.64a2.18,2.18,0,0,0,.268.021,2.082,2.082,0,0,0,2.065-2.116,5.864,5.864,0,0,1,1.724-4.17,1.153,1.153,0,0,0-.815-1.972h-.908a4.125,4.125,0,0,0-2.8,1.094A13.773,13.773,0,0,0,45.843,7.69a8.232,8.232,0,0,1,4.738-1.5h.908a5.3,5.3,0,0,1,5.285,5.285Z" fill="#ccd1d9"/>
        </g>
        <g id="Grupo_990309" data-name="Grupo 990309">
          <path id="Trazado_625650" data-name="Trazado 625650" d="M64,41.29v2.065a6.211,6.211,0,0,1-5.161,6.111A12.352,12.352,0,0,0,58.1,45.4a2.069,2.069,0,0,0,1.775-2.044V41.29a4.128,4.128,0,0,0-4.129-4.129h-.908a1.153,1.153,0,0,0-.815,1.972,6.074,6.074,0,0,1,1.187,1.714,12.317,12.317,0,0,0-5.615-3.21,5.3,5.3,0,0,1,5.244-4.6h.908A8.269,8.269,0,0,1,64,41.29Z" fill="#ccd1d9"/>
        </g>
        <g id="Grupo_990310" data-name="Grupo 990310">
          <path id="Trazado_625651" data-name="Trazado 625651" d="M59.871,41.29v2.065A2.069,2.069,0,0,1,58.1,45.4a12.359,12.359,0,0,0-2.88-4.532c0-.01-.01-.01-.01-.021a6.074,6.074,0,0,0-1.187-1.714,1.153,1.153,0,0,1,.815-1.972h.908a4.128,4.128,0,0,1,4.129,4.129Z" fill="#e6e9ed"/>
        </g>
        <g id="Grupo_990311" data-name="Grupo 990311">
          <path id="Trazado_625652" data-name="Trazado 625652" d="M52.645,11.479a1.148,1.148,0,0,1-.341.815,5.864,5.864,0,0,0-1.724,4.17,2.082,2.082,0,0,1-2.065,2.116,2.18,2.18,0,0,1-.268-.021,13.206,13.206,0,0,0,.268-2.7,13.755,13.755,0,0,0-.733-4.439,4.125,4.125,0,0,1,2.8-1.094h.908A1.154,1.154,0,0,1,52.645,11.479Z" fill="#e6e9ed"/>
        </g>
        <g id="Grupo_990312" data-name="Grupo 990312">
          <path id="Trazado_625653" data-name="Trazado 625653" d="M17.548,8.258v2.065a4.128,4.128,0,0,1-4.129,4.129h-.908A1.153,1.153,0,0,1,11.7,12.48a5.864,5.864,0,0,0,1.724-4.17,2.065,2.065,0,1,1,4.129-.052Z" fill="#e6e9ed"/>
        </g>
        <g id="Grupo_990313" data-name="Grupo 990313">
          <circle id="Elipse_5087" data-name="Elipse 5087" cx="2.065" cy="2.065" r="2.065" transform="translate(2.065 20.645)" fill="#e6e9ed"/>
        </g>
        <g id="Grupo_990314" data-name="Grupo 990314">
          <path id="Trazado_625654" data-name="Trazado 625654" d="M34.477,14.565a4.128,4.128,0,0,1-3.51,1.951H26.116A4.426,4.426,0,0,0,21.7,20.645H20.645a3.071,3.071,0,0,0-2.116.836L17.961,19.2a14.172,14.172,0,0,1-.413-3.345A13.789,13.789,0,0,1,31.339,2.065h3.386A13.789,13.789,0,0,1,44.48,6.1a13.338,13.338,0,0,1,1.363,1.59,13.8,13.8,0,0,1,2.674,8.165,13.206,13.206,0,0,1-.268,2.7c-.041.217-.093.423-.145.64l-.568,2.281a3.071,3.071,0,0,0-2.116-.836H44.325a5.394,5.394,0,0,0-2.333-3.665,5.119,5.119,0,0,0-1.507-.692Z" fill="#656d78"/>
        </g>
        <g id="Grupo_990315" data-name="Grupo 990315">
          <path id="Trazado_625655" data-name="Trazado 625655" d="M12.377,39.556a12.48,12.48,0,0,1,4.139-1.93,9.5,9.5,0,0,1,.939-.206l7.308-1.29h.01a9.18,9.18,0,0,0-.227.919L22.741,47.319a.8.8,0,0,0-.021.155L15.484,54.71V53.677H7.226V49.621a12.185,12.185,0,0,1,.186-2.137A12.547,12.547,0,0,1,8.95,43.293h.01A12.561,12.561,0,0,1,12.377,39.556Z" fill="#ff826e"/>
        </g>
        <g id="Grupo_990316" data-name="Grupo 990316">
          <path id="Trazado_625656" data-name="Trazado 625656" d="M50.581,53.677V64H13.791a6.57,6.57,0,0,0,4.645-1.92l9.394-9.394a2.83,2.83,0,0,1,1.92,1.228,4.112,4.112,0,0,0,7.319-.981l.093-.289a4.53,4.53,0,0,1,1.652-2.24,4.467,4.467,0,0,1,2.643-.857,1.894,1.894,0,0,0,1.9-1.9,1.789,1.789,0,0,0-.031-.33L41.517,37.048a9.18,9.18,0,0,0-.227-.919h.01l7.308,1.29c.33.062.661.134.981.217a12.317,12.317,0,0,1,5.615,3.21c0,.01.01.01.01.021a12.411,12.411,0,0,1,3.623,8.6v4.212Z" fill="#ff826e"/>
        </g>
        <g id="Grupo_990317" data-name="Grupo 990317">
          <path id="Trazado_625657" data-name="Trazado 625657" d="M36.232,44.284l.929,8.361-.093.289a4.112,4.112,0,0,1-7.319.981,2.83,2.83,0,0,0-1.92-1.228Z" fill="#ffeaa7"/>
        </g>
        <g id="Grupo_990318" data-name="Grupo 990318">
          <path id="Trazado_625658" data-name="Trazado 625658" d="M43.324,47.319a1.789,1.789,0,0,1,.031.33,1.894,1.894,0,0,1-1.9,1.9,4.467,4.467,0,0,0-2.643.857,4.53,4.53,0,0,0-1.652,2.24l-.929-8.361.888-.888a3.65,3.65,0,1,0-5.161-5.161l-.991.991h-.609a3.524,3.524,0,0,0-3.52,3.52v.609L22.72,47.474a.8.8,0,0,1,.021-.155l1.806-10.271a9.18,9.18,0,0,1,.227-.919,7.6,7.6,0,0,1,.919-2.065,8.6,8.6,0,0,1,12.872-2.116,8.261,8.261,0,0,1,1.806,2.116,7.6,7.6,0,0,1,.919,2.065,9.18,9.18,0,0,1,.227.919Z" fill="#ffeaa7"/>
        </g>
        <g id="Grupo_990319" data-name="Grupo 990319">
          <path id="Trazado_625659" data-name="Trazado 625659" d="M50.581,53.677h8.258V64H50.581Z" fill="#f0d0b4"/>
        </g>
        <g id="Grupo_990320" data-name="Grupo 990320">
          <path id="Trazado_625660" data-name="Trazado 625660" d="M48.33,22.71a2.861,2.861,0,0,1,.186,1.032,3.1,3.1,0,0,1-3.1,3.1H44.16a13.168,13.168,0,0,0,.227-2.477v-2.9a5.322,5.322,0,0,0-.062-.815h1.094a3.071,3.071,0,0,1,2.116.836,2.881,2.881,0,0,1,.795,1.228Z" fill="#f0d0b4"/>
        </g>
        <g id="Grupo_990321" data-name="Grupo 990321">
          <path id="Trazado_625661" data-name="Trazado 625661" d="M44.387,21.461v2.9a13.168,13.168,0,0,1-.227,2.477,13.726,13.726,0,0,1-3.778,7.215l-.01.01a8.261,8.261,0,0,0-1.806-2.116,8.6,8.6,0,0,0-12.872,2.116l-.01-.01A13.726,13.726,0,0,1,21.9,26.839a13.168,13.168,0,0,1-.227-2.477V20.955a1.563,1.563,0,0,1,.021-.31,4.426,4.426,0,0,1,4.418-4.129h4.852a4.128,4.128,0,0,0,3.51-1.951l6.008,1.724a5.119,5.119,0,0,1,1.507.692,5.394,5.394,0,0,1,2.333,3.665,5.322,5.322,0,0,1,.062.815Z" fill="#f0d0b4"/>
        </g>
        <g id="Grupo_990322" data-name="Grupo 990322">
          <path id="Trazado_625662" data-name="Trazado 625662" d="M15.484,54.71l7.236-7.236,4.119-4.119v-.609a3.524,3.524,0,0,1,3.52-3.52h.609l.991-.991A3.65,3.65,0,1,1,37.12,43.4l-.888.888-8.4,8.4L18.436,62.08a6.569,6.569,0,0,1-11.21-4.645V53.677h8.258Z" fill="#f0d0b4"/>
        </g>
        <g id="Grupo_990323" data-name="Grupo 990323">
          <path id="Trazado_625663" data-name="Trazado 625663" d="M21.9,26.839H20.645a3.1,3.1,0,0,1,0-6.194H21.7a1.563,1.563,0,0,0-.021.31v3.406a13.168,13.168,0,0,0,.227,2.477Z" fill="#f0d0b4"/>
        </g>
      </g>
      <g id="Grupo_990325" data-name="Grupo 990325">
        <path id="Trazado_625664" data-name="Trazado 625664" d="M32,22.71h2.065v4.129H32Z"/>
        <path id="Trazado_625665" data-name="Trazado 625665" d="M40.831,23.915,39.022,22.71,40.831,21.5l-1.146-1.718L35.3,22.71l4.385,2.923Z"/>
        <path id="Trazado_625666" data-name="Trazado 625666" d="M26.379,25.633l4.385-2.923-4.385-2.923L25.234,21.5l1.809,1.206-1.809,1.206Z"/>
        <path id="Trazado_625667" data-name="Trazado 625667" d="M55.742,32h-.907a6.336,6.336,0,0,0-6.02,4.41l-.031-.007-6.7-1.182a9.6,9.6,0,0,0-.447-1.015,14.648,14.648,0,0,0,3.345-6.335h.436a4.133,4.133,0,0,0,4.129-4.129c0-.028-.007-.054-.008-.082a7.266,7.266,0,0,0,6.2-7.2.716.716,0,0,1,.214-.516A6.319,6.319,0,0,0,51.488,5.161h-.907a9.208,9.208,0,0,0-4.494,1.187A14.793,14.793,0,0,0,34.729,1.032H31.335A14.746,14.746,0,0,0,21.7,4.614,7.212,7.212,0,0,0,8.258,8.31a.716.716,0,0,1-.214.516,6.319,6.319,0,0,0,4.468,10.787h.907a9.256,9.256,0,0,0,3.445-.675c.036.168.053.341.094.508l.443,1.772a4.107,4.107,0,0,0,3.244,6.653h.436a14.648,14.648,0,0,0,3.345,6.335,9.6,9.6,0,0,0-.447,1.015L17.5,36.363a7.225,7.225,0,0,0-14.405.85.716.716,0,0,1-.214.516A6.314,6.314,0,0,0,6.247,48.413q-.053.6-.054,1.206v7.812a7.61,7.61,0,0,0,7.6,7.6H59.871V50.275a7.2,7.2,0,0,0,5.161-6.92V41.29A9.3,9.3,0,0,0,55.742,32Zm-20.3,14.532.667,6-.025.074a3.077,3.077,0,0,1-5.479.732,3.867,3.867,0,0,0-.98-.99Zm2.444,3.3-.575-5.17.542-.542a4.682,4.682,0,1,0-6.622-6.62l-.693.693h-.178a4.557,4.557,0,0,0-4.556,4.556v.178L24.3,44.439l1.272-7.207a7.58,7.58,0,0,1,14.93,0L42.309,47.5a.838.838,0,0,1,.013.152.867.867,0,0,1-.866.866A5.534,5.534,0,0,0,37.888,49.832Zm7.531-24.026h-.07q.07-.718.07-1.448V21.677a2.065,2.065,0,0,1,0,4.129Zm3.554-14a3.076,3.076,0,0,1,1.607-.454h.907c.067,0,.125.058.089.214a6.878,6.878,0,0,0-2.028,4.9,1,1,0,0,1-.053.244c.017-.286.053-.571.053-.857a14.728,14.728,0,0,0-.575-4.042Zm1.607-4.583h.907a4.254,4.254,0,0,1,3.007,7.263,2.776,2.776,0,0,0-.818,1.976,5.181,5.181,0,0,1-4.728,5.169,3.967,3.967,0,0,0-.287-.416l.416-1.663a3.134,3.134,0,0,0,2.534-3.09,4.832,4.832,0,0,1,1.425-3.437A2.19,2.19,0,0,0,51.488,9.29h-.907a5.121,5.121,0,0,0-2.308.57,14.783,14.783,0,0,0-.981-1.833,7.168,7.168,0,0,1,3.289-.8ZM13.419,17.548h-.907a4.254,4.254,0,0,1-3.007-7.263,2.776,2.776,0,0,0,.818-1.976,5.153,5.153,0,0,1,9.851-2.175,14.894,14.894,0,0,0-1.593,2.209V8.258a3.1,3.1,0,1,0-6.194.052,4.832,4.832,0,0,1-1.425,3.437,2.19,2.19,0,0,0,1.549,3.737h.907a5.107,5.107,0,0,0,3.172-1.121c-.049.489-.075.986-.075,1.489,0,.319.038.636.059.954a7.193,7.193,0,0,1-3.156.743Zm3.1-9.29v2.065a3.1,3.1,0,0,1-3.1,3.1h-.907c-.067,0-.125-.058-.089-.214a6.878,6.878,0,0,0,2.028-4.9,1.047,1.047,0,0,1,1.032-1.084A1.034,1.034,0,0,1,16.516,8.258Zm4.129,17.548a2.065,2.065,0,1,1,0-4.129v2.681q0,.731.07,1.448Zm.167-6.194h-.167a4.09,4.09,0,0,0-1.447.276l-.236-.945A12.754,12.754,0,0,1,31.335,3.1h3.394A12.754,12.754,0,0,1,47.1,18.945l-.236.945a4.068,4.068,0,0,0-1.447-.277h-.283a6.388,6.388,0,0,0-4.371-4.32l-4.889-1.4a5.081,5.081,0,0,0,.252-1.509V7.226H34.065v5.161a3.1,3.1,0,0,1-3.1,3.1H26.119a5.478,5.478,0,0,0-5.307,4.129Zm1.9,4.745v-3.4a3.41,3.41,0,0,1,3.41-3.41h4.849a5.13,5.13,0,0,0,3.883-1.8L40.2,17.278a4.352,4.352,0,0,1,3.156,4.185v2.9a12.628,12.628,0,0,1-2.878,8.059,9.644,9.644,0,0,0-14.889,0,12.623,12.623,0,0,1-2.878-8.058Zm.729,13.055L21.75,46.984l-5.234,5.234v-3.7H14.452v4.129H8.258V49.619a11.339,11.339,0,0,1,9.381-11.182ZM8.258,42.323H7.351c-.067,0-.125-.058-.089-.214a6.878,6.878,0,0,0,2.028-4.9,1.047,1.047,0,0,1,1.032-1.084,1.034,1.034,0,0,1,1.032,1.032v1.888a13.4,13.4,0,0,0-2.991,3.264c-.035,0-.069.009-.105.009ZM3.1,42.2a4.227,4.227,0,0,1,1.247-3.009,2.776,2.776,0,0,0,.818-1.976,5.151,5.151,0,0,1,10.294-.342,13.414,13.414,0,0,0-2.036.852v-.562a3.1,3.1,0,1,0-6.194.052A4.832,4.832,0,0,1,5.8,40.65a2.185,2.185,0,0,0,1.466,3.729,13.424,13.424,0,0,0-.669,2A4.255,4.255,0,0,1,3.1,42.2ZM8.258,57.431V54.71h5.766l-2.367,2.367,1.46,1.46L27.871,43.782V42.75a2.492,2.492,0,0,1,2.492-2.492H31.4l1.3-1.3a2.617,2.617,0,1,1,3.7,3.7L17.71,61.346a5.537,5.537,0,0,1-9.452-3.915ZM19.17,62.806l8.958-8.958a1.816,1.816,0,0,1,.761.637,5.141,5.141,0,0,0,9.155-1.225l.1-.289a3.49,3.49,0,0,1,3.316-2.39,2.932,2.932,0,0,0,2.886-3.441l-1.717-9.728,5.8,1.023a11.341,11.341,0,0,1,9.381,11.183v3.027H51.613V48.516H49.548V62.968H18.991c.059-.055.121-.1.179-.162ZM58.839,43.355a1.016,1.016,0,0,1-.215.61,13.388,13.388,0,0,0-2.59-3.743,8.094,8.094,0,0,0-1.324-1.9.127.127,0,0,1,.125-.125h.907a3.1,3.1,0,0,1,3.1,3.1ZM51.613,62.968V54.71h6.194v8.258ZM62.968,43.355a5.133,5.133,0,0,1-3.191,4.757,13.466,13.466,0,0,0-.4-2.1A3.105,3.105,0,0,0,60.9,43.355V41.29a5.167,5.167,0,0,0-5.161-5.161h-.907a2.188,2.188,0,0,0-2.11,1.636,13.385,13.385,0,0,0-1.909-.828,4.263,4.263,0,0,1,4.019-2.873h.907a7.234,7.234,0,0,1,7.226,7.226Z"/>
        <path id="Trazado_625668" data-name="Trazado 625668" d="M58.839,23.742A2.065,2.065,0,1,1,60.9,25.806v2.065a4.129,4.129,0,1,0-4.129-4.129Z"/>
        <path id="Trazado_625669" data-name="Trazado 625669" d="M4.129,25.806a3.1,3.1,0,1,0-3.1-3.1A3.1,3.1,0,0,0,4.129,25.806Zm0-4.129A1.032,1.032,0,1,1,3.1,22.71,1.034,1.034,0,0,1,4.129,21.677Z"/>
      </g>
    </g>
  </g>
</svg>
