<svg xmlns="http://www.w3.org/2000/svg" width="85" height="85" viewBox="0 0 85 85">
  <g id="Grupo_990489" data-name="Grupo 990489" transform="translate(-180 -17099)">
    <rect id="Rectángulo_33792" data-name="Rectángulo 33792" width="85" height="85" rx="5" transform="translate(180 17099)" fill="#9aeccd"/>
    <g id="Grupo_80313" data-name="Grupo 80313" transform="translate(187.443 17113.18)">
      <g id="Grupo_80111" data-name="Grupo 80111" transform="translate(31.991)">
        <path id="Trazado_113526" data-name="Trazado 113526" d="M294.882,1043.023l-22.411-22.412a1.119,1.119,0,0,1,0-1.583h0a1.12,1.12,0,0,1,1.584,0l22.411,22.411a1.119,1.119,0,0,1,0,1.584h0A1.12,1.12,0,0,1,294.882,1043.023Z" transform="translate(-272.143 -1018.7)" fill="#bfefdd"/>
      </g>
      <g id="Grupo_80112" data-name="Grupo 80112" transform="translate(42.988 3)">
        <path id="Trazado_113527" data-name="Trazado 113527" d="M345.734,1046.715l-8.414-8.414a1.12,1.12,0,0,1,0-1.583h0a1.119,1.119,0,0,1,1.584,0l8.413,8.413a1.119,1.119,0,0,1,0,1.584h0A1.119,1.119,0,0,1,345.734,1046.715Z" transform="translate(-336.993 -1036.39)" fill="#bfefdd"/>
      </g>
      <g id="Grupo_80113" data-name="Grupo 80113" transform="translate(23.994)">
        <path id="Trazado_113528" data-name="Trazado 113528" d="M255.724,1051.018l-30.407-30.407a1.118,1.118,0,0,1,0-1.583h0a1.119,1.119,0,0,1,1.583,0l30.407,30.407a1.119,1.119,0,0,1,0,1.583h0A1.119,1.119,0,0,1,255.724,1051.018Z" transform="translate(-224.989 -1018.7)" fill="#bfefdd"/>
      </g>
      <g id="Grupo_80114" data-name="Grupo 80114" transform="translate(17.667 1.668)">
        <path id="Trazado_113529" data-name="Trazado 113529" d="M223.07,1065.515,188,1030.449a1.119,1.119,0,0,1,0-1.583h0a1.118,1.118,0,0,1,1.583,0l35.067,35.067a1.12,1.12,0,0,1,0,1.583h0A1.119,1.119,0,0,1,223.07,1065.515Z" transform="translate(-187.675 -1028.537)" fill="#bfefdd"/>
      </g>
      <g id="Grupo_80115" data-name="Grupo 80115" transform="translate(12.407 4.405)">
        <path id="Trazado_113530" data-name="Trazado 113530" d="M194.58,1084.177l-37.589-37.589a1.12,1.12,0,0,1,0-1.584h0a1.12,1.12,0,0,1,1.583,0l37.589,37.59a1.12,1.12,0,0,1,0,1.583h0A1.119,1.119,0,0,1,194.58,1084.177Z" transform="translate(-156.663 -1044.677)" fill="#bfefdd"/>
      </g>
      <g id="Grupo_80116" data-name="Grupo 80116" transform="translate(8.002 8.002)">
        <path id="Trazado_113531" data-name="Trazado 113531" d="M169.412,1106.195l-38.4-38.4a1.121,1.121,0,0,1,0-1.584h0a1.12,1.12,0,0,1,1.584,0l38.4,38.4a1.121,1.121,0,0,1,0,1.584h0A1.121,1.121,0,0,1,169.412,1106.195Z" transform="translate(-130.686 -1065.885)" fill="#bfefdd"/>
      </g>
      <g id="Grupo_80117" data-name="Grupo 80117" transform="translate(4.406 12.407)">
        <path id="Trazado_113532" data-name="Trazado 113532" d="M147.4,1131.364l-37.589-37.589a1.12,1.12,0,0,1,0-1.583h0a1.119,1.119,0,0,1,1.584,0l37.589,37.589a1.119,1.119,0,0,1,0,1.584h0A1.12,1.12,0,0,1,147.4,1131.364Z" transform="translate(-109.478 -1091.863)" fill="#bfefdd"/>
      </g>
      <g id="Grupo_80118" data-name="Grupo 80118" transform="translate(1.668 17.666)">
        <path id="Trazado_113533" data-name="Trazado 113533" d="M128.731,1159.854l-35.067-35.067a1.119,1.119,0,0,1,0-1.583h0a1.118,1.118,0,0,1,1.583,0l35.067,35.066a1.12,1.12,0,0,1,0,1.584h0A1.118,1.118,0,0,1,128.731,1159.854Z" transform="translate(-93.336 -1122.875)" fill="#bfefdd"/>
      </g>
      <g id="Grupo_80119" data-name="Grupo 80119" transform="translate(0 23.994)">
        <path id="Trazado_113534" data-name="Trazado 113534" d="M114.235,1192.508,83.827,1162.1a1.119,1.119,0,0,1,0-1.583h0a1.118,1.118,0,0,1,1.583,0l30.408,30.408a1.119,1.119,0,0,1,0,1.583h0A1.119,1.119,0,0,1,114.235,1192.508Z" transform="translate(-83.499 -1160.189)" fill="#bfefdd"/>
      </g>
      <g id="Grupo_80120" data-name="Grupo 80120" transform="translate(0 31.991)">
        <path id="Trazado_113535" data-name="Trazado 113535" d="M106.238,1231.665l-22.411-22.411a1.119,1.119,0,0,1,0-1.584h0a1.119,1.119,0,0,1,1.583,0l22.411,22.411a1.12,1.12,0,0,1,0,1.583h0A1.12,1.12,0,0,1,106.238,1231.665Z" transform="translate(-83.499 -1207.343)" fill="#bfefdd"/>
      </g>
      <g id="Grupo_80121" data-name="Grupo 80121" transform="translate(3 42.988)">
        <path id="Trazado_113536" data-name="Trazado 113536" d="M109.932,1282.517l-8.413-8.413a1.12,1.12,0,0,1,0-1.584h0a1.12,1.12,0,0,1,1.583,0l8.414,8.414a1.12,1.12,0,0,1,0,1.583h0A1.119,1.119,0,0,1,109.932,1282.517Z" transform="translate(-101.191 -1272.193)" fill="#bfefdd"/>
      </g>
    </g>
    <g id="frustrado" transform="translate(196 17108)">
      <g id="Grupo_990487" data-name="Grupo 990487" transform="translate(2.031 2.031)">
        <g id="Grupo_990469" data-name="Grupo 990469" transform="translate(22.675 0)">
          <path id="Trazado_625807" data-name="Trazado 625807" d="M46.675,14.368a2.067,2.067,0,0,0-2.061,2.061V15.4a3.088,3.088,0,0,0-3.092-3.092H36.368a2.076,2.076,0,0,1-2.061-2.061l-1.876.309a5.167,5.167,0,0,0-4.308,5.092v.783a2.067,2.067,0,0,0-2.061-2.061h-.845a1.91,1.91,0,0,0-.6.093l-.268-.938A8.767,8.767,0,0,1,24,11.039,9.044,9.044,0,0,1,33.039,2H39.7a9.044,9.044,0,0,1,9.039,9.039,8.767,8.767,0,0,1-.35,2.484l-.268.938a1.91,1.91,0,0,0-.6-.093Z" transform="translate(-24 -2)" fill="#656d78"/>
        </g>
        <g id="Grupo_990470" data-name="Grupo 990470" transform="translate(30.921 41.228)">
          <path id="Trazado_625808" data-name="Trazado 625808" d="M40.246,58.491l-4.123,4.123H34.061a2.067,2.067,0,0,0,2.061-2.061,2.076,2.076,0,0,0-2.061-2.061H32L35.092,42h2.061Z" transform="translate(-32 -42)" fill="#ff826e"/>
        </g>
        <g id="Grupo_990471" data-name="Grupo 990471" transform="translate(32.415 36.074)">
          <path id="Trazado_625809" data-name="Trazado 625809" d="M38.707,38.969l-1.6,3.185H35.048l-1.6-3.185L36.078,37Z" transform="translate(-33.45 -37)" fill="#fc6e51"/>
        </g>
        <g id="Grupo_990472" data-name="Grupo 990472" transform="translate(35.043 28.952)">
          <path id="Trazado_625810" data-name="Trazado 625810" d="M50.388,38.068,49.4,34.12l7.246-4.03,5.638,15.017a8.18,8.18,0,0,1,.515,2.855,6.776,6.776,0,0,1-11.183,5.143L46.307,48.55v14.43H36l4.123-4.123L37.031,42.366l1.6-3.185L40.123,40.3l3.02-5.019Z" transform="translate(-36 -30.09)" fill="#fcd770"/>
        </g>
        <g id="Grupo_990473" data-name="Grupo 990473" transform="translate(9.792 28.952)">
          <path id="Trazado_625811" data-name="Trazado 625811" d="M34.124,39.181,32.629,40.3l-3.01-5.03-7.256,2.793.989-3.948-7.246-4.03L11.5,42.366h9.792A1.034,1.034,0,0,1,22.322,43.4v8.689l4.123-3.535V58.857h6.184l3.092-16.491Z" transform="translate(-11.5 -30.09)" fill="#fcd770"/>
        </g>
        <g id="Grupo_990474" data-name="Grupo 990474" transform="translate(46.381 21.645)">
          <path id="Trazado_625812" data-name="Trazado 625812" d="M56.307,30.308l-7.246,4.03L47,26.092,53.184,23l4.432,3.546a1.925,1.925,0,0,1-.268,3.185Z" transform="translate(-47 -23)" fill="#ffc729"/>
        </g>
        <g id="Grupo_990475" data-name="Grupo 990475" transform="translate(12.368 21.645)">
          <path id="Trazado_625813" data-name="Trazado 625813" d="M25.338,26.092l-2.061,8.246-7.246-4.03-1.041-.577a1.925,1.925,0,0,1-.268-3.185L19.153,23Z" transform="translate(-14 -23)" fill="#ffc729"/>
        </g>
        <g id="Grupo_990476" data-name="Grupo 990476" transform="translate(35.043 32.982)">
          <path id="Trazado_625814" data-name="Trazado 625814" d="M40.123,34l3.02,1.165-3.02,5.019-1.495-1.123L36,37.092Z" transform="translate(-36 -34)" fill="#ffc729"/>
        </g>
        <g id="Grupo_990477" data-name="Grupo 990477" transform="translate(27.911 32.982)">
          <path id="Trazado_625815" data-name="Trazado 625815" d="M36.212,37.092l-2.628,1.969L32.09,40.184l-3.01-5.03L32.09,34Z" transform="translate(-29.08 -34)" fill="#ffc729"/>
        </g>
        <g id="Grupo_990478" data-name="Grupo 990478" transform="translate(30.921 28.777)">
          <path id="Trazado_625816" data-name="Trazado 625816" d="M39.194,29.92l1.051,4.205-4.123,3.092L32,34.125l1.051-4.205a6.463,6.463,0,0,0,1.01.082h4.123A6.463,6.463,0,0,0,39.194,29.92Z" transform="translate(-32 -29.92)" fill="#f0d0b4"/>
        </g>
        <g id="Grupo_990479" data-name="Grupo 990479" transform="translate(43.289 12.368)">
          <path id="Trazado_625817" data-name="Trazado 625817" d="M47.5,14.093a2.013,2.013,0,0,1,1.206.969l4.566,8.215-6.184,3.092H46.061A2.067,2.067,0,0,1,44,24.307V16.061A2.067,2.067,0,0,1,46.061,14h.845A1.91,1.91,0,0,1,47.5,14.093Z" transform="translate(-44 -14)" fill="#f0d0b4"/>
        </g>
        <g id="Grupo_990480" data-name="Grupo 990480" transform="translate(26.798 8.246)">
          <path id="Trazado_625818" data-name="Trazado 625818" d="M44.491,16.184V24.43a6.185,6.185,0,0,1-5.174,6.1,6.463,6.463,0,0,1-1.01.082H34.184a6.463,6.463,0,0,1-1.01-.082A6.185,6.185,0,0,1,28,24.43V15.4a5.167,5.167,0,0,1,4.308-5.092L34.184,10a2.076,2.076,0,0,0,2.061,2.061H41.4a3.088,3.088,0,0,1,3.092,3.092Z" transform="translate(-28 -10)" fill="#f0d0b4"/>
        </g>
        <g id="Grupo_990481" data-name="Grupo 990481" transform="translate(17.522 12.368)">
          <path id="Trazado_625819" data-name="Trazado 625819" d="M26.215,14a2.067,2.067,0,0,1,2.061,2.061v8.246a2.067,2.067,0,0,1-2.061,2.061H25.184L19,23.276l4.566-8.215a2.013,2.013,0,0,1,1.206-.969,1.91,1.91,0,0,1,.6-.093Z" transform="translate(-19 -14)" fill="#f0d0b4"/>
        </g>
        <g id="Grupo_990482" data-name="Grupo 990482" transform="translate(30.921 20.614)">
          <path id="Trazado_625820" data-name="Trazado 625820" d="M38.184,22a2.067,2.067,0,0,1,2.061,2.061,2.076,2.076,0,0,1-2.061,2.061H34.061A2.067,2.067,0,0,1,32,24.061,2.076,2.076,0,0,1,34.061,22Z" transform="translate(-32 -22)" fill="#ff826e"/>
        </g>
        <g id="Grupo_990483" data-name="Grupo 990483" transform="translate(18.552 57.719)">
          <path id="Trazado_625821" data-name="Trazado 625821" d="M35.883,58.608a2.015,2.015,0,0,1,.608,1.453,2.067,2.067,0,0,1-2.061,2.061H22.061A2.067,2.067,0,0,1,20,60.061V58H34.43A2.015,2.015,0,0,1,35.883,58.608Z" transform="translate(-20 -58)" fill="#969faa"/>
        </g>
        <g id="Grupo_990484" data-name="Grupo 990484" transform="translate(0 57.719)">
          <path id="Trazado_625822" data-name="Trazado 625822" d="M20.552,60.061a2.067,2.067,0,0,0,2.061,2.061H4.061A2.067,2.067,0,0,1,2,60.061V58H20.552Z" transform="translate(-2 -58)" fill="#aab2bd"/>
        </g>
        <g id="Grupo_990485" data-name="Grupo 990485" transform="translate(0 41.228)">
          <path id="Trazado_625823" data-name="Trazado 625823" d="M22.614,51.719v6.772H2V43.031A1.034,1.034,0,0,1,3.031,42H21.583a1.034,1.034,0,0,1,1.031,1.031Z" transform="translate(-2 -42)" fill="#ccd1d9"/>
        </g>
        <g id="Grupo_990486" data-name="Grupo 990486" transform="translate(8.246 47.412)">
          <ellipse id="Elipse_5113" data-name="Elipse 5113" cx="2" cy="2.5" rx="2" ry="2.5" transform="translate(-0.276 -0.443)" fill="#69d6f4"/>
        </g>
      </g>
      <g id="Grupo_990488" data-name="Grupo 990488" transform="translate(1 1)">
        <path id="Trazado_625824" data-name="Trazado 625824" d="M12.092,53.184A3.092,3.092,0,1,0,9,50.092,3.1,3.1,0,0,0,12.092,53.184Zm0-4.123a1.031,1.031,0,1,1-1.031,1.031A1.032,1.032,0,0,1,12.092,49.061Z" transform="translate(-0.754 0.412)"/>
        <path id="Trazado_625825" data-name="Trazado 625825" d="M31,24.092a3.1,3.1,0,0,0,3.092,3.092h4.123a3.092,3.092,0,0,0,0-6.184H34.092A3.1,3.1,0,0,0,31,24.092Zm8.246,0a1.032,1.032,0,0,1-1.031,1.031H34.092a1.031,1.031,0,1,1,0-2.061h4.123A1.032,1.032,0,0,1,39.246,24.092Z" transform="translate(-0.079 -0.386)"/>
        <path id="Trazado_625826" data-name="Trazado 625826" d="M31.75,19.873l2.79-2.79-2.79-2.79L30.293,15.75l1.333,1.333-1.333,1.333Z" transform="translate(-0.101 -0.592)"/>
        <path id="Trazado_625827" data-name="Trazado 625827" d="M41.833,18.416,40.5,17.083l1.333-1.333-1.457-1.457-2.79,2.79,2.79,2.79Z" transform="translate(0.123 -0.592)"/>
        <path id="Trazado_625828" data-name="Trazado 625828" d="M64.319,45.639,59,31.455l.256-.142a2.959,2.959,0,0,0,.413-4.9L55.4,23l-4.466-8.038a3.045,3.045,0,0,0-.889-.971l.042-.149A10.068,10.068,0,0,0,40.4,1H33.747a10.072,10.072,0,0,0-9.684,12.839l.042.148a3.052,3.052,0,0,0-.888.971L18.751,23l-4.271,3.417a2.958,2.958,0,0,0,.411,4.9l.258.143-4.04,10.774H3.061A2.063,2.063,0,0,0,1,44.289V61.811A3.1,3.1,0,0,0,4.092,64.9h44.32V51.683l3.612,3.094A7.8,7.8,0,0,0,64.9,48.856,9.1,9.1,0,0,0,64.319,45.639ZM58.383,28.025a.9.9,0,0,1-.126,1.484l-7.11,3.951-1.535-6.14,4.855-2.427Zm-20.317,33.4a3.086,3.086,0,0,0-3.053-2.7h-.819L36.9,44.289h.35l2.834,15.116ZM26.542,27.8h.226a3.06,3.06,0,0,0,1.546-.43,7.247,7.247,0,0,0,4.44,4.186l-.673,2.689-7.912,3.044Zm3.318-12.126A4.108,4.108,0,0,1,33.3,11.606l.91-.152a3.1,3.1,0,0,0,2.859,1.914h5.153a2.063,2.063,0,0,1,2.061,2.061v9.276a5.159,5.159,0,0,1-5.153,5.153H35.013a5.159,5.159,0,0,1-5.153-5.153ZM40.031,34.6l-2.957,2.217L34.117,34.6l.672-2.69c.075,0,.148.011.224.011h4.123c.075,0,.148-.009.223-.011Zm-6.784,5.087-1.8-2.993,1.338-.514L35.357,38.1ZM23.675,53.45l2.061-1.767v7.035H23.675Zm3.2-10.652-.6,1.19a5.2,5.2,0,0,0-.543,2.3v2.676l-2.061,1.767V44.289a2.057,2.057,0,0,0-.843-1.654l.727-2.9L29.5,37.445l3.157,5.262,1.425-1.069.885,1.772L32.1,58.719H27.8V46.293a3.1,3.1,0,0,1,.327-1.383l.6-1.19Zm10.592-.57H36.68l-.923-1.847,1.317-.987,1.317.987ZM38.791,38.1l2.567-1.925,1.338.514-1.8,2.993Zm3.276-3.862-.673-2.689a7.238,7.238,0,0,0,4.44-4.186,3.066,3.066,0,0,0,1.547.43h.226l2.373,9.489ZM53.173,23.235l-5,2.5h-.787a1.032,1.032,0,0,1-1.031-1.031V16.46a1.032,1.032,0,0,1,1.031-1.031h.848a1.031,1.031,0,0,1,.9.53ZM33.746,3.061H40.4a8.011,8.011,0,0,1,7.7,10.211l-.027.1h-.7a3.046,3.046,0,0,0-1.41.357,4.122,4.122,0,0,0-3.743-2.418H37.074a1.031,1.031,0,1,1,0-2.061H38.1V7.184H37.074a3.1,3.1,0,0,0-2.96,2.2l-1.148.192A6.15,6.15,0,0,0,28.132,13.7a3.045,3.045,0,0,0-1.365-.332h-.7l-.028-.1a8.014,8.014,0,0,1,7.7-10.211Zm-8.728,12.9a1.031,1.031,0,0,1,.9-.53h.848A1.032,1.032,0,0,1,27.8,16.46v8.246a1.032,1.032,0,0,1-1.031,1.031H25.98l-5-2.5ZM15.767,28.025l3.916-3.132,4.855,2.427L23,33.46l-7.111-3.951a.9.9,0,0,1-.125-1.484Zm1.2,4.441,5.513,3.063-1.675,6.7h-7.5Zm4.643,11.823v14.43H3.061V44.289ZM3.061,61.811V60.78H19.552v1.031a3.057,3.057,0,0,0,.19,1.031H4.092A1.032,1.032,0,0,1,3.061,61.811Zm19.583,1.031a1.032,1.032,0,0,1-1.031-1.031V60.78h13.4a1.031,1.031,0,0,1,0,2.061ZM57.1,54.6a5.744,5.744,0,0,1-3.736-1.383l-4.952-4.245V46.293a5.183,5.183,0,0,0-.544-2.3l-.6-1.19-1.844.922.6,1.19a3.094,3.094,0,0,1,.327,1.382V62.841H39.562l2.748-2.748L39.182,43.409l.885-1.772,1.425,1.069,3.157-5.262,5.941,2.285,1.4,5.6a6.177,6.177,0,0,0,3.234,4.032l2,1,.922-1.844-2-1a4.115,4.115,0,0,1-2.155-2.687l-2.325-9.3,5.513-3.063,5.211,13.9a7.091,7.091,0,0,1,.45,2.493A5.747,5.747,0,0,1,57.1,54.6Z" transform="translate(-1 -1)"/>
        <path id="Trazado_625829" data-name="Trazado 625829" d="M3.365,22.134l6.253,5,1.288-1.61L6.853,22.285l3.206-2.137-7.47-4.98L1.445,16.883l4.9,3.265Z" transform="translate(-0.986 -0.565)"/>
        <path id="Trazado_625830" data-name="Trazado 625830" d="M15.176,16.8l1.932-.726L14.7,9.669l3.95.987L16.1,1.726l-1.981.565,1.571,5.5L11.4,6.717Z" transform="translate(-0.681 -0.978)"/>
        <path id="Trazado_625831" data-name="Trazado 625831" d="M56.232,12.654l2.061,2.061,4.842-6.052-1.61-1.288-3.4,4.255L56.061,9.568l-4.842,6.052,1.61,1.288Z" transform="translate(0.541 -0.804)"/>
      </g>
    </g>
    <g id="Elipse_4731" data-name="Elipse 4731" transform="translate(190 17161.238)" fill="none" stroke="#ffc721" stroke-width="4">
      <ellipse cx="8.583" cy="8.583" rx="8.583" ry="8.583" stroke="none"/>
      <ellipse cx="8.583" cy="8.583" rx="6.583" ry="6.583" fill="none"/>
    </g>
  </g>
</svg>
