<svg xmlns="http://www.w3.org/2000/svg" width="354" height="489.437" viewBox="0 0 354 489.437">
  <g id="Grupo_876214" data-name="Grupo 876214" transform="translate(-606 -611)">
    <path id="Trazado_596869" data-name="Trazado 596869" d="M0,0H280V48H0Z" transform="translate(624 611)" fill="#c9e1ee"/>
    <path id="Trazado_599870" data-name="Trazado 599870" d="M91.611,11.742V16h-2.49V3.914h4.715a5.455,5.455,0,0,1,2.395.5,3.67,3.67,0,0,1,1.59,1.415,3.946,3.946,0,0,1,.556,2.088,3.47,3.47,0,0,1-1.216,2.8,5.065,5.065,0,0,1-3.366,1.025Zm0-2.017h2.225a2.187,2.187,0,0,0,1.507-.465,1.691,1.691,0,0,0,.519-1.328A1.994,1.994,0,0,0,95.338,6.5a1.953,1.953,0,0,0-1.444-.564H91.611ZM102.46,16h-2.407V3.25h2.407Zm7.18,0a2.664,2.664,0,0,1-.241-.805,2.9,2.9,0,0,1-2.266.971,3.189,3.189,0,0,1-2.187-.764,2.456,2.456,0,0,1-.867-1.926,2.538,2.538,0,0,1,1.058-2.191,5.222,5.222,0,0,1,3.059-.772h1.1V10a1.48,1.48,0,0,0-.32-1,1.257,1.257,0,0,0-1.009-.374,1.429,1.429,0,0,0-.95.291.987.987,0,0,0-.344.8h-2.4a2.41,2.41,0,0,1,.481-1.444,3.182,3.182,0,0,1,1.361-1.042,4.961,4.961,0,0,1,1.976-.378,3.92,3.92,0,0,1,2.635.834,2.918,2.918,0,0,1,.975,2.345v3.893a4.294,4.294,0,0,0,.357,1.934V16Zm-1.984-1.668a2.066,2.066,0,0,0,.979-.237,1.554,1.554,0,0,0,.664-.635V11.916h-.9q-1.8,0-1.917,1.245l-.008.141a.96.96,0,0,0,.315.739A1.225,1.225,0,0,0,107.656,14.332Zm8.1-7.313.075,1.038a3.136,3.136,0,0,1,2.582-1.2,2.606,2.606,0,0,1,2.125.838,3.912,3.912,0,0,1,.714,2.507V16h-2.4V10.243a1.562,1.562,0,0,0-.332-1.111,1.484,1.484,0,0,0-1.1-.345,1.65,1.65,0,0,0-1.519.865V16h-2.4V7.019ZM127.2,16.166a4.409,4.409,0,0,1-3.217-1.212,4.308,4.308,0,0,1-1.241-3.229v-.232a5.426,5.426,0,0,1,.523-2.42,3.838,3.838,0,0,1,1.482-1.644,4.159,4.159,0,0,1,2.187-.577,3.727,3.727,0,0,1,2.9,1.162,4.722,4.722,0,0,1,1.058,3.3v.979h-5.719a2.229,2.229,0,0,0,.7,1.411,2.12,2.12,0,0,0,1.482.531,2.589,2.589,0,0,0,2.167-1l1.179,1.32a3.6,3.6,0,0,1-1.461,1.191A4.793,4.793,0,0,1,127.2,16.166Zm-.274-7.379a1.5,1.5,0,0,0-1.158.484,2.5,2.5,0,0,0-.569,1.384h3.337v-.192a1.786,1.786,0,0,0-.432-1.238A1.547,1.547,0,0,0,126.931,8.787ZM137.464,16a2.664,2.664,0,0,1-.241-.805,2.9,2.9,0,0,1-2.266.971,3.189,3.189,0,0,1-2.187-.764,2.456,2.456,0,0,1-.867-1.926,2.538,2.538,0,0,1,1.058-2.191,5.222,5.222,0,0,1,3.059-.772h1.1V10a1.48,1.48,0,0,0-.32-1,1.257,1.257,0,0,0-1.009-.374,1.429,1.429,0,0,0-.95.291.987.987,0,0,0-.344.8h-2.4a2.41,2.41,0,0,1,.481-1.444,3.182,3.182,0,0,1,1.361-1.042,4.961,4.961,0,0,1,1.976-.378,3.92,3.92,0,0,1,2.635.834,2.918,2.918,0,0,1,.975,2.345v3.893a4.294,4.294,0,0,0,.357,1.934V16Zm-1.984-1.668a2.066,2.066,0,0,0,.979-.237,1.554,1.554,0,0,0,.664-.635V11.916h-.9q-1.8,0-1.917,1.245l-.008.141a.96.96,0,0,0,.315.739A1.225,1.225,0,0,0,135.48,14.332Zm9.629-.1a1.573,1.573,0,0,0,1.079-.365,1.28,1.28,0,0,0,.432-.971h2.25a3.077,3.077,0,0,1-.5,1.673,3.286,3.286,0,0,1-1.341,1.179,4.2,4.2,0,0,1-1.88.419,3.9,3.9,0,0,1-3.038-1.224A4.845,4.845,0,0,1,141,11.559V11.4a4.79,4.79,0,0,1,1.1-3.312,3.854,3.854,0,0,1,3.03-1.237,3.778,3.778,0,0,1,2.7.959,3.4,3.4,0,0,1,1.033,2.552h-2.25a1.648,1.648,0,0,0-.432-1.139,1.6,1.6,0,0,0-2.362.173,3.541,3.541,0,0,0-.427,1.983v.249a3.586,3.586,0,0,0,.423,2A1.463,1.463,0,0,0,145.109,14.232ZM152.771,16h-2.407V7.019h2.407ZM150.223,4.694a1.181,1.181,0,0,1,.361-.888,1.556,1.556,0,0,1,1.963,0,1.175,1.175,0,0,1,.365.888,1.178,1.178,0,0,1-.369.9,1.539,1.539,0,0,1-1.951,0A1.178,1.178,0,0,1,150.223,4.694Zm4.15,6.732a5.327,5.327,0,0,1,.515-2.382,3.767,3.767,0,0,1,1.482-1.619,4.323,4.323,0,0,1,2.245-.573,4.09,4.09,0,0,1,2.968,1.112,4.464,4.464,0,0,1,1.282,3.021l.017.614a4.694,4.694,0,0,1-1.154,3.316,4.472,4.472,0,0,1-6.2,0,4.777,4.777,0,0,1-1.158-3.387Zm2.4.17a3.357,3.357,0,0,0,.481,1.958,1.73,1.73,0,0,0,2.739.008,3.674,3.674,0,0,0,.49-2.141,3.324,3.324,0,0,0-.49-1.945,1.592,1.592,0,0,0-1.378-.69,1.566,1.566,0,0,0-1.361.686A3.735,3.735,0,0,0,156.772,11.6Zm2.316-8.347H161.7l-2.3,2.573h-1.951Zm7.479,3.769.075,1.038a3.136,3.136,0,0,1,2.582-1.2,2.606,2.606,0,0,1,2.125.838,3.912,3.912,0,0,1,.714,2.507V16h-2.4V10.243a1.562,1.562,0,0,0-.332-1.111,1.484,1.484,0,0,0-1.1-.345,1.65,1.65,0,0,0-1.519.865V16h-2.4V7.019Z" transform="translate(643 624)" fill="#12263f"/>
    <g id="Grupo_874679" data-name="Grupo 874679" transform="translate(923 2448.532) rotate(180)">
      <circle id="Elipse_4713" data-name="Elipse 4713" cx="2.5" cy="2.5" r="2.5" transform="translate(285 1799.532)" fill="#f3ab1d"/>
      <circle id="Elipse_4717" data-name="Elipse 4717" cx="2.5" cy="2.5" r="2.5" transform="translate(285 1811.532)" fill="#f3ab1d"/>
      <circle id="Elipse_4719" data-name="Elipse 4719" cx="2.5" cy="2.5" r="2.5" transform="translate(285 1823.532)" fill="#f3ab1d"/>
      <circle id="Elipse_4715" data-name="Elipse 4715" cx="2.5" cy="2.5" r="2.5" transform="translate(297 1799.532)" fill="#f3ab1d"/>
      <circle id="Elipse_4720" data-name="Elipse 4720" cx="2.5" cy="2.5" r="2.5" transform="translate(308 1799.532)" fill="#f3ab1d"/>
      <circle id="Elipse_4716" data-name="Elipse 4716" cx="2.5" cy="2.5" r="2.5" transform="translate(297 1811.532)" fill="#f3ab1d"/>
      <circle id="Elipse_4721" data-name="Elipse 4721" cx="2.5" cy="2.5" r="2.5" transform="translate(308 1811.532)" fill="#f3ab1d"/>
      <circle id="Elipse_4718" data-name="Elipse 4718" cx="2.5" cy="2.5" r="2.5" transform="translate(297 1823.532)" fill="#f3ab1d"/>
      <circle id="Elipse_4722" data-name="Elipse 4722" cx="2.5" cy="2.5" r="2.5" transform="translate(308 1823.532)" fill="#f3ab1d"/>
    </g>
    <g id="Grupo_874681" data-name="Grupo 874681" transform="translate(-27 105.033)">
      <path id="Trazado_599233" data-name="Trazado 599233" d="M0,0H280V48H0Z" transform="translate(651 590.191)" fill="#c9e1ee"/>
      <path id="Trazado_599871" data-name="Trazado 599871" d="M91.059,10.231a7.3,7.3,0,0,1-.631,3.129,4.751,4.751,0,0,1-1.805,2.075,5.335,5.335,0,0,1-5.375.008,4.8,4.8,0,0,1-1.826-2.063,7.087,7.087,0,0,1-.656-3.084V9.7a7.258,7.258,0,0,1,.643-3.142,4.79,4.79,0,0,1,1.818-2.083,5.327,5.327,0,0,1,5.371,0,4.79,4.79,0,0,1,1.818,2.083,7.237,7.237,0,0,1,.643,3.134Zm-2.523-.548a5.086,5.086,0,0,0-.681-2.889,2.4,2.4,0,0,0-3.876-.012,5.028,5.028,0,0,0-.689,2.86v.589A5.15,5.15,0,0,0,83.97,13.1a2.383,2.383,0,0,0,3.885.037,5.12,5.12,0,0,0,.681-2.868Zm9.222-.415a6.517,6.517,0,0,0-.863-.066,1.757,1.757,0,0,0-1.785.921V16h-2.4V7.019h2.266l.066,1.071a2.223,2.223,0,0,1,2-1.237,2.514,2.514,0,0,1,.747.108Zm.647,2.175a5.264,5.264,0,0,1,.984-3.329,3.187,3.187,0,0,1,2.652-1.262,2.8,2.8,0,0,1,2.3,1.013l.1-.847h2.175V15.7a3.839,3.839,0,0,1-.535,2.05,3.439,3.439,0,0,1-1.507,1.328,5.3,5.3,0,0,1-2.274.457,4.925,4.925,0,0,1-1.926-.394,3.418,3.418,0,0,1-1.419-1.017l1.063-1.461a2.81,2.81,0,0,0,2.175,1,2.057,2.057,0,0,0,1.486-.51,1.915,1.915,0,0,0,.531-1.448v-.481a2.775,2.775,0,0,1-2.183.938A3.179,3.179,0,0,1,99.405,14.9a5.262,5.262,0,0,1-1-3.358Zm2.4.171a3.3,3.3,0,0,0,.49,1.922,1.557,1.557,0,0,0,1.345.7,1.665,1.665,0,0,0,1.569-.826V9.612a1.661,1.661,0,0,0-1.552-.826A1.566,1.566,0,0,0,101.3,9.5,3.715,3.715,0,0,0,100.8,11.614ZM113.662,16a2.664,2.664,0,0,1-.241-.805,2.9,2.9,0,0,1-2.266.971,3.189,3.189,0,0,1-2.187-.764,2.456,2.456,0,0,1-.867-1.926,2.538,2.538,0,0,1,1.058-2.191,5.222,5.222,0,0,1,3.059-.772h1.1V10A1.48,1.48,0,0,0,113,9a1.257,1.257,0,0,0-1.009-.374,1.429,1.429,0,0,0-.95.291.987.987,0,0,0-.344.8h-2.4a2.41,2.41,0,0,1,.481-1.444,3.182,3.182,0,0,1,1.361-1.042,4.961,4.961,0,0,1,1.976-.378,3.92,3.92,0,0,1,2.635.834,2.918,2.918,0,0,1,.975,2.345v3.893a4.294,4.294,0,0,0,.357,1.934V16Zm-1.984-1.668a2.066,2.066,0,0,0,.979-.237,1.554,1.554,0,0,0,.664-.635V11.916h-.9q-1.8,0-1.917,1.245l-.008.141a.96.96,0,0,0,.315.739A1.225,1.225,0,0,0,111.678,14.332Zm8.1-7.313.075,1.038a3.136,3.136,0,0,1,2.582-1.2,2.606,2.606,0,0,1,2.125.838,3.912,3.912,0,0,1,.714,2.507V16h-2.4V10.243a1.562,1.562,0,0,0-.332-1.111,1.484,1.484,0,0,0-1.1-.345,1.65,1.65,0,0,0-1.519.865V16h-2.4V7.019ZM129.624,16h-2.407V7.019h2.407ZM127.076,4.694a1.181,1.181,0,0,1,.361-.888,1.556,1.556,0,0,1,1.963,0,1.175,1.175,0,0,1,.365.888,1.178,1.178,0,0,1-.369.9,1.539,1.539,0,0,1-1.951,0A1.178,1.178,0,0,1,127.076,4.694Zm7.28,9.372h4.391V16h-7.454V14.539l4.225-5.586h-4.1V7.019h7.2V8.432ZM145.454,16a2.664,2.664,0,0,1-.241-.805,2.9,2.9,0,0,1-2.266.971,3.189,3.189,0,0,1-2.187-.764,2.456,2.456,0,0,1-.867-1.926,2.538,2.538,0,0,1,1.058-2.191,5.222,5.222,0,0,1,3.059-.772h1.1V10a1.48,1.48,0,0,0-.32-1,1.257,1.257,0,0,0-1.009-.374,1.429,1.429,0,0,0-.95.291.987.987,0,0,0-.344.8h-2.4a2.41,2.41,0,0,1,.481-1.444,3.182,3.182,0,0,1,1.361-1.042,4.961,4.961,0,0,1,1.976-.378,3.92,3.92,0,0,1,2.635.834,2.918,2.918,0,0,1,.975,2.345v3.893a4.294,4.294,0,0,0,.357,1.934V16Zm-1.984-1.668a2.066,2.066,0,0,0,.979-.237,1.554,1.554,0,0,0,.664-.635V11.916h-.9q-1.8,0-1.917,1.245l-.008.141a.96.96,0,0,0,.315.739A1.225,1.225,0,0,0,143.47,14.332Zm9.629-.1a1.573,1.573,0,0,0,1.079-.365,1.28,1.28,0,0,0,.432-.971h2.25a3.077,3.077,0,0,1-.5,1.673,3.286,3.286,0,0,1-1.341,1.179,4.2,4.2,0,0,1-1.88.419,3.9,3.9,0,0,1-3.038-1.224,4.845,4.845,0,0,1-1.112-3.383V11.4a4.79,4.79,0,0,1,1.1-3.312,3.854,3.854,0,0,1,3.03-1.237,3.778,3.778,0,0,1,2.7.959,3.4,3.4,0,0,1,1.033,2.552h-2.25a1.648,1.648,0,0,0-.432-1.139,1.6,1.6,0,0,0-2.362.173,3.541,3.541,0,0,0-.427,1.983v.249a3.586,3.586,0,0,0,.423,2A1.463,1.463,0,0,0,153.1,14.232ZM160.76,16h-2.407V7.019h2.407ZM158.212,4.694a1.181,1.181,0,0,1,.361-.888,1.556,1.556,0,0,1,1.963,0,1.175,1.175,0,0,1,.365.888,1.178,1.178,0,0,1-.369.9,1.539,1.539,0,0,1-1.951,0A1.178,1.178,0,0,1,158.212,4.694Zm4.15,6.732a5.327,5.327,0,0,1,.515-2.382,3.767,3.767,0,0,1,1.482-1.619,4.323,4.323,0,0,1,2.245-.573,4.09,4.09,0,0,1,2.968,1.112,4.464,4.464,0,0,1,1.282,3.021l.017.614a4.694,4.694,0,0,1-1.154,3.316,4.472,4.472,0,0,1-6.2,0,4.777,4.777,0,0,1-1.158-3.387Zm2.4.17a3.357,3.357,0,0,0,.481,1.958,1.73,1.73,0,0,0,2.739.008,3.674,3.674,0,0,0,.49-2.141,3.324,3.324,0,0,0-.49-1.945,1.592,1.592,0,0,0-1.378-.69,1.566,1.566,0,0,0-1.361.686A3.735,3.735,0,0,0,164.761,11.6Zm2.316-8.347h2.615l-2.3,2.573h-1.951Zm7.479,3.769.075,1.038a3.136,3.136,0,0,1,2.582-1.2,2.606,2.606,0,0,1,2.125.838,3.912,3.912,0,0,1,.714,2.507V16h-2.4V10.243a1.562,1.562,0,0,0-.332-1.111,1.484,1.484,0,0,0-1.1-.345,1.65,1.65,0,0,0-1.519.865V16h-2.4V7.019Z" transform="translate(670 603.191)" fill="#12263f"/>
      <g id="Grupo_874679-2" data-name="Grupo 874679" transform="translate(950 2427.724) rotate(180)">
        <circle id="Elipse_4713-2" data-name="Elipse 4713" cx="2.5" cy="2.5" r="2.5" transform="translate(285 1799.532)" fill="#f3ab1d"/>
        <circle id="Elipse_4717-2" data-name="Elipse 4717" cx="2.5" cy="2.5" r="2.5" transform="translate(285 1811.532)" fill="#f3ab1d"/>
        <circle id="Elipse_4719-2" data-name="Elipse 4719" cx="2.5" cy="2.5" r="2.5" transform="translate(285 1823.532)" fill="#f3ab1d"/>
        <circle id="Elipse_4715-2" data-name="Elipse 4715" cx="2.5" cy="2.5" r="2.5" transform="translate(297 1799.532)" fill="#f3ab1d"/>
        <circle id="Elipse_4720-2" data-name="Elipse 4720" cx="2.5" cy="2.5" r="2.5" transform="translate(308 1799.532)" fill="#f3ab1d"/>
        <circle id="Elipse_4716-2" data-name="Elipse 4716" cx="2.5" cy="2.5" r="2.5" transform="translate(297 1811.532)" fill="#f3ab1d"/>
        <circle id="Elipse_4721-2" data-name="Elipse 4721" cx="2.5" cy="2.5" r="2.5" transform="translate(308 1811.532)" fill="#f3ab1d"/>
        <circle id="Elipse_4718-2" data-name="Elipse 4718" cx="2.5" cy="2.5" r="2.5" transform="translate(297 1823.532)" fill="#f3ab1d"/>
        <circle id="Elipse_4722-2" data-name="Elipse 4722" cx="2.5" cy="2.5" r="2.5" transform="translate(308 1823.532)" fill="#f3ab1d"/>
      </g>
    </g>
    <g id="Grupo_874682" data-name="Grupo 874682" transform="translate(-27 189.033)">
      <rect id="Rectángulo_291495" data-name="Rectángulo 291495" width="280" height="48" transform="translate(651 590.191)" fill="#c9e1ee"/>
      <path id="Trazado_599872" data-name="Trazado 599872" d="M95.5,16V3.914h3.719a5.647,5.647,0,0,1,2.851.718,5.007,5.007,0,0,1,1.963,2.042,6.3,6.3,0,0,1,.706,3.009v.556a6.316,6.316,0,0,1-.693,3,4.964,4.964,0,0,1-1.955,2.034,5.69,5.69,0,0,1-2.847.73ZM97.99,5.931V14h1.2a2.7,2.7,0,0,0,2.233-.955,4.314,4.314,0,0,0,.789-2.731V9.675a4.382,4.382,0,0,0-.764-2.793,2.7,2.7,0,0,0-2.233-.95ZM108.922,16h-2.407V7.019h2.407ZM106.374,4.694a1.181,1.181,0,0,1,.361-.888,1.556,1.556,0,0,1,1.963,0,1.175,1.175,0,0,1,.365.888,1.178,1.178,0,0,1-.369.9,1.539,1.539,0,0,1-1.951,0A1.178,1.178,0,0,1,106.374,4.694Zm9.571,4.574a6.517,6.517,0,0,0-.863-.066,1.757,1.757,0,0,0-1.785.921V16h-2.4V7.019h2.266l.066,1.071a2.223,2.223,0,0,1,2-1.237,2.514,2.514,0,0,1,.747.108Zm5.13,6.9a4.409,4.409,0,0,1-3.217-1.212,4.308,4.308,0,0,1-1.241-3.229v-.232a5.426,5.426,0,0,1,.523-2.42,3.838,3.838,0,0,1,1.482-1.644,4.159,4.159,0,0,1,2.187-.577,3.727,3.727,0,0,1,2.9,1.162,4.722,4.722,0,0,1,1.058,3.3v.979h-5.719a2.229,2.229,0,0,0,.7,1.411,2.12,2.12,0,0,0,1.482.531,2.589,2.589,0,0,0,2.167-1l1.179,1.32a3.6,3.6,0,0,1-1.461,1.191A4.793,4.793,0,0,1,121.074,16.166ZM120.8,8.787a1.5,1.5,0,0,0-1.158.484,2.5,2.5,0,0,0-.569,1.384h3.337v-.192a1.786,1.786,0,0,0-.432-1.238A1.547,1.547,0,0,0,120.8,8.787Zm9.064,5.445a1.573,1.573,0,0,0,1.079-.365,1.28,1.28,0,0,0,.432-.971h2.25a3.077,3.077,0,0,1-.5,1.673,3.286,3.286,0,0,1-1.341,1.179,4.2,4.2,0,0,1-1.88.419,3.9,3.9,0,0,1-3.038-1.224,4.845,4.845,0,0,1-1.112-3.383V11.4a4.79,4.79,0,0,1,1.1-3.312,3.854,3.854,0,0,1,3.03-1.237,3.778,3.778,0,0,1,2.7.959,3.4,3.4,0,0,1,1.033,2.552h-2.25a1.648,1.648,0,0,0-.432-1.139,1.6,1.6,0,0,0-2.362.173,3.541,3.541,0,0,0-.427,1.983v.249a3.586,3.586,0,0,0,.423,2A1.463,1.463,0,0,0,129.865,14.232Zm8.865,0a1.573,1.573,0,0,0,1.079-.365,1.28,1.28,0,0,0,.432-.971h2.25a3.077,3.077,0,0,1-.5,1.673,3.286,3.286,0,0,1-1.341,1.179,4.2,4.2,0,0,1-1.88.419,3.9,3.9,0,0,1-3.038-1.224,4.845,4.845,0,0,1-1.112-3.383V11.4a4.79,4.79,0,0,1,1.1-3.312,3.854,3.854,0,0,1,3.03-1.237,3.778,3.778,0,0,1,2.7.959,3.4,3.4,0,0,1,1.033,2.552h-2.25a1.648,1.648,0,0,0-.432-1.139,1.6,1.6,0,0,0-2.362.173,3.541,3.541,0,0,0-.427,1.983v.249a3.586,3.586,0,0,0,.423,2A1.463,1.463,0,0,0,138.73,14.232ZM146.392,16h-2.407V7.019h2.407ZM143.844,4.694a1.181,1.181,0,0,1,.361-.888,1.556,1.556,0,0,1,1.963,0,1.175,1.175,0,0,1,.365.888,1.178,1.178,0,0,1-.369.9,1.539,1.539,0,0,1-1.951,0A1.178,1.178,0,0,1,143.844,4.694Zm4.15,6.732a5.327,5.327,0,0,1,.515-2.382,3.767,3.767,0,0,1,1.482-1.619,4.323,4.323,0,0,1,2.245-.573A4.09,4.09,0,0,1,155.2,7.965a4.464,4.464,0,0,1,1.282,3.021l.017.614a4.694,4.694,0,0,1-1.154,3.316,4.472,4.472,0,0,1-6.2,0,4.777,4.777,0,0,1-1.158-3.387Zm2.4.17a3.357,3.357,0,0,0,.481,1.958,1.73,1.73,0,0,0,2.739.008,3.674,3.674,0,0,0,.49-2.141,3.324,3.324,0,0,0-.49-1.945,1.592,1.592,0,0,0-1.378-.69,1.566,1.566,0,0,0-1.361.686A3.735,3.735,0,0,0,150.393,11.6Zm2.316-8.347h2.615l-2.3,2.573h-1.951Zm7.479,3.769.075,1.038a3.136,3.136,0,0,1,2.582-1.2,2.606,2.606,0,0,1,2.125.838,3.912,3.912,0,0,1,.714,2.507V16h-2.4V10.243a1.562,1.562,0,0,0-.332-1.111,1.484,1.484,0,0,0-1.1-.345,1.65,1.65,0,0,0-1.519.865V16h-2.4V7.019Z" transform="translate(670 603.191)" fill="#12263f"/>
      <g id="Grupo_874679-3" data-name="Grupo 874679" transform="translate(950 2427.724) rotate(180)">
        <circle id="Elipse_4713-3" data-name="Elipse 4713" cx="2.5" cy="2.5" r="2.5" transform="translate(285 1799.532)" fill="#f3ab1d"/>
        <circle id="Elipse_4717-3" data-name="Elipse 4717" cx="2.5" cy="2.5" r="2.5" transform="translate(285 1811.532)" fill="#f3ab1d"/>
        <circle id="Elipse_4719-3" data-name="Elipse 4719" cx="2.5" cy="2.5" r="2.5" transform="translate(285 1823.532)" fill="#f3ab1d"/>
        <circle id="Elipse_4715-3" data-name="Elipse 4715" cx="2.5" cy="2.5" r="2.5" transform="translate(297 1799.532)" fill="#f3ab1d"/>
        <circle id="Elipse_4720-3" data-name="Elipse 4720" cx="2.5" cy="2.5" r="2.5" transform="translate(308 1799.532)" fill="#f3ab1d"/>
        <circle id="Elipse_4716-3" data-name="Elipse 4716" cx="2.5" cy="2.5" r="2.5" transform="translate(297 1811.532)" fill="#f3ab1d"/>
        <circle id="Elipse_4721-3" data-name="Elipse 4721" cx="2.5" cy="2.5" r="2.5" transform="translate(308 1811.532)" fill="#f3ab1d"/>
        <circle id="Elipse_4718-3" data-name="Elipse 4718" cx="2.5" cy="2.5" r="2.5" transform="translate(297 1823.532)" fill="#f3ab1d"/>
        <circle id="Elipse_4722-3" data-name="Elipse 4722" cx="2.5" cy="2.5" r="2.5" transform="translate(308 1823.532)" fill="#f3ab1d"/>
      </g>
    </g>
    <path id="Trazado_596868" data-name="Trazado 596868" d="M0,0H280V48H0Z" transform="translate(624 866.225)" fill="#c9e1ee"/>
    <path id="Trazado_599873" data-name="Trazado 599873" d="M113.056,11.974a4.277,4.277,0,0,1-1.44,3.071,5.058,5.058,0,0,1-3.424,1.121,4.548,4.548,0,0,1-3.656-1.565,6.416,6.416,0,0,1-1.332-4.3V9.567a7.245,7.245,0,0,1,.614-3.071,4.6,4.6,0,0,1,1.756-2.038,5.486,5.486,0,0,1,6.022.411,4.6,4.6,0,0,1,1.478,3.146h-2.49a2.524,2.524,0,0,0-.652-1.7,2.413,2.413,0,0,0-1.706-.527,2.116,2.116,0,0,0-1.864.892,5,5,0,0,0-.635,2.768v.913a5.352,5.352,0,0,0,.594,2.864,2.077,2.077,0,0,0,1.872.9,2.458,2.458,0,0,0,1.722-.527,2.381,2.381,0,0,0,.652-1.631Zm1.1-.548a5.326,5.326,0,0,1,.515-2.382,3.768,3.768,0,0,1,1.482-1.619,4.323,4.323,0,0,1,2.245-.573,4.09,4.09,0,0,1,2.968,1.112,4.464,4.464,0,0,1,1.282,3.021l.017.614a4.694,4.694,0,0,1-1.154,3.316,4.472,4.472,0,0,1-6.2,0,4.777,4.777,0,0,1-1.158-3.387Zm2.4.17a3.357,3.357,0,0,0,.481,1.958,1.73,1.73,0,0,0,2.739.008,3.674,3.674,0,0,0,.49-2.141,3.324,3.324,0,0,0-.49-1.945,1.592,1.592,0,0,0-1.378-.69,1.566,1.566,0,0,0-1.361.686A3.736,3.736,0,0,0,116.559,11.6Zm9.795-4.578.075,1.038a3.136,3.136,0,0,1,2.582-1.2,2.606,2.606,0,0,1,2.125.838,3.912,3.912,0,0,1,.714,2.507V16h-2.4V10.243a1.562,1.562,0,0,0-.332-1.111,1.484,1.484,0,0,0-1.1-.345,1.65,1.65,0,0,0-1.519.865V16h-2.4V7.019Zm10.185-2.208V7.019h1.536v1.76h-1.536v4.482a1.07,1.07,0,0,0,.191.714.959.959,0,0,0,.73.216,3.826,3.826,0,0,0,.706-.058V15.95a4.939,4.939,0,0,1-1.453.216,2.29,2.29,0,0,1-2.573-2.548V8.778h-1.312V7.019h1.312V4.811Zm7.919,4.458a6.517,6.517,0,0,0-.863-.066,1.757,1.757,0,0,0-1.785.921V16h-2.4V7.019h2.266l.066,1.071a2.223,2.223,0,0,1,2-1.237,2.514,2.514,0,0,1,.747.108Zm.481,2.158a5.327,5.327,0,0,1,.515-2.382,3.767,3.767,0,0,1,1.482-1.619,4.323,4.323,0,0,1,2.245-.573,4.09,4.09,0,0,1,2.968,1.112,4.464,4.464,0,0,1,1.282,3.021l.017.614a4.694,4.694,0,0,1-1.154,3.316,4.472,4.472,0,0,1-6.2,0,4.777,4.777,0,0,1-1.158-3.387Zm2.4.17a3.357,3.357,0,0,0,.481,1.958,1.73,1.73,0,0,0,2.739.008,3.674,3.674,0,0,0,.49-2.141,3.324,3.324,0,0,0-.49-1.945,1.592,1.592,0,0,0-1.378-.69,1.566,1.566,0,0,0-1.361.686A3.735,3.735,0,0,0,147.338,11.6ZM157.457,16H155.05V3.25h2.407Z" transform="translate(643 879.225)" fill="#12263f"/>
    <g id="Grupo_874683" data-name="Grupo 874683" transform="translate(923 2703.757) rotate(180)">
      <circle id="Elipse_4713-4" data-name="Elipse 4713" cx="2.5" cy="2.5" r="2.5" transform="translate(285 1799.532)" fill="#f3ab1d"/>
      <circle id="Elipse_4717-4" data-name="Elipse 4717" cx="2.5" cy="2.5" r="2.5" transform="translate(285 1811.532)" fill="#f3ab1d"/>
      <circle id="Elipse_4719-4" data-name="Elipse 4719" cx="2.5" cy="2.5" r="2.5" transform="translate(285 1823.532)" fill="#f3ab1d"/>
      <circle id="Elipse_4715-4" data-name="Elipse 4715" cx="2.5" cy="2.5" r="2.5" transform="translate(297 1799.532)" fill="#f3ab1d"/>
      <circle id="Elipse_4720-4" data-name="Elipse 4720" cx="2.5" cy="2.5" r="2.5" transform="translate(308 1799.532)" fill="#f3ab1d"/>
      <circle id="Elipse_4716-4" data-name="Elipse 4716" cx="2.5" cy="2.5" r="2.5" transform="translate(297 1811.532)" fill="#f3ab1d"/>
      <circle id="Elipse_4721-4" data-name="Elipse 4721" cx="2.5" cy="2.5" r="2.5" transform="translate(308 1811.532)" fill="#f3ab1d"/>
      <circle id="Elipse_4718-4" data-name="Elipse 4718" cx="2.5" cy="2.5" r="2.5" transform="translate(297 1823.532)" fill="#f3ab1d"/>
      <circle id="Elipse_4722-4" data-name="Elipse 4722" cx="2.5" cy="2.5" r="2.5" transform="translate(308 1823.532)" fill="#f3ab1d"/>
    </g>
    <path id="Trazado_599866" data-name="Trazado 599866" d="M168.512-4.851,333,50.759,168.512,117.235,0,50.759Z" transform="translate(606 950.956)" fill="#f2f5d1"/>
    <path id="Trazado_599874" data-name="Trazado 599874" d="M4.789,14.7h5.728V16H3.187V3.914h1.6Zm6.9-3.271a5.3,5.3,0,0,1,.519-2.374A3.87,3.87,0,0,1,13.65,7.425a3.932,3.932,0,0,1,2.113-.573,3.788,3.788,0,0,1,2.968,1.27A4.886,4.886,0,0,1,19.863,11.5v.108a5.351,5.351,0,0,1-.5,2.353,3.813,3.813,0,0,1-1.436,1.623,3.977,3.977,0,0,1-2.146.581A3.778,3.778,0,0,1,12.82,14.9a4.861,4.861,0,0,1-1.133-3.362Zm1.544.183a3.842,3.842,0,0,0,.693,2.4A2.349,2.349,0,0,0,17.638,14a4.2,4.2,0,0,0,.689-2.569,3.836,3.836,0,0,0-.7-2.395,2.23,2.23,0,0,0-1.864-.917,2.205,2.205,0,0,0-1.834.9A4.17,4.17,0,0,0,13.231,11.609Zm8.193-.174a5.279,5.279,0,0,1,.971-3.341,3.348,3.348,0,0,1,5.138-.079l.075-1h1.4v8.766a3.654,3.654,0,0,1-1.033,2.748,3.814,3.814,0,0,1-2.777,1,4.619,4.619,0,0,1-1.9-.415,3.272,3.272,0,0,1-1.419-1.137l.8-.921a3,3,0,0,0,2.416,1.22,2.353,2.353,0,0,0,1.747-.631,2.411,2.411,0,0,0,.627-1.776V15.1a3.156,3.156,0,0,1-2.515,1.063A3.068,3.068,0,0,1,22.4,14.9,5.55,5.55,0,0,1,21.424,11.435Zm1.544.174A4.027,4.027,0,0,0,23.59,14a2.023,2.023,0,0,0,1.743.867,2.249,2.249,0,0,0,2.133-1.32v-4.1A2.276,2.276,0,0,0,25.35,8.156a2.041,2.041,0,0,0-1.751.872A4.386,4.386,0,0,0,22.968,11.609ZM35.668,8.4a4.6,4.6,0,0,0-.755-.058,2.024,2.024,0,0,0-2.05,1.287V16H31.326V7.019h1.494l.025,1.038a2.391,2.391,0,0,1,2.142-1.2,1.569,1.569,0,0,1,.681.116Zm.838,3.03a5.3,5.3,0,0,1,.519-2.374,3.87,3.87,0,0,1,1.444-1.627,3.932,3.932,0,0,1,2.113-.573,3.788,3.788,0,0,1,2.968,1.27A4.886,4.886,0,0,1,44.682,11.5v.108a5.351,5.351,0,0,1-.5,2.353,3.813,3.813,0,0,1-1.436,1.623,3.977,3.977,0,0,1-2.146.581,3.778,3.778,0,0,1-2.959-1.27,4.861,4.861,0,0,1-1.133-3.362Zm1.544.183a3.842,3.842,0,0,0,.693,2.4A2.349,2.349,0,0,0,42.458,14a4.2,4.2,0,0,0,.689-2.569,3.836,3.836,0,0,0-.7-2.395,2.23,2.23,0,0,0-1.864-.917,2.205,2.205,0,0,0-1.834.9A4.17,4.17,0,0,0,38.05,11.609Zm12.393-.174a5.261,5.261,0,0,1,.979-3.324,3.333,3.333,0,0,1,5.063-.178V3.25h1.536V16H56.611l-.075-.963a3.127,3.127,0,0,1-2.565,1.129,3.068,3.068,0,0,1-2.544-1.278,5.321,5.321,0,0,1-.984-3.337Zm1.536.174A3.984,3.984,0,0,0,52.61,14a2.039,2.039,0,0,0,1.743.863,2.24,2.24,0,0,0,2.133-1.312V9.426a2.257,2.257,0,0,0-2.117-1.27,2.049,2.049,0,0,0-1.76.872A4.386,4.386,0,0,0,51.979,11.609Zm12.152,4.557a3.924,3.924,0,0,1-2.972-1.2,4.452,4.452,0,0,1-1.146-3.208v-.282a5.39,5.39,0,0,1,.51-2.386,3.982,3.982,0,0,1,1.428-1.644,3.59,3.59,0,0,1,1.988-.594,3.364,3.364,0,0,1,2.723,1.154,5,5,0,0,1,.971,3.3v.639H61.55a3.193,3.193,0,0,0,.776,2.146,2.44,2.44,0,0,0,1.888.818,2.675,2.675,0,0,0,1.378-.332,3.462,3.462,0,0,0,.988-.88l.938.73A3.772,3.772,0,0,1,64.131,16.166ZM63.94,8.114a2.048,2.048,0,0,0-1.561.677,3.288,3.288,0,0,0-.78,1.9h4.5v-.116a2.925,2.925,0,0,0-.631-1.814A1.928,1.928,0,0,0,63.94,8.114ZM75.287,16H73.752V3.25h1.536Zm2.05-4.574a5.3,5.3,0,0,1,.519-2.374A3.87,3.87,0,0,1,79.3,7.425a3.932,3.932,0,0,1,2.113-.573,3.788,3.788,0,0,1,2.968,1.27A4.886,4.886,0,0,1,85.514,11.5v.108a5.351,5.351,0,0,1-.5,2.353,3.813,3.813,0,0,1-1.436,1.623,3.977,3.977,0,0,1-2.146.581,3.778,3.778,0,0,1-2.959-1.27,4.861,4.861,0,0,1-1.133-3.362Zm1.544.183a3.842,3.842,0,0,0,.693,2.4A2.349,2.349,0,0,0,83.289,14a4.2,4.2,0,0,0,.689-2.569,3.836,3.836,0,0,0-.7-2.395,2.23,2.23,0,0,0-1.864-.917,2.205,2.205,0,0,0-1.834.9A4.17,4.17,0,0,0,78.882,11.609Zm13.788,2.009a1.131,1.131,0,0,0-.469-.967,4.514,4.514,0,0,0-1.635-.594,7.731,7.731,0,0,1-1.851-.6,2.633,2.633,0,0,1-1.013-.83,1.986,1.986,0,0,1-.328-1.146,2.33,2.33,0,0,1,.934-1.868,3.647,3.647,0,0,1,2.386-.764,3.753,3.753,0,0,1,2.478.789,2.5,2.5,0,0,1,.95,2.017H92.578a1.386,1.386,0,0,0-.535-1.087,2.006,2.006,0,0,0-1.349-.457,2.1,2.1,0,0,0-1.312.365,1.15,1.15,0,0,0-.473.955.932.932,0,0,0,.44.838,5.413,5.413,0,0,0,1.59.54,8.283,8.283,0,0,1,1.864.614,2.718,2.718,0,0,1,1.058.859A2.112,2.112,0,0,1,94.2,13.51a2.3,2.3,0,0,1-.963,1.93,4.039,4.039,0,0,1-2.5.726,4.523,4.523,0,0,1-1.909-.382,3.105,3.105,0,0,1-1.3-1.067,2.571,2.571,0,0,1-.469-1.482H88.6a1.59,1.59,0,0,0,.618,1.224,2.4,2.4,0,0,0,1.523.452,2.476,2.476,0,0,0,1.4-.353A1.084,1.084,0,0,0,92.669,13.618ZM104.755,8.4A4.6,4.6,0,0,0,104,8.338a2.024,2.024,0,0,0-2.05,1.287V16h-1.536V7.019h1.494l.025,1.038a2.391,2.391,0,0,1,2.142-1.2,1.569,1.569,0,0,1,.681.116Zm4.98,7.77a3.924,3.924,0,0,1-2.972-1.2,4.452,4.452,0,0,1-1.146-3.208v-.282a5.39,5.39,0,0,1,.51-2.386,3.982,3.982,0,0,1,1.428-1.644,3.59,3.59,0,0,1,1.988-.594,3.364,3.364,0,0,1,2.723,1.154,5,5,0,0,1,.971,3.3v.639h-6.084a3.193,3.193,0,0,0,.776,2.146,2.44,2.44,0,0,0,1.888.818,2.675,2.675,0,0,0,1.378-.332,3.462,3.462,0,0,0,.988-.88l.938.73A3.772,3.772,0,0,1,109.736,16.166Zm-.191-8.052a2.048,2.048,0,0,0-1.561.677,3.288,3.288,0,0,0-.78,1.9h4.5v-.116a2.925,2.925,0,0,0-.631-1.814A1.928,1.928,0,0,0,109.545,8.114Zm10.7,5.5a1.131,1.131,0,0,0-.469-.967,4.514,4.514,0,0,0-1.635-.594,7.731,7.731,0,0,1-1.851-.6,2.633,2.633,0,0,1-1.013-.83,1.986,1.986,0,0,1-.328-1.146,2.33,2.33,0,0,1,.934-1.868,3.647,3.647,0,0,1,2.386-.764,3.753,3.753,0,0,1,2.478.789,2.5,2.5,0,0,1,.95,2.017h-1.544a1.386,1.386,0,0,0-.535-1.087,2.006,2.006,0,0,0-1.349-.457,2.1,2.1,0,0,0-1.312.365,1.15,1.15,0,0,0-.473.955.932.932,0,0,0,.44.838,5.413,5.413,0,0,0,1.59.54,8.283,8.283,0,0,1,1.864.614,2.718,2.718,0,0,1,1.058.859,2.112,2.112,0,0,1,.344,1.224,2.3,2.3,0,0,1-.963,1.93,4.039,4.039,0,0,1-2.5.726,4.523,4.523,0,0,1-1.909-.382,3.105,3.105,0,0,1-1.3-1.067,2.571,2.571,0,0,1-.469-1.482h1.536a1.59,1.59,0,0,0,.618,1.224,2.4,2.4,0,0,0,1.523.452,2.476,2.476,0,0,0,1.4-.353A1.084,1.084,0,0,0,120.244,13.618Zm9.081,1.494a3.262,3.262,0,0,1-2.631,1.054,2.792,2.792,0,0,1-2.187-.834,3.611,3.611,0,0,1-.76-2.469V7.019h1.536v5.8q0,2.042,1.66,2.042a2.3,2.3,0,0,0,2.341-1.312V7.019h1.536V16h-1.461Zm5.5.888h-1.536V3.25h1.536Zm4.541-11.156V7.019h1.677V8.206h-1.677v5.577a1.247,1.247,0,0,0,.224.81.943.943,0,0,0,.764.27,3.718,3.718,0,0,0,.73-.1V16a4.478,4.478,0,0,1-1.179.165,1.912,1.912,0,0,1-1.552-.623,2.675,2.675,0,0,1-.523-1.768V8.206H136.19V7.019h1.635V4.844ZM148.376,16a3.226,3.226,0,0,1-.216-.946,3.426,3.426,0,0,1-2.557,1.112,3.17,3.17,0,0,1-2.179-.751,2.43,2.43,0,0,1-.851-1.905,2.539,2.539,0,0,1,1.067-2.179,5.029,5.029,0,0,1,3-.776h1.494V9.849a1.725,1.725,0,0,0-.481-1.282,1.935,1.935,0,0,0-1.419-.477,2.239,2.239,0,0,0-1.378.415,1.223,1.223,0,0,0-.556,1h-1.544a2.119,2.119,0,0,1,.477-1.3,3.258,3.258,0,0,1,1.295-.992,4.356,4.356,0,0,1,1.8-.365,3.551,3.551,0,0,1,2.432.776,2.8,2.8,0,0,1,.913,2.137V13.9a5.054,5.054,0,0,0,.315,1.967V16Zm-2.548-1.17a2.7,2.7,0,0,0,1.37-.374,2.259,2.259,0,0,0,.938-.971V11.642h-1.2q-2.822,0-2.822,1.652a1.4,1.4,0,0,0,.481,1.129A1.85,1.85,0,0,0,145.827,14.83Zm5.877-3.4a5.261,5.261,0,0,1,.979-3.324,3.333,3.333,0,0,1,5.063-.178V3.25h1.536V16h-1.411l-.075-.963a3.127,3.127,0,0,1-2.565,1.129,3.068,3.068,0,0,1-2.544-1.278,5.321,5.321,0,0,1-.984-3.337Zm1.536.174A3.984,3.984,0,0,0,153.871,14a2.039,2.039,0,0,0,1.743.863,2.24,2.24,0,0,0,2.133-1.312V9.426a2.257,2.257,0,0,0-2.117-1.27,2.049,2.049,0,0,0-1.76.872A4.386,4.386,0,0,0,153.24,11.609Zm8.019-.183a5.3,5.3,0,0,1,.519-2.374,3.87,3.87,0,0,1,1.444-1.627,3.932,3.932,0,0,1,2.113-.573,3.788,3.788,0,0,1,2.968,1.27,4.886,4.886,0,0,1,1.133,3.378v.108a5.351,5.351,0,0,1-.5,2.353,3.813,3.813,0,0,1-1.436,1.623,3.977,3.977,0,0,1-2.146.581,3.778,3.778,0,0,1-2.959-1.27,4.861,4.861,0,0,1-1.133-3.362Zm1.544.183a3.842,3.842,0,0,0,.693,2.4A2.349,2.349,0,0,0,167.21,14a4.2,4.2,0,0,0,.689-2.569,3.836,3.836,0,0,0-.7-2.395,2.23,2.23,0,0,0-1.864-.917,2.205,2.205,0,0,0-1.834.9A4.17,4.17,0,0,0,162.8,11.609Zm13.788,2.009a1.13,1.13,0,0,0-.469-.967,4.514,4.514,0,0,0-1.635-.594,7.731,7.731,0,0,1-1.851-.6,2.633,2.633,0,0,1-1.013-.83,1.986,1.986,0,0,1-.328-1.146,2.33,2.33,0,0,1,.934-1.868,3.647,3.647,0,0,1,2.386-.764,3.753,3.753,0,0,1,2.478.789,2.5,2.5,0,0,1,.95,2.017H176.5a1.386,1.386,0,0,0-.535-1.087,2.006,2.006,0,0,0-1.349-.457,2.1,2.1,0,0,0-1.312.365,1.15,1.15,0,0,0-.473.955.932.932,0,0,0,.44.838,5.413,5.413,0,0,0,1.59.54,8.283,8.283,0,0,1,1.864.614,2.718,2.718,0,0,1,1.058.859,2.112,2.112,0,0,1,.344,1.224,2.3,2.3,0,0,1-.963,1.93,4.039,4.039,0,0,1-2.5.726,4.523,4.523,0,0,1-1.909-.382,3.105,3.105,0,0,1-1.3-1.067,2.571,2.571,0,0,1-.469-1.482h1.536a1.59,1.59,0,0,0,.618,1.224,2.4,2.4,0,0,0,1.523.452,2.476,2.476,0,0,0,1.4-.353A1.084,1.084,0,0,0,176.59,13.618Zm10.683.133,2.092-6.732h1.644L187.4,17.386q-.838,2.241-2.665,2.241l-.291-.025-.573-.108V18.25l.415.033a2.043,2.043,0,0,0,1.216-.315,2.283,2.283,0,0,0,.718-1.154l.34-.913-3.2-8.882h1.677ZM21.581,35.426a5.3,5.3,0,0,1,.519-2.374,3.87,3.87,0,0,1,1.444-1.627,3.932,3.932,0,0,1,2.113-.573,3.788,3.788,0,0,1,2.968,1.27A4.886,4.886,0,0,1,29.758,35.5v.108a5.351,5.351,0,0,1-.5,2.353,3.813,3.813,0,0,1-1.436,1.623,3.977,3.977,0,0,1-2.146.581,3.778,3.778,0,0,1-2.959-1.27,4.861,4.861,0,0,1-1.133-3.362Zm1.544.183a3.842,3.842,0,0,0,.693,2.4A2.349,2.349,0,0,0,27.533,38a4.2,4.2,0,0,0,.689-2.569,3.836,3.836,0,0,0-.7-2.395,2.23,2.23,0,0,0-1.864-.917,2.205,2.205,0,0,0-1.834.9A4.17,4.17,0,0,0,23.125,35.609Zm16.162,0a5.34,5.34,0,0,1-.946,3.308,3.024,3.024,0,0,1-2.54,1.249,3.131,3.131,0,0,1-2.631-1.2L33.094,40H31.683V27.25h1.536v4.756a3.113,3.113,0,0,1,2.565-1.154,3.042,3.042,0,0,1,2.569,1.237,5.5,5.5,0,0,1,.934,3.387Zm-1.536-.174a4.15,4.15,0,0,0-.606-2.424,2.006,2.006,0,0,0-1.743-.855,2.255,2.255,0,0,0-2.183,1.411v3.885a2.318,2.318,0,0,0,2.2,1.411,2,2,0,0,0,1.718-.855A4.413,4.413,0,0,0,37.751,35.435Zm5.055-4.416V41.038q0,2.59-2.349,2.59a2.865,2.865,0,0,1-.938-.149V42.258a2.969,2.969,0,0,0,.7.066A1.043,1.043,0,0,0,41,42.046a1.376,1.376,0,0,0,.27-.968V31.019Zm-1.693-2.382a.921.921,0,0,1,.228-.627.839.839,0,0,1,.668-.261.87.87,0,0,1,.681.257.907.907,0,0,1,.232.631.877.877,0,0,1-.232.623.886.886,0,0,1-.681.249.859.859,0,0,1-.672-.249A.9.9,0,0,1,41.113,28.636Zm7.894,11.53a3.924,3.924,0,0,1-2.972-1.2,4.452,4.452,0,0,1-1.146-3.208v-.282a5.39,5.39,0,0,1,.51-2.386,3.982,3.982,0,0,1,1.428-1.644,3.59,3.59,0,0,1,1.988-.594,3.364,3.364,0,0,1,2.723,1.154,5,5,0,0,1,.971,3.3v.639H46.426a3.193,3.193,0,0,0,.776,2.146,2.44,2.44,0,0,0,1.888.818,2.675,2.675,0,0,0,1.378-.332,3.462,3.462,0,0,0,.988-.88l.938.73A3.772,3.772,0,0,1,49.007,40.166Zm-.191-8.052a2.048,2.048,0,0,0-1.561.677,3.288,3.288,0,0,0-.78,1.9h4.5v-.116a2.925,2.925,0,0,0-.631-1.814A1.928,1.928,0,0,0,48.816,32.114Zm7.554-3.271v2.175h1.677v1.187H56.37v5.577a1.247,1.247,0,0,0,.224.81.943.943,0,0,0,.764.27,3.718,3.718,0,0,0,.73-.1V40a4.478,4.478,0,0,1-1.179.165,1.912,1.912,0,0,1-1.552-.623,2.675,2.675,0,0,1-.523-1.768v-5.57H53.2V31.019h1.635V28.844ZM61.508,40H59.972V31.019h1.536Zm-1.66-11.364a.917.917,0,0,1,.228-.631.857.857,0,0,1,.677-.257.87.87,0,0,1,.681.257.907.907,0,0,1,.232.631.877.877,0,0,1-.232.623.886.886,0,0,1-.681.249.872.872,0,0,1-.677-.249A.886.886,0,0,1,59.848,28.636Zm7.081,9.28,2.225-6.9h1.569L67.5,40h-1.17l-3.254-8.981h1.569Zm4.74-2.49a5.3,5.3,0,0,1,.519-2.374,3.87,3.87,0,0,1,1.444-1.627,3.932,3.932,0,0,1,2.113-.573,3.788,3.788,0,0,1,2.968,1.27A4.886,4.886,0,0,1,79.844,35.5v.108a5.351,5.351,0,0,1-.5,2.353,3.813,3.813,0,0,1-1.436,1.623,3.977,3.977,0,0,1-2.146.581A3.778,3.778,0,0,1,72.8,38.9a4.861,4.861,0,0,1-1.133-3.362Zm1.544.183a3.842,3.842,0,0,0,.693,2.4A2.349,2.349,0,0,0,77.62,38a4.2,4.2,0,0,0,.689-2.569,3.836,3.836,0,0,0-.7-2.395,2.23,2.23,0,0,0-1.864-.917,2.205,2.205,0,0,0-1.834.9A4.17,4.17,0,0,0,73.212,35.609ZM87,37.618a1.131,1.131,0,0,0-.469-.967,4.514,4.514,0,0,0-1.635-.594,7.731,7.731,0,0,1-1.851-.6,2.633,2.633,0,0,1-1.013-.83,1.986,1.986,0,0,1-.328-1.146,2.33,2.33,0,0,1,.934-1.868,3.647,3.647,0,0,1,2.386-.764,3.753,3.753,0,0,1,2.478.789,2.5,2.5,0,0,1,.95,2.017H86.908a1.386,1.386,0,0,0-.535-1.087,2.006,2.006,0,0,0-1.349-.457,2.1,2.1,0,0,0-1.312.365,1.15,1.15,0,0,0-.473.955.932.932,0,0,0,.44.838,5.413,5.413,0,0,0,1.59.54,8.283,8.283,0,0,1,1.864.614,2.718,2.718,0,0,1,1.058.859,2.112,2.112,0,0,1,.344,1.224,2.3,2.3,0,0,1-.963,1.93,4.039,4.039,0,0,1-2.5.726,4.523,4.523,0,0,1-1.909-.382,3.105,3.105,0,0,1-1.3-1.067,2.571,2.571,0,0,1-.469-1.482h1.536a1.59,1.59,0,0,0,.618,1.224,2.4,2.4,0,0,0,1.523.452,2.476,2.476,0,0,0,1.4-.353A1.084,1.084,0,0,0,87,37.618Zm15.332-2.009a5.378,5.378,0,0,1-.938,3.3,3.006,3.006,0,0,1-2.54,1.253,3.294,3.294,0,0,1-2.573-1.038v4.325H94.744V31.019h1.4l.075,1a3.163,3.163,0,0,1,2.606-1.162,3.063,3.063,0,0,1,2.561,1.22,5.437,5.437,0,0,1,.942,3.4Zm-1.536-.174a3.968,3.968,0,0,0-.647-2.4,2.086,2.086,0,0,0-1.776-.88,2.257,2.257,0,0,0-2.092,1.237v4.292a2.262,2.262,0,0,0,2.108,1.229,2.076,2.076,0,0,0,1.756-.876A4.332,4.332,0,0,0,100.8,35.435ZM105.95,40h-1.536V27.25h1.536Zm8,0a3.226,3.226,0,0,1-.216-.946,3.426,3.426,0,0,1-2.557,1.112A3.17,3.17,0,0,1,109,39.415a2.43,2.43,0,0,1-.851-1.905,2.539,2.539,0,0,1,1.067-2.179,5.029,5.029,0,0,1,3-.776h1.494v-.706a1.725,1.725,0,0,0-.481-1.282,1.935,1.935,0,0,0-1.419-.477,2.239,2.239,0,0,0-1.378.415,1.223,1.223,0,0,0-.556,1h-1.544a2.119,2.119,0,0,1,.477-1.3,3.258,3.258,0,0,1,1.295-.992,4.356,4.356,0,0,1,1.8-.365,3.551,3.551,0,0,1,2.432.776,2.8,2.8,0,0,1,.913,2.137V37.9a5.054,5.054,0,0,0,.315,1.967V40ZM111.4,38.83a2.7,2.7,0,0,0,1.37-.374,2.259,2.259,0,0,0,.938-.971V35.642h-1.2q-2.822,0-2.822,1.652a1.4,1.4,0,0,0,.481,1.129A1.85,1.85,0,0,0,111.4,38.83Zm7.7-7.811.05,1.129a3.273,3.273,0,0,1,2.689-1.295q2.847,0,2.872,3.212V40h-1.536V34.057a2.068,2.068,0,0,0-.444-1.436,1.78,1.78,0,0,0-1.357-.465,2.216,2.216,0,0,0-1.312.4,2.706,2.706,0,0,0-.88,1.046V40h-1.536V31.019Zm11.654,9.147a3.924,3.924,0,0,1-2.972-1.2,4.452,4.452,0,0,1-1.146-3.208v-.282a5.39,5.39,0,0,1,.51-2.386,3.982,3.982,0,0,1,1.428-1.644,3.59,3.59,0,0,1,1.988-.594,3.364,3.364,0,0,1,2.723,1.154,5,5,0,0,1,.971,3.3v.639H128.18a3.193,3.193,0,0,0,.776,2.146,2.44,2.44,0,0,0,1.888.818,2.675,2.675,0,0,0,1.378-.332,3.462,3.462,0,0,0,.988-.88l.938.73A3.772,3.772,0,0,1,130.761,40.166Zm-.191-8.052a2.048,2.048,0,0,0-1.561.677,3.288,3.288,0,0,0-.78,1.9h4.5v-.116a2.925,2.925,0,0,0-.631-1.814A1.928,1.928,0,0,0,130.571,32.114ZM141.586,40a3.226,3.226,0,0,1-.216-.946,3.426,3.426,0,0,1-2.557,1.112,3.17,3.17,0,0,1-2.179-.751,2.43,2.43,0,0,1-.851-1.905,2.539,2.539,0,0,1,1.067-2.179,5.029,5.029,0,0,1,3-.776h1.494v-.706a1.725,1.725,0,0,0-.481-1.282,1.935,1.935,0,0,0-1.419-.477,2.239,2.239,0,0,0-1.378.415,1.223,1.223,0,0,0-.556,1h-1.544a2.119,2.119,0,0,1,.477-1.3,3.258,3.258,0,0,1,1.295-.992,4.356,4.356,0,0,1,1.8-.365,3.551,3.551,0,0,1,2.432.776,2.8,2.8,0,0,1,.913,2.137V37.9a5.054,5.054,0,0,0,.315,1.967V40Zm-2.548-1.17a2.7,2.7,0,0,0,1.37-.374,2.259,2.259,0,0,0,.938-.971V35.642h-1.2q-2.822,0-2.822,1.652a1.4,1.4,0,0,0,.481,1.129A1.85,1.85,0,0,0,139.037,38.83Zm5.877-3.4a5.261,5.261,0,0,1,.979-3.324,3.333,3.333,0,0,1,5.063-.178V27.25h1.536V40h-1.411l-.075-.963a3.127,3.127,0,0,1-2.565,1.129,3.068,3.068,0,0,1-2.544-1.278,5.321,5.321,0,0,1-.984-3.337Zm1.536.174A3.984,3.984,0,0,0,147.081,38a2.039,2.039,0,0,0,1.743.863,2.24,2.24,0,0,0,2.133-1.312V33.426a2.257,2.257,0,0,0-2.117-1.27,2.049,2.049,0,0,0-1.76.872A4.386,4.386,0,0,0,146.45,35.609Zm8.019-.183a5.3,5.3,0,0,1,.519-2.374,3.87,3.87,0,0,1,1.444-1.627,3.932,3.932,0,0,1,2.113-.573,3.788,3.788,0,0,1,2.968,1.27,4.886,4.886,0,0,1,1.133,3.378v.108a5.351,5.351,0,0,1-.5,2.353,3.813,3.813,0,0,1-1.436,1.623,3.977,3.977,0,0,1-2.146.581A3.778,3.778,0,0,1,155.6,38.9a4.861,4.861,0,0,1-1.133-3.362Zm1.544.183a3.842,3.842,0,0,0,.693,2.4A2.349,2.349,0,0,0,160.42,38a4.2,4.2,0,0,0,.689-2.569,3.836,3.836,0,0,0-.7-2.395,2.23,2.23,0,0,0-1.864-.917,2.205,2.205,0,0,0-1.834.9A4.17,4.17,0,0,0,156.012,35.609ZM169.8,37.618a1.13,1.13,0,0,0-.469-.967,4.514,4.514,0,0,0-1.635-.594,7.731,7.731,0,0,1-1.851-.6,2.633,2.633,0,0,1-1.013-.83,1.986,1.986,0,0,1-.328-1.146,2.33,2.33,0,0,1,.934-1.868,3.647,3.647,0,0,1,2.386-.764,3.753,3.753,0,0,1,2.478.789,2.5,2.5,0,0,1,.95,2.017h-1.544a1.386,1.386,0,0,0-.535-1.087,2.006,2.006,0,0,0-1.349-.457,2.1,2.1,0,0,0-1.312.365,1.15,1.15,0,0,0-.473.955.932.932,0,0,0,.44.838,5.413,5.413,0,0,0,1.59.54,8.283,8.283,0,0,1,1.864.614,2.718,2.718,0,0,1,1.058.859,2.112,2.112,0,0,1,.344,1.224,2.3,2.3,0,0,1-.963,1.93,4.039,4.039,0,0,1-2.5.726,4.523,4.523,0,0,1-1.909-.382,3.105,3.105,0,0,1-1.3-1.067,2.571,2.571,0,0,1-.469-1.482h1.536a1.59,1.59,0,0,0,.618,1.224,2.4,2.4,0,0,0,1.523.452,2.476,2.476,0,0,0,1.4-.353A1.084,1.084,0,0,0,169.8,37.618Z" transform="translate(677.5 985.148)" fill="#12263f"/>
    <g id="Grupo_874684" data-name="Grupo 874684" transform="translate(-409 -6480.676)">
      <path id="Trazado_596828" data-name="Trazado 596828" d="M-7577-4618.648V-4641.1" transform="translate(8760 11785)" fill="none" stroke="#f3ab1d" stroke-width="2"/>
    </g>
    <g id="Grupo_874691" data-name="Grupo 874691" transform="translate(-224 -6508.9)">
      <path id="Trazado_596828-2" data-name="Trazado 596828" d="M-7539.322-4176.657v-464.437" transform="translate(8722.322 11784.994)" fill="none" stroke="#f3ab1d" stroke-linecap="round" stroke-width="2"/>
    </g>
    <g id="Grupo_874689" data-name="Grupo 874689" transform="translate(959 635) rotate(90)">
      <path id="Trazado_596828-3" data-name="Trazado 596828" d="M0,36.755V0" transform="translate(0 0)" fill="none" stroke="#f3ab1d" stroke-width="2"/>
    </g>
    <g id="Grupo_874690" data-name="Grupo 874690" transform="translate(959 719.225) rotate(90)">
      <path id="Trazado_596828-4" data-name="Trazado 596828" d="M0,38.648V0" transform="translate(0 0)" fill="none" stroke="#f3ab1d" stroke-width="2"/>
    </g>
    <g id="Grupo_874685" data-name="Grupo 874685" transform="translate(-409 -6396.676)">
      <path id="Trazado_596828-5" data-name="Trazado 596828" d="M-7577-4618.648V-4641.1" transform="translate(8760 11785)" fill="none" stroke="#f3ab1d" stroke-width="2"/>
    </g>
    <g id="Grupo_874686" data-name="Grupo 874686" transform="translate(-409 -6311.795)">
      <path id="Trazado_596828-6" data-name="Trazado 596828" d="M-7577-4618.648V-4641.1" transform="translate(8760 11785)" fill="none" stroke="#f3ab1d" stroke-width="2"/>
    </g>
    <g id="Grupo_874687" data-name="Grupo 874687" transform="translate(-409 -6225.199)">
      <path id="Trazado_596828-7" data-name="Trazado 596828" d="M-7577-4623.244V-4641.1" transform="translate(8760 11785)" fill="none" stroke="#f3ab1d" stroke-width="2"/>
    </g>
    <g id="Grupo_874688" data-name="Grupo 874688" transform="translate(-409 -6070.49)">
      <path id="Trazado_596828-8" data-name="Trazado 596828" d="M-7577-4622.953V-4641.1" transform="translate(8760 11785)" fill="none" stroke="#f3ab1d" stroke-width="2"/>
    </g>
    <path id="Polígono_5" data-name="Polígono 5" d="M6,0l6,9H0Z" transform="translate(780 690.344) rotate(180)" fill="#f3ab1d"/>
    <path id="Polígono_11" data-name="Polígono 11" d="M6,0l6,9H0Z" transform="translate(914.44 641) rotate(-90)" fill="#f3ab1d"/>
    <path id="Polígono_12" data-name="Polígono 12" d="M6,0l6,9H0Z" transform="translate(914.44 725.225) rotate(-90)" fill="#f3ab1d"/>
    <path id="Polígono_6" data-name="Polígono 6" d="M6,0l6,9H0Z" transform="translate(780 774.344) rotate(180)" fill="#f3ab1d"/>
    <path id="Polígono_7" data-name="Polígono 7" d="M6,0l6,9H0Z" transform="translate(780 859.225) rotate(180)" fill="#f3ab1d"/>
    <path id="Polígono_9" data-name="Polígono 9" d="M6,0l6,9H0Z" transform="translate(748 842.557) rotate(90)" fill="#f3ab1d"/>
    <path id="Polígono_8" data-name="Polígono 8" d="M6,0l6,9H0Z" transform="translate(780 941.225) rotate(180)" fill="#f3ab1d"/>
    <path id="Polígono_10" data-name="Polígono 10" d="M6,0l6,9H0Z" transform="translate(780 1096.225) rotate(180)" fill="#f3ab1d"/>
    <path id="Trazado_596870" data-name="Trazado 596870" d="M-3283-10656.788h185" transform="translate(4057 11756.225)" fill="none" stroke="#f3ab1d" stroke-width="2"/>
  </g>
</svg>
