<svg xmlns="http://www.w3.org/2000/svg" width="256.294" height="256.31" viewBox="0 0 256.294 256.31">
  <g id="Wildfires" transform="translate(-335.061 -335)">
    <ellipse id="Elipse_5160" data-name="Elipse 5160" cx="128.086" cy="128.119" rx="128.086" ry="128.119" transform="translate(335.061 335)" fill="#f2e6dc"/>
    <path id="Trazado_626951" data-name="Trazado 626951" d="M1190.965,1771.228a.313.313,0,0,1-.116-.023l-9.258-3.771a.309.309,0,0,1-.17-.4l1.7-4.184a19.108,19.108,0,0,1-3.072-3.036l-4.164,1.753a.308.308,0,0,1-.4-.165l-3.88-9.213a.309.309,0,0,1,.165-.405l4.164-1.753a19.1,19.1,0,0,1-.025-4.319l-4.184-1.7a.309.309,0,0,1-.17-.4l3.771-9.258a.31.31,0,0,1,.4-.17l4.184,1.7a19.1,19.1,0,0,1,3.036-3.072l-1.753-4.163a.309.309,0,0,1,.165-.4l9.213-3.88a.31.31,0,0,1,.4.165l1.753,4.163a19.1,19.1,0,0,1,4.319-.025l1.7-4.185a.31.31,0,0,1,.4-.17l9.258,3.771a.309.309,0,0,1,.17.4l-1.7,4.184a19.086,19.086,0,0,1,3.072,3.035l4.164-1.753a.309.309,0,0,1,.236,0,.313.313,0,0,1,.168.167l3.88,9.213a.309.309,0,0,1-.165.405l-4.163,1.753a19.125,19.125,0,0,1,.025,4.319l4.184,1.7a.309.309,0,0,1,.17.4l-3.771,9.258a.309.309,0,0,1-.4.17l-4.185-1.7a19.1,19.1,0,0,1-3.035,3.072l1.753,4.163a.309.309,0,0,1-.165.4l-9.213,3.88a.31.31,0,0,1-.4-.165l-1.753-4.163a19.124,19.124,0,0,1-4.319.024l-1.7,4.184a.309.309,0,0,1-.286.192Zm-8.855-4.25,8.686,3.538,1.676-4.115a.307.307,0,0,1,.323-.19,18.484,18.484,0,0,0,4.633-.026.31.31,0,0,1,.325.186l1.724,4.095,8.643-3.64-1.724-4.094a.31.31,0,0,1,.094-.363,18.491,18.491,0,0,0,3.257-3.3.31.31,0,0,1,.362-.1l4.115,1.677,3.538-8.686-4.115-1.676a.309.309,0,0,1-.19-.323,18.485,18.485,0,0,0-.026-4.633.309.309,0,0,1,.187-.325l4.094-1.725-3.64-8.643-4.095,1.724a.308.308,0,0,1-.363-.094,18.476,18.476,0,0,0-3.3-3.256.309.309,0,0,1-.1-.362l1.676-4.115-8.686-3.538-1.677,4.115a.305.305,0,0,1-.323.19,18.512,18.512,0,0,0-4.633.026.308.308,0,0,1-.325-.186l-1.724-4.095-8.644,3.64,1.724,4.095a.309.309,0,0,1-.094.363,18.5,18.5,0,0,0-3.256,3.3.31.31,0,0,1-.362.1l-4.115-1.677-3.538,8.686,4.115,1.676a.31.31,0,0,1,.19.323,18.472,18.472,0,0,0,.026,4.633.309.309,0,0,1-.186.325l-4.094,1.724,3.64,8.643,4.094-1.724a.309.309,0,0,1,.363.094,18.5,18.5,0,0,0,3.3,3.256.31.31,0,0,1,.1.362Zm12.908-8.507a10.714,10.714,0,1,1,4.143-.84A10.731,10.731,0,0,1,1195.018,1758.471Zm-.028-20.81a10.1,10.1,0,1,0,9.318,6.178A10.039,10.039,0,0,0,1194.99,1737.661Zm4.052,19.685h0Z" transform="translate(-719.314 -1194.701)" fill="#d3bba3"/>
    <g id="Grupo_990920" data-name="Grupo 990920" transform="translate(436.226 367.387)">
      <g id="Grupo_990912" data-name="Grupo 990912" transform="translate(8.757)">
        <path id="Trazado_626952" data-name="Trazado 626952" d="M1255.718,654.721a31.683,31.683,0,0,0,6.826-11.414c4.909-13.494,2.486-35.065,2.486-35.065s-1.434,5.093-9.467,8.5c-4.913,2.083-3.188,3.763-4.017,2.725-5.635-7.058,8.827-21.912,8.827-21.912a27.8,27.8,0,0,0-11.346-1.6,17.888,17.888,0,0,0-7.9,2.979s-1.721-5.936-1.027-9.883c.3-1.7,3.345-10.565-4.776-17.911,0,0,.84,5.7-1.237,7.28-1.907,1.451-4.73,2.472-6.409,3.6-7.192,4.829-8.735,8.284-8.735,8.284s3.842-4.5-7.74-14.7c-8.561-7.54-22.85-9.191-22.85-9.191s12.109,4.532,1.505,18.452c0,0-1.615-7.336-8.023-9.672-3.693-1.346-8.8-4.087-8.607-8.953,0,0-13.774,12.272-7.716,28.1,0,0-5.987,1.325-12.374-6.352-5.4-6.489-3.805-11.9-3.805-11.9s-10.26,13.61-6,23.362c3.239,7.419,4.646,12.334,1.911,15.522-3.236,3.772-15.171-3.974-17.848-9.164-.421-.816-1.913-3.374-1.913-3.374s-4.8,19.244,5.747,26.042c0,0-.877-.663-4.1-.2-3.584.517-7.237-3.915-7.237-3.915S1118.735,649.448,1139,651.8,1255.718,654.721,1255.718,654.721Z" transform="translate(-1119.875 -566.234)" fill="#d87355"/>
        <path id="Trazado_626953" data-name="Trazado 626953" d="M1270.43,737.519a46.553,46.553,0,0,0,9.562-16.025c1.62-4.656,1.475-18.475,1.475-18.475a31.8,31.8,0,0,1-12.219,4.837c-12.639,1.768-8.973-9.341-7.528-14.838,1.133-4.31-.013-12.943-7.46-22.8,0,0,.243,11.123-9.329,10.824-4.349-.135-6.058,5.012-7.193,6.8-.305.482-1.217,1.783-4.608-2.279-3.632-4.349,1.932-9.485-.22-17.636-.923-3.5-7.227-9.418-7.227-9.418s7.489,7.825-2.536,14.391c-4.285,2.807-5.215,1.6-6.213,6.8-.159.828-1.69,1.912-2.921-.7a6.29,6.29,0,0,1,1.339-6.672s-6.834,1.56-6.366,8.225c.121,1.715,1.047,4.131.645,3.644-1.4-1.7-1.725-2.261-5.865-3.835-7.338-2.789-1.413-10.847-1.04-13.159,0,0-15.468,9.671-8.658,24.148,0,0-4.695.6-8.965-5.763a35.824,35.824,0,0,1-4.734-9.583s-5.474,7.184-3.006,15c1.878,5.947,1.151,7.789-1.736,6.314-8.523-4.356-6.867,4.654-15.172,3.665-4.215-.5-8.065-6.2-8.288-6.617,0,0-.144,4.59,1.912,7.7,3.967,6.009,5.835,11.285,1.865,11.434a12.357,12.357,0,0,1-9.85-4.087s4.939,22.945,20.273,26.177S1270.43,737.519,1270.43,737.519Z" transform="translate(-1142.423 -645.59)" fill="#efbc73"/>
      </g>
      <g id="Grupo_990914" data-name="Grupo 990914" transform="translate(0 38.718)">
        <path id="Trazado_626954" data-name="Trazado 626954" d="M1199.258,916.162s6.006,28.74.1,40.2a75.181,75.181,0,0,1-137.851-59.092c3.229-9.278,21.486-16.007,21.486-16.007s5.012-20.449,12.216-24.575a75.26,75.26,0,0,1,70.91-1.971c3.97,1.99,8.919,10.582,8.919,10.582s7.7.652,10.143,3.048a75.314,75.314,0,0,1,13.09,17.2C1203.624,895.2,1199.258,916.162,1199.258,916.162Z" transform="translate(-1057.352 -846.218)" fill="#d3bba3"/>
        <path id="Trazado_626955" data-name="Trazado 626955" d="M1142.809,933.2c-2.071,1.422-.7,4.717-2.77,6.05-3.548,2.287-13.742-3.431-13.449-8.183.318-5.143,12.974-9.994,17.883-6.324,3.16,2.362,1.843,7.308,4.83,8.381,2.533.909,6.721-1.483,7.453-4.776.967-4.35-4.647-7.774-5.12-8.054-5.672-3.358-13.062-.9-15.782.008-5.875,1.956-7.093,4.386-9.993,3.689-3.064-.736-3.879-3.967-5.119-6.516a75.441,75.441,0,0,0-33.7,40.58c2.9,3.64,7.233,4.448,9.824,10.989,1.363,3.44.477,6.454,3.017,8.215,2.586,1.793,7.61-.766,9.718,1.25,1.25,1.2.848,2.289,1.945,6.695,1.058,4.252,1.587,6.378,2.925,7.565,3.858,3.424,12.647.112,12.607-1.367-.027-.979-3.9-.458-5.444-3.082-1.606-2.737,1.318-5.508-.168-8.039-1.63-2.777-6.122-1.1-7.639-3.571-1.566-2.546.793-8.275,4.928-10.818,6.065-3.73,10.917,2.489,17-.39,7.567-3.582,4.609-15.369,13.648-20.313,4.558-2.493,8.257-1.108,8.8-3C1159.217,938.619,1146.919,930.381,1142.809,933.2Z" transform="translate(-1082.884 -907)" fill="#f7f1eb"/>
        <path id="Trazado_626956" data-name="Trazado 626956" d="M1387.944,1397.69a18.7,18.7,0,0,1,11.4-1.073,19.668,19.668,0,0,1,8.261,3.4c5.3,3.864,4.022,7.4,8.446,9.974,4.782,2.778,9.723.643,10.648,2.969.5,1.259-.928,1.934-1.992,5.028-1.887,5.491.6,9.225-1.644,10.9a10.1,10.1,0,0,1-3.855,1.211,15.58,15.58,0,0,1-.323,5.584c-.52,1.719-1.188,1.7-2.7,4.089-2.121,3.339-1.423,4.327-2.979,6.531-2.328,3.3-4.8,2.366-6.178,4.6-2.916,4.7,5.785,12.518,3.538,15.5-1.7,2.261-9.287,1.225-12.841-3.166-2.506-3.1-.92-5.283-2.744-13.149a67.888,67.888,0,0,0-5.2-14.094c-2.831-5.784-4.832-7.873-4.365-11.7.4-3.293,2.145-3.882,1.771-6.26-.71-4.528-7.363-4.519-8.368-8.669S1383.2,1399.879,1387.944,1397.69Z" transform="translate(-1333.689 -1318.657)" fill="#f7f1eb"/>
        <path id="Trazado_626957" data-name="Trazado 626957" d="M1825.2,1112.26c-10.594-1.892-13.352-2.482-17.818-.968-3.862,1.309-6.9,3.509-12.965,7.909-5.786,4.2-6.748,5.894-7.158,6.724-2.328,4.72.6,9.335,2.276,14.7,1.459,4.684,1.672,10.169,5.122,10.9,1.654.35,2.461-.577,7.382-2.958,6.284-3.041,9.427-4.562,10.7-3.575,2.544,1.965-4.645,10.591-1.123,16.446,2.357,3.917,7.281,2.893,9.258,7.43,1.347,3.092-.426,4.748.472,7.951a12.068,12.068,0,0,0,4.937,6.258,75.3,75.3,0,0,0-1.085-70.816Z" transform="translate(-1684.287 -1072.93)" fill="#f7f1eb"/>
        <g id="Grupo_990913" data-name="Grupo 990913" transform="translate(4.194)">
          <path id="Trazado_626958" data-name="Trazado 626958" d="M1162.675,993.654a75.558,75.558,0,1,1,4.13-.111C1165.426,993.618,1164.046,993.654,1162.675,993.654Zm.133-150.362c-1.345,0-2.691.036-4.049.109a74.818,74.818,0,1,0,4.049-.109Z" transform="translate(-1087.298 -842.672)" fill="#363e44"/>
        </g>
        <path id="Trazado_626959" data-name="Trazado 626959" d="M1755.6,917.021a75.477,75.477,0,0,0-19.062-13.629,9.035,9.035,0,0,0,.735,5.886c1.293,2.272,3.747,3.045,3.67,5.242-.076,2.166-2.558,4.121-4.747,4.9-3.735,1.331-6.288-.873-7.531.447-1.866,1.982,2.935,7.965,1.015,10.019-1.257,1.345-3.8-.7-6.251.791-2.323,1.416-3.652,5.45-2.038,8.1,1.254,2.061,3.969,2.763,6.031,2.582,1.73-.152,4.013-1.016,9.987-8.572,5.52-6.982,6.214-9.588,8.657-9.753,4.106-.277,7.587,6.713,8.347,6.224.706-.454-3.734-5.558-2.638-9.083C1752.243,918.686,1753.633,917.69,1755.6,917.021Z" transform="translate(-1627.778 -894.888)" fill="#f7f1eb"/>
      </g>
      <g id="Grupo_990918" data-name="Grupo 990918" transform="translate(38.194 46.146)">
        <g id="Grupo_990916" data-name="Grupo 990916">
          <path id="Trazado_626960" data-name="Trazado 626960" d="M1379.86,909.881a8.273,8.273,0,0,0-12.75-10.43,10.2,10.2,0,0,0-17.333,2.59c-.109,0-.217-.005-.327,0a8.276,8.276,0,0,0-7.659,5.44,11.457,11.457,0,0,0-2.831-.313c-6.32.088-8.534,5.584-8.9,11.071-.2,3.053,2.286,11.283,8.079,11.774a11.442,11.442,0,0,0,18.837,4.711,8.273,8.273,0,0,0,16.357-1.624,12.177,12.177,0,1,0,6.526-23.215Z" transform="translate(-1330.05 -895.709)" fill="#8b865c"/>
          <g id="Grupo_990915" data-name="Grupo 990915" transform="translate(3.813 5.041)">
            <path id="Trazado_626961" data-name="Trazado 626961" d="M1361.391,1015.9a4.215,4.215,0,0,1-2.152-.535,4.919,4.919,0,0,1-1.954-2.757.309.309,0,0,1,.224-.376,4.169,4.169,0,0,1,5.308,3.161.31.31,0,0,1-.225.376A5.346,5.346,0,0,1,1361.391,1015.9Zm-3.4-3.127a3.456,3.456,0,1,0,2.559.4A4.1,4.1,0,0,0,1357.989,1012.772Z" transform="translate(-1357.275 -1000.84)" fill="#e2a18d"/>
            <path id="Trazado_626962" data-name="Trazado 626962" d="M1473.016,942.013a4.839,4.839,0,0,1-2.805-.826,5.062,5.062,0,0,1-1.725-2.851.309.309,0,0,1,.27-.365,4.371,4.371,0,0,1,4.958,3.658.309.309,0,0,1-.27.365A4.082,4.082,0,0,1,1473.016,942.013Zm-3.829-3.441a3.652,3.652,0,1,0,2.434.7A4.254,4.254,0,0,0,1469.187,938.572Z" transform="translate(-1452.904 -937.076)" fill="#e2a18d"/>
            <path id="Trazado_626963" data-name="Trazado 626963" d="M1465.782,1062.265a.311.311,0,0,1-.188-.064,4.372,4.372,0,0,1-1.034-6.074.31.31,0,0,1,.448-.076,4.372,4.372,0,0,1,1.034,6.074.309.309,0,0,1-.207.136A.315.315,0,0,1,1465.782,1062.265Zm-.88-5.483a3.653,3.653,0,1,0,1.265,2.2A4.253,4.253,0,0,0,1464.9,1056.782Z" transform="translate(-1448.857 -1038.578)" fill="#e2a18d"/>
            <path id="Trazado_626964" data-name="Trazado 626964" d="M1559.124,1009.118a.313.313,0,0,1-.045,0,.308.308,0,0,1-.21-.132,4.371,4.371,0,0,1,.909-6.094.312.312,0,0,1,.239-.065.308.308,0,0,1,.21.132,4.371,4.371,0,0,1-.909,6.094A.308.308,0,0,1,1559.124,1009.118Zm.774-5.5a3.652,3.652,0,1,0,.519,2.48A4.255,4.255,0,0,0,1559.9,1003.62Z" transform="translate(-1529.91 -992.86)" fill="#e2a18d"/>
            <path id="Trazado_626965" data-name="Trazado 626965" d="M1717.847,1060.658a3.877,3.877,0,0,1-1.077-.146,5.062,5.062,0,0,1-2.608-2.074.309.309,0,0,1,.126-.436,4.371,4.371,0,0,1,5.92,1.708.309.309,0,0,1-.126.436A5.472,5.472,0,0,1,1717.847,1060.658Zm-2.946-2.245a3.654,3.654,0,1,0,2.527-.185A4.253,4.253,0,0,0,1714.9,1058.414Z" transform="translate(-1664.138 -1039.87)" fill="#e2a18d"/>
            <path id="Trazado_626966" data-name="Trazado 626966" d="M1364.649,1148.154a3.629,3.629,0,0,1-.378-.02,5.063,5.063,0,0,1-2.931-1.585.31.31,0,0,1,.047-.451,4.371,4.371,0,0,1,6.128.644.31.31,0,0,1-.047.452A5.239,5.239,0,0,1,1364.649,1148.154Zm-2.585-1.757a3.654,3.654,0,1,0,2.456-.625A4.257,4.257,0,0,0,1362.064,1146.4Z" transform="translate(-1360.705 -1115.243)" fill="#e2a18d"/>
            <path id="Trazado_626967" data-name="Trazado 626967" d="M1491.715,1149a5.41,5.41,0,0,1-2.451-.65.31.31,0,0,1-.1-.443,4.371,4.371,0,0,1,6.01-1.359.31.31,0,0,1,.1.443,5.066,5.066,0,0,1-2.725,1.918A3.781,3.781,0,0,1,1491.715,1149Zm-1.814-1.026a3.652,3.652,0,1,0,2.124-1.381A4.253,4.253,0,0,0,1489.9,1147.974Z" transform="translate(-1470.645 -1115.898)" fill="#e2a18d"/>
            <path id="Trazado_626968" data-name="Trazado 626968" d="M1620.962,934.815a5.426,5.426,0,0,1-2.4-.615.309.309,0,0,1-.106-.441,4.372,4.372,0,0,1,5.99-1.445.309.309,0,0,1,.107.441,5.064,5.064,0,0,1-2.7,1.957A3.811,3.811,0,0,1,1620.962,934.815Zm-1.768-1a3.652,3.652,0,1,0,2.1-1.412A4.255,4.255,0,0,0,1619.193,933.814Z" transform="translate(-1581.83 -931.699)" fill="#e2a18d"/>
          </g>
        </g>
        <g id="Grupo_990917" data-name="Grupo 990917" transform="translate(8.671 23.498)">
          <path id="Trazado_626969" data-name="Trazado 626969" d="M1455.644,1153.721a32.138,32.138,0,0,1-12.53-11.965c-8.658-14.451-4.209-33.472,1.926-43.559-5.123,5.708-9.714,16.972-9.111,27.961.776,14.149,5.395,19.612,5.045,23.037-.269,2.635-5.138,5.086-5.045,5.668S1440.219,1155.506,1455.644,1153.721Z" transform="translate(-1429.725 -1093.333)" fill="#84524d"/>
          <path id="Trazado_626970" data-name="Trazado 626970" d="M1391.96,1063.478a23.242,23.242,0,0,0,4.547,6.239,22.05,22.05,0,0,0,7.246,4.71q-.179,1.111-.359,2.223a20.407,20.407,0,0,1-6.788-4.939A21.777,21.777,0,0,1,1391.96,1063.478Z" transform="translate(-1391.96 -1063.478)" fill="#84524d"/>
        </g>
      </g>
      <g id="Grupo_990919" data-name="Grupo 990919" transform="translate(77.026 68.795)">
        <path id="Trazado_626971" data-name="Trazado 626971" d="M1778.075,1374.441l.582,6.232.537,9.065a3.074,3.074,0,0,1-.267,1.444l-1.683,3.747,3.407,1.168,3.241-6.076-1.413-16.593Z" transform="translate(-1753.442 -1329.168)" fill="#2d353a"/>
        <path id="Trazado_626972" data-name="Trazado 626972" d="M1945.144,1371.761c3.055,2.231,5.888,4.273,7.977,5.687l.92,9.021a4.015,4.015,0,0,1-.825,2.857l-.51.664.582.7,2.825.779,2.243-3.9.333-13.321-10.387-6.388Z" transform="translate(-1897.826 -1324.384)" fill="#2d353a"/>
        <path id="Trazado_626973" data-name="Trazado 626973" d="M1760.425,1209.9l4.653.935,10.8,1.948,6.232,1.636,5.235,1.87a15.849,15.849,0,0,1,4.654,7.089c.529,1.718.32,5.182-.582,10.283l-12.714,2.259a53.687,53.687,0,0,1-12.464.389l-6.482-.234-7.562.7c-1.633-2.54-1.94-6.917-2.077-11.53l-4.321-5.142,5.561-6.569Z" transform="translate(-1726.402 -1188.546)" fill="#40484c"/>
        <path id="Trazado_626974" data-name="Trazado 626974" d="M1783.177,1368.979l1,4.479.748,2.61.748,2.259.5,9.271-1.745,4.44,1.911,1.168,4.82.39a4.441,4.441,0,0,0,1.828-1.013l-1.08-2.96c.125-.716.307-4.494.5-8.8l1-4.285,2.992-7.167Z" transform="translate(-1758.543 -1325.341)" fill="#40484c"/>
        <path id="Trazado_626975" data-name="Trazado 626975" d="M1977.492,1322.7l.455.757a43.2,43.2,0,0,0,5.787,6.743,2.9,2.9,0,0,1,.9,2l.214,7.3a6.948,6.948,0,0,0-1.579,2.493l.166,1.48,3.158,1.168,4.736-.312,1.5-1.013-1.08-2.571-.407-.954a7.87,7.87,0,0,1-.631-2.872l-.291-10.43a89.322,89.322,0,0,0,.831-14.8Z" transform="translate(-1925.643 -1276.075)" fill="#40484c"/>
        <path id="Trazado_626976" data-name="Trazado 626976" d="M1619.138,1075.58l4.134-2.006a5.686,5.686,0,0,1,3.22-1.479l.784-.093,1,.153a6.813,6.813,0,0,1,2.221-.71,5.612,5.612,0,0,1,3.183.474l1.994,1.246,3.407,3.116-6.938,6.544-.208,2.181v1.714l-1.828,1.247-1.163,1.246-.1.305c-.242.729-2.693.973-5.608.338a3.012,3.012,0,0,1-1.858-1.344c-.972.476-.717.629-1.538.765-1.182-.073-1.117-.582-.978-.965.156-.47.374-.732,1.353-1.125,1.316-.749,1.878-1.5,1.5-2.259-.387-.918-1.271-.808-2.078-.857l-5.4-1.558a13.849,13.849,0,0,1-5.762-3.414,5.476,5.476,0,0,1-1.163-3.741,6.972,6.972,0,0,1,2.814-5.935,13.077,13.077,0,0,1,4.5-2.235,2.416,2.416,0,0,0,1.313-.85c1.142-1.5,1.775-2.931,1.422-4.218a1.951,1.951,0,0,0-1.2-1.27,7.162,7.162,0,0,0-5-.226,2.4,2.4,0,0,1-1.167-.722,1.23,1.23,0,0,1,.648-1.917,12.878,12.878,0,0,1,6-.4,7,7,0,0,1,3.324,2.181c1.853,2.93,2.084,5.395.389,7.565-.875.868-2.267,2.387-4.128,4.043a5.3,5.3,0,0,0-1.693,1.825,1.105,1.105,0,0,0,.827,1.527Z" transform="translate(-1607.301 -1057.416)" fill="#40484c"/>
        <path id="Trazado_626977" data-name="Trazado 626977" d="M1737.5,1196.263c1.08,1.421,2.273,1.651,3.574.76A3.2,3.2,0,0,0,1737.5,1196.263Z" transform="translate(-1719.262 -1176.599)" fill="#2d353a"/>
        <path id="Trazado_626978" data-name="Trazado 626978" d="M1780.3,1166.6l3.78-1.609c1.49-.3,3.123,1.793,4.578,2.188a11.83,11.83,0,0,1,.738,3.977l-.184,3.717a11.513,11.513,0,0,1-2.766,4.495,11.671,11.671,0,0,1-7.653,1.9l-2.305-6.57-2.213-.778C1778.506,1172.136,1779.832,1169.62,1780.3,1166.6Z" transform="translate(-1750.891 -1149.898)" fill="#40484c"/>
        <path id="Trazado_626979" data-name="Trazado 626979" d="M2079.222,1444.341l-1.368,1.971a2.043,2.043,0,0,0-.358.96,2.47,2.47,0,0,0,.68,1.952l.536.565a7.813,7.813,0,0,1-.083,2.882c.375-.1.793-1.2,1.247-3.194l-.333-1.714a2.745,2.745,0,0,0,.333-2.571Z" transform="translate(-2011.63 -1390.148)" fill="#40484c"/>
        <path id="Trazado_626980" data-name="Trazado 626980" d="M2069.045,1320.312h0a.309.309,0,0,1-.309-.31c.02-12.48-.444-19.564-2.95-21.256a.309.309,0,1,1,.346-.512c2.751,1.857,3.244,8.788,3.223,21.769A.309.309,0,0,1,2069.045,1320.312Z" transform="translate(-2001.452 -1264.459)" fill="#363e44"/>
        <path id="Trazado_626981" data-name="Trazado 626981" d="M1807.415,1232.547c1.416,3.01,2.82,7.045,4.27,7.187.917.479,3.756-4,5.814-6.946-.978,4-2.789,8.863-4.064,9.454a3.339,3.339,0,0,1-2.881.241C1808.829,1240.558,1808.024,1236.752,1807.415,1232.547Z" transform="translate(-1779.387 -1208.018)" fill="#2d353a"/>
        <path id="Trazado_626982" data-name="Trazado 626982" d="M1691.337,1250.647l1.132-1.206a2.315,2.315,0,0,0,.514-2.749,2.719,2.719,0,0,1,2.47.675l-.515,1.351C1693.284,1250.084,1691.9,1251.027,1691.337,1250.647Z" transform="translate(-1679.567 -1220.138)" fill="#2d353a"/>
        <path id="Trazado_626983" data-name="Trazado 626983" d="M1629.772,1227.934c3.619.663,7.233,1.358,11.166-.507,1.078.925,1.256,1.891.456,2.9C1636.531,1231.88,1633.023,1230.213,1629.772,1227.934Z" transform="translate(-1626.625 -1203.615)" fill="#fff"/>
      </g>
    </g>
    <g id="Grupo_990931" data-name="Grupo 990931" transform="translate(335.09 428.982)">
      <g id="Grupo_990921" data-name="Grupo 990921" transform="translate(31.165 108.905)">
        <path id="Trazado_626984" data-name="Trazado 626984" d="M557.778,1836.991l14.117-53.423,52.138,1.053,11.914,52.316-34.312.027-3.8-14.263-3.071,14.235Z" transform="translate(-557.778 -1783.568)" fill="#363e44"/>
      </g>
      <g id="Grupo_990926" data-name="Grupo 990926" transform="translate(0)">
        <path id="Trazado_626985" data-name="Trazado 626985" d="M389.486,1396.295c-10.527-2.522-40.131-10.954-43.829,1.657-3.059,10.431,26.156,17.338,36.447,20.52Z" transform="translate(-344.009 -1337.244)" fill="#bc8271"/>
        <path id="Trazado_626986" data-name="Trazado 626986" d="M1024.531,1403.913c10.527-2.522,43.409-13.532,47.107-.922,3.058,10.431-31.483,19.51-41.775,22.692C1027.4,1418.291,1026.992,1411.305,1024.531,1403.913Z" transform="translate(-927.992 -1342.284)" fill="#bc8271"/>
        <path id="Trazado_626987" data-name="Trazado 626987" d="M534.82,1296.819s14.47-11.794,41.819-13.514c27.807-1.749,47.23,16.265,47.23,16.265l-2.751,28.021-9.567-.042,2.2,51.677-70.837-2.794,3.4-49.529-8.4-1.2Z" transform="translate(-506.87 -1244.364)" fill="#efbc73"/>
        <g id="Grupo_990923" data-name="Grupo 990923" transform="translate(0 0.579)">
          <path id="Trazado_626988" data-name="Trazado 626988" d="M388.051,1021.629c-.279-4.927,2.354-7.86,1.346-8.616-.7-.526-2.006.3-3.836,2.818,1.171-2.073,2.635-4.953,1.488-5.6-1.364-.672-3.483,2.51-4.67,4.5,1.437-2.406,1.477-4.065.748-4.265-1.148-.314-2.7,1.265-4.478,4.595.623-2.414.363-3.356-.324-3.375-1.255-.035-2.676,2.652-3.557,5.232a15.61,15.61,0,0,0-.574,7.119c-6.921,7.505-34.426,33.682-37.7,39.85a9.433,9.433,0,0,0,3.609,12.954c4.185,2.337,7.533,3.264,7.307,3.395,8.913-3.791,9.65-5.372,13.1-8.566,1.243-1.152,2.6-4.334,1.62-5.025l3.058-3.6c11.724-15.3,20.335-25.939,22.864-29.326a7.792,7.792,0,0,0,1.1-1.925C390.516,1028.285,388.3,1025.971,388.051,1021.629Z" transform="translate(-335.266 -1010.143)" fill="#bc8271"/>
          <path id="Trazado_626989" data-name="Trazado 626989" d="M707.118,1096.661c3.211-3.679,5.149-4.325,5.716-3.8.953.887-.5,5.15-4.519,11.118C707.8,1101.971,707.634,1098.67,707.118,1096.661Z" transform="translate(-655.036 -1081.139)" fill="#bc8271"/>
          <path id="Trazado_626990" data-name="Trazado 626990" d="M500.834,1365.467a.309.309,0,0,1-.245-.5c.811-1.058,3.038-3.821,5.192-6.493,1.976-2.451,4.019-4.986,4.847-6.055a.309.309,0,1,1,.489.379c-.831,1.073-2.785,3.5-4.854,6.064-2.151,2.669-4.376,5.429-5.182,6.481A.309.309,0,0,1,500.834,1365.467Z" transform="translate(-477.379 -1304.38)" fill="#363e44"/>
          <g id="Grupo_990922" data-name="Grupo 990922" transform="translate(42.174 4.103)">
            <path id="Trazado_626991" data-name="Trazado 626991" d="M653.238,1097.94a.309.309,0,0,1-.233-.513,5.958,5.958,0,0,0,1.431-3.114,6.134,6.134,0,0,0-1.023-4.218.309.309,0,1,1,.51-.35,6.763,6.763,0,0,1,1.126,4.652,6.575,6.575,0,0,1-1.578,3.437A.309.309,0,0,1,653.238,1097.94Z" transform="translate(-650.61 -1082.584)" fill="#363e44"/>
            <path id="Trazado_626992" data-name="Trazado 626992" d="M713.281,1115.8a.309.309,0,0,1-.309-.3,13.532,13.532,0,0,0-.651-3.133c-.151-.522-.307-1.061-.447-1.637a.309.309,0,1,1,.6-.146c.137.563.291,1.1.44,1.612a13.962,13.962,0,0,1,.675,3.278.309.309,0,0,1-.3.322Z" transform="translate(-701.292 -1100.42)" fill="#363e44"/>
            <path id="Trazado_626993" data-name="Trazado 626993" d="M686.448,1054.319a.309.309,0,0,1-.309-.3,9.952,9.952,0,0,1,.931-4.37.309.309,0,0,1,.561.261,9.333,9.333,0,0,0-.874,4.1.31.31,0,0,1-.3.314Z" transform="translate(-679.168 -1048.061)" fill="#363e44"/>
            <path id="Trazado_626994" data-name="Trazado 626994" d="M665.135,1044.29a.309.309,0,0,1-.309-.3,9.955,9.955,0,0,1,.932-4.371.309.309,0,1,1,.56.261,9.331,9.331,0,0,0-.874,4.1.309.309,0,0,1-.3.314Z" transform="translate(-660.841 -1039.437)" fill="#363e44"/>
            <path id="Trazado_626995" data-name="Trazado 626995" d="M636.688,1047.725a.309.309,0,0,1-.309-.3,9.951,9.951,0,0,1,.931-4.371.309.309,0,0,1,.561.261,9.327,9.327,0,0,0-.874,4.1.31.31,0,0,1-.3.314Z" transform="translate(-636.378 -1042.391)" fill="#363e44"/>
          </g>
        </g>
        <g id="Grupo_990925" data-name="Grupo 990925" transform="translate(89.243)">
          <path id="Trazado_626996" data-name="Trazado 626996" d="M997.915,1017.374c.618-4.9-1.806-8-.749-8.688.736-.477,1.98.438,3.633,3.076-1.025-2.148-2.288-5.123-1.1-5.686,1.407-.577,3.3,2.744,4.349,4.808-1.268-2.5-1.195-4.208-.453-4.357,1.166-.234,2.6,1.741,4.149,4.841-.419-2.325-.13-3.322.557-3.293,1.255.052,2.5,2.857,3.2,5.491a16.527,16.527,0,0,1,.1,7.168c6.458,7.984,32.01,35.974,34.853,42.352,2.185,4.9,2.059,8.787-3.614,12.054-4.154,2.392-6.368,2.771-6.152,2.917-8.63-4.4-11.96-3.962-15.177-7.386-1.16-1.235-1.857-5.978-.831-6.6l-2.8-3.806c-10.641-16.077-18.5-27.279-20.789-30.832a7.785,7.785,0,0,1-.969-2C995,1023.844,997.37,1021.689,997.915,1017.374Z" transform="translate(-992.547 -1006.009)" fill="#bc8271"/>
          <path id="Trazado_626997" data-name="Trazado 626997" d="M978.234,1089.766c-2.95-3.891-4.839-4.67-5.441-4.182-1.012.819.147,5.173,3.742,11.4C977.189,1095.016,977.581,1091.735,978.234,1089.766Z" transform="translate(-972.443 -1074.326)" fill="#bc8271"/>
          <path id="Trazado_626998" data-name="Trazado 626998" d="M1147.03,1383.237a.309.309,0,0,1-.225-.1c-1.847-1.962-8.312-9.979-9.96-12.441a.309.309,0,0,1,.514-.344c1.594,2.381,8.109,10.462,9.9,12.361a.309.309,0,0,1-.225.521Z" transform="translate(-1113.774 -1319.206)" fill="#363e44"/>
          <g id="Grupo_990924" data-name="Grupo 990924" transform="translate(3.155 4.371)">
            <path id="Trazado_626999" data-name="Trazado 626999" d="M1054.052,1096.668a.309.309,0,0,1-.246-.122,6.577,6.577,0,0,1-1.338-3.538,6.763,6.763,0,0,1,1.444-4.563.309.309,0,1,1,.484.384,6.133,6.133,0,0,0-1.312,4.137,5.962,5.962,0,0,0,1.213,3.205.309.309,0,0,1-.246.5Z" transform="translate(-1044.401 -1081.169)" fill="#363e44"/>
            <path id="Trazado_627000" data-name="Trazado 627000" d="M995.276,1110.531l-.035,0a.309.309,0,0,1-.273-.341,13.977,13.977,0,0,1,.9-3.223c.184-.5.375-1.026.55-1.578a.309.309,0,0,1,.589.187c-.179.565-.372,1.093-.559,1.6a13.515,13.515,0,0,0-.865,3.079A.309.309,0,0,1,995.276,1110.531Z" transform="translate(-994.967 -1095.653)" fill="#363e44"/>
            <path id="Trazado_627001" data-name="Trazado 627001" d="M1029.567,1050.658h-.027a.31.31,0,0,1-.282-.334,9.333,9.333,0,0,0-.589-4.15.309.309,0,0,1,.577-.222,9.963,9.963,0,0,1,.628,4.425A.309.309,0,0,1,1029.567,1050.658Z" transform="translate(-1023.932 -1044.557)" fill="#363e44"/>
            <path id="Trazado_627002" data-name="Trazado 627002" d="M1051.519,1042.123h-.027a.309.309,0,0,1-.282-.334,9.326,9.326,0,0,0-.589-4.15.309.309,0,0,1,.577-.222,9.951,9.951,0,0,1,.628,4.425A.309.309,0,0,1,1051.519,1042.123Z" transform="translate(-1042.809 -1037.217)" fill="#363e44"/>
            <path id="Trazado_627003" data-name="Trazado 627003" d="M1079.663,1047.509h-.027a.309.309,0,0,1-.281-.334,9.336,9.336,0,0,0-.589-4.15.309.309,0,0,1,.577-.222,9.949,9.949,0,0,1,.628,4.425A.309.309,0,0,1,1079.663,1047.509Z" transform="translate(-1067.012 -1041.849)" fill="#363e44"/>
          </g>
        </g>
      </g>
      <g id="Grupo_990930" data-name="Grupo 990930" transform="translate(58.817 0.065)">
        <path id="Trazado_627004" data-name="Trazado 627004" d="M768.172,1104.345c1.171,1.882.821,4.216-.781,5.213s-3.85.278-5.021-1.6-.821-4.216.781-5.213S767,1102.462,768.172,1104.345Z" transform="translate(-760.771 -1088.871)" fill="#bc8271"/>
        <ellipse id="Elipse_5161" data-name="Elipse 5161" cx="4.014" cy="3.416" rx="4.014" ry="3.416" transform="translate(21.386 19.243) rotate(-54.63)" fill="#bc8271"/>
        <path id="Trazado_627005" data-name="Trazado 627005" d="M820.708,1168.2a7.28,7.28,0,0,1-7.153-7.4l-.206-20.941,14.35.043.205,20.941A7.28,7.28,0,0,1,820.708,1168.2Z" transform="translate(-805.206 -1121.173)" fill="#bc8271"/>
        <path id="Trazado_627006" data-name="Trazado 627006" d="M803.783,1137.319c-11.516-.256-10.383-19.428-10.383-19.428l20.365.968S814.95,1137.568,803.783,1137.319Z" transform="translate(-788.024 -1102.286)" fill="#363e44"/>
        <circle id="Elipse_5162" data-name="Elipse 5162" cx="7.312" cy="7.312" r="7.312" transform="matrix(0.435, -0.901, 0.901, 0.435, 0, 13.788)" fill="#363e44"/>
        <path id="Trazado_627007" data-name="Trazado 627007" d="M815.581,1072.93c-.195,6.395-4.053,2.709-9.5,2.543s-10.408,3.251-10.213-3.143,4.622-9.7,10.065-9.529S815.776,1066.536,815.581,1072.93Z" transform="translate(-790.172 -1054.906)" fill="#bc8271"/>
        <path id="Trazado_627008" data-name="Trazado 627008" d="M932.91,1119.747a.317.317,0,0,1-.08-.01.309.309,0,0,1-.219-.379,13.331,13.331,0,0,0,.244-5.714.309.309,0,0,1,.609-.108,13.964,13.964,0,0,1-.256,5.982A.31.31,0,0,1,932.91,1119.747Z" transform="translate(-907.755 -1098.321)" fill="#363e44"/>
        <path id="Trazado_627009" data-name="Trazado 627009" d="M792.832,1114.987a.309.309,0,0,1-.3-.249,13.962,13.962,0,0,1,.132-5.986.309.309,0,1,1,.6.147,13.343,13.343,0,0,0-.126,5.718.309.309,0,0,1-.243.363A.3.3,0,0,1,792.832,1114.987Z" transform="translate(-787.076 -1094.224)" fill="#363e44"/>
        <path id="Trazado_627010" data-name="Trazado 627010" d="M867.465,1137.149a.309.309,0,0,1-.168-.569c.173-.112.383-.284.4-.465.01-.1-.041-.192-.141-.358a1.856,1.856,0,0,1-.3-.769,1.773,1.773,0,0,1,.155-.942.309.309,0,1,1,.565.25,1.165,1.165,0,0,0-.107.616,1.278,1.278,0,0,0,.215.526,1.151,1.151,0,0,1,.226.739,1.3,1.3,0,0,1-.68.921A.305.305,0,0,1,867.465,1137.149Z" transform="translate(-851.476 -1116.02)" fill="#363e44"/>
        <path id="Trazado_627011" data-name="Trazado 627011" d="M845.912,1171.638a.308.308,0,0,1-.23-.1,2.414,2.414,0,0,0-1.328-.759,2.365,2.365,0,0,0-1.081.052.309.309,0,0,1-.17-.594,2.979,2.979,0,0,1,1.367-.065,3.035,3.035,0,0,1,1.673.954.309.309,0,0,1-.23.515Z" transform="translate(-830.599 -1147.197)" fill="#fff"/>
        <path id="Trazado_627012" data-name="Trazado 627012" d="M788.6,1020.452s5.184,1.2,11.148-4.765c0,0,9.029,14.039,18.1-1.264,0,0-4.717,1.639-6.9-1.736-3.475-5.37-12.471-10.211-16.923-1.183Z" transform="translate(-783.925 -1006.473)" fill="#363e44"/>
        <g id="Grupo_990929" data-name="Grupo 990929" transform="translate(7.502 15.916)">
          <g id="Grupo_990927" data-name="Grupo 990927" transform="translate(9.773 0.184)">
            <path id="Trazado_627013" data-name="Trazado 627013" d="M883.441,1121.8l-.024,0c-.014.049-.049.111-.1.108a1.487,1.487,0,0,0-.141.268c-.08.14-.291.007-.211-.133.054-.094-.291.078-.441.131-.479.167-.964.313-1.454.444-.228.061-.457.124-.688.177a5.921,5.921,0,0,1-.843.185,6.2,6.2,0,0,0-.992,1.07,6.367,6.367,0,0,0,2.016.517c0-.015.008-.031.011-.046a9.707,9.707,0,0,1,2.757-.575,1.261,1.261,0,1,0,.112-2.143Z" transform="translate(-878.545 -1121.741)" fill="#fff"/>
            <path id="Trazado_627014" data-name="Trazado 627014" d="M887.6,1121.571a5.083,5.083,0,0,0-1.965,1.083A2.062,2.062,0,0,0,886.3,1124a2.087,2.087,0,0,0,.325.243,4.757,4.757,0,0,0,1.658-.125,4.527,4.527,0,0,0,1.127-.482,2.071,2.071,0,0,0,.106-2.156A4.895,4.895,0,0,0,887.6,1121.571Z" transform="translate(-884.644 -1121.424)" fill="#363e44"/>
          </g>
          <g id="Grupo_990928" data-name="Grupo 990928">
            <path id="Trazado_627015" data-name="Trazado 627015" d="M810.493,1120.224h.024c.011.05.042.114.094.114a1.493,1.493,0,0,1,.124.277c.071.144.29.025.219-.119-.048-.1.285.1.431.158.468.2.943.372,1.424.533.224.075.449.152.676.219a5.93,5.93,0,0,0,.83.237,6.185,6.185,0,0,1,.924,1.129,6.367,6.367,0,0,1-2.044.391c0-.015-.006-.031-.008-.046a9.711,9.711,0,0,0-2.716-.744,1.261,1.261,0,1,1,.021-2.146Z" transform="translate(-808.765 -1120.207)" fill="#fff"/>
            <path id="Trazado_627016" data-name="Trazado 627016" d="M821.227,1120.342a5.085,5.085,0,0,1,1.894,1.2,2.061,2.061,0,0,1-1.083,1.521,4.757,4.757,0,0,1-1.647-.227,4.541,4.541,0,0,1-1.1-.551,2.071,2.071,0,0,1,.027-2.159A4.906,4.906,0,0,1,821.227,1120.342Z" transform="translate(-817.571 -1120.113)" fill="#363e44"/>
          </g>
        </g>
      </g>
    </g>
    <g id="Grupo_990935" data-name="Grupo 990935" transform="translate(340.401 352.087)">
      <path id="Trazado_627017" data-name="Trazado 627017" d="M410.809,457.909l37.619,65.158H373.19Z" transform="translate(-373.19 -457.781)" fill="#fff"/>
      <path id="Trazado_627018" data-name="Trazado 627018" d="M658.166,522.76H628.325a.309.309,0,1,1,0-.618h29.305l-37.084-64.231-3.656,6.333a.309.309,0,1,1-.536-.309l3.924-6.8a.321.321,0,0,1,.535,0L658.434,522.3a.309.309,0,0,1-.268.464Z" transform="translate(-582.261 -456.995)" fill="#363e44"/>
      <path id="Trazado_627019" data-name="Trazado 627019" d="M393.172,811.27H376.049a.309.309,0,0,1-.268-.464l10.483-18.157a.309.309,0,0,1,.536.309l-10.215,17.693h16.588a.309.309,0,1,1,0,.618Z" transform="translate(-375.382 -745.505)" fill="#363e44"/>
      <g id="Grupo_990934" data-name="Grupo 990934" transform="translate(25.299 12.355)">
        <g id="Grupo_990932" data-name="Grupo 990932" transform="translate(2.582 0.309)">
          <path id="Trazado_627020" data-name="Trazado 627020" d="M574.528,583.32h10.185l2.273-35.906H572.256Z" transform="translate(-572.256 -547.414)" fill="#d87355"/>
          <rect id="Rectángulo_344654" data-name="Rectángulo 344654" width="10.185" height="8.688" transform="translate(2.273 40.855)" fill="#d87355"/>
        </g>
        <g id="Grupo_990933" data-name="Grupo 990933">
          <path id="Trazado_627021" data-name="Trazado 627021" d="M566.588,581.731H556.4a.309.309,0,0,1-.309-.29l-2.273-35.906a.309.309,0,0,1,.308-.329h14.731a.309.309,0,0,1,.308.329L566.9,581.442A.309.309,0,0,1,566.588,581.731Zm-9.895-.618h9.6l2.234-35.288H554.46Z" transform="translate(-553.821 -545.207)" fill="#363e44"/>
          <path id="Trazado_627022" data-name="Trazado 627022" d="M580.543,846.21H570.358a.309.309,0,0,1-.309-.309v-8.688a.309.309,0,0,1,.309-.309h10.185a.309.309,0,0,1,.309.309V845.9A.309.309,0,0,1,580.543,846.21Zm-9.876-.618h9.567v-8.07h-9.567Z" transform="translate(-567.776 -796.049)" fill="#363e44"/>
        </g>
      </g>
    </g>
    <g id="Grupo_990938" data-name="Grupo 990938" transform="translate(405.802 338.957)">
      <path id="Trazado_627023" data-name="Trazado 627023" d="M1225.622,548.639c-1.806-4.632-20.667,2.122-24.079-14.887-1.37-6.83-7.451-4.533-11.814-6.169-1.793-.672-9.281-6.042-7.234-10.94.124-.3,15.891-.069,15.853.139a6.221,6.221,0,0,0,3.6,6.219c4.075,1.977,5.774-2.962,10.886.353,4.307,2.793,3.681,4.917,7.717,8.157,4.841,3.887,9.523-2.674,17.76-1.787,12.618,1.359,12.4,18.845,25.278,18.951,17.747.146,20.8,18.03,13.237,20.22-11.055,3.2-13.005-7.981-20.656-8.437C1247.006,559.913,1233.15,567.95,1225.622,548.639Z" transform="translate(-1134.242 -495.037)" fill="#fff" opacity="0.55"/>
      <g id="Grupo_990937" data-name="Grupo 990937" transform="translate(0 0)">
        <g id="Grupo_990936" data-name="Grupo 990936" transform="translate(0 4.572)">
          <path id="Trazado_627024" data-name="Trazado 627024" d="M876.27,413.238H840.446a.309.309,0,0,1-.283-.434,15.145,15.145,0,0,1,13.85-9.028h50.093l7.79-7.79a.309.309,0,0,1,.219-.091h4.866a.309.309,0,0,1,.283.434l-3.421,7.755a.309.309,0,0,1-.566-.25l3.23-7.321h-4.264l-7.79,7.791a.309.309,0,0,1-.219.09H854.014a14.526,14.526,0,0,0-13.084,8.226H876.27a.309.309,0,1,1,0,.618Z" transform="translate(-840.137 -395.895)" fill="#363e44"/>
          <path id="Trazado_627025" data-name="Trazado 627025" d="M1203.967,477.858h-21.214a.309.309,0,0,1,0-.618h21.013l2.654-6.016a.309.309,0,0,1,.566.25l-2.735,6.2A.31.31,0,0,1,1203.967,477.858Z" transform="translate(-1134.5 -460.515)" fill="#363e44"/>
        </g>
        <path id="Trazado_627026" data-name="Trazado 627026" d="M1256.724,414.678a.308.308,0,0,1-.17-.051l-6.526-4.306a.309.309,0,0,1,.17-.567h3.271a.308.308,0,0,1,.144.036l5.543,2.924a.309.309,0,1,1-.289.547l-5.475-2.889h-2.165l5.667,3.739a.309.309,0,0,1-.171.567Z" transform="translate(-1192.499 -403.241)" fill="#363e44"/>
        <path id="Trazado_627027" data-name="Trazado 627027" d="M1341.463,461.5h-2.975a.307.307,0,0,1-.125-.026l-11.558-5.109a.309.309,0,1,1,.25-.565l11.5,5.082h1.662l-8.709-4.595a.309.309,0,1,1,.289-.547l9.813,5.177a.309.309,0,0,1-.145.582Z" transform="translate(-1258.483 -442.753)" fill="#363e44"/>
        <path id="Trazado_627028" data-name="Trazado 627028" d="M934.571,375.223a.308.308,0,0,1-.177-.055l-16.217-11.3h-5.512l10.982,10.823a.309.309,0,0,1-.434.44l-11.519-11.352a.309.309,0,0,1,.217-.529h6.363a.31.31,0,0,1,.177.055l16.3,11.353a.309.309,0,0,1-.177.563Z" transform="translate(-901.592 -363.252)" fill="#363e44"/>
        <path id="Trazado_627029" data-name="Trazado 627029" d="M1079.525,492.332h-6.363a.308.308,0,0,1-.147-.037L1051.2,480.545a.309.309,0,1,1,.293-.544l21.744,11.713h5.3l-17.232-12a.309.309,0,1,1,.354-.507l18.039,12.567a.309.309,0,0,1-.177.563Z" transform="translate(-1021.501 -462.915)" fill="#363e44"/>
      </g>
    </g>
  </g>
</svg>
