<svg xmlns="http://www.w3.org/2000/svg" width="259.574" height="259.56" viewBox="0 0 259.574 259.56">
  <g id="Radioactive_pollution" data-name="Radioactive pollution" transform="translate(-334.951 -335)">
    <path id="Trazado_625223" data-name="Trazado 625223" d="M594.525,464.471A129.072,129.072,0,0,1,588.4,503.9q-.718,2.237-1.517,4.442c-.3.855-.622,1.707-.948,2.555a129.847,129.847,0,0,1-110.747,82.631q-5.17.412-10.446.415t-10.446-.415A129.848,129.848,0,0,1,343.545,510.9c-.325-.848-.644-1.7-.948-2.555q-.8-2.2-1.517-4.442a129.068,129.068,0,0,1-6.13-39.428C334.951,392.965,393.058,335,464.738,335S594.525,392.965,594.525,464.471Z" transform="translate(0 0)" fill="#f2e6dc"/>
    <path id="Trazado_625224" data-name="Trazado 625224" d="M628.088,1557.388c-.3.861-.623,1.718-.949,2.573a130.1,130.1,0,0,1-110.887,83.191q-5.176.415-10.459.418t-10.459-.418a130.1,130.1,0,0,1-110.887-83.191c-.326-.854-.645-1.712-.949-2.573Z" transform="translate(-41.662 -1049.009)" fill="#e6d0be"/>
    <g id="Grupo_989865" data-name="Grupo 989865" transform="translate(457.299 409.156)">
      <g id="Grupo_989862" data-name="Grupo 989862" transform="translate(0 0)">
        <rect id="Rectángulo_344185" data-name="Rectángulo 344185" width="67.794" height="101.452" transform="translate(1.846 11.082)" fill="#8b865c"/>
        <ellipse id="Elipse_4988" data-name="Elipse 4988" cx="35.601" cy="9.431" rx="35.601" ry="9.431" transform="translate(0.142 0.142)" fill="#efbc73"/>
        <ellipse id="Elipse_4989" data-name="Elipse 4989" cx="9.093" cy="2.409" rx="9.093" ry="2.409" transform="translate(45.273 7.164)" fill="#8b865c"/>
        <ellipse id="Elipse_4990" data-name="Elipse 4990" cx="5.525" cy="1.464" rx="5.525" ry="1.464" transform="translate(6.272 8.109)" fill="#8b865c"/>
        <path id="Trazado_625225" data-name="Trazado 625225" d="M1233.293,876.977c-9.521,0-18.474-.983-25.21-2.767-6.792-1.8-10.532-4.216-10.532-6.806s3.74-5.007,10.532-6.806c6.736-1.784,15.689-2.767,25.21-2.767s18.474.983,25.21,2.767c6.792,1.8,10.533,4.216,10.533,6.806s-3.741,5.007-10.533,6.806C1251.768,875.994,1242.815,876.977,1233.293,876.977Zm0-18.862c-9.5,0-18.425.979-25.137,2.758-6.56,1.738-10.322,4.118-10.322,6.532s3.762,4.794,10.322,6.532c6.712,1.778,15.64,2.757,25.137,2.757s18.425-.979,25.137-2.757c6.559-1.738,10.322-4.119,10.322-6.532s-3.762-4.794-10.322-6.532C1251.718,859.094,1242.791,858.115,1233.293,858.115Z" transform="translate(-1197.551 -857.831)" fill="#363e44"/>
        <path id="Trazado_625226" data-name="Trazado 625226" d="M1243.6,1119.133c-15.557,0-29.216-2.642-33.988-6.573a.142.142,0,0,1,.18-.219c4.726,3.893,18.312,6.509,33.808,6.509a112.074,112.074,0,0,0,21.273-1.871c5.959-1.181,10.447-2.858,12.635-4.722a.142.142,0,1,1,.184.216C1273.01,1116.456,1259.31,1119.133,1243.6,1119.133Z" transform="translate(-1207.853 -1076.141)" fill="#363e44"/>
        <path id="Trazado_625227" data-name="Trazado 625227" d="M1243.6,1436.7c-15.557,0-29.216-2.641-33.988-6.573a.142.142,0,1,1,.18-.219c4.726,3.893,18.312,6.509,33.808,6.509a112.064,112.064,0,0,0,21.273-1.871c5.959-1.181,10.447-2.857,12.635-4.722a.142.142,0,1,1,.184.216C1273.01,1434.027,1259.31,1436.7,1243.6,1436.7Z" transform="translate(-1207.853 -1348.669)" fill="#363e44"/>
        <g id="Grupo_989861" data-name="Grupo 989861" transform="translate(13.207 45.617)">
          <path id="Trazado_625228" data-name="Trazado 625228" d="M1405.4,1356.949a8.787,8.787,0,0,1-2.447-.347l-3.736,12.89h13.241l-3.815-13.162A8.766,8.766,0,0,1,1405.4,1356.949Z" transform="translate(-1383.823 -1331.241)" fill="#efbc73"/>
          <path id="Trazado_625229" data-name="Trazado 625229" d="M1306.967,1189.473l-9.685-10.023-6.62,11.42,13.14,3.238A8.732,8.732,0,0,1,1306.967,1189.473Z" transform="translate(-1290.662 -1179.45)" fill="#efbc73"/>
          <path id="Trazado_625230" data-name="Trazado 625230" d="M1485.444,1194.65l13.9-3.1-6.362-11.564-10.351,10.243A8.719,8.719,0,0,1,1485.444,1194.65Z" transform="translate(-1455.399 -1179.912)" fill="#efbc73"/>
          <ellipse id="Elipse_4991" data-name="Elipse 4991" cx="5.647" cy="5.623" rx="5.647" ry="5.623" transform="translate(15.934 11.362)" fill="#efbc73"/>
        </g>
      </g>
      <g id="Grupo_989864" data-name="Grupo 989864" transform="translate(61.135 11.302)">
        <rect id="Rectángulo_344186" data-name="Rectángulo 344186" width="67.794" height="101.452" transform="translate(1.846 11.082)" fill="#b77250"/>
        <ellipse id="Elipse_4992" data-name="Elipse 4992" cx="35.601" cy="9.431" rx="35.601" ry="9.431" transform="translate(0.142 0.142)" fill="#efbc73"/>
        <ellipse id="Elipse_4993" data-name="Elipse 4993" cx="9.093" cy="2.409" rx="9.093" ry="2.409" transform="translate(45.274 7.164)" fill="#8b865c"/>
        <ellipse id="Elipse_4994" data-name="Elipse 4994" cx="5.525" cy="1.464" rx="5.525" ry="1.464" transform="translate(6.272 8.109)" fill="#8b865c"/>
        <path id="Trazado_625231" data-name="Trazado 625231" d="M1664.322,956.663c-9.521,0-18.474-.983-25.21-2.767-6.792-1.8-10.533-4.216-10.533-6.806s3.741-5.007,10.533-6.806c6.735-1.784,15.689-2.767,25.21-2.767s18.474.983,25.21,2.767c6.792,1.8,10.533,4.216,10.533,6.806s-3.74,5.007-10.533,6.806C1682.8,955.68,1673.843,956.663,1664.322,956.663Zm0-18.862c-9.5,0-18.425.979-25.137,2.758-6.56,1.738-10.322,4.118-10.322,6.532s3.762,4.794,10.322,6.531c6.713,1.778,15.64,2.758,25.137,2.758s18.425-.979,25.137-2.758c6.56-1.738,10.322-4.118,10.322-6.531s-3.762-4.794-10.322-6.532C1682.746,938.78,1673.819,937.8,1664.322,937.8Z" transform="translate(-1628.579 -937.517)" fill="#363e44"/>
        <path id="Trazado_625232" data-name="Trazado 625232" d="M1674.624,1198.818c-15.557,0-29.215-2.642-33.988-6.573a.142.142,0,0,1,.18-.219c4.726,3.893,18.313,6.509,33.808,6.509a112.1,112.1,0,0,0,21.273-1.871c5.959-1.181,10.447-2.858,12.635-4.722a.142.142,0,1,1,.184.216C1704.039,1196.141,1690.338,1198.818,1674.624,1198.818Z" transform="translate(-1638.881 -1155.826)" fill="#363e44"/>
        <path id="Trazado_625233" data-name="Trazado 625233" d="M1674.624,1516.389c-15.557,0-29.216-2.641-33.988-6.573a.142.142,0,0,1,.18-.219c4.726,3.893,18.312,6.509,33.808,6.509a112.055,112.055,0,0,0,21.273-1.871c5.959-1.18,10.447-2.858,12.635-4.722a.142.142,0,1,1,.184.216C1704.039,1513.713,1690.338,1516.389,1674.624,1516.389Z" transform="translate(-1638.881 -1428.354)" fill="#363e44"/>
        <g id="Grupo_989863" data-name="Grupo 989863" transform="translate(13.207 45.617)">
          <path id="Trazado_625234" data-name="Trazado 625234" d="M1836.434,1436.635a8.786,8.786,0,0,1-2.447-.348l-3.736,12.89h13.241l-3.815-13.162A8.764,8.764,0,0,1,1836.434,1436.635Z" transform="translate(-1814.853 -1410.927)" fill="#efbc73"/>
          <path id="Trazado_625235" data-name="Trazado 625235" d="M1738,1269.159l-9.684-10.023-6.62,11.42,13.14,3.238A8.732,8.732,0,0,1,1738,1269.159Z" transform="translate(-1721.692 -1259.136)" fill="#efbc73"/>
          <path id="Trazado_625236" data-name="Trazado 625236" d="M1916.473,1274.334l13.9-3.1-6.362-11.565-10.351,10.243A8.719,8.719,0,0,1,1916.473,1274.334Z" transform="translate(-1886.428 -1259.597)" fill="#efbc73"/>
          <ellipse id="Elipse_4995" data-name="Elipse 4995" cx="5.647" cy="5.623" rx="5.647" ry="5.623" transform="translate(15.934 11.362)" fill="#efbc73"/>
        </g>
      </g>
    </g>
    <g id="Grupo_989880" data-name="Grupo 989880" transform="translate(338.112 338.166)">
      <g id="Grupo_989879" data-name="Grupo 989879" transform="translate(0 50.926)">
        <g id="Grupo_989868" data-name="Grupo 989868">
          <g id="Grupo_989866" data-name="Grupo 989866">
            <path id="Trazado_625237" data-name="Trazado 625237" d="M379.607,864.263a.142.142,0,0,1-.142-.142v-6.862l-2.687-107.036H360.209l-2.687,107.04v6.859a.142.142,0,1,1-.284,0v-6.862l2.69-107.182a.142.142,0,0,1,.142-.138h16.846a.142.142,0,0,1,.142.138l2.69,107.178v6.866A.142.142,0,0,1,379.607,864.263Z" transform="translate(-357.238 -745.177)" fill="#363e44"/>
            <path id="Trazado_625238" data-name="Trazado 625238" d="M386.173,720.066H366.547a.142.142,0,0,1-.142-.142v-3.416a.142.142,0,0,1,.142-.142h19.626a.142.142,0,0,1,.142.142v3.416A.142.142,0,0,1,386.173,720.066Zm-19.485-.284h19.343v-3.132H366.689Z" transform="translate(-365.105 -716.367)" fill="#363e44"/>
          </g>
          <g id="Grupo_989867" data-name="Grupo 989867" transform="translate(25.901)">
            <path id="Trazado_625239" data-name="Trazado 625239" d="M562.216,864.263a.142.142,0,0,1-.142-.142v-6.862l-2.687-107.036H542.818l-2.687,107.04v6.859a.142.142,0,1,1-.284,0v-6.862l2.69-107.182a.142.142,0,0,1,.142-.138h16.846a.142.142,0,0,1,.142.138l2.69,107.178v6.866A.142.142,0,0,1,562.216,864.263Z" transform="translate(-539.847 -745.177)" fill="#363e44"/>
            <path id="Trazado_625240" data-name="Trazado 625240" d="M568.782,720.066H549.156a.142.142,0,0,1-.142-.142v-3.416a.142.142,0,0,1,.142-.142h19.626a.142.142,0,0,1,.142.142v3.416A.142.142,0,0,1,568.782,720.066Zm-19.485-.284H568.64v-3.132H549.3Z" transform="translate(-547.714 -716.367)" fill="#363e44"/>
          </g>
        </g>
        <g id="Grupo_989870" data-name="Grupo 989870" transform="translate(31.137 46.859)">
          <rect id="Rectángulo_344187" data-name="Rectángulo 344187" width="45.143" height="72.43" fill="#fff"/>
          <g id="Grupo_989869" data-name="Grupo 989869" transform="translate(4.607 3.692)">
            <rect id="Rectángulo_344188" data-name="Rectángulo 344188" width="6.979" height="26.062" fill="#e6d0be"/>
            <rect id="Rectángulo_344189" data-name="Rectángulo 344189" width="6.979" height="26.062" transform="translate(9.65)" fill="#e6d0be"/>
            <rect id="Rectángulo_344190" data-name="Rectángulo 344190" width="6.979" height="26.062" transform="translate(19.3)" fill="#e6d0be"/>
            <rect id="Rectángulo_344191" data-name="Rectángulo 344191" width="6.979" height="26.062" transform="translate(28.951)" fill="#e6d0be"/>
          </g>
        </g>
        <g id="Grupo_989873" data-name="Grupo 989873" transform="translate(49.258 64.852)">
          <path id="Trazado_625241" data-name="Trazado 625241" d="M707.392,1226.8h-2.726a.142.142,0,0,1-.142-.142v-52.916a.142.142,0,0,1,.142-.142h60.988a.142.142,0,0,1,.142.142v8.144a.142.142,0,0,1-.142.142h-2.726a.142.142,0,0,1-.142-.142v-5.288h-23.47v5.288a.142.142,0,0,1-.142.142h-2.726a.142.142,0,0,1-.142-.142v-5.288H707.534v50.059A.142.142,0,0,1,707.392,1226.8Zm-2.584-.284h2.443v-50.059a.142.142,0,0,1,.142-.142h29.056a.142.142,0,0,1,.142.142v5.288h2.442v-5.288a.142.142,0,0,1,.142-.142h23.753a.142.142,0,0,1,.142.142v5.288h2.442v-7.861h-60.7Z" transform="translate(-704.524 -1173.596)" fill="#363e44"/>
          <g id="Grupo_989871" data-name="Grupo 989871" transform="translate(22.841 5.897)">
            <path id="Trazado_625242" data-name="Trazado 625242" d="M881.059,1224.36h0a9.591,9.591,0,0,0-9.611,9.571v34.3H890.67v-34.3A9.591,9.591,0,0,0,881.059,1224.36Z" transform="translate(-870.613 -1223.057)" fill="#e6d0be"/>
            <path id="Trazado_625243" data-name="Trazado 625243" d="M886.31,1332.995H865.7a.142.142,0,0,1-.142-.142v-2.932a.142.142,0,0,1,.142-.142H886.31a.142.142,0,0,1,.142.142v2.932A.142.142,0,0,1,886.31,1332.995Zm-20.467-.284h20.325v-2.648H865.844Z" transform="translate(-865.56 -1313.524)" fill="#363e44"/>
            <path id="Trazado_625244" data-name="Trazado 625244" d="M886.31,1434.82H865.7a.142.142,0,0,1-.142-.142v-2.932a.142.142,0,0,1,.142-.142H886.31a.142.142,0,0,1,.142.142v2.932A.142.142,0,0,1,886.31,1434.82Zm-20.467-.284h20.325v-2.648H865.844Z" transform="translate(-865.56 -1400.907)" fill="#363e44"/>
            <rect id="Rectángulo_344192" data-name="Rectángulo 344192" width="20.609" height="4.832" transform="translate(0.142 43.708)" fill="#d3bba3"/>
            <rect id="Rectángulo_344193" data-name="Rectángulo 344193" width="5.997" height="2.389" transform="translate(7.448)" fill="#fff"/>
          </g>
          <g id="Grupo_989872" data-name="Grupo 989872" transform="translate(49.32 5.897)">
            <path id="Trazado_625245" data-name="Trazado 625245" d="M1067.75,1224.36h0a9.591,9.591,0,0,0-9.611,9.571v34.3h19.222v-34.3A9.591,9.591,0,0,0,1067.75,1224.36Z" transform="translate(-1057.303 -1223.057)" fill="#e6d0be"/>
            <path id="Trazado_625246" data-name="Trazado 625246" d="M1073,1332.995h-20.609a.142.142,0,0,1-.142-.142v-2.932a.142.142,0,0,1,.142-.142H1073a.142.142,0,0,1,.142.142v2.932A.142.142,0,0,1,1073,1332.995Zm-20.467-.284h20.325v-2.648h-20.325Z" transform="translate(-1052.25 -1313.524)" fill="#363e44"/>
            <path id="Trazado_625247" data-name="Trazado 625247" d="M1073,1434.82h-20.609a.142.142,0,0,1-.142-.142v-2.932a.142.142,0,0,1,.142-.142H1073a.142.142,0,0,1,.142.142v2.932A.142.142,0,0,1,1073,1434.82Zm-20.467-.284h20.325v-2.648h-20.325Z" transform="translate(-1052.25 -1400.907)" fill="#363e44"/>
            <rect id="Rectángulo_344194" data-name="Rectángulo 344194" width="20.609" height="4.832" transform="translate(0.142 43.708)" fill="#d3bba3"/>
            <rect id="Rectángulo_344195" data-name="Rectángulo 344195" width="5.997" height="2.389" transform="translate(7.448)" fill="#fff"/>
          </g>
        </g>
        <g id="Grupo_989878" data-name="Grupo 989878" transform="translate(16.155 81.065)">
          <rect id="Rectángulo_344196" data-name="Rectángulo 344196" width="51.686" height="38.224" fill="#d3bba3"/>
          <g id="Grupo_989877" data-name="Grupo 989877" transform="translate(7.856 4.344)">
            <g id="Grupo_989874" data-name="Grupo 989874">
              <rect id="Rectángulo_344197" data-name="Rectángulo 344197" width="6.761" height="6.733" fill="#fff"/>
              <rect id="Rectángulo_344198" data-name="Rectángulo 344198" width="6.761" height="6.733" transform="translate(9.738)" fill="#fff"/>
              <rect id="Rectángulo_344199" data-name="Rectángulo 344199" width="6.761" height="6.733" transform="translate(19.476)" fill="#fff"/>
              <rect id="Rectángulo_344200" data-name="Rectángulo 344200" width="6.761" height="6.733" transform="translate(29.214)" fill="#fff"/>
            </g>
            <g id="Grupo_989875" data-name="Grupo 989875" transform="translate(0 9.447)">
              <rect id="Rectángulo_344201" data-name="Rectángulo 344201" width="6.761" height="6.733" fill="#fff"/>
              <rect id="Rectángulo_344202" data-name="Rectángulo 344202" width="6.761" height="6.733" transform="translate(9.738)" fill="#fff"/>
              <rect id="Rectángulo_344203" data-name="Rectángulo 344203" width="6.761" height="6.733" transform="translate(19.476)" fill="#fff"/>
              <rect id="Rectángulo_344204" data-name="Rectángulo 344204" width="6.761" height="6.733" transform="translate(29.214)" fill="#fff"/>
            </g>
            <g id="Grupo_989876" data-name="Grupo 989876" transform="translate(0 18.895)">
              <rect id="Rectángulo_344205" data-name="Rectángulo 344205" width="6.761" height="6.733" fill="#fff"/>
              <rect id="Rectángulo_344206" data-name="Rectángulo 344206" width="6.761" height="6.733" transform="translate(9.738)" fill="#fff"/>
              <rect id="Rectángulo_344207" data-name="Rectángulo 344207" width="6.761" height="6.733" transform="translate(19.476)" fill="#fff"/>
              <rect id="Rectángulo_344208" data-name="Rectángulo 344208" width="6.761" height="6.733" transform="translate(29.214)" fill="#fff"/>
            </g>
          </g>
        </g>
      </g>
      <path id="Trazado_625248" data-name="Trazado 625248" d="M455.226,375.309c-3.121,6.834-31.719-14.968-44.719,10.239-5.22,10.122-14.27.117-19.7,5.679-2.187,2.24-5.681,8.41-4.663,17.03.062.521,10.993.474,11.026.129.272-2.837-.351-8.82,4.979-9.754,7.294-1.279,11.916,11.248,21.44,8.331,8.025-2.457,7.995-6.077,15.794-9.36,9.356-3.938,13.77,8.479,27.118,10.782,20.446,3.529,22.065-14.473,30.834-10.515,40.486,18.27,50.114-23.3,34.813-33.466-18.272-12.136-23.324,11.271-31.534,1.8C495.046,359.793,468.6,346.033,455.226,375.309Z" transform="translate(-381.887 -357.32)" fill="#363e44" opacity="0.3"/>
    </g>
    <g id="Grupo_989888" data-name="Grupo 989888" transform="translate(360.987 499.087)">
      <g id="Grupo_989883" data-name="Grupo 989883" transform="translate(0 28.159)">
        <path id="Trazado_625249" data-name="Trazado 625249" d="M693.451,1694.8s22.821,7.655,14.92,23.6c-3.578,7.22-10.72-2.359-24.424,23.125-9.384,17.449-60.312,20.762-49.109,10.111,6.67-6.341-17.46-6.019-28.935-2.135s-25.149,6.385-37.965,3.385,8.049-9.168-4.088-11.819-20.289,7.651-34.728-1.191-12.53-14.866-3.852-19.176,47.877-2.187,40.348-6.064c-9.873-5.085-20.931-1.34-26.563-5.42s7.042-10.17,21.553-12.9c12-2.258,87.088-7.394,107.313-5.5S693.451,1694.8,693.451,1694.8Z" transform="translate(-518.513 -1690.404)" fill="#363e44"/>
        <g id="Grupo_989882" data-name="Grupo 989882" transform="translate(3.453 17.085)">
          <path id="Trazado_625250" data-name="Trazado 625250" d="M1731.3,1828.327a.142.142,0,0,1-.036-.279c.009,0,1.093-.339,3.463-3.233,1.124-1.373,2.991-1.938,4.968-2.536,2.429-.735,4.941-1.495,6.443-3.81a5.66,5.66,0,0,0-.805-7.363.142.142,0,1,1,.191-.21,6.031,6.031,0,0,1,.852,7.727c-1.558,2.4-4.12,3.177-6.6,3.927-1.934.585-3.761,1.138-4.831,2.444-2.452,2.994-3.564,3.315-3.61,3.327A.15.15,0,0,1,1731.3,1828.327Z" transform="translate(-1562.612 -1810.861)" fill="#fff"/>
          <g id="Grupo_989881" data-name="Grupo 989881" transform="translate(14.294 17.249)">
            <path id="Trazado_625251" data-name="Trazado 625251" d="M708.973,1935.844a.141.141,0,0,1-.13-.086c-.913-2.113-2.57-3.2-4.545-2.97a4.178,4.178,0,0,0-3.671,2.94.142.142,0,1,1-.279-.051,4.471,4.471,0,0,1,3.918-3.17c2.108-.242,3.871.9,4.837,3.139a.142.142,0,0,1-.074.187A.14.14,0,0,1,708.973,1935.844Z" transform="translate(-692.302 -1932.475)" fill="#fff"/>
            <path id="Trazado_625252" data-name="Trazado 625252" d="M649.085,1983.875a.142.142,0,0,1-.13-.085,2.664,2.664,0,0,0-2.789-1.827,2.559,2.559,0,0,0-2.251,1.8.142.142,0,1,1-.279-.051,2.814,2.814,0,0,1,2.5-2.027,2.931,2.931,0,0,1,3.081,2,.142.142,0,0,1-.13.2Z" transform="translate(-643.635 -1974.684)" fill="#fff"/>
          </g>
          <path id="Trazado_625253" data-name="Trazado 625253" d="M544.993,1917.725a.142.142,0,0,1-.1-.038c-1.693-1.562-2.337-3.056-1.912-4.441,1.312-4.281,12.313-6,12.781-6.067a.142.142,0,1,1,.043.28c-.113.017-11.293,1.758-12.552,5.869-.39,1.272.227,2.668,1.833,4.15a.142.142,0,0,1-.1.246Z" transform="translate(-542.858 -1893.517)" fill="#fff"/>
          <path id="Trazado_625254" data-name="Trazado 625254" d="M1334.572,2091.335c-2.595,0-3.968-.6-4.662-1.384a3.361,3.361,0,0,1-.271-3.553c-.242-3.188-7.69-3.544-7.765-3.547a.142.142,0,0,1-.136-.148.143.143,0,0,1,.148-.136c.32.014,7.836.375,8.039,3.851a.141.141,0,0,1-.015.072c-.01.02-.968,1.95.213,3.273,1.674,1.875,7.541,2.669,25.979-4.2a.142.142,0,0,1,.1.266C1345.06,2089.981,1338.452,2091.335,1334.572,2091.335Z" transform="translate(-1211.265 -2044.03)" fill="#fff"/>
        </g>
      </g>
      <g id="Grupo_989885" data-name="Grupo 989885" transform="translate(53.463)">
        <rect id="Rectángulo_344209" data-name="Rectángulo 344209" width="67.064" height="101.874" transform="translate(11.128 68.891) rotate(-90)" fill="#d87355"/>
        <ellipse id="Elipse_4996" data-name="Elipse 4996" cx="9.47" cy="35.217" rx="9.47" ry="35.217" transform="translate(0.142 0.142)" fill="#efbc73"/>
        <ellipse id="Elipse_4997" data-name="Elipse 4997" cx="2.419" cy="8.996" rx="2.419" ry="8.996" transform="translate(7.193 7.94)" fill="#d87355"/>
        <ellipse id="Elipse_4998" data-name="Elipse 4998" cx="1.47" cy="5.466" rx="1.47" ry="5.466" transform="translate(8.142 53.581)" fill="#d87355"/>
        <path id="Trazado_625255" data-name="Trazado 625255" d="M905.061,1562.593c-2.6,0-5.026-3.7-6.833-10.42-1.792-6.664-2.779-15.521-2.779-24.939s.987-18.276,2.779-24.939c1.807-6.719,4.234-10.42,6.833-10.42s5.027,3.7,6.833,10.42c1.792,6.663,2.779,15.52,2.779,24.939s-.987,18.276-2.779,24.939C910.088,1558.893,907.661,1562.593,905.061,1562.593Zm0-70.435c-2.424,0-4.815,3.721-6.56,10.21-1.786,6.64-2.769,15.471-2.769,24.866s.983,18.226,2.769,24.866c1.745,6.489,4.136,10.21,6.56,10.21s4.815-3.722,6.56-10.21c1.786-6.64,2.769-15.471,2.769-24.866s-.983-18.226-2.769-24.866C909.876,1495.88,907.485,1492.159,905.061,1492.159Z" transform="translate(-895.449 -1491.875)" fill="#363e44"/>
        <path id="Trazado_625256" data-name="Trazado 625256" d="M1151.125,1570.488a.14.14,0,0,1-.091-.033.142.142,0,0,1-.018-.2c3.909-4.674,6.535-18.114,6.535-33.442a109.254,109.254,0,0,0-1.879-21.043c-1.185-5.895-2.869-10.333-4.741-12.5a.142.142,0,1,1,.215-.186c4,4.627,6.688,18.181,6.688,33.727,0,15.39-2.653,28.9-6.6,33.624A.141.141,0,0,1,1151.125,1570.488Z" transform="translate(-1114.665 -1501.454)" fill="#363e44"/>
        <path id="Trazado_625257" data-name="Trazado 625257" d="M1470.015,1570.488a.14.14,0,0,1-.091-.033.142.142,0,0,1-.018-.2c3.909-4.675,6.535-18.114,6.535-33.442a109.243,109.243,0,0,0-1.879-21.043c-1.185-5.895-2.869-10.333-4.741-12.5a.142.142,0,1,1,.215-.186c4,4.628,6.688,18.181,6.688,33.727,0,15.39-2.653,28.9-6.6,33.624A.141.141,0,0,1,1470.015,1570.488Z" transform="translate(-1388.326 -1501.454)" fill="#363e44"/>
        <g id="Grupo_989884" data-name="Grupo 989884" transform="translate(45.806 14.185)">
          <path id="Trazado_625258" data-name="Trazado 625258" d="M1396.635,1705.589a8.572,8.572,0,0,1-.349,2.421l12.943,3.7v-13.1l-13.217,3.774A8.556,8.556,0,0,1,1396.635,1705.589Z" transform="translate(-1370.821 -1683.47)" fill="#efbc73"/>
          <path id="Trazado_625259" data-name="Trazado 625259" d="M1228.465,1784.627l-10.065,9.58,11.467,6.549,3.251-13A8.77,8.77,0,0,1,1228.465,1784.627Z" transform="translate(-1218.4 -1757.289)" fill="#efbc73"/>
          <path id="Trazado_625260" data-name="Trazado 625260" d="M1233.662,1605.633l-3.11-13.746-11.612,6.294,10.285,10.239A8.769,8.769,0,0,1,1233.662,1605.633Z" transform="translate(-1218.863 -1591.887)" fill="#efbc73"/>
          <ellipse id="Elipse_4999" data-name="Elipse 4999" cx="5.647" cy="5.586" rx="5.647" ry="5.586" transform="translate(11.409 16.533)" fill="#efbc73"/>
        </g>
      </g>
      <g id="Grupo_989887" data-name="Grupo 989887" transform="translate(45.822 62.748)">
        <path id="Trazado_625261" data-name="Trazado 625261" d="M867.024,1936.651c-2.051,2.084-4.308,2.205-4.091,10.242.221,8.2-7.073,4.155-7.073,4.155l-5.231-3.936s7.073-11.989,15.1-11.851C868.361,1935.307,867.363,1936.307,867.024,1936.651Z" transform="translate(-849.345 -1935.12)" fill="#363e44"/>
        <g id="Grupo_989886" data-name="Grupo 989886">
          <path id="Trazado_625262" data-name="Trazado 625262" d="M842.06,1943.817c-.115,0-.231,0-.349-.011a.142.142,0,1,1,.017-.283c2.807.174,4.5-1.9,6.148-3.9a21.465,21.465,0,0,1,2.043-2.263,11.969,11.969,0,0,1,8.047-3.095.142.142,0,1,1,0,.283,11.684,11.684,0,0,0-7.856,3.021,21.278,21.278,0,0,0-2.014,2.233C846.474,1941.78,844.8,1943.817,842.06,1943.817Z" transform="translate(-841.577 -1934.269)" fill="#fff"/>
          <path id="Trazado_625263" data-name="Trazado 625263" d="M945.482,1962.736a.142.142,0,0,1-.138-.112c-.478-2.189-1.584-3.345-4.225-4.418-.424-.172-4.107-1.792-2.881-5.586,1-3.08,2.63-4.02,2.7-4.058a.142.142,0,0,1,.138.248c-.02.011-1.611.938-2.568,3.9-1.147,3.55,2.319,5.073,2.718,5.235,2.709,1.1,3.9,2.353,4.4,4.62a.141.141,0,0,1-.108.168A.134.134,0,0,1,945.482,1962.736Z" transform="translate(-924.314 -1946.52)" fill="#fff"/>
          <path id="Trazado_625264" data-name="Trazado 625264" d="M924.375,1985.69c-3.593,0-6-1.008-6.982-2.351a2.928,2.928,0,0,1-.021-3.411c2.374-3.928.362-5.981-1.413-7.793a8,8,0,0,1-1.8-2.311,6.009,6.009,0,0,1,2.122-6.319.142.142,0,0,1,.164.231,5.691,5.691,0,0,0-2.023,5.98,7.823,7.823,0,0,0,1.741,2.22c1.847,1.885,3.941,4.022,1.453,8.138a2.628,2.628,0,0,0,.007,3.1c1.408,1.92,5.895,3.113,12.744,1.451a.142.142,0,0,1,.067.276A25.878,25.878,0,0,1,924.375,1985.69Z" transform="translate(-903.676 -1959.336)" fill="#fff"/>
        </g>
      </g>
    </g>
    <g id="Grupo_989890" data-name="Grupo 989890" transform="translate(499.813 335.122)">
      <path id="Trazado_625265" data-name="Trazado 625265" d="M1554.81,389.042h-57.374a.142.142,0,0,1-.125-.209L1526,335.927a.147.147,0,0,1,.249,0l28.687,52.906a.142.142,0,0,1-.125.209Zm-57.136-.284h56.9l-28.449-52.466Z" transform="translate(-1497.294 -335.858)" fill="#363e44"/>
      <path id="Trazado_625266" data-name="Trazado 625266" d="M1596.451,446.653h-40.884a.142.142,0,0,1-.125-.21l20.442-37.7a.148.148,0,0,1,.249,0l20.442,37.7a.142.142,0,0,1-.125.21Zm-40.646-.284h40.408l-20.2-37.261Z" transform="translate(-1547.18 -398.347)" fill="#d3bba3"/>
      <g id="Grupo_989889" data-name="Grupo 989889" transform="translate(25.548 19.417)">
        <rect id="Rectángulo_344210" data-name="Rectángulo 344210" width="6.563" height="18.097" fill="#d87355"/>
        <rect id="Rectángulo_344211" data-name="Rectángulo 344211" width="6.563" height="6.285" transform="translate(0 19.916)" fill="#d87355"/>
      </g>
    </g>
  </g>
</svg>
