<svg xmlns="http://www.w3.org/2000/svg" width="1126.858" height="221.86" viewBox="0 0 1126.858 221.86">
  <g id="Grupo_990939" data-name="Grupo 990939" transform="translate(-242.73 -666.98)">
    <path id="Trazado_627030" data-name="Trazado 627030" d="M42.871,10.547V15h-1.5V3.625h4.2a4.215,4.215,0,0,1,2.926.953A3.231,3.231,0,0,1,49.551,7.1a3.189,3.189,0,0,1-1.035,2.551,4.4,4.4,0,0,1-2.965.895Zm0-1.227h2.7a2.7,2.7,0,0,0,1.844-.567,2.075,2.075,0,0,0,.641-1.64,2.143,2.143,0,0,0-.641-1.628,2.525,2.525,0,0,0-1.758-.634H42.871Zm15.023.422h-4.93v4.031h5.727V15H51.465V3.625h7.148V4.852H52.965V8.516h4.93Zm4.172,4.031h5.391V15h-6.9V3.625h1.508ZM70.777,15h-1.5V3.625h1.5Zm11.141-1.492A3.465,3.465,0,0,1,80.3,14.746a6.517,6.517,0,0,1-2.41.41,4.674,4.674,0,0,1-2.469-.652,4.346,4.346,0,0,1-1.668-1.855,6.408,6.408,0,0,1-.605-2.789V8.867a5.982,5.982,0,0,1,1.2-3.984,4.179,4.179,0,0,1,3.371-1.414,4.316,4.316,0,0,1,2.867.91,3.965,3.965,0,0,1,1.328,2.582h-1.5A2.48,2.48,0,0,0,77.73,4.7a2.655,2.655,0,0,0-2.285,1.06,5.173,5.173,0,0,0-.785,3.069v.93a4.848,4.848,0,0,0,.875,3.046A2.836,2.836,0,0,0,77.9,13.93a5.228,5.228,0,0,0,1.477-.187,2.283,2.283,0,0,0,1.047-.631V10.563H77.793V9.336h4.125ZM88.59,10.4H85.918V15H84.41V3.625h3.766a4.457,4.457,0,0,1,2.957.875,3.148,3.148,0,0,1,1.035,2.547A3.062,3.062,0,0,1,91.594,8.9a3.428,3.428,0,0,1-1.6,1.18l2.672,4.828V15H91.059ZM85.918,9.172h2.3A2.6,2.6,0,0,0,90,8.593a1.959,1.959,0,0,0,.66-1.55,2.062,2.062,0,0,0-.629-1.62,2.663,2.663,0,0,0-1.816-.571h-2.3Zm17.1.508a7.037,7.037,0,0,1-.562,2.918,4.261,4.261,0,0,1-1.594,1.9,4.4,4.4,0,0,1-6.4-1.887,6.752,6.752,0,0,1-.59-2.832v-.82a6.953,6.953,0,0,1,.57-2.9,4.218,4.218,0,0,1,4-2.594,4.41,4.41,0,0,1,2.41.66,4.253,4.253,0,0,1,1.605,1.914,7.071,7.071,0,0,1,.563,2.918Zm-1.492-.734a5.1,5.1,0,0,0-.812-3.105,2.68,2.68,0,0,0-2.273-1.082A2.651,2.651,0,0,0,96.2,5.84a5,5,0,0,0-.84,3V9.68a5.107,5.107,0,0,0,.824,3.082,2.888,2.888,0,0,0,4.52.063,5.079,5.079,0,0,0,.82-3.035Z" transform="translate(256.794 686)" fill="#12263f"/>
    <path id="Trazado_627031" data-name="Trazado 627031" d="M43.148,10.4H40.477V15H38.969V3.625h3.766a4.457,4.457,0,0,1,2.957.875,3.148,3.148,0,0,1,1.035,2.547A3.062,3.062,0,0,1,46.152,8.9a3.428,3.428,0,0,1-1.6,1.18l2.672,4.828V15H45.617ZM40.477,9.172h2.3a2.6,2.6,0,0,0,1.777-.579,1.959,1.959,0,0,0,.66-1.55,2.062,2.062,0,0,0-.629-1.62,2.663,2.663,0,0,0-1.816-.571h-2.3ZM50.438,15h-1.5V3.625h1.5Zm9.172-5.258H54.68v4.031h5.727V15H53.18V3.625h7.148V4.852H54.68V8.516h4.93Zm6.016.188a7.053,7.053,0,0,1-2.809-1.363,2.6,2.6,0,0,1-.879-2,2.751,2.751,0,0,1,1.074-2.223A4.269,4.269,0,0,1,65.8,3.469a4.66,4.66,0,0,1,2.09.453,3.436,3.436,0,0,1,1.422,1.25,3.2,3.2,0,0,1,.5,1.742H68.313a2.08,2.08,0,0,0-.656-1.627A2.669,2.669,0,0,0,65.8,4.7a2.732,2.732,0,0,0-1.73.489,1.632,1.632,0,0,0-.621,1.358,1.468,1.468,0,0,0,.59,1.178,5.785,5.785,0,0,0,2.008.88,9.316,9.316,0,0,1,2.219.88A3.367,3.367,0,0,1,69.457,10.6a2.861,2.861,0,0,1,.387,1.508,2.658,2.658,0,0,1-1.078,2.215,4.6,4.6,0,0,1-2.883.832,5.347,5.347,0,0,1-2.187-.449,3.681,3.681,0,0,1-1.566-1.23,3,3,0,0,1-.551-1.773h1.508a1.959,1.959,0,0,0,.762,1.629,3.207,3.207,0,0,0,2.035.6,2.948,2.948,0,0,0,1.82-.484,1.573,1.573,0,0,0,.633-1.32,1.545,1.545,0,0,0-.586-1.293A6.755,6.755,0,0,0,65.625,9.93Zm14.539,3.578a3.465,3.465,0,0,1-1.613,1.238,6.517,6.517,0,0,1-2.41.41,4.674,4.674,0,0,1-2.469-.652A4.346,4.346,0,0,1,72,12.648,6.408,6.408,0,0,1,71.4,9.859V8.867a5.982,5.982,0,0,1,1.2-3.984,4.179,4.179,0,0,1,3.371-1.414,4.316,4.316,0,0,1,2.867.91,3.965,3.965,0,0,1,1.328,2.582h-1.5A2.48,2.48,0,0,0,75.977,4.7a2.655,2.655,0,0,0-2.285,1.06,5.173,5.173,0,0,0-.785,3.069v.93a4.848,4.848,0,0,0,.875,3.046,2.836,2.836,0,0,0,2.367,1.13,5.228,5.228,0,0,0,1.477-.187,2.283,2.283,0,0,0,1.047-.631V10.563H76.039V9.336h4.125ZM91.414,9.68a7.037,7.037,0,0,1-.562,2.918,4.261,4.261,0,0,1-1.594,1.9,4.4,4.4,0,0,1-6.4-1.887,6.752,6.752,0,0,1-.59-2.832v-.82a6.953,6.953,0,0,1,.57-2.9,4.218,4.218,0,0,1,4-2.594,4.41,4.41,0,0,1,2.41.66,4.253,4.253,0,0,1,1.605,1.914,7.071,7.071,0,0,1,.563,2.918Zm-1.492-.734a5.1,5.1,0,0,0-.812-3.105,2.68,2.68,0,0,0-2.273-1.082A2.651,2.651,0,0,0,84.6,5.84a5,5,0,0,0-.84,3V9.68a5.107,5.107,0,0,0,.824,3.082,2.888,2.888,0,0,0,4.52.063,5.079,5.079,0,0,0,.82-3.035Z" transform="translate(505.794 686)" fill="#0f2440"/>
    <path id="Trazado_193411" data-name="Trazado 193411" d="M125.312,68.151V90.381H297.585V68.151" transform="translate(118.419 634.275)" fill="none" stroke="#00caf2" stroke-width="1.5" stroke-dasharray="7 7"/>
    <g id="Grupo_173182" data-name="Grupo 173182" transform="translate(219.593 652.073)">
      <path id="Trazado_193403" data-name="Trazado 193403" d="M122.329,31.046V8.041H294.4V31.046h33.106" transform="translate(-98.192 12.589)" fill="none" stroke="#0a3699" stroke-width="2"/>
      <path id="Trazado_193417" data-name="Trazado 193417" d="M342.913,43V59.294l15.148-7.725Z" transform="translate(-122.801 -7.899)" fill="#0a3699"/>
      <rect id="Rectángulo_40520" data-name="Rectángulo 40520" width="2.008" height="8.032" transform="translate(218.104 40.121)" fill="#3d66c3"/>
    </g>
    <path id="Trazado_225611" data-name="Trazado 225611" d="M125.312,68.151V90.381H294.493V68.151" transform="translate(362.511 634.275)" fill="none" stroke="#00caf2" stroke-width="1.5" stroke-dasharray="7 7"/>
    <g id="Grupo_173184" data-name="Grupo 173184" transform="translate(460.593 652.073)">
      <path id="Trazado_193403-2" data-name="Trazado 193403" d="M98.192,31.046h24.138V8.041H294.4V31.046h33.106" transform="translate(-98.192 12.589)" fill="none" stroke="#0a3699" stroke-width="2"/>
      <path id="Trazado_193417-2" data-name="Trazado 193417" d="M342.913,43V59.294l15.148-7.725Z" transform="translate(-122.801 -7.899)" fill="#0a3699"/>
      <rect id="Rectángulo_40520-2" data-name="Rectángulo 40520" width="2.008" height="8.032" transform="translate(218.104 40.121)" fill="#3d66c3"/>
    </g>
    <path id="Trazado_627032" data-name="Trazado 627032" d="M21.445,9.742h-4.93v4.031h5.727V15H15.016V3.625h7.148V4.852H16.516V8.516h4.93ZM32.852,15H31.344L25.617,6.234V15H24.109V3.625h1.508l5.742,8.8v-8.8h1.492Zm8.938-5.023H37.016V15h-1.5V3.625h7.047V4.852H37.016v3.9h4.773Zm9-.234h-4.93v4.031h5.727V15H44.359V3.625h7.148V4.852H45.859V8.516h4.93Zm6.836.656H54.953V15H53.445V3.625h3.766a4.457,4.457,0,0,1,2.957.875A3.148,3.148,0,0,1,61.2,7.047,3.062,3.062,0,0,1,60.629,8.9a3.428,3.428,0,0,1-1.6,1.18L61.7,14.906V15H60.094ZM54.953,9.172h2.3a2.6,2.6,0,0,0,1.777-.579,1.959,1.959,0,0,0,.66-1.55,2.062,2.062,0,0,0-.629-1.62,2.663,2.663,0,0,0-1.816-.571h-2.3ZM65.242,3.625l3.719,9.281L72.68,3.625h1.945V15h-1.5V10.57l.141-4.781L69.531,15H68.383L64.656,5.813,64.8,10.57V15H63.3V3.625ZM83.7,9.742h-4.93v4.031H84.5V15H77.273V3.625h7.148V4.852H78.773V8.516H83.7ZM86.367,15V3.625h3.211a5.169,5.169,0,0,1,2.625.656,4.438,4.438,0,0,1,1.762,1.867,6.078,6.078,0,0,1,.629,2.781v.727a6.1,6.1,0,0,1-.621,2.82A4.369,4.369,0,0,1,92.2,14.336,5.5,5.5,0,0,1,89.516,15Zm1.5-10.148v8.922h1.578a3.434,3.434,0,0,0,2.7-1.079,4.458,4.458,0,0,0,.965-3.073V8.957a4.529,4.529,0,0,0-.91-3.014,3.239,3.239,0,0,0-2.582-1.091Zm15.109,7.172H98.211L97.141,15H95.594L99.938,3.625h1.313L105.6,15h-1.539ZM98.664,10.8h3.867l-1.937-5.32Zm8.469,4.2V3.625h3.211a5.169,5.169,0,0,1,2.625.656,4.438,4.438,0,0,1,1.762,1.867,6.078,6.078,0,0,1,.629,2.781v.727a6.1,6.1,0,0,1-.621,2.82,4.369,4.369,0,0,1-1.773,1.859,5.5,5.5,0,0,1-2.684.664Zm1.5-10.148v8.922h1.578a3.434,3.434,0,0,0,2.7-1.079,4.458,4.458,0,0,0,.965-3.073V8.957a4.529,4.529,0,0,0-.91-3.014,3.239,3.239,0,0,0-2.582-1.091Zm-78.5,25.172H25.367L24.3,33H22.75l4.344-11.375h1.313L32.758,33H31.219ZM25.82,28.8h3.867l-1.937-5.32Zm16.75.594a4.185,4.185,0,0,1-1.332,2.785,4.365,4.365,0,0,1-2.98.98,4.008,4.008,0,0,1-3.23-1.445,5.815,5.815,0,0,1-1.215-3.867V26.75a6.481,6.481,0,0,1,.566-2.789,4.231,4.231,0,0,1,1.605-1.848,4.47,4.47,0,0,1,2.406-.645A4.11,4.11,0,0,1,41.3,22.48a4.235,4.235,0,0,1,1.273,2.8H41.063a3.268,3.268,0,0,0-.848-1.975,2.565,2.565,0,0,0-1.824-.611,2.684,2.684,0,0,0-2.254,1.063,4.882,4.882,0,0,0-.816,3.026v1.1a5.018,5.018,0,0,0,.773,2.948,2.5,2.5,0,0,0,2.164,1.095,2.887,2.887,0,0,0,1.918-.566,3.143,3.143,0,0,0,.887-1.973Zm10.414,0a4.185,4.185,0,0,1-1.332,2.785,4.365,4.365,0,0,1-2.98.98,4.008,4.008,0,0,1-3.23-1.445,5.815,5.815,0,0,1-1.215-3.867V26.75a6.481,6.481,0,0,1,.566-2.789A4.231,4.231,0,0,1,46.4,22.113a4.47,4.47,0,0,1,2.406-.645,4.11,4.11,0,0,1,2.906,1.012,4.235,4.235,0,0,1,1.273,2.8H51.477a3.268,3.268,0,0,0-.848-1.975A2.565,2.565,0,0,0,48.8,22.7a2.684,2.684,0,0,0-2.254,1.063,4.882,4.882,0,0,0-.816,3.026v1.1a5.018,5.018,0,0,0,.773,2.948,2.5,2.5,0,0,0,2.164,1.095,2.887,2.887,0,0,0,1.918-.566,3.143,3.143,0,0,0,.887-1.973ZM56.641,33h-1.5V21.625h1.5Zm2.742,0V21.625h3.211a5.169,5.169,0,0,1,2.625.656,4.438,4.438,0,0,1,1.762,1.867,6.078,6.078,0,0,1,.629,2.781v.727a6.1,6.1,0,0,1-.621,2.82,4.369,4.369,0,0,1-1.773,1.859A5.5,5.5,0,0,1,62.531,33Zm1.5-10.148v8.922h1.578a3.434,3.434,0,0,0,2.7-1.079,4.458,4.458,0,0,0,.965-3.073v-.665a4.529,4.529,0,0,0-.91-3.014,3.239,3.239,0,0,0-2.582-1.091ZM76.3,27.742h-4.93v4.031H77.1V33H69.875V21.625h7.148v1.227H71.375v3.664H76.3ZM87.711,33H86.2l-5.727-8.766V33H78.969V21.625h1.508l5.742,8.8v-8.8h1.492Zm10.3-10.148H94.352V33H92.859V22.852H89.211V21.625h8.8Zm8.117,4.891H101.2v4.031h5.727V33H99.7V21.625h7.148v1.227H101.2v3.664h4.93Z" transform="translate(748.794 677)" fill="#0f2440"/>
    <path id="Trazado_225612" data-name="Trazado 225612" d="M125.312,68.151V90.381H294.493V68.151" transform="translate(605.511 634.275)" fill="none" stroke="#00caf2" stroke-width="1.5" stroke-dasharray="7 7"/>
    <g id="Grupo_173186" data-name="Grupo 173186" transform="translate(703.593 652.073)">
      <path id="Trazado_193403-3" data-name="Trazado 193403" d="M98.192,31.046h24.138V8.041H294.4V31.046h33.106" transform="translate(-98.192 12.589)" fill="none" stroke="#0a3699" stroke-width="2"/>
      <path id="Trazado_193417-3" data-name="Trazado 193417" d="M342.913,43V59.294l15.148-7.725Z" transform="translate(-122.801 -7.899)" fill="#0a3699"/>
      <rect id="Rectángulo_40520-3" data-name="Rectángulo 40520" width="2.008" height="8.032" transform="translate(218.104 40.121)" fill="#3d66c3"/>
    </g>
    <path id="Trazado_627034" data-name="Trazado 627034" d="M27.316,10.547V15h-1.5V3.625h4.2a4.215,4.215,0,0,1,2.926.953A3.231,3.231,0,0,1,34,7.1a3.189,3.189,0,0,1-1.035,2.551A4.4,4.4,0,0,1,30,10.547Zm0-1.227h2.7a2.7,2.7,0,0,0,1.844-.567,2.075,2.075,0,0,0,.641-1.64,2.143,2.143,0,0,0-.641-1.628A2.525,2.525,0,0,0,30.1,4.852H27.316Zm15.023.422H37.41v4.031h5.727V15H35.91V3.625h7.148V4.852H37.41V8.516h4.93Zm6.836.656H46.5V15H45V3.625h3.766a4.457,4.457,0,0,1,2.957.875,3.148,3.148,0,0,1,1.035,2.547A3.062,3.062,0,0,1,52.18,8.9a3.428,3.428,0,0,1-1.6,1.18l2.672,4.828V15H51.645ZM46.5,9.172h2.3a2.6,2.6,0,0,0,1.777-.579,1.959,1.959,0,0,0,.66-1.55,2.062,2.062,0,0,0-.629-1.62A2.663,2.663,0,0,0,48.8,4.852H46.5Zm11.7.758A7.053,7.053,0,0,1,55.4,8.566a2.6,2.6,0,0,1-.879-2,2.751,2.751,0,0,1,1.074-2.223,4.269,4.269,0,0,1,2.793-.879,4.66,4.66,0,0,1,2.09.453A3.436,3.436,0,0,1,61.9,5.172a3.2,3.2,0,0,1,.5,1.742H60.895a2.08,2.08,0,0,0-.656-1.627A2.669,2.669,0,0,0,58.387,4.7a2.732,2.732,0,0,0-1.73.489,1.632,1.632,0,0,0-.621,1.358,1.468,1.468,0,0,0,.59,1.178,5.785,5.785,0,0,0,2.008.88,9.316,9.316,0,0,1,2.219.88A3.367,3.367,0,0,1,62.039,10.6a2.861,2.861,0,0,1,.387,1.508,2.658,2.658,0,0,1-1.078,2.215,4.6,4.6,0,0,1-2.883.832,5.347,5.347,0,0,1-2.187-.449,3.681,3.681,0,0,1-1.566-1.23A3,3,0,0,1,54.16,11.7h1.508a1.959,1.959,0,0,0,.762,1.629,3.207,3.207,0,0,0,2.035.6,2.948,2.948,0,0,0,1.82-.484,1.573,1.573,0,0,0,.633-1.32,1.545,1.545,0,0,0-.586-1.293A6.755,6.755,0,0,0,58.207,9.93ZM73.1,9.68a7.037,7.037,0,0,1-.562,2.918,4.261,4.261,0,0,1-1.594,1.9,4.4,4.4,0,0,1-6.4-1.887,6.752,6.752,0,0,1-.59-2.832v-.82a6.953,6.953,0,0,1,.57-2.9,4.218,4.218,0,0,1,4-2.594,4.41,4.41,0,0,1,2.41.66,4.253,4.253,0,0,1,1.605,1.914A7.071,7.071,0,0,1,73.1,8.961Zm-1.492-.734a5.1,5.1,0,0,0-.812-3.105A2.68,2.68,0,0,0,68.52,4.758,2.651,2.651,0,0,0,66.281,5.84a5,5,0,0,0-.84,3V9.68a5.107,5.107,0,0,0,.824,3.082,2.888,2.888,0,0,0,4.52.063,5.079,5.079,0,0,0,.82-3.035ZM84.09,15H82.582L76.855,6.234V15H75.348V3.625h1.508l5.742,8.8v-8.8H84.09Zm9.086-2.977H88.41L87.34,15H85.793L90.137,3.625h1.313L95.8,15H94.262ZM88.863,10.8H92.73l-1.937-5.32Zm11.82-.867a7.053,7.053,0,0,1-2.809-1.363,2.6,2.6,0,0,1-.879-2A2.751,2.751,0,0,1,98.07,4.348a4.269,4.269,0,0,1,2.793-.879,4.66,4.66,0,0,1,2.09.453,3.436,3.436,0,0,1,1.422,1.25,3.2,3.2,0,0,1,.5,1.742h-1.508a2.08,2.08,0,0,0-.656-1.627,2.669,2.669,0,0,0-1.852-.592,2.732,2.732,0,0,0-1.73.489,1.632,1.632,0,0,0-.621,1.358A1.468,1.468,0,0,0,99.1,7.72a5.785,5.785,0,0,0,2.008.88,9.316,9.316,0,0,1,2.219.88,3.367,3.367,0,0,1,1.188,1.121,2.861,2.861,0,0,1,.387,1.508,2.658,2.658,0,0,1-1.078,2.215,4.6,4.6,0,0,1-2.883.832,5.347,5.347,0,0,1-2.187-.449,3.681,3.681,0,0,1-1.566-1.23,3,3,0,0,1-.551-1.773h1.508a1.959,1.959,0,0,0,.762,1.629,3.207,3.207,0,0,0,2.035.6,2.948,2.948,0,0,0,1.82-.484,1.573,1.573,0,0,0,.633-1.32,1.545,1.545,0,0,0-.586-1.293A6.755,6.755,0,0,0,100.684,9.93ZM32.348,34.547V39h-1.5V27.625h4.2a4.215,4.215,0,0,1,2.926.953A3.231,3.231,0,0,1,39.027,31.1a3.189,3.189,0,0,1-1.035,2.551,4.4,4.4,0,0,1-2.965.895Zm0-1.227h2.7a2.7,2.7,0,0,0,1.844-.567,2.075,2.075,0,0,0,.641-1.64,2.143,2.143,0,0,0-.641-1.628,2.525,2.525,0,0,0-1.758-.634H32.348ZM45.113,34.4H42.441V39H40.934V27.625H44.7a4.457,4.457,0,0,1,2.957.875,3.148,3.148,0,0,1,1.035,2.547,3.062,3.062,0,0,1-.574,1.852,3.428,3.428,0,0,1-1.6,1.18l2.672,4.828V39H47.582Zm-2.672-1.227h2.3a2.6,2.6,0,0,0,1.777-.579,1.959,1.959,0,0,0,.66-1.55,2.062,2.062,0,0,0-.629-1.62,2.663,2.663,0,0,0-1.816-.571h-2.3Zm17.1.508A7.037,7.037,0,0,1,58.98,36.6a4.261,4.261,0,0,1-1.594,1.9,4.4,4.4,0,0,1-6.4-1.887,6.752,6.752,0,0,1-.59-2.832v-.82a6.953,6.953,0,0,1,.57-2.9,4.218,4.218,0,0,1,4-2.594,4.41,4.41,0,0,1,2.41.66,4.253,4.253,0,0,1,1.605,1.914,7.071,7.071,0,0,1,.563,2.918Zm-1.492-.734a5.1,5.1,0,0,0-.812-3.105,2.68,2.68,0,0,0-2.273-1.082,2.651,2.651,0,0,0-2.238,1.082,5,5,0,0,0-.84,3v.836a5.107,5.107,0,0,0,.824,3.082,2.888,2.888,0,0,0,4.52.063,5.079,5.079,0,0,0,.82-3.035ZM70.16,35.391a4.185,4.185,0,0,1-1.332,2.785,4.365,4.365,0,0,1-2.98.98,4.008,4.008,0,0,1-3.23-1.445A5.815,5.815,0,0,1,61.4,33.844V32.75a6.481,6.481,0,0,1,.566-2.789,4.231,4.231,0,0,1,1.605-1.848,4.47,4.47,0,0,1,2.406-.645,4.11,4.11,0,0,1,2.906,1.012,4.235,4.235,0,0,1,1.273,2.8H68.652a3.268,3.268,0,0,0-.848-1.975A2.565,2.565,0,0,0,65.98,28.7a2.684,2.684,0,0,0-2.254,1.063,4.882,4.882,0,0,0-.816,3.026v1.1a5.018,5.018,0,0,0,.773,2.948,2.5,2.5,0,0,0,2.164,1.095,2.886,2.886,0,0,0,1.918-.566,3.143,3.143,0,0,0,.887-1.973Zm8.477-1.648h-4.93v4.031h5.727V39H72.207V27.625h7.148v1.227H73.707v3.664h4.93Zm6.016.188a7.053,7.053,0,0,1-2.809-1.363,2.6,2.6,0,0,1-.879-2,2.751,2.751,0,0,1,1.074-2.223,4.269,4.269,0,0,1,2.793-.879,4.66,4.66,0,0,1,2.09.453,3.436,3.436,0,0,1,1.422,1.25,3.2,3.2,0,0,1,.5,1.742H87.34a2.08,2.08,0,0,0-.656-1.627,2.669,2.669,0,0,0-1.852-.592,2.732,2.732,0,0,0-1.73.489,1.632,1.632,0,0,0-.621,1.358,1.468,1.468,0,0,0,.59,1.178,5.786,5.786,0,0,0,2.008.88,9.316,9.316,0,0,1,2.219.88A3.367,3.367,0,0,1,88.484,34.6a2.861,2.861,0,0,1,.387,1.508,2.658,2.658,0,0,1-1.078,2.215,4.6,4.6,0,0,1-2.883.832,5.347,5.347,0,0,1-2.187-.449,3.681,3.681,0,0,1-1.566-1.23,3,3,0,0,1-.551-1.773h1.508a1.959,1.959,0,0,0,.762,1.629,3.207,3.207,0,0,0,2.035.6,2.948,2.948,0,0,0,1.82-.484,1.573,1.573,0,0,0,.633-1.32,1.545,1.545,0,0,0-.586-1.293A6.755,6.755,0,0,0,84.652,33.93Zm14.891-.25A7.037,7.037,0,0,1,98.98,36.6a4.261,4.261,0,0,1-1.594,1.9,4.4,4.4,0,0,1-6.4-1.887,6.752,6.752,0,0,1-.59-2.832v-.82a6.953,6.953,0,0,1,.57-2.9,4.218,4.218,0,0,1,4-2.594,4.41,4.41,0,0,1,2.41.66,4.253,4.253,0,0,1,1.605,1.914,7.071,7.071,0,0,1,.563,2.918Zm-1.492-.734a5.1,5.1,0,0,0-.812-3.105,2.68,2.68,0,0,0-2.273-1.082,2.651,2.651,0,0,0-2.238,1.082,5,5,0,0,0-.84,3v.836a5.107,5.107,0,0,0,.824,3.082,2.888,2.888,0,0,0,4.52.063,5.079,5.079,0,0,0,.82-3.035Zm-73.1,25.6V63h-1.5V51.625h4.2a4.215,4.215,0,0,1,2.926.953A3.231,3.231,0,0,1,31.629,55.1a3.189,3.189,0,0,1-1.035,2.551,4.4,4.4,0,0,1-2.965.895Zm0-1.227h2.7a2.7,2.7,0,0,0,1.844-.567,2.075,2.075,0,0,0,.641-1.64,2.143,2.143,0,0,0-.641-1.628,2.525,2.525,0,0,0-1.758-.634H24.949ZM37.715,58.4H35.043V63H33.535V51.625H37.3a4.457,4.457,0,0,1,2.957.875,3.148,3.148,0,0,1,1.035,2.547,3.062,3.062,0,0,1-.574,1.852,3.428,3.428,0,0,1-1.6,1.18l2.672,4.828V63H40.184Zm-2.672-1.227h2.3a2.6,2.6,0,0,0,1.777-.579,1.959,1.959,0,0,0,.66-1.55,2.062,2.062,0,0,0-.629-1.62,2.663,2.663,0,0,0-1.816-.571h-2.3Zm17.1.508a7.037,7.037,0,0,1-.562,2.918,4.261,4.261,0,0,1-1.594,1.9,4.4,4.4,0,0,1-6.4-1.887A6.752,6.752,0,0,1,43,57.781v-.82a6.953,6.953,0,0,1,.57-2.9,4.218,4.218,0,0,1,4-2.594,4.41,4.41,0,0,1,2.41.66,4.253,4.253,0,0,1,1.605,1.914,7.071,7.071,0,0,1,.563,2.918Zm-1.492-.734a5.1,5.1,0,0,0-.812-3.105,2.68,2.68,0,0,0-2.273-1.082,2.651,2.651,0,0,0-2.238,1.082,5,5,0,0,0-.84,3v.836a5.107,5.107,0,0,0,.824,3.082,2.888,2.888,0,0,0,4.52.063,5.079,5.079,0,0,0,.82-3.035Zm5.242,1.6V63h-1.5V51.625h4.2a4.215,4.215,0,0,1,2.926.953A3.231,3.231,0,0,1,62.574,55.1a3.189,3.189,0,0,1-1.035,2.551,4.4,4.4,0,0,1-2.965.895Zm0-1.227h2.7a2.7,2.7,0,0,0,1.844-.567,2.075,2.075,0,0,0,.641-1.64,2.143,2.143,0,0,0-.641-1.628,2.525,2.525,0,0,0-1.758-.634H55.895ZM66.1,63H64.6V51.625h1.5Zm9.172-5.258H70.34v4.031h5.727V63H68.84V51.625h7.148v1.227H70.34v3.664h4.93ZM77.934,63V51.625h3.211a5.169,5.169,0,0,1,2.625.656,4.438,4.438,0,0,1,1.762,1.867,6.078,6.078,0,0,1,.629,2.781v.727a6.1,6.1,0,0,1-.621,2.82,4.369,4.369,0,0,1-1.773,1.859A5.5,5.5,0,0,1,81.082,63Zm1.5-10.148v8.922h1.578a3.434,3.434,0,0,0,2.7-1.079,4.458,4.458,0,0,0,.965-3.073v-.665a4.529,4.529,0,0,0-.91-3.014,3.239,3.239,0,0,0-2.582-1.091Zm15.109,7.172H89.777L88.707,63H87.16L91.5,51.625h1.313L97.168,63H95.629ZM90.23,58.8H94.1l-1.937-5.32ZM98.7,63V51.625h3.211a5.169,5.169,0,0,1,2.625.656,4.438,4.438,0,0,1,1.762,1.867,6.078,6.078,0,0,1,.629,2.781v.727a6.1,6.1,0,0,1-.621,2.82,4.369,4.369,0,0,1-1.773,1.859,5.5,5.5,0,0,1-2.684.664Zm1.5-10.148v8.922h1.578a3.434,3.434,0,0,0,2.7-1.079,4.458,4.458,0,0,0,.965-3.073v-.665a4.529,4.529,0,0,0-.91-3.014,3.239,3.239,0,0,0-2.582-1.091Z" transform="translate(1218.62 684.086)" fill="#0f2440"/>
    <path id="Trazado_225615" data-name="Trazado 225615" d="M290.438,121.433H125.312V68.151" transform="translate(1074.562 644.844)" fill="none" stroke="#00caf2" stroke-width="1.5" stroke-dasharray="7 7"/>
    <path id="Trazado_627035" data-name="Trazado 627035" d="M40,10.547V15H38.5V3.625h4.2a4.215,4.215,0,0,1,2.926.953A3.231,3.231,0,0,1,46.676,7.1a3.189,3.189,0,0,1-1.035,2.551,4.4,4.4,0,0,1-2.965.895ZM40,9.32h2.7a2.7,2.7,0,0,0,1.844-.567,2.075,2.075,0,0,0,.641-1.64,2.143,2.143,0,0,0-.641-1.628,2.525,2.525,0,0,0-1.758-.634H40Zm15.023.422H50.09v4.031h5.727V15H48.59V3.625h7.148V4.852H50.09V8.516h4.93ZM52.816.5h1.75L52.473,2.8l-1.164,0Zm9.039,9.9H59.184V15H57.676V3.625h3.766A4.457,4.457,0,0,1,64.4,4.5a3.148,3.148,0,0,1,1.035,2.547A3.062,3.062,0,0,1,64.859,8.9a3.428,3.428,0,0,1-1.6,1.18l2.672,4.828V15H64.324ZM59.184,9.172h2.3a2.6,2.6,0,0,0,1.777-.579,1.959,1.959,0,0,0,.66-1.55,2.062,2.062,0,0,0-.629-1.62,2.663,2.663,0,0,0-1.816-.571h-2.3ZM67.535,15V3.625h3.211a5.169,5.169,0,0,1,2.625.656,4.438,4.438,0,0,1,1.762,1.867,6.078,6.078,0,0,1,.629,2.781v.727a6.1,6.1,0,0,1-.621,2.82,4.369,4.369,0,0,1-1.773,1.859A5.5,5.5,0,0,1,70.684,15Zm1.5-10.148v8.922h1.578a3.434,3.434,0,0,0,2.7-1.079,4.458,4.458,0,0,0,.965-3.073V8.957a4.529,4.529,0,0,0-.91-3.014,3.239,3.239,0,0,0-2.582-1.091ZM79.637,15h-1.5V3.625h1.5Zm2.742,0V3.625H85.59a5.169,5.169,0,0,1,2.625.656,4.438,4.438,0,0,1,1.762,1.867,6.078,6.078,0,0,1,.629,2.781v.727a6.1,6.1,0,0,1-.621,2.82,4.369,4.369,0,0,1-1.773,1.859A5.5,5.5,0,0,1,85.527,15Zm1.5-10.148v8.922h1.578a3.434,3.434,0,0,0,2.7-1.079,4.458,4.458,0,0,0,.965-3.073V8.957a4.529,4.529,0,0,0-.91-3.014,3.239,3.239,0,0,0-2.582-1.091Zm15.109,7.172H94.223L93.152,15H91.605L95.949,3.625h1.313L101.613,15h-1.539ZM94.676,10.8h3.867l-1.937-5.32Z" transform="translate(1108.451 838.511)" fill="#12263f"/>
    <path id="Trazado_193407" data-name="Trazado 193407" d="M1202.931,487.633h-44.178V451.821H972v35.812" transform="translate(113.068 359.725)" fill="none" stroke="#0a3699" stroke-width="2"/>
    <path id="Trazado_193414" data-name="Trazado 193414" d="M1202.753,533.01v27.755H1016V519.917" transform="translate(69.068 327.076)" fill="none" stroke="#0a3699" stroke-width="2"/>
    <path id="Trazado_193605" data-name="Trazado 193605" d="M1213.095,440.542H1136v64.027" transform="translate(-64.854 359.734)" fill="none" stroke="#00caf2" stroke-width="1"/>
    <path id="Trazado_627033" data-name="Trazado 627033" d="M44.734,15V3.625h3.211a5.169,5.169,0,0,1,2.625.656,4.438,4.438,0,0,1,1.762,1.867,6.078,6.078,0,0,1,.629,2.781v.727a6.1,6.1,0,0,1-.621,2.82,4.369,4.369,0,0,1-1.773,1.859A5.5,5.5,0,0,1,47.883,15Zm1.5-10.148v8.922h1.578a3.434,3.434,0,0,0,2.7-1.079,4.458,4.458,0,0,0,.965-3.073V8.957a4.529,4.529,0,0,0-.91-3.014,3.239,3.239,0,0,0-2.582-1.091Zm15.109,7.172H56.578L55.508,15H53.961L58.3,3.625h1.313L63.969,15H62.43ZM57.031,10.8H60.9l-1.937-5.32ZM74.242,15H72.734L67.008,6.234V15H65.5V3.625h1.508l5.742,8.8v-8.8h1.492ZM72.625.828a1.942,1.942,0,0,1-.48,1.367,1.561,1.561,0,0,1-1.2.523,1.759,1.759,0,0,1-.555-.078,2.993,2.993,0,0,1-.613-.32,2.656,2.656,0,0,0-.547-.293,1.338,1.338,0,0,0-.387-.051.717.717,0,0,0-.547.246.892.892,0,0,0-.227.629L67.1,2.8a2.039,2.039,0,0,1,.473-1.383,1.516,1.516,0,0,1,1.2-.547,1.457,1.457,0,0,1,.492.078,3.587,3.587,0,0,1,.594.3,3.494,3.494,0,0,0,.574.3,1.319,1.319,0,0,0,.441.07.7.7,0,0,0,.559-.266.932.932,0,0,0,.223-.617ZM85.656,9.68a7.037,7.037,0,0,1-.562,2.918A4.261,4.261,0,0,1,83.5,14.5a4.4,4.4,0,0,1-6.4-1.887,6.752,6.752,0,0,1-.59-2.832v-.82a6.953,6.953,0,0,1,.57-2.9,4.218,4.218,0,0,1,4-2.594,4.41,4.41,0,0,1,2.41.66,4.253,4.253,0,0,1,1.605,1.914,7.071,7.071,0,0,1,.563,2.918Zm-1.492-.734a5.1,5.1,0,0,0-.812-3.105,2.68,2.68,0,0,0-2.273-1.082A2.651,2.651,0,0,0,78.84,5.84a5,5,0,0,0-.84,3V9.68a5.107,5.107,0,0,0,.824,3.082,2.888,2.888,0,0,0,4.52.063,5.079,5.079,0,0,0,.82-3.035Z" transform="translate(986.794 686)" fill="#0f2440"/>
    <path id="Trazado_625372" data-name="Trazado 625372" d="M125.312,68.151V90.381H294.493V68.151" transform="translate(843.511 634.275)" fill="none" stroke="#00caf2" stroke-width="1.5" stroke-dasharray="7 7"/>
    <g id="Grupo_989947" data-name="Grupo 989947" transform="translate(941.593 652.073)">
      <path id="Trazado_193403-4" data-name="Trazado 193403" d="M98.192,31.046h24.138V8.041H294.4V31.046h33.106" transform="translate(-98.192 12.589)" fill="none" stroke="#0a3699" stroke-width="2"/>
      <path id="Trazado_193417-4" data-name="Trazado 193417" d="M342.913,43V59.294l15.148-7.725Z" transform="translate(-122.801 -7.899)" fill="#0a3699"/>
      <rect id="Rectángulo_40520-4" data-name="Rectángulo 40520" width="2.008" height="8.032" transform="translate(218.104 40.121)" fill="#3d66c3"/>
    </g>
    <g id="Grupo_989948" data-name="Grupo 989948" transform="translate(165.229 -2148.093)">
      <g id="Grupo_173189" data-name="Grupo 173189" transform="translate(1014.364 2816.073)">
        <path id="Trazado_193410" data-name="Trazado 193410" d="M831,35.957h19.307V8.041H1020V187.1H986.112" transform="translate(-831 -8.041)" fill="none" stroke="#0a3699" stroke-width="2"/>
        <path id="Trazado_193498" data-name="Trazado 193498" d="M1162.148,295.786V279.493L1147,287.218Z" transform="translate(-1005.381 -107.767)" fill="#0a3699"/>
        <rect id="Rectángulo_40525" data-name="Rectángulo 40525" width="2.008" height="8.032" transform="translate(156.767 175.857)" fill="#3d66c3"/>
      </g>
    </g>
  </g>
</svg>
