<svg xmlns="http://www.w3.org/2000/svg" width="250.298" height="256.311" viewBox="0 0 250.298 256.311">
  <g id="Occupational_accident_insurance" data-name="Occupational accident insurance" transform="translate(-335 -291.044)">
    <circle id="Elipse_4986" data-name="Elipse 4986" cx="125.149" cy="125.149" r="125.149" transform="translate(335 297.056)" fill="#f2e6dc"/>
    <g id="Grupo_989837" data-name="Grupo 989837" transform="translate(422.058 291.044)">
      <path id="Trazado_625147" data-name="Trazado 625147" d="M1986.575,548.644a.313.313,0,0,1-.263-.483l5.765-8.944a.313.313,0,1,1,.527.34l-5.765,8.944A.313.313,0,0,1,1986.575,548.644Z" transform="translate(-1847.469 -505.15)" fill="#efbc73"/>
      <path id="Trazado_625148" data-name="Trazado 625148" d="M1770.042,1331.31a.31.31,0,0,1-.17-.051l-4.191-2.727a.313.313,0,0,1,0-.526l14.174-9.057-14.175-9.14a.313.313,0,0,1,0-.527l14.171-9.006-14.17-9.063a.313.313,0,0,1,.338-.528l14.583,9.328a.313.313,0,0,1,0,.528l-14.172,9.007,14.174,9.14a.313.313,0,0,1,0,.527l-14.176,9.059,3.783,2.462a.313.313,0,0,1-.171.576Z" transform="translate(-1656.935 -1153.915)" fill="#efbc73"/>
      <g id="Grupo_989836" data-name="Grupo 989836" transform="translate(0 0)">
        <rect id="Rectángulo_344141" data-name="Rectángulo 344141" width="17.546" height="8.193" transform="translate(162.412 51.422) rotate(180)" fill="#efbc73"/>
        <g id="Grupo_989824" data-name="Grupo 989824" transform="translate(108.584 1.76)">
          <path id="Trazado_625149" data-name="Trazado 625149" d="M1780.339,345.692H1765.7a.313.313,0,0,1-.308-.368l7.383-41.156a.313.313,0,0,1,.308-.258h0a.312.312,0,0,1,.308.259l7.253,41.155a.313.313,0,0,1-.308.368Zm-14.262-.626h13.889l-6.883-39.054Z" transform="translate(-1765.39 -303.91)" fill="#efbc73"/>
          <path id="Trazado_625150" data-name="Trazado 625150" d="M1777.271,376.244a.313.313,0,0,1-.17-.576l9.87-6.4-7.717-4.974a.313.313,0,0,1,0-.528l6.069-3.862-4.745-3.021a.313.313,0,0,1,0-.528l3.713-2.393-2.839-1.834a.313.313,0,0,1-.01-.519l2.552-1.8a.313.313,0,1,1,.362.511l-2.174,1.536,2.857,1.846a.313.313,0,0,1,0,.526l-3.71,2.391,4.747,3.022a.313.313,0,0,1,0,.529l-6.072,3.864,7.713,4.971a.313.313,0,0,1,0,.526l-10.277,6.663A.311.311,0,0,1,1777.271,376.244Z" transform="translate(-1775.376 -343.48)" fill="#efbc73"/>
        </g>
        <g id="Grupo_989825" data-name="Grupo 989825" transform="translate(108.606 42.89)">
          <path id="Trazado_625151" data-name="Trazado 625151" d="M1765.866,740.274a.313.313,0,0,1-.313-.313V604.937a.313.313,0,0,1,.313-.313h14.579a.313.313,0,0,1,.313.313V732.3a.313.313,0,0,1-.626,0V605.25h-13.952v134.71A.313.313,0,0,1,1765.866,740.274Z" transform="translate(-1765.553 -604.624)" fill="#efbc73"/>
          <path id="Trazado_625152" data-name="Trazado 625152" d="M1765.866,699.082a.313.313,0,0,1-.169-.577l14.174-9.058-14.175-9.14a.313.313,0,0,1,0-.528l14.169-9.005-14.17-9.022a.313.313,0,0,1,0-.528l14.177-9.125-14.177-9.158a.313.313,0,0,1,0-.526l14.177-9.125-14.179-9.192a.313.313,0,0,1,0-.525l14.18-9.234L1765.7,605.2a.313.313,0,0,1,.339-.527l14.585,9.4a.313.313,0,0,1,0,.526l-14.182,9.235,14.181,9.194a.313.313,0,0,1,0,.526l-14.177,9.125,14.177,9.158a.313.313,0,0,1,0,.526l-14.174,9.123,14.173,9.024a.313.313,0,0,1,0,.529l-14.172,9.007,14.174,9.14a.313.313,0,0,1,0,.527l-14.585,9.321A.313.313,0,0,1,1765.866,699.082Z" transform="translate(-1765.552 -604.626)" fill="#efbc73"/>
        </g>
        <g id="Grupo_989826" data-name="Grupo 989826" transform="translate(121.599 33.899)">
          <path id="Trazado_625153" data-name="Trazado 625153" d="M1901.134,548.531h-38.65a.313.313,0,0,1-.308-.258l-1.62-9.016a.313.313,0,0,1,.308-.368h40.27a.313.313,0,0,1,.313.313v9.016A.313.313,0,0,1,1901.134,548.531Zm-38.388-.626h38.075v-8.39h-39.583Z" transform="translate(-1860.55 -538.888)" fill="#efbc73"/>
          <path id="Trazado_625154" data-name="Trazado 625154" d="M1901.551,548.644a.313.313,0,0,1-.263-.143l-5.535-8.536-5.467,8.534a.313.313,0,0,1-.263.144h0a.314.314,0,0,1-.263-.143l-5.519-8.536-5.5,8.536a.313.313,0,0,1-.263.143h0a.312.312,0,0,1-.263-.145l-5.418-8.528-5.428,8.528a.313.313,0,0,1-.263.145h0a.313.313,0,0,1-.263-.144l-5.754-8.944a.313.313,0,1,1,.526-.339l5.49,8.532,5.429-8.531a.313.313,0,0,1,.264-.145h0a.312.312,0,0,1,.264.145l5.419,8.53,5.5-8.532a.314.314,0,0,1,.263-.143h0a.313.313,0,0,1,.263.143l5.518,8.535,5.467-8.534a.313.313,0,0,1,.263-.144h0a.313.313,0,0,1,.263.143l5.8,8.944a.313.313,0,0,1-.262.484Z" transform="translate(-1860.968 -539.049)" fill="#efbc73"/>
        </g>
        <g id="Grupo_989827" data-name="Grupo 989827" transform="translate(112.813 30.692)">
          <rect id="Rectángulo_344142" data-name="Rectángulo 344142" width="15.11" height="24.116" transform="translate(15.11 24.116) rotate(180)" fill="#efbc73"/>
          <rect id="Rectángulo_344143" data-name="Rectángulo 344143" width="7.798" height="11.652" transform="translate(11.454 14.905) rotate(180)" fill="#fff"/>
          <path id="Trazado_625155" data-name="Trazado 625155" d="M1829.173,549.216h-8.425V536.938h8.425Zm-7.8-.626h7.172V537.564h-7.172Z" transform="translate(-1817.406 -533.998)" fill="#363e44"/>
        </g>
        <g id="Grupo_989828" data-name="Grupo 989828" transform="translate(69.575)">
          <path id="Trazado_625156" data-name="Trazado 625156" d="M1480.5,334.668a.313.313,0,0,1-.181-.569l43.329-30.564a.313.313,0,0,1,.361.512l-43.329,30.564A.312.312,0,0,1,1480.5,334.668Z" transform="translate(-1480.184 -301.777)" fill="#363e44"/>
          <path id="Trazado_625157" data-name="Trazado 625157" d="M1883.621,335.639a.311.311,0,0,1-.187-.062l-40.82-30.569a.313.313,0,0,1,.375-.5l40.82,30.569a.313.313,0,0,1-.188.564Z" transform="translate(-1792.934 -302.611)" fill="#363e44"/>
          <path id="Trazado_625158" data-name="Trazado 625158" d="M1806.371,295.974a2.465,2.465,0,1,1,2.465-2.465A2.467,2.467,0,0,1,1806.371,295.974Zm0-4.3a1.839,1.839,0,1,0,1.839,1.839A1.84,1.84,0,0,0,1806.371,291.67Z" transform="translate(-1759.63 -291.044)" fill="#363e44"/>
        </g>
        <g id="Grupo_989829" data-name="Grupo 989829" transform="translate(9.213 34.071)">
          <path id="Trazado_625159" data-name="Trazado 625159" d="M1138.568,549.548h-99.387a.313.313,0,0,1-.149-.589l16.219-8.777a.313.313,0,0,1,.149-.038h73.283a.313.313,0,0,1,.208.079l9.885,8.777a.313.313,0,0,1-.208.547Zm-98.15-.626h97.326l-9.179-8.151h-73.085Z" transform="translate(-1038.868 -540.145)" fill="#efbc73"/>
          <path id="Trazado_625160" data-name="Trazado 625160" d="M1189.543,549.658h0a.312.312,0,0,1-.263-.145l-5.267-8.29-5.276,8.291a.313.313,0,0,1-.263.145h0a.313.313,0,0,1-.263-.144l-5.339-8.3-5.358,8.3a.312.312,0,0,1-.263.143h0a.312.312,0,0,1-.263-.144l-5.339-8.3-5.379,8.3a.312.312,0,0,1-.263.143h0a.313.313,0,0,1-.263-.143l-5.345-8.3-5.378,8.3a.313.313,0,0,1-.263.143h0a.313.313,0,0,1-.263-.143l-5.345-8.3-5.379,8.3a.313.313,0,0,1-.262.143h0a.314.314,0,0,1-.262-.142l-4.3-6.6a.313.313,0,0,1,.525-.343l4.041,6.194,5.381-8.3a.312.312,0,0,1,.263-.143h0a.313.313,0,0,1,.263.143l5.345,8.3,5.378-8.3a.313.313,0,0,1,.263-.143h0a.313.313,0,0,1,.263.143l5.345,8.3,5.378-8.3a.313.313,0,0,1,.263-.143h0a.313.313,0,0,1,.263.144l5.339,8.3,5.358-8.3a.312.312,0,0,1,.263-.143h0a.312.312,0,0,1,.263.144l5.337,8.294,5.278-8.293a.313.313,0,0,1,.264-.145h0a.312.312,0,0,1,.264.145l5.268,8.293,5.347-8.295a.313.313,0,0,1,.263-.143h0a.313.313,0,0,1,.263.143l5.378,8.3,5.343-8.3a.313.313,0,1,1,.527.339l-5.605,8.706a.313.313,0,0,1-.263.144h0a.313.313,0,0,1-.263-.143l-5.379-8.3-5.349,8.3A.314.314,0,0,1,1189.543,549.658Z" transform="translate(-1116.574 -540.301)" fill="#efbc73"/>
        </g>
        <g id="Grupo_989835" data-name="Grupo 989835" transform="translate(0 44.482)">
          <g id="Grupo_989830" data-name="Grupo 989830" transform="translate(32.035 7.893)">
            <path id="Trazado_625161" data-name="Trazado 625161" d="M1276.013,702.419a.313.313,0,0,1-.313-.313V674.284a.313.313,0,0,1,.626,0v27.822A.313.313,0,0,1,1276.013,702.419Z" transform="translate(-1266.129 -673.971)" fill="#8b865c"/>
            <path id="Trazado_625162" data-name="Trazado 625162" d="M1206.034,702.419a.313.313,0,0,1-.313-.313V674.284a.313.313,0,1,1,.626,0v27.822A.313.313,0,0,1,1206.034,702.419Z" transform="translate(-1205.721 -673.971)" fill="#8b865c"/>
          </g>
          <g id="Grupo_989831" data-name="Grupo 989831" transform="translate(31.335 36.691)">
            <path id="Trazado_625163" data-name="Trazado 625163" d="M1200.6,902.454h11.6v4.42l-3.095,3.837H1203.7l-3.095-3.837Z" transform="translate(-1200.604 -900.002)" fill="#efbc73"/>
            <path id="Trazado_625164" data-name="Trazado 625164" d="M1218.14,967.859h-.021a3.727,3.727,0,0,1-.063-7.433v-3.219a.313.313,0,0,1,.626,0v3.832h-.313a3.1,3.1,0,0,0-.209,6.195.313.313,0,0,1-.021.626Z" transform="translate(-1212.722 -946.995)" fill="#363e44"/>
            <path id="Trazado_625165" data-name="Trazado 625165" d="M1256.1,1010.808a.313.313,0,0,1-.2-.551,3.1,3.1,0,0,0,1.09-2.361.313.313,0,1,1,.626,0,3.725,3.725,0,0,1-1.31,2.837A.312.312,0,0,1,1256.1,1010.808Z" transform="translate(-1248.237 -990.752)" fill="#363e44"/>
            <path id="Trazado_625166" data-name="Trazado 625166" d="M1208.284,889.455a2.465,2.465,0,1,1,2.464-2.465A2.468,2.468,0,0,1,1208.284,889.455Zm0-4.3a1.838,1.838,0,1,0,1.838,1.838A1.84,1.84,0,0,0,1208.284,885.151Z" transform="translate(-1205.106 -884.525)" fill="#363e44"/>
            <path id="Trazado_625167" data-name="Trazado 625167" d="M1246.677,889.455a2.465,2.465,0,1,1,2.464-2.465A2.468,2.468,0,0,1,1246.677,889.455Zm0-4.3a1.838,1.838,0,1,0,1.838,1.838A1.84,1.84,0,0,0,1246.677,885.151Z" transform="translate(-1238.248 -884.525)" fill="#363e44"/>
          </g>
          <g id="Grupo_989832" data-name="Grupo 989832" transform="translate(31.335)">
            <rect id="Rectángulo_344144" data-name="Rectángulo 344144" width="11.598" height="4.42" fill="#efbc73"/>
            <path id="Trazado_625168" data-name="Trazado 625168" d="M1208.284,636.35a2.465,2.465,0,1,1,2.464-2.465A2.468,2.468,0,0,1,1208.284,636.35Zm0-4.3a1.839,1.839,0,1,0,1.838,1.838A1.841,1.841,0,0,0,1208.284,632.046Z" transform="translate(-1205.106 -629.347)" fill="#8b865c"/>
            <path id="Trazado_625169" data-name="Trazado 625169" d="M1246.677,636.35a2.465,2.465,0,1,1,2.464-2.465A2.468,2.468,0,0,1,1246.677,636.35Zm0-4.3a1.839,1.839,0,1,0,1.838,1.838A1.84,1.84,0,0,0,1246.677,632.046Z" transform="translate(-1238.248 -629.347)" fill="#8b865c"/>
          </g>
          <g id="Grupo_989834" data-name="Grupo 989834" transform="translate(0 56.076)">
            <path id="Trazado_625170" data-name="Trazado 625170" d="M1258.351,1038.714a.312.312,0,0,1-.176-.054l-17.421-11.839a.313.313,0,0,1,.352-.518l17.421,11.839a.313.313,0,0,1-.176.572Z" transform="translate(-1203.81 -1026.249)" fill="#363e44"/>
            <path id="Trazado_625171" data-name="Trazado 625171" d="M1130.256,1047.284a.313.313,0,0,1-.2-.555l12.842-10.481a.313.313,0,0,1,.4.485l-12.842,10.481A.312.312,0,0,1,1130.256,1047.284Z" transform="translate(-1108.272 -1034.818)" fill="#363e44"/>
            <g id="Grupo_989833" data-name="Grupo 989833" transform="translate(0 12.665)">
              <rect id="Rectángulo_344145" data-name="Rectángulo 344145" width="74.267" height="7.902" transform="translate(0 3.552)" fill="#40484c"/>
              <path id="Trazado_625172" data-name="Trazado 625172" d="M1118.67,1121.656a.313.313,0,0,1-.313-.313,1.868,1.868,0,1,0-3.736,0,.313.313,0,0,1-.626,0,2.495,2.495,0,1,1,4.989,0A.313.313,0,0,1,1118.67,1121.656Z" transform="translate(-1094.505 -1118.848)" fill="#363e44"/>
              <path id="Trazado_625173" data-name="Trazado 625173" d="M1357.261,1121.824a.313.313,0,0,1-.313-.313,1.868,1.868,0,1,0-3.737,0,.313.313,0,0,1-.626,0,2.495,2.495,0,1,1,4.989,0A.313.313,0,0,1,1357.261,1121.824Z" transform="translate(-1300.463 -1118.993)" fill="#363e44"/>
            </g>
          </g>
        </g>
      </g>
    </g>
    <path id="Trazado_625174" data-name="Trazado 625174" d="M636.3,447.952H628.78v15.685H603.633V447.952h-7.517v15.685H570.968V447.952h-7.517V663.54h7.517v-9h25.148v9h7.517v-9H628.78v9H636.3V447.952ZM593.545,646.891H568.4V624.053h25.148Zm0-30.206H568.4V593.414h25.148Zm0-30.639H568.4V562.776h25.148Zm0-30.639H568.4V532.137h25.148Zm0-30.639H568.4V501.5h25.148Zm0-30.639H568.4V470.764h25.148Zm32.665,152.76H601.062V624.053H626.21Zm0-30.206H601.062V593.414H626.21Zm0-30.639H601.062V562.776H626.21Zm0-30.639H601.062V532.137H626.21Zm0-30.639H601.062V501.5H626.21Zm0-30.639H601.062V470.764H626.21Z" transform="translate(-197.205 -135.447)" fill="#e6d0be"/>
    <g id="Grupo_989842" data-name="Grupo 989842" transform="translate(536.093 391.606)">
      <g id="Grupo_989839" data-name="Grupo 989839">
        <rect id="Rectángulo_344146" data-name="Rectángulo 344146" width="32.536" height="57.387" fill="#fff"/>
        <g id="Grupo_989838" data-name="Grupo 989838" transform="translate(3.764 5.235)">
          <rect id="Rectángulo_344147" data-name="Rectángulo 344147" width="2.583" height="4.557" fill="#f2e6dc"/>
          <rect id="Rectángulo_344148" data-name="Rectángulo 344148" width="2.583" height="4.557" transform="translate(7.4)" fill="#f2e6dc"/>
          <rect id="Rectángulo_344149" data-name="Rectángulo 344149" width="2.583" height="4.557" transform="translate(14.799)" fill="#f2e6dc"/>
          <rect id="Rectángulo_344150" data-name="Rectángulo 344150" width="2.583" height="4.557" transform="translate(22.199)" fill="#f2e6dc"/>
          <rect id="Rectángulo_344151" data-name="Rectángulo 344151" width="2.583" height="4.557" transform="translate(0 10.423)" fill="#f2e6dc"/>
          <rect id="Rectángulo_344152" data-name="Rectángulo 344152" width="2.583" height="4.557" transform="translate(7.4 10.423)" fill="#f2e6dc"/>
          <rect id="Rectángulo_344153" data-name="Rectángulo 344153" width="2.583" height="4.557" transform="translate(14.799 10.423)" fill="#f2e6dc"/>
          <rect id="Rectángulo_344154" data-name="Rectángulo 344154" width="2.583" height="4.557" transform="translate(22.199 10.423)" fill="#f2e6dc"/>
          <rect id="Rectángulo_344155" data-name="Rectángulo 344155" width="2.583" height="4.557" transform="translate(0 20.846)" fill="#f2e6dc"/>
          <rect id="Rectángulo_344156" data-name="Rectángulo 344156" width="2.583" height="4.557" transform="translate(7.4 20.846)" fill="#f2e6dc"/>
          <rect id="Rectángulo_344157" data-name="Rectángulo 344157" width="2.583" height="4.557" transform="translate(14.799 20.846)" fill="#f2e6dc"/>
          <rect id="Rectángulo_344158" data-name="Rectángulo 344158" width="2.583" height="4.557" transform="translate(22.199 20.846)" fill="#f2e6dc"/>
          <rect id="Rectángulo_344159" data-name="Rectángulo 344159" width="2.583" height="4.557" transform="translate(0 41.691)" fill="#f2e6dc"/>
          <rect id="Rectángulo_344160" data-name="Rectángulo 344160" width="2.583" height="4.557" transform="translate(7.4 41.691)" fill="#f2e6dc"/>
          <rect id="Rectángulo_344161" data-name="Rectángulo 344161" width="2.583" height="4.557" transform="translate(14.799 41.691)" fill="#f2e6dc"/>
          <rect id="Rectángulo_344162" data-name="Rectángulo 344162" width="2.583" height="4.557" transform="translate(22.199 41.691)" fill="#f2e6dc"/>
        </g>
      </g>
      <g id="Grupo_989841" data-name="Grupo 989841" transform="translate(4.815 32.981)">
        <rect id="Rectángulo_344163" data-name="Rectángulo 344163" width="39.791" height="72.836" fill="#e6d0be"/>
        <g id="Grupo_989840" data-name="Grupo 989840" transform="translate(4.603 6.402)">
          <rect id="Rectángulo_344164" data-name="Rectángulo 344164" width="3.159" height="5.573" fill="#fff"/>
          <rect id="Rectángulo_344165" data-name="Rectángulo 344165" width="3.159" height="5.573" transform="translate(9.05)" fill="#fff"/>
          <rect id="Rectángulo_344166" data-name="Rectángulo 344166" width="3.159" height="5.573" transform="translate(18.099)" fill="#fff"/>
          <rect id="Rectángulo_344167" data-name="Rectángulo 344167" width="3.159" height="5.573" transform="translate(27.149)" fill="#fff"/>
          <rect id="Rectángulo_344168" data-name="Rectángulo 344168" width="3.159" height="5.573" transform="translate(0 12.747)" fill="#fff"/>
          <rect id="Rectángulo_344169" data-name="Rectángulo 344169" width="3.159" height="5.573" transform="translate(9.05 12.747)" fill="#fff"/>
          <rect id="Rectángulo_344170" data-name="Rectángulo 344170" width="3.159" height="5.573" transform="translate(18.099 12.747)" fill="#fff"/>
          <rect id="Rectángulo_344171" data-name="Rectángulo 344171" width="3.159" height="5.573" transform="translate(27.149 12.747)" fill="#fff"/>
          <rect id="Rectángulo_344172" data-name="Rectángulo 344172" width="3.159" height="5.573" transform="translate(0 25.494)" fill="#fff"/>
          <rect id="Rectángulo_344173" data-name="Rectángulo 344173" width="3.159" height="5.573" transform="translate(9.05 25.494)" fill="#fff"/>
          <rect id="Rectángulo_344174" data-name="Rectángulo 344174" width="3.159" height="5.573" transform="translate(18.099 25.494)" fill="#fff"/>
          <rect id="Rectángulo_344175" data-name="Rectángulo 344175" width="3.159" height="5.573" transform="translate(27.149 25.494)" fill="#fff"/>
          <rect id="Rectángulo_344176" data-name="Rectángulo 344176" width="3.159" height="5.573" transform="translate(0 38.241)" fill="#fff"/>
          <rect id="Rectángulo_344177" data-name="Rectángulo 344177" width="3.159" height="5.573" transform="translate(9.05 38.241)" fill="#fff"/>
          <rect id="Rectángulo_344178" data-name="Rectángulo 344178" width="3.159" height="5.573" transform="translate(18.099 38.241)" fill="#fff"/>
          <rect id="Rectángulo_344179" data-name="Rectángulo 344179" width="3.159" height="5.573" transform="translate(27.149 38.241)" fill="#fff"/>
          <rect id="Rectángulo_344180" data-name="Rectángulo 344180" width="3.159" height="5.573" transform="translate(0 50.988)" fill="#fff"/>
          <rect id="Rectángulo_344181" data-name="Rectángulo 344181" width="3.159" height="5.573" transform="translate(9.05 50.988)" fill="#fff"/>
          <rect id="Rectángulo_344182" data-name="Rectángulo 344182" width="3.159" height="5.573" transform="translate(18.099 50.988)" fill="#fff"/>
          <rect id="Rectángulo_344183" data-name="Rectángulo 344183" width="3.159" height="5.573" transform="translate(27.149 50.988)" fill="#fff"/>
        </g>
      </g>
    </g>
    <g id="Grupo_989860" data-name="Grupo 989860" transform="translate(402.67 422.331)">
      <g id="Grupo_989850" data-name="Grupo 989850" transform="translate(0 63.294)">
        <g id="Grupo_989846" data-name="Grupo 989846" transform="translate(10.318)">
          <g id="Grupo_989843" data-name="Grupo 989843" transform="translate(0 2.055)">
            <path id="Trazado_625175" data-name="Trazado 625175" d="M932.738,1888.395a31.569,31.569,0,0,0-9.091-6.687,32.529,32.529,0,0,0-18.456-2.871,126.61,126.61,0,0,0,21.575,30.224h0a17.823,17.823,0,0,0,8.3-2.716c3.043-1.745,5.823-3.538,5.994-7.139C941.272,1894.762,937.913,1890.2,932.738,1888.395Z" transform="translate(-905.191 -1858.046)" fill="#40484c"/>
            <path id="Trazado_625176" data-name="Trazado 625176" d="M1094.317,1756.821,1137.4,1728.7l2.413,22.919s-30.576,15.62-37.246,18.144a5.225,5.225,0,0,1-5.641-1.281,27.435,27.435,0,0,1-3.776-5A5.233,5.233,0,0,1,1094.317,1756.821Z" transform="translate(-1066.82 -1728.705)" fill="#e2a18d"/>
          </g>
          <g id="Grupo_989844" data-name="Grupo 989844" transform="translate(66.857)">
            <path id="Trazado_625177" data-name="Trazado 625177" d="M1394,1717.143l5.529,22.517c1.659-1.03,2.262-1.332,3.242-1.935l39.883,20.787c10.151,3.214,18.959,4.743,24.928-4.075,3.241-4.788,3.092-15.064.9-20.2l-20.909-6.634-44.793-13.658a5.933,5.933,0,0,0-4.568.462C1396.445,1715.365,1396.729,1715.438,1394,1717.143Z" transform="translate(-1394.001 -1713.68)" fill="#9e9569"/>
          </g>
          <g id="Grupo_989845" data-name="Grupo 989845" transform="translate(33.22 6.78)">
            <path id="Trazado_625178" data-name="Trazado 625178" d="M1328.039,1763.247l6.433,20.808-7.338,3.619-4.423-20.909Z" transform="translate(-1298.824 -1763.247)" fill="#f7f1eb"/>
            <path id="Trazado_625179" data-name="Trazado 625179" d="M1148.069,1794.738l25.7-17.527s7.037,20.2,6.735,20.506-25.294,11.7-25.294,11.7Z" transform="translate(-1148.069 -1775.301)" fill="#fff"/>
            <path id="Trazado_625180" data-name="Trazado 625180" d="M1340.771,1796.115a.3.3,0,0,1-.287-.207l-6.735-20.506a.3.3,0,1,1,.573-.188l6.735,20.506a.3.3,0,0,1-.286.4Z" transform="translate(-1308.34 -1773.397)" fill="#363e44"/>
            <path id="Trazado_625181" data-name="Trazado 625181" d="M1301.261,1823.533a.3.3,0,0,1-.264-.156l-9.851-17.792a.3.3,0,0,1,.528-.292l9.851,17.792a.3.3,0,0,1-.264.448Z" transform="translate(-1271.544 -1799.408)" fill="#363e44"/>
            <path id="Trazado_625182" data-name="Trazado 625182" d="M1267.983,1844.637a.3.3,0,0,1-.25-.133l-11.208-16.586a.3.3,0,0,1,.5-.338l11.208,16.586a.3.3,0,0,1-.249.47Z" transform="translate(-1241.646 -1818.667)" fill="#363e44"/>
            <path id="Trazado_625183" data-name="Trazado 625183" d="M1218.239,1876.443a.3.3,0,0,1-.285-.2l-5.931-16.787a.3.3,0,0,1,.569-.2l5.931,16.787a.3.3,0,0,1-.284.4Z" transform="translate(-1203.261 -1845.949)" fill="#363e44"/>
            <path id="Trazado_625184" data-name="Trazado 625184" d="M1243.336,1860.474a.3.3,0,0,1-.271-.17l-8.243-16.988a.3.3,0,1,1,.542-.263l8.243,16.988a.3.3,0,0,1-.271.433Z" transform="translate(-1222.931 -1831.991)" fill="#363e44"/>
            <path id="Trazado_625185" data-name="Trazado 625185" d="M1178.53,1902.589a.3.3,0,0,1-.256-.143l-8.846-14.274a.3.3,0,1,1,.512-.318l8.846,14.274a.3.3,0,0,1-.256.46Z" transform="translate(-1166.467 -1870.688)" fill="#363e44"/>
          </g>
        </g>
        <g id="Grupo_989849" data-name="Grupo 989849" transform="translate(0 4.266)">
          <g id="Grupo_989847" data-name="Grupo 989847" transform="translate(0 16.424)">
            <path id="Trazado_625186" data-name="Trazado 625186" d="M849.013,1886.977a31.571,31.571,0,0,0-4.544-10.33,32.529,32.529,0,0,0-14.564-11.694,126.618,126.618,0,0,0,3.624,36.957h0a17.823,17.823,0,0,0,8.549,1.786c3.507.005,6.811-.162,8.756-3.2C853.234,1896.752,852.6,1891.119,849.013,1886.977Z" transform="translate(-829.751 -1864.953)" fill="#363e44"/>
            <path id="Trazado_625187" data-name="Trazado 625187" d="M951.026,1997.063l21.76-2.31.2,19.9s-14.231-1.119-21.271-2.259a5.225,5.225,0,0,1-4.251-3.924,27.449,27.449,0,0,1-.778-6.219A5.233,5.233,0,0,1,951.026,1997.063Z" transform="translate(-930.692 -1977)" fill="#e2a18d"/>
          </g>
          <g id="Grupo_989848" data-name="Grupo 989848" transform="translate(39.279)">
            <path id="Trazado_625188" data-name="Trazado 625188" d="M1116.928,1778.649l.6,21.109s29.151,1.206,43.023-5.428l37.6-.4c24.6-.427,28.14-1.6,33.574-10.756,4.071-6.861.439-29.719.439-29.719l-41.452-8.58-.521,13.809c-.046,1.229-2.07,4.631-3.3,4.687l-31.161,7.439C1140.45,1772.819,1135.625,1775.03,1116.928,1778.649Z" transform="translate(-1116.928 -1744.874)" fill="#8b865c"/>
          </g>
        </g>
      </g>
      <g id="Grupo_989854" data-name="Grupo 989854" transform="translate(79.479 6.118)">
        <path id="Trazado_625189" data-name="Trazado 625189" d="M1504.019,1433.414l-26.005,15.567-7.766-13.367,26.534-15Z" transform="translate(-1462.124 -1403.521)" fill="#d87355"/>
        <g id="Grupo_989852" data-name="Grupo 989852">
          <path id="Trazado_625190" data-name="Trazado 625190" d="M1431.912,1324.647h0c-3.582-11-5.912-18.871-6.727-21.273a4.674,4.674,0,0,0-.577-1.2c-1.269-1.868-3.167-1.557-5.4-2.912-2.531-1.537-3.086-3.835-3.8-3.594-.5.168-.533,1.094.089,2.855h0c-.627-1.283-1.553-2.987-2.261-2.639-.8.446.057,2.575.636,3.838-.7-1.528-1.531-2.132-1.877-1.839-.545.46-.278,1.772.727,3.756h0c-1.076-1.176-1.513-1.3-1.756-.968-.444.609.412,2.224,1.389,3.536a9.438,9.438,0,0,0,3.336,2.7h0c1.71,7.964,3.154,13.029,4.049,19.547C1420.31,1330.613,1429.823,1330.638,1431.912,1324.647Z" transform="translate(-1410.846 -1295.649)" fill="#e2a18d"/>
          <path id="Trazado_625191" data-name="Trazado 625191" d="M1482.183,1308.588c-.727-2.838-.388-4.016.065-4.117.763-.17,2.375,2,3.961,6.014C1485.041,1310.056,1483.353,1309.015,1482.183,1308.588Z" transform="translate(-1472.062 -1303.256)" fill="#e2a18d"/>
          <path id="Trazado_625192" data-name="Trazado 625192" d="M1554.315,1477.625a.3.3,0,0,1-.287-.208c-.476-1.464-.969-2.991-1.483-4.6a.3.3,0,0,1,.574-.184c.514,1.606,1.006,3.131,1.482,4.594a.3.3,0,0,1-.287.395Z" transform="translate(-1533.152 -1448.247)" fill="#363e44"/>
          <g id="Grupo_989851" data-name="Grupo 989851" transform="translate(1.609 2.584)">
            <path id="Trazado_625193" data-name="Trazado 625193" d="M1454.829,1350.479a.3.3,0,0,1-.292-.227,3.46,3.46,0,0,0-1.019-1.709,3.562,3.562,0,0,0-2.355-.9.3.3,0,1,1,0-.6h0a4.176,4.176,0,0,1,2.76,1.055,4.062,4.062,0,0,1,1.2,2.006.3.3,0,0,1-.292.376Z" transform="translate(-1446.998 -1342.596)" fill="#363e44"/>
            <path id="Trazado_625194" data-name="Trazado 625194" d="M1483.875,1327.673a.3.3,0,0,1-.16-.046,7.929,7.929,0,0,0-1.746-.731c-.31-.1-.631-.21-.966-.337a.3.3,0,0,1,.215-.564c.322.123.637.228.941.329a8.449,8.449,0,0,1,1.876.793.3.3,0,0,1-.161.557Z" transform="translate(-1472.85 -1324.41)" fill="#363e44"/>
            <path id="Trazado_625195" data-name="Trazado 625195" d="M1445.361,1317.029a.3.3,0,0,1-.167-.05,6.083,6.083,0,0,1-1.88-1.984.3.3,0,0,1,.519-.306,5.492,5.492,0,0,0,1.694,1.788.3.3,0,0,1-.167.553Z" transform="translate(-1440.447 -1314.54)" fill="#363e44"/>
            <path id="Trazado_625196" data-name="Trazado 625196" d="M1432.866,1324.329a.3.3,0,0,1-.167-.05,6.091,6.091,0,0,1-1.88-1.984.3.3,0,0,1,.519-.306,5.488,5.488,0,0,0,1.694,1.788.3.3,0,0,1-.167.553Z" transform="translate(-1429.661 -1320.842)" fill="#363e44"/>
            <path id="Trazado_625197" data-name="Trazado 625197" d="M1424.7,1339.927a.3.3,0,0,1-.167-.05,6.093,6.093,0,0,1-1.88-1.984.3.3,0,1,1,.52-.306,5.486,5.486,0,0,0,1.694,1.788.3.3,0,0,1-.167.553Z" transform="translate(-1422.613 -1334.306)" fill="#363e44"/>
          </g>
        </g>
        <path id="Trazado_625198" data-name="Trazado 625198" d="M1629.5,1463.188s-.841-1.66,42.759.438l-6.968-41.167a13.8,13.8,0,0,0-9.892-10.867l-14.942-4.149a11.176,11.176,0,0,0-14.137,11.579Z" transform="translate(-1596.823 -1391.794)" fill="#d87355"/>
        <g id="Grupo_989853" data-name="Grupo 989853" transform="translate(31.404 15.137)">
          <path id="Trazado_625199" data-name="Trazado 625199" d="M1665.584,1606.621l-23.522-6.484-1.206-5.8a35.183,35.183,0,0,1-.377-5.579l2.375-25.332,20.67.578Z" transform="translate(-1640.449 -1541.934)" fill="#8b865c"/>
          <path id="Trazado_625200" data-name="Trazado 625200" d="M1672.608,1624.295h-.135a9.061,9.061,0,0,1-8.927-9.194l.1-6.949a.3.3,0,0,1,.3-.3h0l17.517.258a.3.3,0,0,1,.3.306l-.1,6.949A9.072,9.072,0,0,1,1672.608,1624.295Zm-8.361-15.833-.1,6.647a8.457,8.457,0,0,0,8.333,8.582h.126a8.467,8.467,0,0,0,8.455-8.333l.1-6.648Z" transform="translate(-1660.386 -1580.289)" fill="#fff"/>
          <path id="Trazado_625201" data-name="Trazado 625201" d="M1657.463,1428.235l4.445-.031-.275-21.885-4.272,2.293Z" transform="translate(-1655.048 -1406.319)" fill="#8b865c"/>
          <path id="Trazado_625202" data-name="Trazado 625202" d="M1653.677,1519.489a.3.3,0,0,1-.3-.3l-.02-2.822a.3.3,0,0,1,.3-.3l4.445-.031h0a.3.3,0,0,1,.3.3l.02,2.821a.3.3,0,0,1-.3.3l-4.445.031Zm.284-2.823.016,2.218,3.842-.027-.016-2.218Z" transform="translate(-1651.59 -1501.027)" fill="#ffd092"/>
          <rect id="Rectángulo_344184" data-name="Rectángulo 344184" width="19.666" height="4.185" transform="translate(17.431 22.051) rotate(-77.233)" fill="#8b865c"/>
          <path id="Trazado_625203" data-name="Trazado 625203" d="M1774.2,1522.474a.322.322,0,0,1-.067-.007l-4.347-.985a.3.3,0,0,1-.228-.361l.593-2.616a.3.3,0,0,1,.361-.228l4.346.985a.3.3,0,0,1,.228.361l-.593,2.616A.3.3,0,0,1,1774.2,1522.474Zm-3.986-1.514,3.759.852.459-2.028-3.758-.851Z" transform="translate(-1751.894 -1502.958)" fill="#ffd092"/>
        </g>
        <path id="Trazado_625204" data-name="Trazado 625204" d="M1797.5,1586.876l-1.183-6.53-14.45-9.207.226,7.841c.151,2.413-4.055,1.128-4.578,1.39a161.773,161.773,0,0,0,16.98,14.607C1797.134,1593.243,1798.072,1590.039,1797.5,1586.876Z" transform="translate(-1727.364 -1533.459)" fill="#e2a18d"/>
        <path id="Trazado_625205" data-name="Trazado 625205" d="M1531.087,1615.345c-6.4-.975-22.572-2.372-24.044-2.611-2.751-.446-16.13-2.472-16.449-.532-.2,1.239,6.464,2.377,7.609,2.667-1.422.009-8.676-1.09-8.974.017-.324,1.2,8.213,3.3,8.279,3.341-1.007-.116-7.8-1.005-7.907.074-.127,1.254,7.433,2.968,8.679,3.178-.12.133-5.455-.908-5.743.295-.257,1.072,5.779,2.507,6.582,2.826,2.122.774,6.153,1.643,10.679,2.86,10.631,2.86,24.091,3.882,29.476,4.333a8.468,8.468,0,0,0,9.113-6.076C1545.318,1622.315,1534.155,1618.749,1531.087,1615.345Z" transform="translate(-1478.5 -1568.193)" fill="#e2a18d"/>
        <path id="Trazado_625206" data-name="Trazado 625206" d="M1794.063,1446.015c0,.4-5.126,20.883-5.126,20.883l17.792,6.056-3.253-16.459a11.955,11.955,0,0,0-5.138-7.656Z" transform="translate(-1737.223 -1425.449)" fill="#d87355"/>
        <path id="Trazado_625207" data-name="Trazado 625207" d="M1804.825,1543.2a.3.3,0,0,1-.1-.016l-17.792-6.056a.3.3,0,0,1-.2-.358l2.337-9.5a.3.3,0,1,1,.586.144l-2.271,9.231,17.53,5.967a.3.3,0,0,1-.1.587Z" transform="translate(-1735.32 -1495.391)" fill="#363e44"/>
      </g>
      <g id="Grupo_989859" data-name="Grupo 989859" transform="translate(117.502 0)">
        <g id="Grupo_989858" data-name="Grupo 989858">
          <path id="Trazado_625208" data-name="Trazado 625208" d="M1729.687,1348.535h0a4.06,4.06,0,0,1-4.126-3.973l-.022-8.815a4.062,4.062,0,0,1,4.125-3.994h0a4.062,4.062,0,0,1,4.146,3.972l.025,8.815A4.062,4.062,0,0,1,1729.687,1348.535Z" transform="translate(-1720.517 -1320.698)" fill="#e2a18d"/>
          <path id="Trazado_625209" data-name="Trazado 625209" d="M1712.7,1281.732c-.265-.185-2.831-1.917-5.485-.989-1.975.691-3.108,2.365-4.582,5.462-1.737,3.646-2.265,6.068-1.644,7.33.982,1.993,7.147,2.235,10.672.181a8.112,8.112,0,0,0,3.858-7.379A6.088,6.088,0,0,0,1712.7,1281.732Z" transform="translate(-1699.111 -1276.429)" fill="#e2a18d"/>
          <path id="Trazado_625210" data-name="Trazado 625210" d="M1726,1382.76a12.536,12.536,0,0,1-1.49-.086.3.3,0,0,1,.072-.6,13.333,13.333,0,0,0,5.161-.446.3.3,0,0,1,.17.578A14.135,14.135,0,0,1,1726,1382.76Z" transform="translate(-1719.402 -1363.74)" fill="#363e44"/>
          <g id="Grupo_989855" data-name="Grupo 989855" transform="translate(5.118 10.397)">
            <path id="Trazado_625211" data-name="Trazado 625211" d="M1741.651,1328.061a4.958,4.958,0,0,1-1.983.9,3.5,3.5,0,0,1-.75.061,1.045,1.045,0,1,1,.062-2.083,3.649,3.649,0,0,1,1.042.193q.1.032.187.067t.192.079A5.013,5.013,0,0,1,1741.651,1328.061Z" transform="translate(-1736.247 -1326.938)" fill="#fff"/>
            <path id="Trazado_625212" data-name="Trazado 625212" d="M1726.261,1327.9a4.663,4.663,0,0,1,2.733-.961,3.663,3.663,0,0,1,1.045.193,1.947,1.947,0,0,1-.249,1.68c-.035.052-.073.1-.111.147a3.483,3.483,0,0,1-.747.062A4.662,4.662,0,0,1,1726.261,1327.9Z" transform="translate(-1726.261 -1326.933)" fill="#363e44"/>
          </g>
          <path id="Trazado_625213" data-name="Trazado 625213" d="M1708.591,1331.179a.3.3,0,0,1-.3-.249.96.96,0,0,1,.191-.906.756.756,0,0,1,.47-.187,1.11,1.11,0,0,0,.245-.05.957.957,0,0,0,.426-.318.3.3,0,1,1,.47.377,1.552,1.552,0,0,1-.7.51,1.728,1.728,0,0,1-.369.079.5.5,0,0,0-.128.024c-.023.022-.055.126-.013.364a.3.3,0,0,1-.244.349A.276.276,0,0,1,1708.591,1331.179Z" transform="translate(-1705.608 -1318.628)" fill="#363e44"/>
          <path id="Trazado_625214" data-name="Trazado 625214" d="M1711.162,1354.79a.3.3,0,0,1-.064-.6,1.086,1.086,0,0,0,.608-.353,1.23,1.23,0,0,0,.247-.513,1.578,1.578,0,0,1-.877.182,2.1,2.1,0,0,1-.889-.306.3.3,0,0,1,.319-.512,1.5,1.5,0,0,0,.633.219,1.064,1.064,0,0,0,.584-.141.582.582,0,0,1,.651-.024.532.532,0,0,1,.19.38,1.646,1.646,0,0,1-.4,1.1,1.683,1.683,0,0,1-.942.555A.308.308,0,0,1,1711.162,1354.79Z" transform="translate(-1707.145 -1338.732)" fill="#363e44"/>
          <g id="Grupo_989856" data-name="Grupo 989856" transform="translate(10.405 11.65)">
            <ellipse id="Elipse_4987" data-name="Elipse 4987" cx="2.463" cy="2.142" rx="2.463" ry="2.142" transform="matrix(0.893, -0.45, 0.45, 0.893, 0, 2.219)" fill="#e2a18d"/>
            <path id="Trazado_625215" data-name="Trazado 625215" d="M1771.682,1365.781l-.038,0a2.341,2.341,0,0,1-1.849-1.244.3.3,0,1,1,.538-.272,1.748,1.748,0,0,0,1.386.918.3.3,0,0,1-.038.6Z" transform="translate(-1769.1 -1360.267)" fill="#363e44"/>
            <path id="Trazado_625216" data-name="Trazado 625216" d="M1782.15,1341.329a.3.3,0,0,1-.254-.139,2.071,2.071,0,0,0-2.679-.527.3.3,0,1,1-.272-.538,2.643,2.643,0,0,1,3.459.74.3.3,0,0,1-.254.464Z" transform="translate(-1776.882 -1339.284)" fill="#363e44"/>
            <path id="Trazado_625217" data-name="Trazado 625217" d="M1789.132,1350.714a.3.3,0,0,1-.136-.571.9.9,0,0,0,.433-.454.607.607,0,0,0-.008-.509.643.643,0,0,0-.55-.331.3.3,0,0,1,.04-.6,1.24,1.24,0,0,1,1.048.661,1.2,1.2,0,0,1,.028,1.009,1.5,1.5,0,0,1-.719.764A.3.3,0,0,1,1789.132,1350.714Z" transform="translate(-1785.351 -1346.585)" fill="#363e44"/>
          </g>
          <g id="Grupo_989857" data-name="Grupo 989857">
            <path id="Trazado_625218" data-name="Trazado 625218" d="M1717.644,1255.8c.017-.035.032-.07.05-.105a8.676,8.676,0,0,1,15.5,7.8c-.017.035-.037.068-.055.1Z" transform="translate(-1713.704 -1250.919)" fill="#d87355"/>
            <path id="Trazado_625219" data-name="Trazado 625219" d="M1753.535,1266.364a.3.3,0,0,1-.3-.251,8.377,8.377,0,0,0-11.748-6.2.3.3,0,1,1-.251-.548,8.979,8.979,0,0,1,12.593,6.649.3.3,0,0,1-.246.348A.33.33,0,0,1,1753.535,1266.364Z" transform="translate(-1733.92 -1257.499)" fill="#efbc73"/>
            <path id="Trazado_625220" data-name="Trazado 625220" d="M1750.435,1277.962a.3.3,0,0,1-.292-.229,8.661,8.661,0,0,0-11.01-5.774.3.3,0,0,1-.21-.565,9.261,9.261,0,0,1,11.805,6.194.3.3,0,0,1-.22.365A.3.3,0,0,1,1750.435,1277.962Z" transform="translate(-1731.903 -1268.158)" fill="#efbc73"/>
            <path id="Trazado_625221" data-name="Trazado 625221" d="M1689.371,1278.334l19.172,9.651a.966.966,0,0,0,1.3-.428h0a.966.966,0,0,0-.428-1.3l-19.172-9.651a.966.966,0,0,0-1.3.428h0A.966.966,0,0,0,1689.371,1278.334Z" transform="translate(-1688.84 -1273.006)" fill="#d87355"/>
          </g>
          <path id="Trazado_625222" data-name="Trazado 625222" d="M1707.909,1428.072c0,1.357,1.734,2.262,4.415,2.4,4.406.225,8.418-.219,8.554-1.535s-1.443-2.2-5.832-2.657S1707.909,1427.218,1707.909,1428.072Z" transform="translate(-1705.301 -1402.216)" fill="#e2a18d"/>
        </g>
      </g>
    </g>
  </g>
</svg>
