<svg xmlns="http://www.w3.org/2000/svg" width="554.965" height="187.07" viewBox="0 0 554.965 187.07">
  <g id="Grupo_990940" data-name="Grupo 990940" transform="translate(7319.016 11081.042)">
    <path id="Trazado_627036" data-name="Trazado 627036" d="M32.871,10.547V15h-1.5V3.625h4.2a4.215,4.215,0,0,1,2.926.953A3.231,3.231,0,0,1,39.551,7.1a3.189,3.189,0,0,1-1.035,2.551,4.4,4.4,0,0,1-2.965.895Zm0-1.227h2.7a2.7,2.7,0,0,0,1.844-.567,2.075,2.075,0,0,0,.641-1.64,2.143,2.143,0,0,0-.641-1.628,2.525,2.525,0,0,0-1.758-.634H32.871Zm15.023.422h-4.93v4.031h5.727V15H41.465V3.625h7.148V4.852H42.965V8.516h4.93Zm4.172,4.031h5.391V15h-6.9V3.625h1.508ZM60.777,15h-1.5V3.625h1.5Zm11.141-1.492A3.465,3.465,0,0,1,70.3,14.746a6.517,6.517,0,0,1-2.41.41,4.674,4.674,0,0,1-2.469-.652,4.346,4.346,0,0,1-1.668-1.855,6.408,6.408,0,0,1-.605-2.789V8.867a5.982,5.982,0,0,1,1.2-3.984,4.179,4.179,0,0,1,3.371-1.414,4.316,4.316,0,0,1,2.867.91,3.965,3.965,0,0,1,1.328,2.582h-1.5A2.48,2.48,0,0,0,67.73,4.7a2.655,2.655,0,0,0-2.285,1.06,5.173,5.173,0,0,0-.785,3.069v.93a4.848,4.848,0,0,0,.875,3.046A2.836,2.836,0,0,0,67.9,13.93a5.228,5.228,0,0,0,1.477-.187,2.283,2.283,0,0,0,1.047-.631V10.563H67.793V9.336h4.125ZM78.59,10.4H75.918V15H74.41V3.625h3.766a4.457,4.457,0,0,1,2.957.875,3.148,3.148,0,0,1,1.035,2.547A3.062,3.062,0,0,1,81.594,8.9a3.428,3.428,0,0,1-1.6,1.18l2.672,4.828V15H81.059ZM75.918,9.172h2.3A2.6,2.6,0,0,0,80,8.593a1.959,1.959,0,0,0,.66-1.55,2.062,2.062,0,0,0-.629-1.62,2.663,2.663,0,0,0-1.816-.571h-2.3Zm17.1.508a7.037,7.037,0,0,1-.562,2.918,4.261,4.261,0,0,1-1.594,1.9,4.4,4.4,0,0,1-6.4-1.887,6.752,6.752,0,0,1-.59-2.832v-.82a6.953,6.953,0,0,1,.57-2.9,4.218,4.218,0,0,1,4-2.594,4.41,4.41,0,0,1,2.41.66,4.253,4.253,0,0,1,1.605,1.914,7.071,7.071,0,0,1,.563,2.918Zm-1.492-.734a5.1,5.1,0,0,0-.812-3.105,2.68,2.68,0,0,0-2.273-1.082A2.651,2.651,0,0,0,86.2,5.84a5,5,0,0,0-.84,3V9.68a5.107,5.107,0,0,0,.824,3.082,2.888,2.888,0,0,0,4.52.063,5.079,5.079,0,0,0,.82-3.035Z" transform="translate(-7299.887 -11066.745)" fill="#12263f"/>
    <path id="Trazado_627038" data-name="Trazado 627038" d="M39.148,10.4H36.477V15H34.969V3.625h3.766a4.457,4.457,0,0,1,2.957.875,3.148,3.148,0,0,1,1.035,2.547A3.062,3.062,0,0,1,42.152,8.9a3.428,3.428,0,0,1-1.6,1.18l2.672,4.828V15H41.617ZM36.477,9.172h2.3a2.6,2.6,0,0,0,1.777-.579,1.959,1.959,0,0,0,.66-1.55,2.062,2.062,0,0,0-.629-1.62,2.663,2.663,0,0,0-1.816-.571h-2.3ZM46.438,15h-1.5V3.625h1.5Zm9.172-5.258H50.68v4.031h5.727V15H49.18V3.625h7.148V4.852H50.68V8.516h4.93Zm6.016.188a7.053,7.053,0,0,1-2.809-1.363,2.6,2.6,0,0,1-.879-2,2.751,2.751,0,0,1,1.074-2.223A4.269,4.269,0,0,1,61.8,3.469a4.66,4.66,0,0,1,2.09.453,3.436,3.436,0,0,1,1.422,1.25,3.2,3.2,0,0,1,.5,1.742H64.313a2.08,2.08,0,0,0-.656-1.627A2.669,2.669,0,0,0,61.8,4.7a2.732,2.732,0,0,0-1.73.489,1.632,1.632,0,0,0-.621,1.358,1.468,1.468,0,0,0,.59,1.178,5.785,5.785,0,0,0,2.008.88,9.316,9.316,0,0,1,2.219.88A3.367,3.367,0,0,1,65.457,10.6a2.861,2.861,0,0,1,.387,1.508,2.658,2.658,0,0,1-1.078,2.215,4.6,4.6,0,0,1-2.883.832,5.347,5.347,0,0,1-2.187-.449,3.681,3.681,0,0,1-1.566-1.23,3,3,0,0,1-.551-1.773h1.508a1.959,1.959,0,0,0,.762,1.629,3.207,3.207,0,0,0,2.035.6,2.948,2.948,0,0,0,1.82-.484,1.573,1.573,0,0,0,.633-1.32,1.545,1.545,0,0,0-.586-1.293A6.755,6.755,0,0,0,61.625,9.93Zm14.539,3.578a3.465,3.465,0,0,1-1.613,1.238,6.517,6.517,0,0,1-2.41.41,4.674,4.674,0,0,1-2.469-.652A4.346,4.346,0,0,1,68,12.648,6.408,6.408,0,0,1,67.4,9.859V8.867a5.982,5.982,0,0,1,1.2-3.984,4.179,4.179,0,0,1,3.371-1.414,4.316,4.316,0,0,1,2.867.91,3.965,3.965,0,0,1,1.328,2.582h-1.5A2.48,2.48,0,0,0,71.977,4.7a2.655,2.655,0,0,0-2.285,1.06,5.173,5.173,0,0,0-.785,3.069v.93a4.848,4.848,0,0,0,.875,3.046,2.836,2.836,0,0,0,2.367,1.13,5.228,5.228,0,0,0,1.477-.187,2.283,2.283,0,0,0,1.047-.631V10.563H72.039V9.336h4.125ZM87.414,9.68a7.037,7.037,0,0,1-.562,2.918,4.261,4.261,0,0,1-1.594,1.9,4.4,4.4,0,0,1-6.4-1.887,6.752,6.752,0,0,1-.59-2.832v-.82a6.953,6.953,0,0,1,.57-2.9,4.218,4.218,0,0,1,4-2.594,4.41,4.41,0,0,1,2.41.66,4.253,4.253,0,0,1,1.605,1.914,7.071,7.071,0,0,1,.563,2.918Zm-1.492-.734a5.1,5.1,0,0,0-.812-3.105,2.68,2.68,0,0,0-2.273-1.082A2.651,2.651,0,0,0,80.6,5.84a5,5,0,0,0-.84,3V9.68a5.107,5.107,0,0,0,.824,3.082,2.888,2.888,0,0,0,4.52.063,5.079,5.079,0,0,0,.82-3.035Z" transform="translate(-7097.852 -11066.745)" fill="#0f2440"/>
    <path id="Trazado_625380" data-name="Trazado 625380" d="M125.312,68.151V90.381H274.558V68.151" transform="translate(-7438.262 -11118.47)" fill="none" stroke="#00caf2" stroke-width="1.5" stroke-dasharray="7 7"/>
    <path id="Trazado_625381" data-name="Trazado 625381" d="M122.329,31.046V8.041H271.479V31.046h28.7" transform="translate(-7435.28 -11088.083)" fill="none" stroke="#0a3699" stroke-width="2"/>
    <path id="Trazado_625382" data-name="Trazado 625382" d="M342.913,43V59.294l15.148-7.725Z" transform="translate(-7487.222 -11108.571)" fill="#0a3699"/>
    <path id="Trazado_627037" data-name="Trazado 627037" d="M0,0H2.008V8.032H0Z" transform="translate(-7146.317 -11060.551)" fill="#3d66c3"/>
    <path id="Trazado_625383" data-name="Trazado 625383" d="M125.312,68.151V90.381h131.94V68.151" transform="translate(-7227.137 -11118.47)" fill="none" stroke="#00caf2" stroke-width="1.5" stroke-dasharray="7 7"/>
    <path id="Trazado_625384" data-name="Trazado 625384" d="M98.192,31.046h18.72V8.041h133.45V31.046h25.675" transform="translate(-7219.143 -11088.083)" fill="none" stroke="#0a3699" stroke-width="2"/>
    <path id="Trazado_625385" data-name="Trazado 625385" d="M342.913,43V59.294l15.148-7.725Z" transform="translate(-7295.222 -11108.571)" fill="#0a3699"/>
    <path id="Trazado_627039" data-name="Trazado 627039" d="M0,0H2.008V8.032H0Z" transform="translate(-6954.317 -11060.551)" fill="#3d66c3"/>
    <path id="Trazado_627040" data-name="Trazado 627040" d="M10.624,9.742H5.694v4.031H11.42V15H4.194V3.625h7.148V4.852H5.694V8.516h4.93ZM22.03,15H20.522L14.8,6.234V15H13.288V3.625H14.8l5.742,8.8v-8.8H22.03Zm8.938-5.023H26.194V15h-1.5V3.625h7.047V4.852H26.194v3.9h4.773Zm9-.234h-4.93v4.031h5.727V15H33.538V3.625h7.148V4.852H35.038V8.516h4.93ZM46.8,10.4H44.131V15H42.624V3.625h3.766a4.457,4.457,0,0,1,2.957.875,3.148,3.148,0,0,1,1.035,2.547A3.062,3.062,0,0,1,49.807,8.9a3.428,3.428,0,0,1-1.6,1.18l2.672,4.828V15H49.272ZM44.131,9.172h2.3a2.6,2.6,0,0,0,1.777-.579,1.959,1.959,0,0,0,.66-1.55,2.062,2.062,0,0,0-.629-1.62,2.663,2.663,0,0,0-1.816-.571h-2.3ZM54.42,3.625l3.719,9.281,3.719-9.281H63.8V15H62.3V10.57l.141-4.781L58.709,15H57.561L53.834,5.813l.148,4.758V15h-1.5V3.625ZM72.881,9.742h-4.93v4.031h5.727V15H66.452V3.625H73.6V4.852H67.952V8.516h4.93ZM75.545,15V3.625h3.211a5.169,5.169,0,0,1,2.625.656,4.438,4.438,0,0,1,1.762,1.867,6.078,6.078,0,0,1,.629,2.781v.727a6.1,6.1,0,0,1-.621,2.82,4.369,4.369,0,0,1-1.773,1.859A5.5,5.5,0,0,1,78.694,15Zm1.5-10.148v8.922h1.578a3.434,3.434,0,0,0,2.7-1.079,4.458,4.458,0,0,0,.965-3.073V8.957a4.529,4.529,0,0,0-.91-3.014A3.239,3.239,0,0,0,78.8,4.852Zm15.109,7.172H87.389L86.319,15H84.772L89.116,3.625h1.313L94.78,15H93.241ZM87.842,10.8h3.867l-1.937-5.32ZM96.311,15V3.625h3.211a5.169,5.169,0,0,1,2.625.656,4.438,4.438,0,0,1,1.762,1.867,6.078,6.078,0,0,1,.629,2.781v.727a6.1,6.1,0,0,1-.621,2.82,4.369,4.369,0,0,1-1.773,1.859A5.5,5.5,0,0,1,99.459,15Zm1.5-10.148v8.922h1.578a3.434,3.434,0,0,0,2.7-1.079,4.458,4.458,0,0,0,.965-3.073V8.957a4.529,4.529,0,0,0-.91-3.014,3.239,3.239,0,0,0-2.582-1.091Zm-78.5,25.172H14.545L13.475,33H11.928l4.344-11.375h1.313L21.936,33H20.4ZM15,28.8h3.867l-1.937-5.32Zm16.75.594a4.185,4.185,0,0,1-1.332,2.785,4.365,4.365,0,0,1-2.98.98,4.008,4.008,0,0,1-3.23-1.445,5.815,5.815,0,0,1-1.215-3.867V26.75a6.481,6.481,0,0,1,.566-2.789,4.231,4.231,0,0,1,1.605-1.848,4.47,4.47,0,0,1,2.406-.645,4.11,4.11,0,0,1,2.906,1.012,4.235,4.235,0,0,1,1.273,2.8H30.241a3.268,3.268,0,0,0-.848-1.975,2.565,2.565,0,0,0-1.824-.611,2.684,2.684,0,0,0-2.254,1.063,4.882,4.882,0,0,0-.816,3.026v1.1a5.018,5.018,0,0,0,.773,2.948,2.5,2.5,0,0,0,2.164,1.095,2.887,2.887,0,0,0,1.918-.566,3.143,3.143,0,0,0,.887-1.973Zm10.414,0a4.185,4.185,0,0,1-1.332,2.785,4.365,4.365,0,0,1-2.98.98,4.008,4.008,0,0,1-3.23-1.445A5.815,5.815,0,0,1,33.4,27.844V26.75a6.481,6.481,0,0,1,.566-2.789,4.231,4.231,0,0,1,1.605-1.848,4.47,4.47,0,0,1,2.406-.645,4.11,4.11,0,0,1,2.906,1.012,4.235,4.235,0,0,1,1.273,2.8H40.655a3.268,3.268,0,0,0-.848-1.975,2.565,2.565,0,0,0-1.824-.611,2.684,2.684,0,0,0-2.254,1.063,4.882,4.882,0,0,0-.816,3.026v1.1a5.018,5.018,0,0,0,.773,2.948A2.5,2.5,0,0,0,37.85,31.93a2.887,2.887,0,0,0,1.918-.566,3.143,3.143,0,0,0,.887-1.973ZM45.819,33h-1.5V21.625h1.5Zm2.742,0V21.625h3.211a5.169,5.169,0,0,1,2.625.656,4.438,4.438,0,0,1,1.762,1.867,6.078,6.078,0,0,1,.629,2.781v.727a6.1,6.1,0,0,1-.621,2.82,4.369,4.369,0,0,1-1.773,1.859A5.5,5.5,0,0,1,51.709,33Zm1.5-10.148v8.922h1.578a3.434,3.434,0,0,0,2.7-1.079,4.458,4.458,0,0,0,.965-3.073v-.665a4.529,4.529,0,0,0-.91-3.014,3.239,3.239,0,0,0-2.582-1.091Zm15.422,4.891h-4.93v4.031H66.28V33H59.053V21.625H66.2v1.227H60.553v3.664h4.93ZM76.889,33H75.381l-5.727-8.766V33H68.147V21.625h1.508l5.742,8.8v-8.8h1.492Zm10.3-10.148H83.53V33H82.038V22.852H78.389V21.625h8.8ZM95.3,27.742h-4.93v4.031H96.1V33H88.874V21.625h7.148v1.227H90.374v3.664H95.3Z" transform="translate(-6891.084 -11064.454)" fill="#0f2440"/>
    <path id="Trazado_625386" data-name="Trazado 625386" d="M126.312,68.151v35.271h146.9V68.151" transform="translate(-7038.263 -11118.914)" fill="none" stroke="#00caf2" stroke-width="1.5" stroke-dasharray="7 7"/>
    <path id="Trazado_625387" data-name="Trazado 625387" d="M831,31.065h17.075V8.041H998.147V136.482H975.18" transform="translate(-7763.197 -11088.083)" fill="none" stroke="#0a3699" stroke-width="2"/>
    <path id="Trazado_625388" data-name="Trazado 625388" d="M1159.626,293.074V279.493L1147,285.932Z" transform="translate(-7948.652 -11237.885)" fill="#0a3699"/>
    <path id="Trazado_627044" data-name="Trazado 627044" d="M0,0H1.674V6.7H0Z" transform="translate(-6789.027 -10954.949)" fill="#3d66c3"/>
    <path id="Trazado_627042" data-name="Trazado 627042" d="M40.734,15V3.625h3.211a5.169,5.169,0,0,1,2.625.656,4.438,4.438,0,0,1,1.762,1.867,6.078,6.078,0,0,1,.629,2.781v.727a6.1,6.1,0,0,1-.621,2.82,4.369,4.369,0,0,1-1.773,1.859A5.5,5.5,0,0,1,43.883,15Zm1.5-10.148v8.922h1.578a3.434,3.434,0,0,0,2.7-1.079,4.458,4.458,0,0,0,.965-3.073V8.957a4.529,4.529,0,0,0-.91-3.014,3.239,3.239,0,0,0-2.582-1.091Zm15.109,7.172H52.578L51.508,15H49.961L54.3,3.625h1.313L59.969,15H58.43ZM53.031,10.8H56.9l-1.937-5.32ZM70.242,15H68.734L63.008,6.234V15H61.5V3.625h1.508l5.742,8.8v-8.8h1.492ZM68.625.828a1.942,1.942,0,0,1-.48,1.367,1.561,1.561,0,0,1-1.2.523,1.759,1.759,0,0,1-.555-.078,2.993,2.993,0,0,1-.613-.32,2.656,2.656,0,0,0-.547-.293,1.338,1.338,0,0,0-.387-.051.717.717,0,0,0-.547.246.892.892,0,0,0-.227.629L63.1,2.8a2.039,2.039,0,0,1,.473-1.383,1.516,1.516,0,0,1,1.2-.547,1.457,1.457,0,0,1,.492.078,3.587,3.587,0,0,1,.594.3,3.494,3.494,0,0,0,.574.3,1.319,1.319,0,0,0,.441.07.7.7,0,0,0,.559-.266.932.932,0,0,0,.223-.617ZM81.656,9.68a7.037,7.037,0,0,1-.562,2.918A4.261,4.261,0,0,1,79.5,14.5a4.4,4.4,0,0,1-6.4-1.887,6.752,6.752,0,0,1-.59-2.832v-.82a6.953,6.953,0,0,1,.57-2.9,4.218,4.218,0,0,1,4-2.594,4.41,4.41,0,0,1,2.41.66,4.253,4.253,0,0,1,1.605,1.914,7.071,7.071,0,0,1,.563,2.918Zm-1.492-.734a5.1,5.1,0,0,0-.812-3.105,2.68,2.68,0,0,0-2.273-1.082A2.651,2.651,0,0,0,74.84,5.84a5,5,0,0,0-.84,3V9.68a5.107,5.107,0,0,0,.824,3.082,2.888,2.888,0,0,0,4.52.063,5.079,5.079,0,0,0,.82-3.035Z" transform="translate(-6948.859 -10960.562)" fill="#0f2440"/>
    <path id="Trazado_625389" data-name="Trazado 625389" d="M257.252,68.151V90.381H125.312V68.151" transform="translate(-7080.138 -11012.286)" fill="none" stroke="#00caf2" stroke-width="1.5" stroke-dasharray="7 7"/>
    <path id="Trazado_625390" data-name="Trazado 625390" d="M276.036,31.046h-18.72V8.041H123.867V31.046H98.192" transform="translate(-7079.797 -10981.899)" fill="none" stroke="#0a3699" stroke-width="2"/>
    <path id="Trazado_625391" data-name="Trazado 625391" d="M358.061,43V59.294l-15.148-7.725Z" transform="translate(-7330.463 -11002.388)" fill="#0a3699"/>
    <path id="Trazado_627045" data-name="Trazado 627045" d="M0,0H2.008V8.032H0Z" transform="translate(-6972.402 -10954.367)" fill="#3d66c3"/>
    <path id="Trazado_627041" data-name="Trazado 627041" d="M16.316,10.547V15h-1.5V3.625h4.2a4.215,4.215,0,0,1,2.926.953A3.231,3.231,0,0,1,23,7.1a3.189,3.189,0,0,1-1.035,2.551A4.4,4.4,0,0,1,19,10.547Zm0-1.227h2.7a2.7,2.7,0,0,0,1.844-.567,2.075,2.075,0,0,0,.641-1.64,2.143,2.143,0,0,0-.641-1.628A2.525,2.525,0,0,0,19.1,4.852H16.316Zm15.023.422H26.41v4.031h5.727V15H24.91V3.625h7.148V4.852H26.41V8.516h4.93Zm6.836.656H35.5V15H34V3.625h3.766a4.457,4.457,0,0,1,2.957.875,3.148,3.148,0,0,1,1.035,2.547A3.062,3.062,0,0,1,41.18,8.9a3.428,3.428,0,0,1-1.6,1.18l2.672,4.828V15H40.645ZM35.5,9.172h2.3a2.6,2.6,0,0,0,1.777-.579,1.959,1.959,0,0,0,.66-1.55,2.062,2.062,0,0,0-.629-1.62A2.663,2.663,0,0,0,37.8,4.852H35.5Zm11.7.758A7.053,7.053,0,0,1,44.4,8.566a2.6,2.6,0,0,1-.879-2,2.751,2.751,0,0,1,1.074-2.223,4.269,4.269,0,0,1,2.793-.879,4.66,4.66,0,0,1,2.09.453A3.436,3.436,0,0,1,50.9,5.172a3.2,3.2,0,0,1,.5,1.742H49.895a2.08,2.08,0,0,0-.656-1.627A2.669,2.669,0,0,0,47.387,4.7a2.732,2.732,0,0,0-1.73.489,1.632,1.632,0,0,0-.621,1.358,1.468,1.468,0,0,0,.59,1.178,5.785,5.785,0,0,0,2.008.88,9.316,9.316,0,0,1,2.219.88A3.367,3.367,0,0,1,51.039,10.6a2.861,2.861,0,0,1,.387,1.508,2.658,2.658,0,0,1-1.078,2.215,4.6,4.6,0,0,1-2.883.832,5.347,5.347,0,0,1-2.187-.449,3.681,3.681,0,0,1-1.566-1.23A3,3,0,0,1,43.16,11.7h1.508a1.959,1.959,0,0,0,.762,1.629,3.207,3.207,0,0,0,2.035.6,2.948,2.948,0,0,0,1.82-.484,1.573,1.573,0,0,0,.633-1.32,1.545,1.545,0,0,0-.586-1.293A6.755,6.755,0,0,0,47.207,9.93ZM62.1,9.68a7.037,7.037,0,0,1-.562,2.918,4.261,4.261,0,0,1-1.594,1.9,4.4,4.4,0,0,1-6.4-1.887,6.752,6.752,0,0,1-.59-2.832v-.82a6.953,6.953,0,0,1,.57-2.9,4.218,4.218,0,0,1,4-2.594,4.41,4.41,0,0,1,2.41.66,4.253,4.253,0,0,1,1.605,1.914A7.071,7.071,0,0,1,62.1,8.961Zm-1.492-.734a5.1,5.1,0,0,0-.812-3.105A2.68,2.68,0,0,0,57.52,4.758,2.651,2.651,0,0,0,55.281,5.84a5,5,0,0,0-.84,3V9.68a5.107,5.107,0,0,0,.824,3.082,2.888,2.888,0,0,0,4.52.063,5.079,5.079,0,0,0,.82-3.035ZM73.09,15H71.582L65.855,6.234V15H64.348V3.625h1.508l5.742,8.8v-8.8H73.09Zm9.086-2.977H77.41L76.34,15H74.793L79.137,3.625h1.313L84.8,15H83.262ZM77.863,10.8H81.73l-1.937-5.32Zm11.82-.867a7.053,7.053,0,0,1-2.809-1.363,2.6,2.6,0,0,1-.879-2A2.751,2.751,0,0,1,87.07,4.348a4.269,4.269,0,0,1,2.793-.879,4.66,4.66,0,0,1,2.09.453,3.436,3.436,0,0,1,1.422,1.25,3.2,3.2,0,0,1,.5,1.742H92.371a2.08,2.08,0,0,0-.656-1.627A2.669,2.669,0,0,0,89.863,4.7a2.732,2.732,0,0,0-1.73.489,1.632,1.632,0,0,0-.621,1.358A1.468,1.468,0,0,0,88.1,7.72a5.785,5.785,0,0,0,2.008.88,9.316,9.316,0,0,1,2.219.88A3.367,3.367,0,0,1,93.516,10.6a2.861,2.861,0,0,1,.387,1.508,2.658,2.658,0,0,1-1.078,2.215,4.6,4.6,0,0,1-2.883.832,5.347,5.347,0,0,1-2.187-.449,3.681,3.681,0,0,1-1.566-1.23,3,3,0,0,1-.551-1.773h1.508a1.959,1.959,0,0,0,.762,1.629,3.207,3.207,0,0,0,2.035.6,2.948,2.948,0,0,0,1.82-.484,1.573,1.573,0,0,0,.633-1.32,1.545,1.545,0,0,0-.586-1.293A6.755,6.755,0,0,0,89.684,9.93ZM21.348,34.547V39h-1.5V27.625h4.2a4.215,4.215,0,0,1,2.926.953A3.231,3.231,0,0,1,28.027,31.1a3.189,3.189,0,0,1-1.035,2.551,4.4,4.4,0,0,1-2.965.895Zm0-1.227h2.7a2.7,2.7,0,0,0,1.844-.567,2.075,2.075,0,0,0,.641-1.64,2.143,2.143,0,0,0-.641-1.628,2.525,2.525,0,0,0-1.758-.634H21.348ZM34.113,34.4H31.441V39H29.934V27.625H33.7a4.457,4.457,0,0,1,2.957.875,3.148,3.148,0,0,1,1.035,2.547,3.062,3.062,0,0,1-.574,1.852,3.428,3.428,0,0,1-1.6,1.18l2.672,4.828V39H36.582Zm-2.672-1.227h2.3a2.6,2.6,0,0,0,1.777-.579,1.959,1.959,0,0,0,.66-1.55,2.062,2.062,0,0,0-.629-1.62,2.663,2.663,0,0,0-1.816-.571h-2.3Zm17.1.508A7.037,7.037,0,0,1,47.98,36.6a4.261,4.261,0,0,1-1.594,1.9,4.4,4.4,0,0,1-6.4-1.887,6.752,6.752,0,0,1-.59-2.832v-.82a6.953,6.953,0,0,1,.57-2.9,4.218,4.218,0,0,1,4-2.594,4.41,4.41,0,0,1,2.41.66,4.253,4.253,0,0,1,1.605,1.914,7.071,7.071,0,0,1,.563,2.918Zm-1.492-.734a5.1,5.1,0,0,0-.812-3.105,2.68,2.68,0,0,0-2.273-1.082,2.651,2.651,0,0,0-2.238,1.082,5,5,0,0,0-.84,3v.836a5.107,5.107,0,0,0,.824,3.082,2.888,2.888,0,0,0,4.52.063,5.079,5.079,0,0,0,.82-3.035ZM59.16,35.391a4.185,4.185,0,0,1-1.332,2.785,4.365,4.365,0,0,1-2.98.98,4.008,4.008,0,0,1-3.23-1.445A5.815,5.815,0,0,1,50.4,33.844V32.75a6.481,6.481,0,0,1,.566-2.789,4.231,4.231,0,0,1,1.605-1.848,4.47,4.47,0,0,1,2.406-.645,4.11,4.11,0,0,1,2.906,1.012,4.235,4.235,0,0,1,1.273,2.8H57.652a3.268,3.268,0,0,0-.848-1.975A2.565,2.565,0,0,0,54.98,28.7a2.684,2.684,0,0,0-2.254,1.063,4.882,4.882,0,0,0-.816,3.026v1.1a5.018,5.018,0,0,0,.773,2.948,2.5,2.5,0,0,0,2.164,1.095,2.886,2.886,0,0,0,1.918-.566,3.143,3.143,0,0,0,.887-1.973Zm8.477-1.648h-4.93v4.031h5.727V39H61.207V27.625h7.148v1.227H62.707v3.664h4.93Zm6.016.188a7.053,7.053,0,0,1-2.809-1.363,2.6,2.6,0,0,1-.879-2,2.751,2.751,0,0,1,1.074-2.223,4.269,4.269,0,0,1,2.793-.879,4.66,4.66,0,0,1,2.09.453,3.436,3.436,0,0,1,1.422,1.25,3.2,3.2,0,0,1,.5,1.742H76.34a2.08,2.08,0,0,0-.656-1.627,2.669,2.669,0,0,0-1.852-.592,2.732,2.732,0,0,0-1.73.489,1.632,1.632,0,0,0-.621,1.358,1.468,1.468,0,0,0,.59,1.178,5.786,5.786,0,0,0,2.008.88,9.316,9.316,0,0,1,2.219.88A3.367,3.367,0,0,1,77.484,34.6a2.861,2.861,0,0,1,.387,1.508,2.658,2.658,0,0,1-1.078,2.215,4.6,4.6,0,0,1-2.883.832,5.347,5.347,0,0,1-2.187-.449,3.681,3.681,0,0,1-1.566-1.23,3,3,0,0,1-.551-1.773h1.508a1.959,1.959,0,0,0,.762,1.629,3.207,3.207,0,0,0,2.035.6,2.948,2.948,0,0,0,1.82-.484,1.573,1.573,0,0,0,.633-1.32,1.545,1.545,0,0,0-.586-1.293A6.755,6.755,0,0,0,73.652,33.93Zm14.891-.25A7.037,7.037,0,0,1,87.98,36.6a4.261,4.261,0,0,1-1.594,1.9,4.4,4.4,0,0,1-6.4-1.887,6.752,6.752,0,0,1-.59-2.832v-.82a6.953,6.953,0,0,1,.57-2.9,4.218,4.218,0,0,1,4-2.594,4.41,4.41,0,0,1,2.41.66,4.253,4.253,0,0,1,1.605,1.914,7.071,7.071,0,0,1,.563,2.918Zm-1.492-.734a5.1,5.1,0,0,0-.812-3.105,2.68,2.68,0,0,0-2.273-1.082,2.651,2.651,0,0,0-2.238,1.082,5,5,0,0,0-.84,3v.836a5.107,5.107,0,0,0,.824,3.082,2.888,2.888,0,0,0,4.52.063,5.079,5.079,0,0,0,.82-3.035Zm-73.1,25.6V63h-1.5V51.625h4.2a4.215,4.215,0,0,1,2.926.953A3.231,3.231,0,0,1,20.629,55.1a3.189,3.189,0,0,1-1.035,2.551,4.4,4.4,0,0,1-2.965.895Zm0-1.227h2.7a2.7,2.7,0,0,0,1.844-.567,2.075,2.075,0,0,0,.641-1.64,2.143,2.143,0,0,0-.641-1.628,2.525,2.525,0,0,0-1.758-.634H13.949ZM26.715,58.4H24.043V63H22.535V51.625H26.3a4.457,4.457,0,0,1,2.957.875,3.148,3.148,0,0,1,1.035,2.547,3.062,3.062,0,0,1-.574,1.852,3.428,3.428,0,0,1-1.6,1.18l2.672,4.828V63H29.184Zm-2.672-1.227h2.3a2.6,2.6,0,0,0,1.777-.579,1.959,1.959,0,0,0,.66-1.55,2.062,2.062,0,0,0-.629-1.62,2.663,2.663,0,0,0-1.816-.571h-2.3Zm17.1.508a7.037,7.037,0,0,1-.562,2.918,4.261,4.261,0,0,1-1.594,1.9,4.4,4.4,0,0,1-6.4-1.887A6.752,6.752,0,0,1,32,57.781v-.82a6.953,6.953,0,0,1,.57-2.9,4.218,4.218,0,0,1,4-2.594,4.41,4.41,0,0,1,2.41.66,4.253,4.253,0,0,1,1.605,1.914,7.071,7.071,0,0,1,.563,2.918Zm-1.492-.734a5.1,5.1,0,0,0-.812-3.105,2.68,2.68,0,0,0-2.273-1.082,2.651,2.651,0,0,0-2.238,1.082,5,5,0,0,0-.84,3v.836a5.107,5.107,0,0,0,.824,3.082,2.888,2.888,0,0,0,4.52.063,5.079,5.079,0,0,0,.82-3.035Zm5.242,1.6V63h-1.5V51.625h4.2a4.215,4.215,0,0,1,2.926.953A3.231,3.231,0,0,1,51.574,55.1a3.189,3.189,0,0,1-1.035,2.551,4.4,4.4,0,0,1-2.965.895Zm0-1.227h2.7a2.7,2.7,0,0,0,1.844-.567,2.075,2.075,0,0,0,.641-1.64,2.143,2.143,0,0,0-.641-1.628,2.525,2.525,0,0,0-1.758-.634H44.895ZM55.1,63H53.6V51.625h1.5Zm9.172-5.258H59.34v4.031h5.727V63H57.84V51.625h7.148v1.227H59.34v3.664h4.93ZM66.934,63V51.625h3.211a5.169,5.169,0,0,1,2.625.656,4.438,4.438,0,0,1,1.762,1.867,6.078,6.078,0,0,1,.629,2.781v.727a6.1,6.1,0,0,1-.621,2.82,4.369,4.369,0,0,1-1.773,1.859A5.5,5.5,0,0,1,70.082,63Zm1.5-10.148v8.922h1.578a3.434,3.434,0,0,0,2.7-1.079,4.458,4.458,0,0,0,.965-3.073v-.665a4.529,4.529,0,0,0-.91-3.014,3.239,3.239,0,0,0-2.582-1.091Zm15.109,7.172H78.777L77.707,63H76.16L80.5,51.625h1.313L86.168,63H84.629ZM79.23,58.8H83.1l-1.937-5.32ZM87.7,63V51.625H90.91a5.169,5.169,0,0,1,2.625.656A4.438,4.438,0,0,1,95.3,54.148a6.078,6.078,0,0,1,.629,2.781v.727a6.1,6.1,0,0,1-.621,2.82,4.369,4.369,0,0,1-1.773,1.859A5.5,5.5,0,0,1,90.848,63Zm1.5-10.148v8.922h1.578a3.434,3.434,0,0,0,2.7-1.079,4.458,4.458,0,0,0,.965-3.073v-.665a4.529,4.529,0,0,0-.91-3.014,3.239,3.239,0,0,0-2.582-1.091Z" transform="translate(-7129.699 -10969.229)" fill="#0f2440"/>
    <path id="Trazado_625392" data-name="Trazado 625392" d="M255.726,68.151v44.41H125.312V68.151" transform="translate(-7266.714 -11007.283)" fill="none" stroke="#00caf2" stroke-width="1.5" stroke-dasharray="7 7"/>
    <path id="Trazado_625393" data-name="Trazado 625393" d="M276.032,31.216H257.313V8.041H123.866V31.216H98.192" transform="translate(-7267.995 -10981.899)" fill="none" stroke="#0a3699" stroke-width="2"/>
    <path id="Trazado_625394" data-name="Trazado 625394" d="M355.539,43V56.581l-12.626-6.439Z" transform="translate(-7517.671 -11000.749)" fill="#0a3699"/>
    <path id="Trazado_627046" data-name="Trazado 627046" d="M0,0H1.674V6.7H0Z" transform="translate(-7162.132 -10953.564)" fill="#3d66c3"/>
    <path id="Trazado_625395" data-name="Trazado 625395" d="M260.059,31.046H243.3V8.041H123.867V31.046" transform="translate(-7436.817 -10981.263)" fill="none" stroke="#0a3699" stroke-width="2"/>
    <path id="Trazado_627043" data-name="Trazado 627043" d="M28.5,10.547V15H27V3.625h4.2a4.215,4.215,0,0,1,2.926.953A3.231,3.231,0,0,1,35.176,7.1a3.189,3.189,0,0,1-1.035,2.551,4.4,4.4,0,0,1-2.965.895Zm0-1.227h2.7a2.7,2.7,0,0,0,1.844-.567,2.075,2.075,0,0,0,.641-1.64,2.143,2.143,0,0,0-.641-1.628,2.525,2.525,0,0,0-1.758-.634H28.5Zm15.023.422H38.59v4.031h5.727V15H37.09V3.625h7.148V4.852H38.59V8.516h4.93ZM41.316.5h1.75L40.973,2.8l-1.164,0Zm9.039,9.9H47.684V15H46.176V3.625h3.766A4.457,4.457,0,0,1,52.9,4.5a3.148,3.148,0,0,1,1.035,2.547A3.062,3.062,0,0,1,53.359,8.9a3.428,3.428,0,0,1-1.6,1.18l2.672,4.828V15H52.824ZM47.684,9.172h2.3a2.6,2.6,0,0,0,1.777-.579,1.959,1.959,0,0,0,.66-1.55,2.062,2.062,0,0,0-.629-1.62,2.663,2.663,0,0,0-1.816-.571h-2.3ZM56.035,15V3.625h3.211a5.169,5.169,0,0,1,2.625.656,4.438,4.438,0,0,1,1.762,1.867,6.078,6.078,0,0,1,.629,2.781v.727a6.1,6.1,0,0,1-.621,2.82,4.369,4.369,0,0,1-1.773,1.859A5.5,5.5,0,0,1,59.184,15Zm1.5-10.148v8.922h1.578a3.434,3.434,0,0,0,2.7-1.079,4.458,4.458,0,0,0,.965-3.073V8.957a4.529,4.529,0,0,0-.91-3.014,3.239,3.239,0,0,0-2.582-1.091ZM68.137,15h-1.5V3.625h1.5Zm2.742,0V3.625H74.09a5.169,5.169,0,0,1,2.625.656,4.438,4.438,0,0,1,1.762,1.867,6.078,6.078,0,0,1,.629,2.781v.727a6.1,6.1,0,0,1-.621,2.82,4.369,4.369,0,0,1-1.773,1.859A5.5,5.5,0,0,1,74.027,15Zm1.5-10.148v8.922h1.578a3.434,3.434,0,0,0,2.7-1.079,4.458,4.458,0,0,0,.965-3.073V8.957a4.529,4.529,0,0,0-.91-3.014,3.239,3.239,0,0,0-2.582-1.091Zm15.109,7.172H82.723L81.652,15H80.105L84.449,3.625h1.313L90.113,15H88.574ZM83.176,10.8h3.867l-1.937-5.32Z" transform="translate(-7312.256 -10960.132)" fill="#12263f"/>
    <path id="Trazado_625396" data-name="Trazado 625396" d="M1135.39,529.6V550.13H1016V519.917" transform="translate(-8328.95 -11472.035)" fill="none" stroke="#0a3699" stroke-width="2"/>
    <path id="Trazado_625397" data-name="Trazado 625397" d="M1200.259,440.542H1136v53.367" transform="translate(-8454.516 -11420.79)" fill="none" stroke="#00caf2" stroke-width="1"/>
  </g>
</svg>
