<svg xmlns="http://www.w3.org/2000/svg" width="85.585" height="85.585" viewBox="0 0 85.585 85.585">
  <g id="identificar" transform="translate(-0.001)">
    <path id="Trazado_625625" data-name="Trazado 625625" d="M147.442,7.5a30,30,0,0,0-24.77,46.4,1.95,1.95,0,0,1-.248,2.448l-10.2,10.2,6.527,6.527,10.2-10.2a1.95,1.95,0,0,1,2.448-.248A30,30,0,1,0,147.442,7.5Z" transform="translate(-93.466 -6.247)" fill="#c5d3dd"/>
    <circle id="Elipse_5084" data-name="Elipse 5084" cx="23.077" cy="23.077" r="23.077" transform="translate(31.255 8.177)" fill="#f9f7f8"/>
    <path id="Trazado_625626" data-name="Trazado 625626" d="M264.513,55.065a23.084,23.084,0,0,1-20.347,40.756,23.08,23.08,0,1,0,20.347-40.756Z" transform="translate(-203.351 -45.86)" fill="#dff6fd"/>
    <path id="Trazado_625627" data-name="Trazado 625627" d="M262.052,104.139l-12.64,21.893h25.28Z" transform="translate(-207.72 -86.731)" fill="#fdb441"/>
    <path id="Trazado_625628" data-name="Trazado 625628" d="M35.977,343.431l-9.543-9.543a.175.175,0,0,0-.248,0L7.551,352.522a.175.175,0,0,0-.051.124v9.718h9.718a.175.175,0,0,0,.124-.051l18.634-18.634A.175.175,0,0,0,35.977,343.431Z" transform="translate(-6.245 -278.033)" fill="#7a6d79"/>
    <g id="Grupo_990300" data-name="Grupo 990300" transform="translate(5.956 4.119)">
      <path id="Trazado_625629" data-name="Trazado 625629" d="M52.358,110.219l-6.7-1.736a2.308,2.308,0,0,1,1.157-4.468l6.7,1.736a2.308,2.308,0,0,1-1.157,4.468Z" transform="translate(-42.539 -90.685)" fill="#fe646f"/>
      <path id="Trazado_625630" data-name="Trazado 625630" d="M44.987,192.122l-6.91.423a2.308,2.308,0,1,1-.282-4.607l6.91-.423a2.308,2.308,0,0,1,.282,4.607Z" transform="translate(-35.628 -160.285)" fill="#fe646f"/>
      <path id="Trazado_625631" data-name="Trazado 625631" d="M87.847,28.726,82.011,25a2.308,2.308,0,0,0-2.483,3.891l5.836,3.724a2.308,2.308,0,1,0,2.483-3.891Z" transform="translate(-71.302 -24.639)" fill="#fe646f"/>
    </g>
    <path id="Trazado_625632" data-name="Trazado 625632" d="M83.465,363.516,72.217,352.268a.206.206,0,0,1,0-.291l3.649-3.649a.206.206,0,0,1,.291,0L87.4,359.576a.206.206,0,0,1,0,.291l-3.649,3.649a.206.206,0,0,1-.291,0Z" transform="translate(-60.095 -290.052)" fill="#c5d3dd"/>
    <path id="Trazado_625633" data-name="Trazado 625633" d="M203.8,90.079a24.331,24.331,0,1,0-24.331-24.331A24.358,24.358,0,0,0,203.8,90.079Zm0-46.154A21.823,21.823,0,1,1,181.98,65.748,21.848,21.848,0,0,1,203.8,43.924Z" transform="translate(-149.472 -34.494)"/>
    <path id="Trazado_625634" data-name="Trazado 625634" d="M243.167,121.039h25.279a1.254,1.254,0,0,0,1.086-1.881l-2.267-3.926a1.254,1.254,0,0,0-2.171,1.254l1.181,2.046H245.338L255.807,100.4l6.3,10.92a1.254,1.254,0,1,0,2.171-1.254l-7.39-12.8a1.254,1.254,0,0,0-2.171,0l-12.64,21.893a1.254,1.254,0,0,0,1.086,1.881Z" transform="translate(-201.474 -80.485)"/>
    <path id="Trazado_625635" data-name="Trazado 625635" d="M320.036,153.116a1.254,1.254,0,0,0-2.507,0v3.445a1.254,1.254,0,0,0,2.507,0Z" transform="translate(-264.451 -126.477)"/>
    <circle id="Elipse_5085" data-name="Elipse 5085" cx="1.254" cy="1.254" r="1.254" transform="translate(53.076 33.344)"/>
    <path id="Trazado_625636" data-name="Trazado 625636" d="M39.1,103.448l6.7,1.736a3.561,3.561,0,1,0,1.786-6.9l-6.7-1.736a3.561,3.561,0,1,0-1.786,6.9Zm-.128-3.712a1.054,1.054,0,0,1,1.285-.756l6.7,1.736a1.054,1.054,0,1,1-.529,2.041l-6.7-1.736a1.056,1.056,0,0,1-.756-1.285Z" transform="translate(-30.338 -80.317)"/>
    <path id="Trazado_625637" data-name="Trazado 625637" d="M31.907,187.549l6.91-.423h0a3.561,3.561,0,0,0-.435-7.109l-6.91.423a3.561,3.561,0,1,0,.435,7.109ZM30.9,183.3a1.047,1.047,0,0,1,.725-.354l6.91-.423a1.054,1.054,0,0,1,.129,2.1l-6.91.423A1.055,1.055,0,0,1,30.9,183.3Z" transform="translate(-23.425 -149.919)"/>
    <path id="Trazado_625638" data-name="Trazado 625638" d="M72.6,23.709l5.836,3.724a3.561,3.561,0,1,0,3.832-6L76.434,17.7a3.561,3.561,0,0,0-3.831,6ZM73.63,20.14a1.056,1.056,0,0,1,1.456-.322l5.836,3.724a1.054,1.054,0,1,1-1.134,1.777L73.952,21.6A1.053,1.053,0,0,1,73.63,20.14Z" transform="translate(-59.094 -14.28)"/>
    <path id="Trazado_625639" data-name="Trazado 625639" d="M76.432,9.154A31.317,31.317,0,0,0,34.805,6.812,1.254,1.254,0,1,0,36.37,8.771,28.769,28.769,0,0,1,83.076,31.6,28.751,28.751,0,0,1,38.619,55.33a3.218,3.218,0,0,0-4.021.411l-6.376,6.376-4.754-4.754,6.375-6.375a3.218,3.218,0,0,0,.411-4.021,28.826,28.826,0,0,1,2.063-34.246A1.254,1.254,0,0,0,30.4,11.107a31.337,31.337,0,0,0-2.243,37.232.691.691,0,0,1-.086.875L21.7,55.59l-.622-.622a1.431,1.431,0,0,0-2.02,0l-2.275,2.275a1.459,1.459,0,0,0-1.894.146l-3.649,3.649a1.459,1.459,0,0,0-.146,1.894L.418,73.6A1.42,1.42,0,0,0,0,74.613v9.718a1.254,1.254,0,0,0,1.254,1.254h9.718a1.42,1.42,0,0,0,1.01-.418L22.654,74.5a1.46,1.46,0,0,0,1.894-.146L28.2,70.7a1.46,1.46,0,0,0,.146-1.894l2.275-2.275a1.428,1.428,0,0,0,0-2.02L30,63.89l6.376-6.376a.691.691,0,0,1,.875-.086A31.256,31.256,0,0,0,76.432,9.154ZM20.064,57.5l8.018,8.018-1.5,1.5L18.564,59Zm3.451,14.332-1.489-1.489a1.254,1.254,0,1,0-1.773,1.773l.615.615L10.526,83.078H2.508V75.06L12.851,64.717l3.262,3.262a1.254,1.254,0,0,0,1.773-1.773L13.75,62.07,15.917,59.9l9.766,9.766Z"/>
  </g>
</svg>
