<svg id="transmision-del-virus" xmlns="http://www.w3.org/2000/svg" width="82" height="82" viewBox="0 0 82 82">
  <g id="Grupo_990350" data-name="Grupo 990350" transform="translate(1.323 1.323)">
    <g id="Grupo_990327" data-name="Grupo 990327" transform="translate(55.548 58.194)">
      <ellipse id="Elipse_5088" data-name="Elipse 5088" cx="8" cy="7.5" rx="8" ry="7.5" transform="translate(0.129 0.483)" fill="#ff826e"/>
    </g>
    <g id="Grupo_990328" data-name="Grupo 990328" transform="translate(44.968 10.581)">
      <circle id="Elipse_5089" data-name="Elipse 5089" cx="8" cy="8" r="8" transform="translate(-0.29 0.097)" fill="#ff826e"/>
    </g>
    <g id="Grupo_990329" data-name="Grupo 990329" transform="translate(55.548 18.516)">
      <path id="Trazado_625670" data-name="Trazado 625670" d="M48.105,16.68A7.841,7.841,0,0,1,46.346,20.2a2.99,2.99,0,0,1-.7.093,2.645,2.645,0,1,1,2.46-3.611Z" transform="translate(-43 -15)" fill="#fc6e51"/>
    </g>
    <g id="Grupo_990330" data-name="Grupo 990330" transform="translate(50.258 10.581)">
      <path id="Trazado_625671" data-name="Trazado 625671" d="M39,11.645a2.653,2.653,0,0,1,2.381-2.632,2.652,2.652,0,0,1,.529,0A2.645,2.645,0,1,1,39,11.645Z" transform="translate(-39 -9)" fill="#fc6e51"/>
    </g>
    <g id="Grupo_990331" data-name="Grupo 990331" transform="translate(66.129 66.129)">
      <path id="Trazado_625672" data-name="Trazado 625672" d="M56.105,52.68A7.841,7.841,0,0,1,54.346,56.2a2.99,2.99,0,0,1-.7.093,2.645,2.645,0,1,1,2.46-3.611Z" transform="translate(-51 -51)" fill="#fc6e51"/>
    </g>
    <g id="Grupo_990332" data-name="Grupo 990332" transform="translate(55.734 66.129)">
      <path id="Trazado_625673" data-name="Trazado 625673" d="M48.245,53.645A2.653,2.653,0,0,1,45.6,56.29a2.99,2.99,0,0,1-.7-.093A7.841,7.841,0,0,1,43.14,52.68a2.644,2.644,0,0,1,5.105.965Z" transform="translate(-43.14 -51)" fill="#fc6e51"/>
    </g>
    <g id="Grupo_990333" data-name="Grupo 990333" transform="translate(60.839 58.194)">
      <path id="Trazado_625674" data-name="Trazado 625674" d="M49.91,45.013a2.645,2.645,0,1,1-.529,0,2.653,2.653,0,0,1,.529,0Z" transform="translate(-47 -45)" fill="#fc6e51"/>
    </g>
    <g id="Grupo_990334" data-name="Grupo 990334" transform="translate(2.645 58.194)">
      <circle id="Elipse_5090" data-name="Elipse 5090" cx="2.5" cy="2.5" r="2.5" transform="translate(0.032 0.483)" fill="#ff826e"/>
    </g>
    <g id="Grupo_990335" data-name="Grupo 990335" transform="translate(52.903 42.323)">
      <ellipse id="Elipse_5091" data-name="Elipse 5091" cx="3" cy="2.5" rx="3" ry="2.5" transform="translate(-0.226 0.354)" fill="#ff826e"/>
    </g>
    <g id="Grupo_990336" data-name="Grupo 990336" transform="translate(63.484 31.742)">
      <path id="Trazado_625675" data-name="Trazado 625675" d="M62.226,31.719a1.964,1.964,0,0,1-1.1,1.759l-.4.2a2.643,2.643,0,0,0-1.4,1.852l-.807,4.021a1.655,1.655,0,0,1-3.227.066l-.622-2.5A2.659,2.659,0,0,0,52.756,35.2l-2.235-.555a2.009,2.009,0,0,1-.622-3.624l1.891-1.27a2.619,2.619,0,0,0,1.177-2.2v-.833A1.716,1.716,0,0,1,54.687,25a1.734,1.734,0,0,1,1.442.767l1.627,2.447a2.669,2.669,0,0,0,1.362,1.045l1.759.582a1.966,1.966,0,0,1,1.349,1.878Z" transform="translate(-49 -25)" fill="#ff826e"/>
    </g>
    <g id="Grupo_990337" data-name="Grupo 990337" transform="translate(71.419 21.161)">
      <path id="Trazado_625676" data-name="Trazado 625676" d="M62.115,20.148a2.806,2.806,0,0,1-3.968,3.968L55.82,21.788a2.806,2.806,0,0,1,3.968-3.968Z" transform="translate(-55 -17)" fill="#ff826e"/>
    </g>
    <g id="Grupo_990338" data-name="Grupo 990338" transform="translate(68.774)">
      <path id="Trazado_625677" data-name="Trazado 625677" d="M62.8,1.78a2.618,2.618,0,0,0-3.73,0L56.425,4.425,53.78,7.071a2.637,2.637,0,1,0,3.73,3.73l2.645-2.645L62.8,5.51a2.618,2.618,0,0,0,0-3.73Z" transform="translate(-53 -1)" fill="#ff826e"/>
    </g>
    <g id="Grupo_990339" data-name="Grupo 990339">
      <path id="Trazado_625678" data-name="Trazado 625678" d="M53.374,27.438a20.3,20.3,0,0,0-5.462-9.866c-.41-.41-.846-.807-1.3-1.19a21.819,21.819,0,0,0-3.558-2.407,14.83,14.83,0,0,0-.423-1.719,15.871,15.871,0,0,0-30.79,1.719A20.466,20.466,0,0,0,1.4,36.048l.794,3.928a5.284,5.284,0,0,1,4.1-1.944H8.935V30.1a5.29,5.29,0,1,1,10.581,0v2.645H45.968v5.29h2.645a5.284,5.284,0,0,1,4.1,1.944l.794-3.928a20.384,20.384,0,0,0,.4-4.007Z" transform="translate(-1 -1)" fill="#656d78"/>
    </g>
    <g id="Grupo_990340" data-name="Grupo 990340" transform="translate(7.935 60.839)">
      <path id="Trazado_625679" data-name="Trazado 625679" d="M20.226,47v2.645a2.653,2.653,0,0,0,2.645,2.645h5.29a2.653,2.653,0,0,0,2.645-2.645V47A13.231,13.231,0,0,1,44.032,60.226h-8A7.233,7.233,0,0,1,34.854,63.4l-1.4,2.116H17.581l-1.4-2.116A7.233,7.233,0,0,1,15,60.226H7A13.231,13.231,0,0,1,20.226,47Z" transform="translate(-7 -47)" fill="#fcd770"/>
    </g>
    <g id="Grupo_990341" data-name="Grupo 990341" transform="translate(34.387 74.065)">
      <path id="Trazado_625680" data-name="Trazado 625680" d="M34.935,57v5.29H27l1.4-2.116A7.233,7.233,0,0,0,29.579,57h5.356Z" transform="translate(-27 -57)" fill="#f0d0b4"/>
    </g>
    <g id="Grupo_990342" data-name="Grupo 990342" transform="translate(10.581 74.065)">
      <path id="Trazado_625681" data-name="Trazado 625681" d="M15.534,60.174l1.4,2.116H9V57h5.356A7.233,7.233,0,0,0,15.534,60.174Z" transform="translate(-9 -57)" fill="#f0d0b4"/>
    </g>
    <g id="Grupo_990343" data-name="Grupo 990343" transform="translate(21.161 60.839)">
      <path id="Trazado_625682" data-name="Trazado 625682" d="M27.581,47v2.645a2.653,2.653,0,0,1-2.645,2.645h-5.29A2.653,2.653,0,0,1,17,49.645V47Z" transform="translate(-17 -47)" fill="#f0d0b4"/>
    </g>
    <g id="Grupo_990344" data-name="Grupo 990344" transform="translate(44.968 37.032)">
      <path id="Trazado_625683" data-name="Trazado 625683" d="M42.935,34.29a5.283,5.283,0,0,1-5.29,5.29H35V29h2.645a5.284,5.284,0,0,1,4.1,1.944v.013A5.286,5.286,0,0,1,42.935,34.29Z" transform="translate(-35 -29)" fill="#f0d0b4"/>
    </g>
    <g id="Grupo_990345" data-name="Grupo 990345" transform="translate(39.677 39.677)">
      <path id="Trazado_625684" data-name="Trazado 625684" d="M36.29,31v7.935A13.169,13.169,0,0,1,31,49.5V36.29Z" transform="translate(-31 -31)" fill="#f0d0b4"/>
    </g>
    <g id="Grupo_990346" data-name="Grupo 990346" transform="translate(7.935 23.806)">
      <path id="Trazado_625685" data-name="Trazado 625685" d="M28.161,26.935H44.032v7.935l-5.29,5.29H12.29L7,34.871V24.29a5.29,5.29,0,1,1,10.581,0v2.645H28.161Z" transform="translate(-7 -19)" fill="#f0d0b4"/>
    </g>
    <g id="Grupo_990347" data-name="Grupo 990347" transform="translate(7.935 39.677)">
      <path id="Trazado_625686" data-name="Trazado 625686" d="M12.29,36.29V49.5A13.169,13.169,0,0,1,7,38.935V31Z" transform="translate(-7 -31)" fill="#f0d0b4"/>
    </g>
    <g id="Grupo_990348" data-name="Grupo 990348" transform="translate(0 37.032)">
      <path id="Trazado_625687" data-name="Trazado 625687" d="M8.935,31.645v7.935H6.29a5.283,5.283,0,0,1-4.1-8.623v-.013A5.284,5.284,0,0,1,6.29,29H8.935Z" transform="translate(-1 -29)" fill="#f0d0b4"/>
    </g>
    <g id="Grupo_990349" data-name="Grupo 990349" transform="translate(13.226 44.968)">
      <path id="Trazado_625688" data-name="Trazado 625688" d="M37.452,35V48.226a13.214,13.214,0,0,1-7.935,2.645H18.935A13.214,13.214,0,0,1,11,48.226V35Z" transform="translate(-11 -35)" fill="#e6e9ed"/>
    </g>
  </g>
  <g id="Grupo_990351" data-name="Grupo 990351" transform="translate(0 0)">
    <path id="Trazado_625689" data-name="Trazado 625689" d="M47.545,50.258h1.39a6.581,6.581,0,0,0,4.584-1.865A3.976,3.976,0,1,0,55.443,42.6a6.575,6.575,0,0,0-.993-2.59l.675-3.377a20.861,20.861,0,0,0,.142-7.6,9.207,9.207,0,0,0,4.493-1.791L61.614,29.1l-1.71,1.71,1.87,1.87,5.29-5.29-1.87-1.87-1.71,1.71L61.63,25.374a9.186,9.186,0,0,0,1.748-4.212h2.751v2.645h2.645V15.871H66.129v2.645H63.378A9.2,9.2,0,0,0,61.63,14.3l1.854-1.853,1.71,1.71,1.87-1.87L61.774,7,59.9,8.871l1.71,1.71-1.854,1.854a9.187,9.187,0,0,0-4.211-1.748V7.935h2.645V5.29H50.258V7.935H52.9v2.743a9.228,9.228,0,0,0-4.206,1.76l-1.86-1.858,1.71-1.71L46.678,7l-3.2,3.2a17.178,17.178,0,0,0-32.469,3.255A21.739,21.739,0,0,0,.423,36.632L1.1,40.009A6.6,6.6,0,0,0,6.613,50.258H8a14.563,14.563,0,0,0,8.457,11.9A14.557,14.557,0,0,0,7.935,75.387V76.71h2.645V82H44.968V76.71h2.645V75.387A14.558,14.558,0,0,0,39.09,62.161a14.562,14.562,0,0,0,8.455-11.9ZM42.323,56.4V46.838l2.645-2.645v4.743A11.841,11.841,0,0,1,42.323,56.4ZM15.1,44.968l-4.515-4.515V30.419a3.968,3.968,0,0,1,7.935,0v3.968H44.968v6.065l-4.515,4.515Zm33.84,2.645H47.613V39.677h1.323a3.968,3.968,0,1,1,0,7.935Zm7.935-2.645a1.323,1.323,0,1,1-1.323,1.323A1.324,1.324,0,0,1,56.871,44.968Zm2.621-21.173a1.35,1.35,0,0,1-1.3-1.311,1.324,1.324,0,0,1,1.323-1.323,1.339,1.339,0,0,1,1.036.5,6.567,6.567,0,0,1-1.059,2.133Zm-3.944-9.246a1.323,1.323,0,1,1-1.323-1.323A1.324,1.324,0,0,1,55.548,14.548Zm-5.289.017a3.966,3.966,0,0,0,7.932.015,6.591,6.591,0,0,1,2.534,4.13,3.9,3.9,0,0,0-1.209-.194,3.96,3.96,0,0,0-2.3,7.188,6.518,6.518,0,0,1-2.516.7,21.782,21.782,0,0,0-6.134-9.979,6.59,6.59,0,0,1,1.694-1.86Zm-5.292-2.115,1.86,1.86c-.106.142-.213.282-.311.429a21.582,21.582,0,0,0-1.972-1.28c-.036-.159-.07-.317-.11-.475ZM27.774,2.645a14.548,14.548,0,0,1,13.583,9.327,21.619,21.619,0,0,0-7.59-1.391H21.78a21.618,21.618,0,0,0-7.589,1.391A14.548,14.548,0,0,1,27.774,2.645ZM21.782,13.226H33.768A19.136,19.136,0,0,1,52.532,36.114l-.36,1.8a6.536,6.536,0,0,0-3.236-.882H47.613V27.774A6.62,6.62,0,0,0,41,21.161H23.806v2.645H41a3.973,3.973,0,0,1,3.968,3.968v3.968H42.323v-5.29H39.677v5.29H37.032v-5.29H34.387v5.29H31.742v-5.29H29.1v5.29H26.452v-5.29H23.806v5.29H21.161V30.419a6.613,6.613,0,0,0-13.226,0v6.613H6.613a6.536,6.536,0,0,0-3.236.882l-.36-1.8A19.136,19.136,0,0,1,21.782,13.226ZM2.645,43.645a3.973,3.973,0,0,1,3.968-3.968H7.935v7.935H6.613A3.973,3.973,0,0,1,2.645,43.645Zm7.935,5.29V44.193l2.645,2.645V56.4A11.841,11.841,0,0,1,10.581,48.935ZM23.806,63.484h7.935v1.323a1.324,1.324,0,0,1-1.323,1.323h-5.29a1.324,1.324,0,0,1-1.323-1.323ZM13.226,76.71h2.952A8.65,8.65,0,0,0,17.33,79.3l.037.057H13.226Zm29.1,2.645H38.182l.038-.057a8.65,8.65,0,0,0,1.152-2.588h2.951Zm2.571-5.29H39.652A8.728,8.728,0,0,0,38.76,70.6l-.545-1.09-2.366,1.184.545,1.09a6.034,6.034,0,0,1-.376,6.051L35,79.355H20.546l-1.016-1.524a6.044,6.044,0,0,1-.377-6.053l.545-1.09L17.332,69.5l-.545,1.09a8.756,8.756,0,0,0-.893,3.469h-5.24a11.921,11.921,0,0,1,10.507-10.5v1.243a3.973,3.973,0,0,0,3.968,3.968h5.29a3.973,3.973,0,0,0,3.968-3.968V63.565A11.919,11.919,0,0,1,44.894,74.065ZM22.484,60.839a11.833,11.833,0,0,1-6.613-2.013V47.613H39.677V58.826a11.833,11.833,0,0,1-6.613,2.013Z" transform="translate(0 0)"/>
    <path id="Trazado_625690" data-name="Trazado 625690" d="M17.29,30.645A2.648,2.648,0,0,1,14.645,28H12a5.29,5.29,0,0,0,10.581,0H19.935A2.648,2.648,0,0,1,17.29,30.645Z" transform="translate(3.871 9.032)"/>
    <path id="Trazado_625691" data-name="Trazado 625691" d="M29.935,28a2.645,2.645,0,0,1-5.29,0H22a5.29,5.29,0,0,0,10.581,0Z" transform="translate(7.097 9.032)"/>
    <path id="Trazado_625692" data-name="Trazado 625692" d="M7.935,55.226V52.337a3.964,3.964,0,0,0,2.4-2.4h2.889V47.29H10.337a3.964,3.964,0,0,0-2.4-2.4V42H5.29v2.889a3.964,3.964,0,0,0-2.4,2.4H0v2.645H2.889a3.964,3.964,0,0,0,2.4,2.4v2.889ZM6.613,47.29A1.323,1.323,0,1,1,5.29,48.613,1.324,1.324,0,0,1,6.613,47.29Z" transform="translate(0 13.548)"/>
    <path id="Trazado_625693" data-name="Trazado 625693" d="M64.452,53.226H61.7a9.2,9.2,0,0,0-1.748-4.212l1.854-1.853,1.71,1.71L65.387,47,60.1,41.71l-1.87,1.87,1.71,1.71-1.854,1.854A9.187,9.187,0,0,0,53.871,45.4V42.645h2.645V40H48.581v2.645h2.645V45.4a9.187,9.187,0,0,0-4.211,1.748L45.16,45.29l1.71-1.71L45,41.71,39.71,47l1.87,1.87,1.71-1.71,1.854,1.853A9.2,9.2,0,0,0,43.4,53.226H40.645V50.581H38v7.935h2.645V55.871H43.4a9.2,9.2,0,0,0,1.748,4.212L43.29,61.936l-1.71-1.71L39.71,62.1,45,67.387l1.87-1.87-1.71-1.71,1.854-1.854A9.2,9.2,0,0,0,51.226,63.7v2.751H48.581V69.1h7.935V66.452H53.871V63.7a9.187,9.187,0,0,0,4.211-1.748l1.854,1.854-1.71,1.71,1.87,1.87,5.29-5.29-1.87-1.87-1.71,1.71-1.854-1.853A9.186,9.186,0,0,0,61.7,55.871h2.751v2.645H67.1V50.581H64.452Zm-6.638,5.28a1.35,1.35,0,0,1-1.3-1.312,1.324,1.324,0,0,1,1.323-1.323,1.339,1.339,0,0,1,1.036.5,6.551,6.551,0,0,1-1.061,2.135Zm-3.943-9.247a1.323,1.323,0,1,1-1.323-1.323A1.324,1.324,0,0,1,53.871,49.258Zm-5.288.032a3.965,3.965,0,0,0,7.93,0,6.592,6.592,0,0,1,2.534,4.13,3.9,3.9,0,0,0-1.209-.194,3.96,3.96,0,0,0-2.3,7.188,6.352,6.352,0,0,1-5.978,0,3.96,3.96,0,0,0-2.3-7.188,3.9,3.9,0,0,0-1.209.194A6.588,6.588,0,0,1,48.583,49.29Zm-1.3,9.216a6.561,6.561,0,0,1-1.059-2.135,1.322,1.322,0,0,1,2.357.823,1.354,1.354,0,0,1-1.3,1.312Z" transform="translate(12.258 12.903)"/>
    <path id="Trazado_625694" data-name="Trazado 625694" d="M55.968,13.217a3.938,3.938,0,0,0,2.805-1.163l5.29-5.29a3.966,3.966,0,0,0,0-5.61,4.06,4.06,0,0,0-5.61,0l-5.29,5.29a3.968,3.968,0,0,0,2.805,6.773Zm5.29-10.581a1.322,1.322,0,0,1,.935,2.258L60.483,6.6l-1.87-1.87,1.71-1.71A1.3,1.3,0,0,1,61.258,2.636ZM55.033,8.314l1.71-1.71,1.87,1.87-1.71,1.71a1.341,1.341,0,0,1-1.87,0,1.322,1.322,0,0,1,0-1.87Z" transform="translate(16.774 0.009)"/>
    <path id="Trazado_625695" data-name="Trazado 625695" d="M61.616,28.908l-1.755-.586a1.324,1.324,0,0,1-.684-.521l-1.629-2.445a3.046,3.046,0,0,0-5.58,1.69v.829a1.319,1.319,0,0,1-.589,1.1l-1.9,1.263a3.331,3.331,0,0,0,1.041,6l2.229.557a1.323,1.323,0,0,1,.963.963l.624,2.5a2.975,2.975,0,0,0,5.8-.136l.8-4.017a1.335,1.335,0,0,1,.7-.923l.4-.2a3.3,3.3,0,0,0-.431-6.08Zm-.751,3.714-.4.2a3.941,3.941,0,0,0-2.116,2.771l-.8,4.015a.342.342,0,0,1-.644.016l-.624-2.5a3.96,3.96,0,0,0-2.889-2.887l-2.229-.557a.689.689,0,0,1-.214-1.241l1.9-1.263a3.955,3.955,0,0,0,1.767-3.3v-.829a.4.4,0,0,1,.734-.222l1.629,2.447a3.986,3.986,0,0,0,2.047,1.562l1.756.586a.653.653,0,0,1,.085,1.2Z" transform="translate(15.484 7.742)"/>
    <path id="Trazado_625696" data-name="Trazado 625696" d="M61.047,17.209A4.128,4.128,0,0,0,54,20.128a4.1,4.1,0,0,0,1.209,2.919l2.325,2.325a4.128,4.128,0,0,0,7.047-2.919,4.1,4.1,0,0,0-1.209-2.919Zm-.594,6.727A1.5,1.5,0,0,1,59.4,23.5l-2.325-2.325a1.483,1.483,0,0,1,1.049-2.531,1.5,1.5,0,0,1,1.049.434L61.5,21.4a1.483,1.483,0,0,1-1.049,2.531Z" transform="translate(17.419 5.161)"/>
  </g>
</svg>
