<svg xmlns="http://www.w3.org/2000/svg" width="1032" height="226.15" viewBox="0 0 1032 226.15">
  <g id="Grupo_990939" data-name="Grupo 990939" transform="translate(-283.75 -15494.769)">
    <path id="Trazado_627030" data-name="Trazado 627030" d="M13.707,13.508a3.465,3.465,0,0,1-1.613,1.238,6.517,6.517,0,0,1-2.41.41A4.674,4.674,0,0,1,7.215,14.5a4.346,4.346,0,0,1-1.668-1.855,6.408,6.408,0,0,1-.605-2.789V8.867a5.982,5.982,0,0,1,1.2-3.984A4.179,4.179,0,0,1,9.512,3.469a4.316,4.316,0,0,1,2.867.91,3.965,3.965,0,0,1,1.328,2.582h-1.5A2.48,2.48,0,0,0,9.52,4.7a2.655,2.655,0,0,0-2.285,1.06,5.173,5.173,0,0,0-.785,3.069v.93A4.848,4.848,0,0,0,7.324,12.8a2.836,2.836,0,0,0,2.367,1.13,5.228,5.228,0,0,0,1.477-.187,2.283,2.283,0,0,0,1.047-.631V10.563H9.582V9.336h4.125ZM24.066,4.852H20.41V15H18.918V4.852H15.27V3.625h8.8ZM33.9,11.391a4.185,4.185,0,0,1-1.332,2.785,4.365,4.365,0,0,1-2.98.98,4.008,4.008,0,0,1-3.23-1.445,5.815,5.815,0,0,1-1.215-3.867V8.75a6.481,6.481,0,0,1,.566-2.789,4.231,4.231,0,0,1,1.605-1.848,4.47,4.47,0,0,1,2.406-.645A4.11,4.11,0,0,1,32.629,4.48a4.235,4.235,0,0,1,1.273,2.8H32.395a3.268,3.268,0,0,0-.848-1.975A2.565,2.565,0,0,0,29.723,4.7a2.684,2.684,0,0,0-2.254,1.063,4.882,4.882,0,0,0-.816,3.026v1.1a5.018,5.018,0,0,0,.773,2.948A2.5,2.5,0,0,0,29.59,13.93a2.886,2.886,0,0,0,1.918-.566,3.143,3.143,0,0,0,.887-1.973Zm4.828-.633H34.918V9.578H38.73Zm7.359.422h1.578v1.18H46.09V15H44.637V12.359h-5.18v-.852l5.094-7.883H46.09Zm-4.992,0h3.539V5.6l-.172.313ZM49.637,9.3l.578-5.672h5.828V4.961h-4.6l-.344,3.1A3.671,3.671,0,0,1,53,7.57,3.138,3.138,0,0,1,55.465,8.6a4.026,4.026,0,0,1,.914,2.777,3.886,3.886,0,0,1-.949,2.77,3.46,3.46,0,0,1-2.652,1.012,3.6,3.6,0,0,1-2.461-.836,3.337,3.337,0,0,1-1.086-2.312H50.6a2.3,2.3,0,0,0,.7,1.473,2.162,2.162,0,0,0,1.484.5,1.95,1.95,0,0,0,1.582-.687,2.874,2.874,0,0,0,.574-1.9,2.638,2.638,0,0,0-.621-1.832,2.113,2.113,0,0,0-1.652-.691,2.383,2.383,0,0,0-1.484.414l-.383.313Z" transform="translate(359.75 15520.504)" fill="#12263f"/>
    <path id="Trazado_193411" data-name="Trazado 193411" d="M125.312,68.151V91h210V68.151" transform="translate(159.938 15463.334)" fill="none" stroke="#00caf2" stroke-width="1.5" stroke-dasharray="7 7"/>
    <g id="Grupo_173182" data-name="Grupo 173182" transform="translate(284.75 15500.929)">
      <path id="Trazado_193403" data-name="Trazado 193403" d="M122.329,31.691V8.041h209.4v23.65h40.288" transform="translate(-122.329 -8.041)" fill="none" stroke="#0a3699" stroke-width="2"/>
      <path id="Trazado_193417" data-name="Trazado 193417" d="M342.913,43V59.751l15.573-7.942Z" transform="translate(-102.682 -28.124)" fill="#0a3699"/>
      <rect id="Rectángulo_40520" data-name="Rectángulo 40520" width="2.064" height="8.258" transform="translate(238.167 20.038)" fill="#3d66c3"/>
    </g>
    <path id="Trazado_627031" data-name="Trazado 627031" d="M1.705,15V3.625H4.916a5.169,5.169,0,0,1,2.625.656A4.438,4.438,0,0,1,9.3,6.148,6.078,6.078,0,0,1,9.932,8.93v.727a6.1,6.1,0,0,1-.621,2.82,4.369,4.369,0,0,1-1.773,1.859A5.5,5.5,0,0,1,4.854,15Zm1.5-10.148v8.922H4.783a3.434,3.434,0,0,0,2.7-1.079,4.458,4.458,0,0,0,.965-3.073V8.957a4.529,4.529,0,0,0-.91-3.014A3.239,3.239,0,0,0,4.955,4.852ZM18.627,9.742H13.7v4.031h5.727V15H12.2V3.625h7.148V4.852H13.7V8.516h4.93Zm11.031,1.648a4.185,4.185,0,0,1-1.332,2.785,4.365,4.365,0,0,1-2.98.98,4.008,4.008,0,0,1-3.23-1.445A5.815,5.815,0,0,1,20.9,9.844V8.75a6.481,6.481,0,0,1,.566-2.789,4.231,4.231,0,0,1,1.605-1.848,4.47,4.47,0,0,1,2.406-.645A4.11,4.11,0,0,1,28.385,4.48a4.235,4.235,0,0,1,1.273,2.8H28.15A3.268,3.268,0,0,0,27.3,5.307,2.565,2.565,0,0,0,25.479,4.7a2.684,2.684,0,0,0-2.254,1.063,4.882,4.882,0,0,0-.816,3.026v1.1a5.018,5.018,0,0,0,.773,2.948,2.5,2.5,0,0,0,2.164,1.095,2.886,2.886,0,0,0,1.918-.566,3.143,3.143,0,0,0,.887-1.973Zm6.219-.992H33.205V15H31.7V3.625h3.766A4.457,4.457,0,0,1,38.42,4.5a3.148,3.148,0,0,1,1.035,2.547A3.062,3.062,0,0,1,38.881,8.9a3.428,3.428,0,0,1-1.6,1.18l2.672,4.828V15H38.346ZM33.205,9.172h2.3a2.6,2.6,0,0,0,1.777-.579,1.959,1.959,0,0,0,.66-1.55,2.062,2.062,0,0,0-.629-1.62A2.663,2.663,0,0,0,35.5,4.852h-2.3Zm14.781.57h-4.93v4.031h5.727V15H41.557V3.625h7.148V4.852H43.057V8.516h4.93Zm10.68-4.891H55.01V15H53.518V4.852H49.869V3.625h8.8ZM68.885,9.68a7.037,7.037,0,0,1-.562,2.918,4.261,4.261,0,0,1-1.594,1.9,4.4,4.4,0,0,1-6.4-1.887,6.752,6.752,0,0,1-.59-2.832v-.82a6.953,6.953,0,0,1,.57-2.9,4.218,4.218,0,0,1,4-2.594,4.41,4.41,0,0,1,2.41.66,4.253,4.253,0,0,1,1.605,1.914,7.071,7.071,0,0,1,.563,2.918Zm-1.492-.734A5.1,5.1,0,0,0,66.58,5.84a2.68,2.68,0,0,0-2.273-1.082A2.651,2.651,0,0,0,62.068,5.84a5,5,0,0,0-.84,3V9.68a5.107,5.107,0,0,0,.824,3.082,2.888,2.888,0,0,0,4.52.063,5.079,5.079,0,0,0,.82-3.035ZM79.471,15H78.018V5.367L75.1,6.438V5.125L79.244,3.57h.227Zm11.367-4.852a6.61,6.61,0,0,1-.867,3.773,3.6,3.6,0,0,1-5.406.027,6.274,6.274,0,0,1-.906-3.605V8.414a6.463,6.463,0,0,1,.867-3.727,3.668,3.668,0,0,1,5.422-.043,6.237,6.237,0,0,1,.891,3.629ZM89.393,8.172A5.3,5.3,0,0,0,88.877,5.5a1.775,1.775,0,0,0-1.633-.84,1.751,1.751,0,0,0-1.617.836,5.171,5.171,0,0,0-.523,2.57v2.313a5.381,5.381,0,0,0,.535,2.723,1.771,1.771,0,0,0,1.621.879,1.747,1.747,0,0,0,1.59-.828,5.186,5.186,0,0,0,.543-2.609Zm10.641-3.734L95.322,15H93.807L98.5,4.813H92.346V3.625h7.687ZM109.127,15h-7.453V13.961l3.938-4.375a9.354,9.354,0,0,0,1.207-1.613,2.693,2.693,0,0,0,.332-1.285,2.041,2.041,0,0,0-.539-1.461,1.885,1.885,0,0,0-1.437-.57,2.232,2.232,0,0,0-1.676.613,2.343,2.343,0,0,0-.6,1.707h-1.445a3.355,3.355,0,0,1,1.012-2.539,3.751,3.751,0,0,1,2.707-.969,3.6,3.6,0,0,1,2.508.832,2.838,2.838,0,0,1,.922,2.215q0,1.68-2.141,4l-3.047,3.3h5.711Zm5.867,0V3.625h3.211a5.169,5.169,0,0,1,2.625.656,4.438,4.438,0,0,1,1.762,1.867,6.078,6.078,0,0,1,.629,2.781v.727a6.1,6.1,0,0,1-.621,2.82,4.369,4.369,0,0,1-1.773,1.859,5.5,5.5,0,0,1-2.684.664Zm1.5-10.148v8.922h1.578a3.434,3.434,0,0,0,2.7-1.079,4.458,4.458,0,0,0,.965-3.073V8.957a4.529,4.529,0,0,0-.91-3.014,3.239,3.239,0,0,0-2.582-1.091Zm15.422,4.891h-4.93v4.031h5.727V15h-7.227V3.625h7.148V4.852h-5.648V8.516h4.93ZM57.252,33H49.8V31.961l3.938-4.375a9.355,9.355,0,0,0,1.207-1.613,2.693,2.693,0,0,0,.332-1.285,2.041,2.041,0,0,0-.539-1.461,1.885,1.885,0,0,0-1.437-.57,2.232,2.232,0,0,0-1.676.613,2.343,2.343,0,0,0-.6,1.707H49.58a3.355,3.355,0,0,1,1.012-2.539,3.751,3.751,0,0,1,2.707-.969,3.6,3.6,0,0,1,2.508.832,2.838,2.838,0,0,1,.922,2.215q0,1.68-2.141,4l-3.047,3.3h5.711Zm8.664-4.852a6.61,6.61,0,0,1-.867,3.773,3.6,3.6,0,0,1-5.406.027,6.274,6.274,0,0,1-.906-3.605v-1.93a6.463,6.463,0,0,1,.867-3.727,3.668,3.668,0,0,1,5.422-.043,6.237,6.237,0,0,1,.891,3.629Zm-1.445-1.977a5.3,5.3,0,0,0-.516-2.676,1.775,1.775,0,0,0-1.633-.84,1.751,1.751,0,0,0-1.617.836,5.171,5.171,0,0,0-.523,2.57v2.313a5.381,5.381,0,0,0,.535,2.723,1.771,1.771,0,0,0,1.621.879,1.747,1.747,0,0,0,1.59-.828,5.186,5.186,0,0,0,.543-2.609ZM72.518,33H71.065V23.367l-2.914,1.07V23.125l4.141-1.555h.227Zm4.9-5.7.578-5.672h5.828v1.336h-4.6l-.344,3.1a3.671,3.671,0,0,1,1.9-.492A3.138,3.138,0,0,1,83.244,26.6a4.026,4.026,0,0,1,.914,2.777,3.886,3.886,0,0,1-.949,2.77,3.46,3.46,0,0,1-2.652,1.012A3.6,3.6,0,0,1,78.1,32.32a3.337,3.337,0,0,1-1.086-2.312h1.367a2.3,2.3,0,0,0,.7,1.473,2.162,2.162,0,0,0,1.484.5,1.95,1.95,0,0,0,1.582-.687,2.874,2.874,0,0,0,.574-1.9,2.638,2.638,0,0,0-.621-1.832,2.113,2.113,0,0,0-1.652-.691,2.383,2.383,0,0,0-1.484.414l-.383.313Z" transform="translate(600.75 15511.504)" fill="#0f2440"/>
    <path id="Trazado_225611" data-name="Trazado 225611" d="M125.312,68.151V91H315.855V68.151" transform="translate(446.938 15463.334)" fill="none" stroke="#00caf2" stroke-width="1.5" stroke-dasharray="7 7"/>
    <g id="Grupo_173184" data-name="Grupo 173184" transform="translate(547.66 15500.929)">
      <path id="Trazado_193403-2" data-name="Trazado 193403" d="M98.192,31.691h26.283V8.041H311.838v23.65h36.048" transform="translate(-98.192 -8.041)" fill="none" stroke="#0a3699" stroke-width="2"/>
      <path id="Trazado_193417-2" data-name="Trazado 193417" d="M342.913,43V59.751l15.573-7.942Z" transform="translate(-102.68 -28.124)" fill="#0a3699"/>
      <rect id="Rectángulo_40520-2" data-name="Rectángulo 40520" width="2.064" height="8.258" transform="translate(238.169 20.038)" fill="#3d66c3"/>
    </g>
    <path id="Trazado_627032" data-name="Trazado 627032" d="M24.729,10.4H22.057V15H20.549V3.625h3.766a4.457,4.457,0,0,1,2.957.875,3.148,3.148,0,0,1,1.035,2.547A3.062,3.062,0,0,1,27.732,8.9a3.428,3.428,0,0,1-1.6,1.18l2.672,4.828V15H27.2ZM22.057,9.172h2.3a2.6,2.6,0,0,0,1.777-.579,1.959,1.959,0,0,0,.66-1.55,2.062,2.062,0,0,0-.629-1.62,2.663,2.663,0,0,0-1.816-.571h-2.3Zm14.781.57h-4.93v4.031h5.727V15H30.408V3.625h7.148V4.852H31.908V8.516h4.93Zm6.016.188a7.053,7.053,0,0,1-2.809-1.363,2.6,2.6,0,0,1-.879-2A2.751,2.751,0,0,1,40.24,4.348a4.269,4.269,0,0,1,2.793-.879,4.66,4.66,0,0,1,2.09.453,3.436,3.436,0,0,1,1.422,1.25,3.2,3.2,0,0,1,.5,1.742H45.541a2.08,2.08,0,0,0-.656-1.627A2.669,2.669,0,0,0,43.033,4.7a2.732,2.732,0,0,0-1.73.489,1.632,1.632,0,0,0-.621,1.358,1.468,1.468,0,0,0,.59,1.178,5.785,5.785,0,0,0,2.008.88,9.316,9.316,0,0,1,2.219.88A3.367,3.367,0,0,1,46.686,10.6a2.861,2.861,0,0,1,.387,1.508,2.658,2.658,0,0,1-1.078,2.215,4.6,4.6,0,0,1-2.883.832,5.347,5.347,0,0,1-2.187-.449,3.681,3.681,0,0,1-1.566-1.23,3,3,0,0,1-.551-1.773h1.508a1.959,1.959,0,0,0,.762,1.629,3.207,3.207,0,0,0,2.035.6,2.948,2.948,0,0,0,1.82-.484,1.573,1.573,0,0,0,.633-1.32,1.545,1.545,0,0,0-.586-1.293A6.755,6.755,0,0,0,42.854,9.93Zm14.891-.25a7.037,7.037,0,0,1-.562,2.918,4.261,4.261,0,0,1-1.594,1.9,4.4,4.4,0,0,1-6.4-1.887,6.752,6.752,0,0,1-.59-2.832v-.82a6.953,6.953,0,0,1,.57-2.9,4.218,4.218,0,0,1,4-2.594,4.41,4.41,0,0,1,2.41.66,4.253,4.253,0,0,1,1.605,1.914,7.071,7.071,0,0,1,.563,2.918Zm-1.492-.734A5.1,5.1,0,0,0,55.44,5.84a2.68,2.68,0,0,0-2.273-1.082A2.651,2.651,0,0,0,50.928,5.84a5,5,0,0,0-.84,3V9.68a5.107,5.107,0,0,0,.824,3.082,2.888,2.888,0,0,0,4.52.063,5.079,5.079,0,0,0,.82-3.035Zm5.25,4.828h5.391V15h-6.9V3.625H61.5ZM76.19,3.625v7.734a3.628,3.628,0,0,1-1.012,2.633,4.077,4.077,0,0,1-2.723,1.148l-.4.016a4.258,4.258,0,0,1-2.977-1.008,3.6,3.6,0,0,1-1.125-2.773V3.625H69.44v7.7a2.6,2.6,0,0,0,.68,1.918,3.111,3.111,0,0,0,3.887,0,2.6,2.6,0,0,0,.676-1.914V3.625Zm10.734,7.766a4.185,4.185,0,0,1-1.332,2.785,4.365,4.365,0,0,1-2.98.98,4.008,4.008,0,0,1-3.23-1.445,5.815,5.815,0,0,1-1.215-3.867V8.75a6.481,6.481,0,0,1,.566-2.789,4.231,4.231,0,0,1,1.605-1.848,4.47,4.47,0,0,1,2.406-.645A4.11,4.11,0,0,1,85.65,4.48a4.235,4.235,0,0,1,1.273,2.8H85.416a3.268,3.268,0,0,0-.848-1.975A2.565,2.565,0,0,0,82.744,4.7,2.684,2.684,0,0,0,80.49,5.759a4.882,4.882,0,0,0-.816,3.026v1.1a5.018,5.018,0,0,0,.773,2.948,2.5,2.5,0,0,0,2.164,1.095,2.886,2.886,0,0,0,1.918-.566,3.143,3.143,0,0,0,.887-1.973ZM90.58,15h-1.5V3.625h1.5Zm11.492-5.32a7.037,7.037,0,0,1-.562,2.918,4.261,4.261,0,0,1-1.594,1.9,4.4,4.4,0,0,1-6.4-1.887,6.752,6.752,0,0,1-.59-2.832v-.82a6.953,6.953,0,0,1,.57-2.9,4.218,4.218,0,0,1,4-2.594,4.41,4.41,0,0,1,2.41.66,4.253,4.253,0,0,1,1.605,1.914,7.071,7.071,0,0,1,.563,2.918Zm-1.492-.734a5.1,5.1,0,0,0-.812-3.105,2.68,2.68,0,0,0-2.273-1.082A2.651,2.651,0,0,0,95.256,5.84a5,5,0,0,0-.84,3V9.68a5.107,5.107,0,0,0,.824,3.082,2.888,2.888,0,0,0,4.52.063,5.079,5.079,0,0,0,.82-3.035ZM98.229.578h1.75l-2.094,2.3-1.164,0ZM113.065,15h-1.508L105.83,6.234V15h-1.508V3.625h1.508l5.742,8.8v-8.8h1.492ZM25.529,33H18.076V31.961l3.938-4.375a9.354,9.354,0,0,0,1.207-1.613,2.693,2.693,0,0,0,.332-1.285,2.041,2.041,0,0,0-.539-1.461,1.885,1.885,0,0,0-1.437-.57,2.232,2.232,0,0,0-1.676.613,2.343,2.343,0,0,0-.6,1.707H17.857a3.355,3.355,0,0,1,1.012-2.539,3.751,3.751,0,0,1,2.707-.969,3.6,3.6,0,0,1,2.508.832,2.838,2.838,0,0,1,.922,2.215q0,1.68-2.141,4l-3.047,3.3h5.711Zm7.633-3.82H34.74v1.18H33.162V33H31.709V30.359h-5.18v-.852l5.094-7.883h1.539Zm-4.992,0h3.539V23.6l-.172.313Zm15.008-1.031a6.61,6.61,0,0,1-.867,3.773A3.084,3.084,0,0,1,39.6,33.156a3.107,3.107,0,0,1-2.7-1.207A6.274,6.274,0,0,1,36,28.344v-1.93a6.463,6.463,0,0,1,.867-3.727,3.108,3.108,0,0,1,2.719-1.219,3.136,3.136,0,0,1,2.7,1.176,6.237,6.237,0,0,1,.891,3.629Zm-1.445-1.977a5.3,5.3,0,0,0-.516-2.676,1.775,1.775,0,0,0-1.633-.84,1.751,1.751,0,0,0-1.617.836,5.171,5.171,0,0,0-.523,2.57v2.313a5.381,5.381,0,0,0,.535,2.723,1.771,1.771,0,0,0,1.621.879,1.747,1.747,0,0,0,1.59-.828,5.186,5.186,0,0,0,.543-2.609Zm10.43,1.977a6.61,6.61,0,0,1-.867,3.773,3.6,3.6,0,0,1-5.406.027,6.274,6.274,0,0,1-.906-3.605v-1.93a6.463,6.463,0,0,1,.867-3.727,3.108,3.108,0,0,1,2.719-1.219,3.136,3.136,0,0,1,2.7,1.176,6.237,6.237,0,0,1,.891,3.629Zm-1.445-1.977A5.3,5.3,0,0,0,50.2,23.5a1.775,1.775,0,0,0-1.633-.84,1.751,1.751,0,0,0-1.617.836,5.171,5.171,0,0,0-.523,2.57v2.313a5.381,5.381,0,0,0,.535,2.723,1.771,1.771,0,0,0,1.621.879,1.747,1.747,0,0,0,1.59-.828,5.186,5.186,0,0,0,.543-2.609ZM58.35,33V21.625h3.211a5.169,5.169,0,0,1,2.625.656,4.438,4.438,0,0,1,1.762,1.867,6.078,6.078,0,0,1,.629,2.781v.727a6.1,6.1,0,0,1-.621,2.82,4.369,4.369,0,0,1-1.773,1.859A5.5,5.5,0,0,1,61.5,33Zm1.5-10.148v8.922h1.578a3.434,3.434,0,0,0,2.7-1.079,4.458,4.458,0,0,0,.965-3.073v-.665a4.529,4.529,0,0,0-.91-3.014A3.239,3.239,0,0,0,61.6,22.852Zm15.422,4.891h-4.93v4.031h5.727V33H68.842V21.625H75.99v1.227H70.342v3.664h4.93Zm11,5.258H84.818V23.367L81.9,24.438V23.125l4.141-1.555h.227Zm9.773-5a3.536,3.536,0,0,1-1.082.867,2.936,2.936,0,0,1-1.379.328,3.031,3.031,0,0,1-1.715-.484,3.149,3.149,0,0,1-1.129-1.363,4.648,4.648,0,0,1-.4-1.941,4.735,4.735,0,0,1,.434-2.055,3.185,3.185,0,0,1,1.23-1.4,3.509,3.509,0,0,1,1.859-.484,3.177,3.177,0,0,1,2.66,1.262,5.5,5.5,0,0,1,.973,3.441v.422q0,3.32-1.312,4.848a5.043,5.043,0,0,1-3.961,1.566h-.281V31.781h.3A3.979,3.979,0,0,0,95,30.85,4,4,0,0,0,96.045,28Zm-2.227,0a2.232,2.232,0,0,0,1.34-.445,2.625,2.625,0,0,0,.895-1.1v-.578a3.977,3.977,0,0,0-.617-2.312,1.887,1.887,0,0,0-3.094-.16,3.013,3.013,0,0,0-.578,1.926,3.136,3.136,0,0,0,.559,1.918A1.769,1.769,0,0,0,93.818,28Zm13.016-5.562L102.123,33h-1.516l4.7-10.187H99.147V21.625h7.687ZM114.014,28a3.536,3.536,0,0,1-1.082.867,2.936,2.936,0,0,1-1.379.328,3.031,3.031,0,0,1-1.715-.484,3.149,3.149,0,0,1-1.129-1.363,4.648,4.648,0,0,1-.4-1.941,4.735,4.735,0,0,1,.434-2.055,3.185,3.185,0,0,1,1.23-1.4,3.509,3.509,0,0,1,1.859-.484,3.177,3.177,0,0,1,2.66,1.262,5.5,5.5,0,0,1,.973,3.441v.422q0,3.32-1.312,4.848a5.043,5.043,0,0,1-3.961,1.566h-.281V31.781h.3a3.979,3.979,0,0,0,2.75-.932A4,4,0,0,0,114.014,28Zm-2.227,0a2.232,2.232,0,0,0,1.34-.445,2.625,2.625,0,0,0,.895-1.1v-.578a3.977,3.977,0,0,0-.617-2.312,1.887,1.887,0,0,0-3.094-.16,3.013,3.013,0,0,0-.578,1.926,3.136,3.136,0,0,0,.559,1.918A1.769,1.769,0,0,0,111.787,28Z" transform="translate(886.75 15511.504)" fill="#0f2440"/>
    <path id="Trazado_225612" data-name="Trazado 225612" d="M125.312,68.151V91H311.135V68.151" transform="translate(735.938 15463.334)" fill="none" stroke="#00caf2" stroke-width="1.5" stroke-dasharray="7 7"/>
    <g id="Grupo_173186" data-name="Grupo 173186" transform="translate(833.139 15500.929)">
      <path id="Trazado_193403-3" data-name="Trazado 193403" d="M98.192,31.691h26.283V8.041H311.839v23.65h36.048" transform="translate(-98.192 -8.041)" fill="none" stroke="#0a3699" stroke-width="2"/>
      <path id="Trazado_193417-3" data-name="Trazado 193417" d="M342.913,43V59.751l15.573-7.942Z" transform="translate(-102.68 -28.124)" fill="#0a3699"/>
      <rect id="Rectángulo_40520-3" data-name="Rectángulo 40520" width="2.064" height="8.258" transform="translate(238.169 20.038)" fill="#3d66c3"/>
    </g>
    <path id="Trazado_627033" data-name="Trazado 627033" d="M9.412,3.625v7.734A3.628,3.628,0,0,1,8.4,13.992a4.077,4.077,0,0,1-2.723,1.148l-.4.016A4.258,4.258,0,0,1,2.3,14.148a3.6,3.6,0,0,1-1.125-2.773V3.625H2.662v7.7a2.6,2.6,0,0,0,.68,1.918,2.612,2.612,0,0,0,1.937.684,2.63,2.63,0,0,0,1.949-.68A2.6,2.6,0,0,0,7.9,11.336V3.625ZM20.522,15H19.014L13.287,6.234V15H11.779V3.625h1.508l5.742,8.8v-8.8h1.492Zm9.094-5.258h-4.93v4.031h5.727V15H23.186V3.625h7.148V4.852H24.686V8.516h4.93Zm5.445,1.016H31.248V9.578h3.813Zm8.063-1.016h-4.93v4.031H43.92V15H36.693V3.625h7.148V4.852H38.193V8.516h4.93ZM54.529,15H53.022L47.295,6.234V15H45.787V3.625h1.508l5.742,8.8v-8.8h1.492Zm8.234,0h-1.5V3.625h1.5Zm6.094-5.07a7.053,7.053,0,0,1-2.809-1.363,2.6,2.6,0,0,1-.879-2,2.751,2.751,0,0,1,1.074-2.223,4.269,4.269,0,0,1,2.793-.879,4.66,4.66,0,0,1,2.09.453,3.436,3.436,0,0,1,1.422,1.25,3.2,3.2,0,0,1,.5,1.742H71.545a2.08,2.08,0,0,0-.656-1.627A2.669,2.669,0,0,0,69.037,4.7a2.732,2.732,0,0,0-1.73.489,1.632,1.632,0,0,0-.621,1.358,1.468,1.468,0,0,0,.59,1.178,5.785,5.785,0,0,0,2.008.88,9.316,9.316,0,0,1,2.219.88A3.367,3.367,0,0,1,72.69,10.6a2.861,2.861,0,0,1,.387,1.508A2.658,2.658,0,0,1,72,14.324a4.6,4.6,0,0,1-2.883.832,5.347,5.347,0,0,1-2.187-.449,3.681,3.681,0,0,1-1.566-1.23,3,3,0,0,1-.551-1.773h1.508a1.959,1.959,0,0,0,.762,1.629,3.207,3.207,0,0,0,2.035.6,2.948,2.948,0,0,0,1.82-.484,1.573,1.573,0,0,0,.633-1.32,1.545,1.545,0,0,0-.586-1.293A6.755,6.755,0,0,0,68.857,9.93Zm14.891-.25a7.037,7.037,0,0,1-.562,2.918,4.261,4.261,0,0,1-1.594,1.9,4.4,4.4,0,0,1-6.4-1.887,6.752,6.752,0,0,1-.59-2.832v-.82a6.953,6.953,0,0,1,.57-2.9,4.218,4.218,0,0,1,4-2.594,4.41,4.41,0,0,1,2.41.66,4.253,4.253,0,0,1,1.605,1.914,7.071,7.071,0,0,1,.563,2.918Zm-1.492-.734a5.1,5.1,0,0,0-.812-3.105A2.68,2.68,0,0,0,79.17,4.758,2.651,2.651,0,0,0,76.932,5.84a5,5,0,0,0-.84,3V9.68a5.107,5.107,0,0,0,.824,3.082,2.888,2.888,0,0,0,4.52.063,5.079,5.079,0,0,0,.82-3.035ZM94.334,15H92.881V5.367l-2.914,1.07V5.125L94.107,3.57h.227Zm11.687,0H98.568V13.961l3.937-4.375a9.354,9.354,0,0,0,1.207-1.613,2.693,2.693,0,0,0,.332-1.285,2.041,2.041,0,0,0-.539-1.461,1.885,1.885,0,0,0-1.437-.57,2.232,2.232,0,0,0-1.676.613,2.343,2.343,0,0,0-.6,1.707H98.35a3.355,3.355,0,0,1,1.012-2.539,3.751,3.751,0,0,1,2.707-.969,3.6,3.6,0,0,1,2.508.832,2.838,2.838,0,0,1,.922,2.215q0,1.68-2.141,4l-3.047,3.3h5.711Zm6.281,0H110.85V5.367l-2.914,1.07V5.125l4.141-1.555h.227Zm11.367-4.852a6.61,6.61,0,0,1-.867,3.773,3.6,3.6,0,0,1-5.406.027,6.274,6.274,0,0,1-.906-3.605V8.414a6.463,6.463,0,0,1,.867-3.727,3.668,3.668,0,0,1,5.422-.043,6.237,6.237,0,0,1,.891,3.629Zm-1.445-1.977a5.3,5.3,0,0,0-.516-2.676,1.775,1.775,0,0,0-1.633-.84,1.751,1.751,0,0,0-1.617.836,5.171,5.171,0,0,0-.523,2.57v2.313a5.381,5.381,0,0,0,.535,2.723,1.771,1.771,0,0,0,1.621.879,1.747,1.747,0,0,0,1.59-.828,5.186,5.186,0,0,0,.543-2.609Zm10.43,1.977a6.61,6.61,0,0,1-.867,3.773,3.6,3.6,0,0,1-5.406.027,6.274,6.274,0,0,1-.906-3.605V8.414a6.463,6.463,0,0,1,.867-3.727,3.668,3.668,0,0,1,5.422-.043,6.237,6.237,0,0,1,.891,3.629Zm-1.445-1.977a5.3,5.3,0,0,0-.516-2.676,1.775,1.775,0,0,0-1.633-.84,1.751,1.751,0,0,0-1.617.836,5.171,5.171,0,0,0-.523,2.57v2.313a5.381,5.381,0,0,0,.535,2.723,1.771,1.771,0,0,0,1.621.879,1.747,1.747,0,0,0,1.59-.828,5.186,5.186,0,0,0,.543-2.609Z" transform="translate(1152.75 15520.504)" fill="#0f2440"/>
    <path id="Trazado_225615" data-name="Trazado 225615" d="M315.312,85.584h-190V68.151" transform="translate(999.938 15468.754)" fill="none" stroke="#00caf2" stroke-width="1.5" stroke-dasharray="7 7"/>
    <g id="Grupo_989948" data-name="Grupo 989948" transform="translate(1105.204 15495.769)">
      <g id="Grupo_173189" data-name="Grupo 173189" transform="translate(0 0)">
        <path id="Trazado_193410" data-name="Trazado 193410" d="M831,31.826h21.407V8.041h188.14V186.983h-37.568" transform="translate(-831 -8.041)" fill="none" stroke="#0a3699" stroke-width="2"/>
        <path id="Trazado_193498" data-name="Trazado 193498" d="M1162.573,296.243V279.493L1147,287.434Z" transform="translate(-988.986 -108.093)" fill="#0a3699"/>
        <rect id="Rectángulo_40525" data-name="Rectángulo 40525" width="2.064" height="8.258" transform="translate(176.414 175.647)" fill="#3d66c3"/>
      </g>
    </g>
    <path id="Trazado_627034" data-name="Trazado 627034" d="M13.826,15H12.318L6.592,6.234V15H5.084V3.625H6.592l5.742,8.8v-8.8h1.492ZM25.24,9.68a7.037,7.037,0,0,1-.562,2.918,4.261,4.261,0,0,1-1.594,1.9,4.4,4.4,0,0,1-6.4-1.887,6.752,6.752,0,0,1-.59-2.832v-.82a6.953,6.953,0,0,1,.57-2.9,4.218,4.218,0,0,1,4-2.594,4.41,4.41,0,0,1,2.41.66,4.253,4.253,0,0,1,1.605,1.914,7.071,7.071,0,0,1,.563,2.918Zm-1.492-.734a5.1,5.1,0,0,0-.812-3.105,2.68,2.68,0,0,0-2.273-1.082A2.651,2.651,0,0,0,18.424,5.84a5,5,0,0,0-.84,3V9.68a5.107,5.107,0,0,0,.824,3.082,2.662,2.662,0,0,0,2.27,1.121,2.652,2.652,0,0,0,2.25-1.059,5.079,5.079,0,0,0,.82-3.035ZM31.662,10.4H28.99V15H27.482V3.625h3.766a4.457,4.457,0,0,1,2.957.875A3.148,3.148,0,0,1,35.24,7.047,3.062,3.062,0,0,1,34.666,8.9a3.428,3.428,0,0,1-1.6,1.18l2.672,4.828V15H34.131ZM28.99,9.172h2.3a2.6,2.6,0,0,0,1.777-.579,1.959,1.959,0,0,0,.66-1.55,2.062,2.062,0,0,0-.629-1.62,2.663,2.663,0,0,0-1.816-.571h-2.3ZM39.279,3.625,43,12.906l3.719-9.281h1.945V15h-1.5V10.57L47.3,5.789,43.568,15H42.42L38.693,5.813l.148,4.758V15h-1.5V3.625Zm18.453,8.4H52.967L51.9,15H50.35L54.693,3.625h1.313L60.357,15H58.818ZM53.42,10.8h3.867L55.35,5.477ZM73.4,4.852H69.74V15H68.248V4.852H64.6V3.625h8.8Zm8.117,4.891h-4.93v4.031h5.727V15H75.084V3.625h7.148V4.852H76.584V8.516h4.93ZM79.311.5h1.75L78.967,2.8l-1.164,0ZM92.545,11.391a4.185,4.185,0,0,1-1.332,2.785,4.365,4.365,0,0,1-2.98.98A4.008,4.008,0,0,1,85,13.711a5.815,5.815,0,0,1-1.215-3.867V8.75a6.481,6.481,0,0,1,.566-2.789,4.231,4.231,0,0,1,1.605-1.848,4.47,4.47,0,0,1,2.406-.645A4.11,4.11,0,0,1,91.272,4.48a4.235,4.235,0,0,1,1.273,2.8H91.037a3.268,3.268,0,0,0-.848-1.975A2.565,2.565,0,0,0,88.365,4.7a2.684,2.684,0,0,0-2.254,1.063,4.882,4.882,0,0,0-.816,3.026v1.1a5.018,5.018,0,0,0,.773,2.948,2.5,2.5,0,0,0,2.164,1.095,2.886,2.886,0,0,0,1.918-.566,3.143,3.143,0,0,0,.887-1.973ZM103.334,15h-1.508L96.1,6.234V15H94.592V3.625H96.1l5.742,8.8v-8.8h1.492Zm4.273,0h-1.5V3.625h1.5Zm11.109-3.609a4.185,4.185,0,0,1-1.332,2.785,4.365,4.365,0,0,1-2.98.98,4.008,4.008,0,0,1-3.23-1.445,5.815,5.815,0,0,1-1.215-3.867V8.75a6.481,6.481,0,0,1,.566-2.789,4.231,4.231,0,0,1,1.605-1.848,4.47,4.47,0,0,1,2.406-.645,4.11,4.11,0,0,1,2.906,1.012,4.235,4.235,0,0,1,1.273,2.8h-1.508a3.268,3.268,0,0,0-.848-1.975,2.565,2.565,0,0,0-1.824-.611,2.684,2.684,0,0,0-2.254,1.063,4.882,4.882,0,0,0-.816,3.026v1.1a5.018,5.018,0,0,0,.773,2.948A2.5,2.5,0,0,0,114.4,13.93a2.886,2.886,0,0,0,1.918-.566,3.143,3.143,0,0,0,.887-1.973Zm8.328.633h-4.766L121.209,15h-1.547l4.344-11.375h1.313L129.67,15h-1.539ZM122.732,10.8H126.6l-1.937-5.32ZM25.83,29.391A4.185,4.185,0,0,1,24.5,32.176a4.365,4.365,0,0,1-2.98.98,4.008,4.008,0,0,1-3.23-1.445,5.815,5.815,0,0,1-1.215-3.867V26.75a6.481,6.481,0,0,1,.566-2.789,4.231,4.231,0,0,1,1.605-1.848,4.47,4.47,0,0,1,2.406-.645,4.11,4.11,0,0,1,2.906,1.012,4.235,4.235,0,0,1,1.273,2.8H24.322a3.268,3.268,0,0,0-.848-1.975A2.565,2.565,0,0,0,21.65,22.7,2.684,2.684,0,0,0,19.4,23.759a4.882,4.882,0,0,0-.816,3.026v1.1a5.018,5.018,0,0,0,.773,2.948,2.5,2.5,0,0,0,2.164,1.095,2.887,2.887,0,0,0,1.918-.566,3.143,3.143,0,0,0,.887-1.973Zm10.8-1.711a7.037,7.037,0,0,1-.562,2.918,4.261,4.261,0,0,1-1.594,1.9,4.4,4.4,0,0,1-6.4-1.887,6.752,6.752,0,0,1-.59-2.832v-.82a6.953,6.953,0,0,1,.57-2.9,4.218,4.218,0,0,1,4-2.594,4.41,4.41,0,0,1,2.41.66,4.253,4.253,0,0,1,1.605,1.914,7.071,7.071,0,0,1,.563,2.918Zm-1.492-.734a5.1,5.1,0,0,0-.812-3.105,2.68,2.68,0,0,0-2.273-1.082,2.651,2.651,0,0,0-2.238,1.082,5,5,0,0,0-.84,3v.836a5.107,5.107,0,0,0,.824,3.082,2.888,2.888,0,0,0,4.52.063,5.079,5.079,0,0,0,.82-3.035Zm5.25,4.828h5.391V33h-6.9V21.625h1.508ZM55.729,27.68a7.037,7.037,0,0,1-.562,2.918,4.261,4.261,0,0,1-1.594,1.9,4.4,4.4,0,0,1-6.4-1.887,6.752,6.752,0,0,1-.59-2.832v-.82a6.953,6.953,0,0,1,.57-2.9,4.218,4.218,0,0,1,4-2.594,4.41,4.41,0,0,1,2.41.66,4.253,4.253,0,0,1,1.605,1.914,7.071,7.071,0,0,1,.563,2.918Zm-1.492-.734a5.1,5.1,0,0,0-.812-3.105,2.68,2.68,0,0,0-2.273-1.082,2.651,2.651,0,0,0-2.238,1.082,5,5,0,0,0-.84,3v.836a5.107,5.107,0,0,0,.824,3.082,2.888,2.888,0,0,0,4.52.063,5.079,5.079,0,0,0,.82-3.035Zm5.68-5.32,3.719,9.281,3.719-9.281H69.3V33H67.8V28.57l.141-4.781L64.205,33H63.057L59.33,23.813l.148,4.758V33h-1.5V21.625ZM71.947,33V21.625h3.719a4.317,4.317,0,0,1,2.785.766,2.759,2.759,0,0,1,.934,2.266,2.31,2.31,0,0,1-.453,1.41,2.938,2.938,0,0,1-1.234.949,2.638,2.638,0,0,1,1.457.98,2.814,2.814,0,0,1,.535,1.723,3.042,3.042,0,0,1-.992,2.406,4.1,4.1,0,0,1-2.8.875Zm1.5-5.32v4.094h2.477a2.385,2.385,0,0,0,1.652-.543,1.907,1.907,0,0,0,.605-1.5q0-2.055-2.234-2.055Zm0-1.2h2.266a2.375,2.375,0,0,0,1.574-.493,1.654,1.654,0,0,0,.59-1.339,1.626,1.626,0,0,0-.547-1.366,2.686,2.686,0,0,0-1.664-.427H73.447ZM83.518,33h-1.5V21.625h1.5Zm9.164-2.977H87.916L86.846,33H85.3l4.344-11.375h1.313L95.307,33H93.768ZM88.369,28.8h3.867L90.3,23.477ZM105.58,33h-1.508l-5.727-8.766V33H96.838V21.625h1.508l5.742,8.8v-8.8h1.492Zm9.086-2.977H109.9L108.83,33h-1.547l4.344-11.375h1.313L117.291,33h-1.539ZM110.354,28.8h3.867l-1.937-5.32ZM57.252,51H49.8V49.961l3.938-4.375a9.355,9.355,0,0,0,1.207-1.613,2.693,2.693,0,0,0,.332-1.285,2.041,2.041,0,0,0-.539-1.461,1.885,1.885,0,0,0-1.437-.57,2.232,2.232,0,0,0-1.676.613,2.343,2.343,0,0,0-.6,1.707H49.58a3.355,3.355,0,0,1,1.012-2.539,3.751,3.751,0,0,1,2.707-.969,3.6,3.6,0,0,1,2.508.832,2.838,2.838,0,0,1,.922,2.215q0,1.68-2.141,4l-3.047,3.3h5.711Zm2.2-5.7.578-5.672h5.828v1.336h-4.6l-.344,3.1a3.671,3.671,0,0,1,1.9-.492A3.138,3.138,0,0,1,65.275,44.6a4.026,4.026,0,0,1,.914,2.777,3.886,3.886,0,0,1-.949,2.77,3.46,3.46,0,0,1-2.652,1.012,3.6,3.6,0,0,1-2.461-.836,3.337,3.337,0,0,1-1.086-2.312h1.367a2.3,2.3,0,0,0,.7,1.473,2.162,2.162,0,0,0,1.484.5,1.95,1.95,0,0,0,1.582-.687,2.874,2.874,0,0,0,.574-1.9,2.638,2.638,0,0,0-.621-1.832,2.113,2.113,0,0,0-1.652-.691,2.383,2.383,0,0,0-1.484.414l-.383.313Zm15.453.852a6.61,6.61,0,0,1-.867,3.773,3.6,3.6,0,0,1-5.406.027,6.274,6.274,0,0,1-.906-3.605v-1.93a6.463,6.463,0,0,1,.867-3.727,3.668,3.668,0,0,1,5.422-.043,6.237,6.237,0,0,1,.891,3.629Zm-1.445-1.977A5.3,5.3,0,0,0,72.94,41.5a1.775,1.775,0,0,0-1.633-.84,1.751,1.751,0,0,0-1.617.836,5.171,5.171,0,0,0-.523,2.57v2.313A5.381,5.381,0,0,0,69.7,49.1a1.771,1.771,0,0,0,1.621.879,1.747,1.747,0,0,0,1.59-.828,5.186,5.186,0,0,0,.543-2.609Zm8.969-4.555v1.227h-.266a3.805,3.805,0,0,0-2.687,1,4.161,4.161,0,0,0-1.156,2.727,3.085,3.085,0,0,1,2.453-1.031,2.95,2.95,0,0,1,2.371,1.047,4.588,4.588,0,0,1-.07,5.516A3.3,3.3,0,0,1,80.5,51.156,3.247,3.247,0,0,1,77.854,49.9a4.97,4.97,0,0,1-1.016-3.23v-.555a7.488,7.488,0,0,1,1.34-4.8,4.921,4.921,0,0,1,3.988-1.7Zm-1.9,5.125A2.429,2.429,0,0,0,78.291,46.3v.531a3.731,3.731,0,0,0,.633,2.266,1.9,1.9,0,0,0,1.578.859,1.838,1.838,0,0,0,1.535-.719,3.452,3.452,0,0,0-.008-3.777A1.816,1.816,0,0,0,80.525,44.742Z" transform="translate(1070.75 15655.504)" fill="#0f2440"/>
    <path id="Trazado_625712" data-name="Trazado 625712" d="M310.9,68.151v38.59H125.312V68.151" transform="translate(914.27 15613.428)" fill="none" stroke="#00caf2" stroke-width="1.5" stroke-dasharray="7 7"/>
    <g id="Grupo_990368" data-name="Grupo 990368" transform="translate(997.354 15651.022)">
      <path id="Trazado_193403-4" data-name="Trazado 193403" d="M347.886,31.691H321.6V8.041H134.24v23.65H98.192" transform="translate(-92.08 -8.041)" fill="none" stroke="#0a3699" stroke-width="2"/>
      <path id="Trazado_193417-4" data-name="Trazado 193417" d="M358.486,43V59.751l-15.573-7.942Z" transform="translate(-342.913 -28.124)" fill="#0a3699"/>
      <rect id="Rectángulo_40520-4" data-name="Rectángulo 40520" width="2.064" height="8.258" transform="translate(15.573 20.038)" fill="#3d66c3"/>
    </g>
    <path id="Trazado_627035" data-name="Trazado 627035" d="M15.635,15H14.127L8.4,6.234V15H6.893V3.625H8.4l5.742,8.8v-8.8h1.492ZM27.049,9.68a7.037,7.037,0,0,1-.562,2.918,4.261,4.261,0,0,1-1.594,1.9,4.4,4.4,0,0,1-6.4-1.887,6.752,6.752,0,0,1-.59-2.832v-.82a6.953,6.953,0,0,1,.57-2.9,4.218,4.218,0,0,1,4-2.594,4.41,4.41,0,0,1,2.41.66,4.253,4.253,0,0,1,1.605,1.914,7.071,7.071,0,0,1,.563,2.918Zm-1.492-.734a5.1,5.1,0,0,0-.812-3.105,2.68,2.68,0,0,0-2.273-1.082A2.651,2.651,0,0,0,20.232,5.84a5,5,0,0,0-.84,3V9.68a5.107,5.107,0,0,0,.824,3.082,2.662,2.662,0,0,0,2.27,1.121,2.652,2.652,0,0,0,2.25-1.059,5.079,5.079,0,0,0,.82-3.035ZM33.471,10.4H30.8V15H29.291V3.625h3.766a4.457,4.457,0,0,1,2.957.875,3.148,3.148,0,0,1,1.035,2.547A3.062,3.062,0,0,1,36.475,8.9a3.428,3.428,0,0,1-1.6,1.18l2.672,4.828V15H35.94ZM30.8,9.172h2.3a2.6,2.6,0,0,0,1.777-.579,1.959,1.959,0,0,0,.66-1.55,2.062,2.062,0,0,0-.629-1.62A2.663,2.663,0,0,0,33.1,4.852H30.8ZM41.088,3.625l3.719,9.281,3.719-9.281h1.945V15h-1.5V10.57l.141-4.781L45.377,15H44.229L40.5,5.813l.148,4.758V15h-1.5V3.625Zm18.453,8.4H54.775L53.705,15H52.158L56.5,3.625h1.313L62.166,15H60.627ZM55.229,10.8H59.1l-1.937-5.32ZM76.4,15H74.893L69.166,6.234V15H67.658V3.625h1.508l5.742,8.8v-8.8H76.4ZM86.7,4.852H83.041V15H81.549V4.852H77.9V3.625h8.8Zm3.188,5.7V15h-1.5V3.625h4.2a4.215,4.215,0,0,1,2.926.953A3.231,3.231,0,0,1,96.565,7.1a3.189,3.189,0,0,1-1.035,2.551,4.4,4.4,0,0,1-2.965.895Zm0-1.227h2.7a2.7,2.7,0,0,0,1.844-.567,2.075,2.075,0,0,0,.641-1.64,2.143,2.143,0,0,0-.641-1.628,2.525,2.525,0,0,0-1.758-.634H89.885ZM109.518,15h-7.453V13.961L106,9.586a9.354,9.354,0,0,0,1.207-1.613,2.693,2.693,0,0,0,.332-1.285A2.041,2.041,0,0,0,107,5.227a1.885,1.885,0,0,0-1.437-.57,2.232,2.232,0,0,0-1.676.613,2.343,2.343,0,0,0-.6,1.707h-1.445a3.355,3.355,0,0,1,1.012-2.539,3.751,3.751,0,0,1,2.707-.969,3.6,3.6,0,0,1,2.508.832,2.838,2.838,0,0,1,.922,2.215q0,1.68-2.141,4l-3.047,3.3h5.711Zm3.633-6.391h1.086a2.387,2.387,0,0,0,1.609-.539,1.8,1.8,0,0,0,.586-1.414,1.764,1.764,0,0,0-1.992-2,2.072,2.072,0,0,0-1.5.535,1.873,1.873,0,0,0-.559,1.418H110.94a2.9,2.9,0,0,1,.988-2.246,3.6,3.6,0,0,1,2.512-.895,3.558,3.558,0,0,1,2.523.852,3.076,3.076,0,0,1,.914,2.367,2.5,2.5,0,0,1-.48,1.438,2.9,2.9,0,0,1-1.309,1.039,2.8,2.8,0,0,1,1.449.984,2.734,2.734,0,0,1,.512,1.68,3.1,3.1,0,0,1-1,2.43,3.745,3.745,0,0,1-2.6.9,3.844,3.844,0,0,1-2.605-.867,2.877,2.877,0,0,1-1-2.289h1.453a1.859,1.859,0,0,0,.586,1.438,2.229,2.229,0,0,0,1.57.539,2.187,2.187,0,0,0,1.6-.547,2.108,2.108,0,0,0,.555-1.57,1.912,1.912,0,0,0-.609-1.523,2.655,2.655,0,0,0-1.758-.547H113.15ZM120.7,9.3l.578-5.672H127.1V4.961h-4.6l-.344,3.1a3.671,3.671,0,0,1,1.9-.492A3.138,3.138,0,0,1,126.525,8.6a4.026,4.026,0,0,1,.914,2.777,3.886,3.886,0,0,1-.949,2.77,3.46,3.46,0,0,1-2.652,1.012,3.6,3.6,0,0,1-2.461-.836,3.337,3.337,0,0,1-1.086-2.312h1.367a2.3,2.3,0,0,0,.7,1.473,2.162,2.162,0,0,0,1.484.5,1.95,1.95,0,0,0,1.582-.687,2.874,2.874,0,0,0,.574-1.9,2.638,2.638,0,0,0-.621-1.832,2.113,2.113,0,0,0-1.652-.691,2.383,2.383,0,0,0-1.484.414l-.383.313Z" transform="translate(802.75 15666.504)" fill="#0f2440"/>
    <path id="Trazado_625713" data-name="Trazado 625713" d="M310.346,68.151V91H125.312V68.151" transform="translate(651.938 15613.428)" fill="none" stroke="#00caf2" stroke-width="1.5" stroke-dasharray="7 7"/>
    <g id="Grupo_990369" data-name="Grupo 990369" transform="translate(734.447 15651.022)">
      <path id="Trazado_193403-5" data-name="Trazado 193403" d="M347.886,31.691H321.6V8.041H134.24v23.65H98.192" transform="translate(-92.08 -8.041)" fill="none" stroke="#0a3699" stroke-width="2"/>
      <path id="Trazado_193417-5" data-name="Trazado 193417" d="M358.486,43V59.751l-15.573-7.942Z" transform="translate(-342.913 -28.124)" fill="#0a3699"/>
      <rect id="Rectángulo_40520-5" data-name="Rectángulo 40520" width="2.064" height="8.258" transform="translate(15.573 20.038)" fill="#3d66c3"/>
    </g>
    <path id="Trazado_627036" data-name="Trazado 627036" d="M38.706,15H37.2L31.472,6.234V15H29.964V3.625h1.508l5.742,8.8v-8.8h1.492ZM50.12,9.68a7.037,7.037,0,0,1-.562,2.918,4.261,4.261,0,0,1-1.594,1.9,4.4,4.4,0,0,1-6.4-1.887,6.752,6.752,0,0,1-.59-2.832v-.82a6.953,6.953,0,0,1,.57-2.9,4.218,4.218,0,0,1,4-2.594,4.41,4.41,0,0,1,2.41.66,4.253,4.253,0,0,1,1.605,1.914,7.071,7.071,0,0,1,.563,2.918Zm-1.492-.734a5.1,5.1,0,0,0-.812-3.105,2.68,2.68,0,0,0-2.273-1.082A2.651,2.651,0,0,0,43.3,5.84a5,5,0,0,0-.84,3V9.68a5.107,5.107,0,0,0,.824,3.082,2.888,2.888,0,0,0,4.52.063,5.079,5.079,0,0,0,.82-3.035ZM56.542,10.4H53.87V15H52.363V3.625h3.766a4.457,4.457,0,0,1,2.957.875A3.148,3.148,0,0,1,60.12,7.047,3.062,3.062,0,0,1,59.546,8.9a3.428,3.428,0,0,1-1.6,1.18l2.672,4.828V15H59.011ZM53.87,9.172h2.3a2.6,2.6,0,0,0,1.777-.579,1.959,1.959,0,0,0,.66-1.55,2.062,2.062,0,0,0-.629-1.62,2.663,2.663,0,0,0-1.816-.571h-2.3ZM64.159,3.625l3.719,9.281L71.6,3.625h1.945V15h-1.5V10.57l.141-4.781L68.448,15H67.3L63.573,5.813l.148,4.758V15h-1.5V3.625Zm18.453,8.4H77.847L76.777,15H75.23L79.573,3.625h1.313L85.238,15H83.7ZM78.3,10.8h3.867L80.23,5.477ZM92.339,15h-1.5V3.625h1.5Zm6.094-5.07a7.053,7.053,0,0,1-2.809-1.363,2.6,2.6,0,0,1-.879-2A2.751,2.751,0,0,1,95.82,4.348a4.269,4.269,0,0,1,2.793-.879,4.66,4.66,0,0,1,2.09.453,3.436,3.436,0,0,1,1.422,1.25,3.2,3.2,0,0,1,.5,1.742H101.12a2.08,2.08,0,0,0-.656-1.627A2.669,2.669,0,0,0,98.613,4.7a2.732,2.732,0,0,0-1.73.489,1.632,1.632,0,0,0-.621,1.358,1.468,1.468,0,0,0,.59,1.178,5.785,5.785,0,0,0,2.008.88,9.316,9.316,0,0,1,2.219.88,3.367,3.367,0,0,1,1.188,1.121,2.861,2.861,0,0,1,.387,1.508,2.658,2.658,0,0,1-1.078,2.215,4.6,4.6,0,0,1-2.883.832,5.347,5.347,0,0,1-2.187-.449,3.681,3.681,0,0,1-1.566-1.23,3,3,0,0,1-.551-1.773h1.508a1.959,1.959,0,0,0,.762,1.629,3.207,3.207,0,0,0,2.035.6,2.948,2.948,0,0,0,1.82-.484,1.573,1.573,0,0,0,.633-1.32,1.545,1.545,0,0,0-.586-1.293A6.755,6.755,0,0,0,98.433,9.93Zm14.891-.25a7.037,7.037,0,0,1-.562,2.918,4.261,4.261,0,0,1-1.594,1.9,4.4,4.4,0,0,1-6.4-1.887,6.752,6.752,0,0,1-.59-2.832v-.82a6.953,6.953,0,0,1,.57-2.9,4.218,4.218,0,0,1,4-2.594,4.41,4.41,0,0,1,2.41.66,4.253,4.253,0,0,1,1.605,1.914,7.071,7.071,0,0,1,.563,2.918Zm-1.492-.734a5.1,5.1,0,0,0-.812-3.105,2.68,2.68,0,0,0-2.273-1.082,2.651,2.651,0,0,0-2.238,1.082,5,5,0,0,0-.84,3V9.68a5.107,5.107,0,0,0,.824,3.082,2.888,2.888,0,0,0,4.52.063,5.079,5.079,0,0,0,.82-3.035ZM47.984,33H46.531V23.367l-2.914,1.07V23.125l4.141-1.555h.227Zm6.336-6.391h1.086a2.387,2.387,0,0,0,1.609-.539,1.8,1.8,0,0,0,.586-1.414,1.764,1.764,0,0,0-1.992-2,2.072,2.072,0,0,0-1.5.535,1.873,1.873,0,0,0-.559,1.418H52.109a2.9,2.9,0,0,1,.988-2.246,3.6,3.6,0,0,1,2.512-.895,3.558,3.558,0,0,1,2.523.852,3.076,3.076,0,0,1,.914,2.367,2.5,2.5,0,0,1-.48,1.438,2.9,2.9,0,0,1-1.309,1.039,2.8,2.8,0,0,1,1.449.984,2.734,2.734,0,0,1,.512,1.68,3.1,3.1,0,0,1-1,2.43,3.745,3.745,0,0,1-2.6.9,3.844,3.844,0,0,1-2.605-.867,2.877,2.877,0,0,1-1-2.289H53.46a1.859,1.859,0,0,0,.586,1.438,2.229,2.229,0,0,0,1.57.539,2.187,2.187,0,0,0,1.6-.547,2.108,2.108,0,0,0,.555-1.57,1.912,1.912,0,0,0-.609-1.523,2.655,2.655,0,0,0-1.758-.547H54.32ZM68.1,24.594a2.641,2.641,0,0,1-.449,1.516,3.056,3.056,0,0,1-1.215,1.039,3.26,3.26,0,0,1,1.41,1.117,2.811,2.811,0,0,1,.52,1.664,2.972,2.972,0,0,1-1,2.352,4.367,4.367,0,0,1-5.25,0,2.986,2.986,0,0,1-.988-2.348,2.9,2.9,0,0,1,.5-1.664,3.136,3.136,0,0,1,1.395-1.125,2.981,2.981,0,0,1-1.2-1.039,2.679,2.679,0,0,1-.437-1.508,2.94,2.94,0,0,1,.922-2.281,3.915,3.915,0,0,1,4.855,0A2.934,2.934,0,0,1,68.1,24.594Zm-1.18,5.3a2.1,2.1,0,0,0-.605-1.555,2.147,2.147,0,0,0-1.582-.6A2.034,2.034,0,0,0,62.577,29.9a2.019,2.019,0,0,0,.574,1.523,2.565,2.565,0,0,0,3.191,0A2.014,2.014,0,0,0,66.921,29.9Zm-2.172-7.242a1.865,1.865,0,0,0-1.379.527,2.182,2.182,0,0,0-.008,2.836,2.064,2.064,0,0,0,2.773,0,2.138,2.138,0,0,0-.02-2.816A1.839,1.839,0,0,0,64.749,22.656ZM76.288,29.18h1.578v1.18H76.288V33H74.835V30.359h-5.18v-.852l5.094-7.883h1.539Zm-4.992,0h3.539V23.6l-.172.313ZM84.71,28a3.536,3.536,0,0,1-1.082.867,2.936,2.936,0,0,1-1.379.328,3.031,3.031,0,0,1-1.715-.484,3.149,3.149,0,0,1-1.129-1.363,4.648,4.648,0,0,1-.4-1.941,4.735,4.735,0,0,1,.434-2.055,3.185,3.185,0,0,1,1.23-1.4,3.509,3.509,0,0,1,1.859-.484,3.177,3.177,0,0,1,2.66,1.262,5.5,5.5,0,0,1,.973,3.441v.422q0,3.32-1.312,4.848a5.043,5.043,0,0,1-3.961,1.566h-.281V31.781h.3a3.979,3.979,0,0,0,2.75-.932A4,4,0,0,0,84.71,28Zm-2.227,0a2.232,2.232,0,0,0,1.34-.445,2.625,2.625,0,0,0,.895-1.1v-.578a3.977,3.977,0,0,0-.617-2.312,1.887,1.887,0,0,0-3.094-.16,3.013,3.013,0,0,0-.578,1.926,3.136,3.136,0,0,0,.559,1.918A1.769,1.769,0,0,0,82.484,28Zm8.828.758H87.5v-1.18h3.813ZM97.32,33H95.866V23.367l-2.914,1.07V23.125l4.141-1.555h.227Z" transform="translate(514.015 15660.504)" fill="#12263f"/>
    <path id="Trazado_193407" data-name="Trazado 193407" d="M1209.406,488.637h-45.417V451.821H972v36.816" transform="translate(-482.024 15186.053)" fill="none" stroke="#0a3699" stroke-width="2"/>
    <path id="Trazado_193414" data-name="Trazado 193414" d="M1207.989,533.377V561.91H1016V519.917" transform="translate(-526.024 15154.398)" fill="none" stroke="#0a3699" stroke-width="2"/>
    <path id="Trazado_193605" data-name="Trazado 193605" d="M1215.256,440.542H1136v65.822" transform="translate(-660.336 15185.747)" fill="none" stroke="#00caf2" stroke-width="1"/>
  </g>
</svg>
