<svg xmlns="http://www.w3.org/2000/svg" xmlns:xlink="http://www.w3.org/1999/xlink" width="400" height="371" viewBox="0 0 400 371">
  <defs>
    <clipPath id="clip-path">
      <rect id="Rectángulo_344402" data-name="Rectángulo 344402" width="400" height="371" transform="translate(-6593 5320.486)" fill="none" stroke="#707070" stroke-width="1"/>
    </clipPath>
    <clipPath id="clip-path-2">
      <path id="Trazado_122884" data-name="Trazado 122884" d="M210.8,390.2c34.659-12.6,99.131,20.5,122.364-8.17,8.7-10.729,49.6-75.265,49.6-75.265l-9.537-112.234-40.392-54.052S311.392,74.21,283.061,55.694C270.233,26.856,149.191,0,149.191,0S84,66.392,69.068,70.756c-26.2,7.654-34.355,44.214-47.976,67.863-29.776,51.7-24.905,119.99-4.693,174.258,11.361,30.507,31.413,58.811,59.969,74.439,21.453,11.739,46.483,15.717,70.93,15.078A201.557,201.557,0,0,0,210.8,390.2Z" transform="matrix(0.545, -0.839, 0.839, 0.545, 0, 321.012)" fill="#5bd3a9"/>
    </clipPath>
  </defs>
  <g id="Enmascarar_grupo_216" data-name="Enmascarar grupo 216" transform="translate(6593 -5320.485)" clip-path="url(#clip-path)">
    <g id="Grupo_990495" data-name="Grupo 990495" transform="matrix(0.995, -0.105, 0.105, 0.995, -6546.672, 5363.947)">
      <g id="Grupo_990389" data-name="Grupo 990389" transform="translate(163.324 0)">
        <path id="Trazado_625731" data-name="Trazado 625731" d="M116.09,124.174,1.673,9.757a5.717,5.717,0,0,1,0-8.082h0a5.716,5.716,0,0,1,8.085,0L124.172,116.089a5.715,5.715,0,0,1,0,8.085h0A5.718,5.718,0,0,1,116.09,124.174Z" fill="#465fc4"/>
      </g>
      <g id="Grupo_990390" data-name="Grupo 990390" transform="translate(219.47 15.316)">
        <path id="Trazado_625732" data-name="Trazado 625732" d="M44.627,52.712,1.673,9.757a5.716,5.716,0,0,1,0-8.081h0a5.713,5.713,0,0,1,8.086,0L52.71,44.627a5.715,5.715,0,0,1,0,8.085h0A5.717,5.717,0,0,1,44.627,52.712Z" fill="#465fc4"/>
      </g>
      <g id="Grupo_990391" data-name="Grupo 990391" transform="translate(122.499 0)">
        <path id="Trazado_625733" data-name="Trazado 625733" d="M156.915,165,1.675,9.757a5.712,5.712,0,0,1,0-8.082h0a5.712,5.712,0,0,1,8.082,0L165,156.914A5.711,5.711,0,0,1,165,165h0A5.713,5.713,0,0,1,156.915,165Z" fill="#465fc4"/>
      </g>
      <g id="Grupo_990392" data-name="Grupo 990392" transform="translate(90.193 8.517)">
        <path id="Trazado_625734" data-name="Trazado 625734" d="M180.7,188.784,1.675,9.759a5.714,5.714,0,0,1,0-8.084h0a5.711,5.711,0,0,1,8.082,0L188.786,180.7a5.716,5.716,0,0,1,0,8.081h0A5.713,5.713,0,0,1,180.7,188.784Z" fill="#465fc4"/>
      </g>
      <g id="Grupo_990393" data-name="Grupo 990393" transform="translate(63.344 22.491)">
        <path id="Trazado_625735" data-name="Trazado 625735" d="M193.578,201.663,1.675,9.758a5.713,5.713,0,0,1,0-8.084h0a5.714,5.714,0,0,1,8.082,0l191.9,191.906a5.717,5.717,0,0,1,0,8.083h0A5.717,5.717,0,0,1,193.578,201.663Z" fill="#465fc4"/>
      </g>
      <g id="Grupo_990394" data-name="Grupo 990394" transform="translate(40.854 40.852)">
        <path id="Trazado_625736" data-name="Trazado 625736" d="M197.707,205.794,1.673,9.758a5.72,5.72,0,0,1,0-8.084h0a5.72,5.72,0,0,1,8.086,0L205.792,197.708a5.722,5.722,0,0,1,0,8.085h0A5.723,5.723,0,0,1,197.707,205.794Z" fill="#465fc4"/>
      </g>
      <g id="Grupo_990395" data-name="Grupo 990395" transform="translate(22.492 63.343)">
        <path id="Trazado_625737" data-name="Trazado 625737" d="M193.578,201.662,1.673,9.757a5.715,5.715,0,0,1,0-8.081h0a5.713,5.713,0,0,1,8.085,0l191.9,191.9a5.713,5.713,0,0,1,0,8.084h0A5.717,5.717,0,0,1,193.578,201.662Z" fill="#465fc4"/>
      </g>
      <g id="Grupo_990396" data-name="Grupo 990396" transform="translate(8.517 90.193)">
        <path id="Trazado_625738" data-name="Trazado 625738" d="M180.7,188.786,1.675,9.759a5.713,5.713,0,0,1,0-8.083h0a5.71,5.71,0,0,1,8.082,0L188.787,180.7a5.715,5.715,0,0,1,0,8.085h0A5.711,5.711,0,0,1,180.7,188.786Z" fill="#465fc4"/>
      </g>
      <g id="Grupo_990397" data-name="Grupo 990397" transform="translate(0 122.498)">
        <path id="Trazado_625739" data-name="Trazado 625739" d="M156.915,165,1.675,9.758a5.712,5.712,0,0,1,0-8.083h0a5.712,5.712,0,0,1,8.082,0L165,156.915A5.711,5.711,0,0,1,165,165h0A5.712,5.712,0,0,1,156.915,165Z" fill="#465fc4"/>
      </g>
      <g id="Grupo_990398" data-name="Grupo 990398" transform="translate(0 163.323)">
        <path id="Trazado_625740" data-name="Trazado 625740" d="M116.09,124.172,1.675,9.758a5.715,5.715,0,0,1,0-8.085h0a5.718,5.718,0,0,1,8.082,0L124.174,116.09a5.715,5.715,0,0,1,0,8.082h0A5.713,5.713,0,0,1,116.09,124.172Z" fill="#465fc4"/>
      </g>
      <g id="Grupo_990399" data-name="Grupo 990399" transform="translate(15.317 219.469)">
        <path id="Trazado_625741" data-name="Trazado 625741" d="M44.627,52.71,1.675,9.758a5.715,5.715,0,0,1,0-8.085h0a5.717,5.717,0,0,1,8.082,0L52.712,44.628a5.718,5.718,0,0,1,0,8.082h0A5.716,5.716,0,0,1,44.627,52.71Z" fill="#465fc4"/>
      </g>
    </g>
    <path id="Trazado_122842" data-name="Trazado 122842" d="M210.8,305.425c34.659-12.6,66.008-34.423,89.241-63.089,8.7-10.729,16.655-23.84,14.484-37.479-2.312-14.537-15.642-25-29.48-30.017s-28.806-6.08-42.891-10.361c-33.467-10.17-59.5-38.111-73.452-69.47-12.828-28.838-11.513-69.427-40.939-88.2C114.652-1.559,97.61-1.417,82.679,2.947,56.483,10.6,34.713,30.192,21.092,53.842-8.684,105.54-3.813,173.831,16.4,228.1c11.361,30.507,31.413,58.811,59.969,74.439,21.453,11.739,46.483,15.717,70.93,15.078A201.557,201.557,0,0,0,210.8,305.425Z" transform="matrix(0.545, -0.839, 0.839, 0.545, -6603.529, 5574.263)" fill="#d5f5e9"/>
    <g id="Enmascarar_grupo_58" data-name="Enmascarar grupo 58" transform="translate(-6674.63 5207.078)" clip-path="url(#clip-path-2)">
      <g id="Grupo_131027" data-name="Grupo 131027" transform="translate(79.156 114.512)">
        <path id="Trazado_122844" data-name="Trazado 122844" d="M153.382,286.415c-3.566-.892-76.662-47.246-76.662-47.246s44.571,77.554,42.788,74.879S21.451,199.056,21.451,199.056L68.278,217.5,31.257,152.7S156.947,287.306,153.382,286.415Z" transform="translate(55.626 83.422)" fill="#ffdfa3"/>
        <g id="Grupo_131018" data-name="Grupo 131018" transform="translate(246.092 105.439)">
          <path id="Trazado_122845" data-name="Trazado 122845" d="M315.32,260.429l-98.783-26.236a13.232,13.232,0,0,1,6.795-25.578l87.27,23.179,37.6-85.832,9.385,4.814-26.5,101.582A13.234,13.234,0,0,1,315.32,260.429Z" transform="translate(-206.699 -145.962)" fill="#f3725f"/>
        </g>
        <path id="Trazado_122846" data-name="Trazado 122846" d="M220.743,204.4q.743-1.667,1.56-3.3Q221.532,202.744,220.743,204.4Z" transform="translate(53.876 16.333)" fill="#ffbf80"/>
        <path id="Trazado_122847" data-name="Trazado 122847" d="M160.29,218.85a33.542,33.542,0,0,1-1.991-16.382,27.51,27.51,0,0,1,3.935-10.481,41.921,41.921,0,0,1,14.085-13.218,66.749,66.749,0,0,1,12.358-5.811c.611-.219,1.231-.431,1.844-.632q4.881-1.6,9.9-2.71a111.07,111.07,0,0,1,45.655-.51,107.236,107.236,0,0,1,16.09,4.507,46.785,46.785,0,0,1,21.414,15.962,45.867,45.867,0,0,1,8.487,19.829,35.744,35.744,0,0,1,.315,9.884c-.063.6-.148,1.192-.242,1.781a2.353,2.353,0,0,0-1.733.963,82.991,82.991,0,0,0-11.995,22.836c-.14.408-.268.821-.4,1.229a1.961,1.961,0,0,0-.636.66c-5.034,8.7-7.473,18.032-8.73,27.646a192.954,192.954,0,0,0-5.121,30.983,2.29,2.29,0,0,0-.169.9c0,.333,0,.668,0,1-.555,6.524-.9,13.069-1.148,19.594l-.295.033a279.229,279.229,0,0,1-71.7-2.608c-4.6-.766-9.322-1.706-13.167-4.343-8.487-5.8-9.892-17.684-8.089-27.955.11-.622.228-1.235.362-1.84,2.312-10.654,7.049-21.052,6.313-31.93C174.68,244.261,164.851,231.854,160.29,218.85Z" transform="translate(-10.845 -18.845)" fill="#ffdd7a"/>
        <path id="Trazado_122848" data-name="Trazado 122848" d="M175.568,148.148a7.923,7.923,0,1,0,7.924-7.922A7.924,7.924,0,0,0,175.568,148.148Z" transform="translate(7.288 -46.438)" fill="#f3725f"/>
        <path id="Trazado_122849" data-name="Trazado 122849" d="M201.855,168.208c11.867-.087,22.99,5.253,33.9,9.925a343.214,343.214,0,0,0,60.408,19.48c2.115.471,4.489,1.107,5.519,3.012a7.122,7.122,0,0,1,.463,4.073,59.286,59.286,0,0,1-25.9,43.161c-3.693,2.444-7.725,4.518-10.7,7.79-2.748,3.018-4.426,6.874-7.051,10-6.8,8.1-24.536,8.172-35.092,7.508-7.6-25.464,8.879-45.789,1.213-67.853C219.826,191.562,211.528,179.078,201.855,168.208Z" transform="translate(34.397 -17.582)" fill="#ffdd7a"/>
        <path id="Trazado_122850" data-name="Trazado 122850" d="M259.3,245.286l-85.915-2.992s-11.04,43.457-11.842,67.9l54.889,14.022h7.611L276.169,305.7S270.89,259.239,259.3,245.286Z" transform="translate(-7.181 58.822)" fill="#12263f"/>
        <path id="Trazado_122851" data-name="Trazado 122851" d="M225.807,203.728l1.716,61.085a17.424,17.424,0,0,1-8.509,15.46l-6.029,3.583-10.817-8.013,6.811-53.285Z" transform="translate(34.721 19.05)" fill="#ffdd7a"/>
        <path id="Trazado_122852" data-name="Trazado 122852" d="M170.084,249.617h82.133a4.219,4.219,0,0,0,4.207-4.207h0a4.219,4.219,0,0,0-4.207-4.207H170.084a4.219,4.219,0,0,0-4.207,4.207h0A4.219,4.219,0,0,0,170.084,249.617Z" transform="translate(-2.706 57.697)" fill="#12263f"/>
        <g id="Grupo_131019" data-name="Grupo 131019" transform="translate(15.013 127.425)">
          <path id="Trazado_122853" data-name="Trazado 122853" d="M164.767,272.061,255.7,225.391a13.232,13.232,0,1,0-12.084-23.545l-76.559,33.3-67.7-78.361-6.411,3.051L147.65,267.531A13.233,13.233,0,0,0,164.767,272.061Z" transform="translate(-92.939 -156.786)" fill="#f3725f"/>
        </g>
        <path id="Trazado_122854" data-name="Trazado 122854" d="M194.6,285.488c-11.1-17.9-25.354-5.426-33.486-33.3-5.208-17.855-31.5-17.662-26.307-45.643,10.508-8.379,46.191-23.427,57.957-29.925,4.119-2.275,8.442-4.469,13.128-4.9s9.858,1.3,12.273,5.336c1.794,3,12.429,8.18,12.269,11.674C228.729,225.894,221.465,259.762,194.6,285.488Z" transform="translate(-35.448 -14.018)" fill="#ffdd7a"/>
        <g id="Grupo_131020" data-name="Grupo 131020" transform="translate(260.346 191.846)">
          <path id="Trazado_122855" data-name="Trazado 122855" d="M214.859,253.277a1.163,1.163,0,0,1-.329-.049,1.144,1.144,0,0,1-.8-1.272l9.612-62.484a1.145,1.145,0,1,1,2.263.347l-8.377,54.453,17.193-37.254a1.144,1.144,0,0,1,2.078.959l-20.6,44.633A1.146,1.146,0,0,1,214.859,253.277Z" transform="translate(-213.716 -188.5)" fill="#2d1a14"/>
        </g>
        <g id="Grupo_131022" data-name="Grupo 131022" transform="translate(156.803 208.914)">
          <g id="Grupo_131021" data-name="Grupo 131021" transform="translate(0)">
            <path id="Trazado_122856" data-name="Trazado 122856" d="M165.665,258.156q.981-30.088-.632-60.15c-.079-1.467-2.368-1.475-2.289,0q1.612,30.058.632,60.15c-.049,1.473,2.24,1.471,2.289,0Z" transform="translate(-162.742 -196.903)" fill="#2d1a14"/>
          </g>
        </g>
        <g id="Grupo_131024" data-name="Grupo 131024" transform="translate(136.22 209.604)">
          <g id="Grupo_131023" data-name="Grupo 131023" transform="translate(0)">
            <path id="Trazado_122857" data-name="Trazado 122857" d="M175.686,257.778c-2.4-10.825-7.207-21.593-10.788-32.066-2.322-6.786-4.646-13.575-7.04-20.335-.532-1.505-1.556-7.225-3.315-8.011-1.473-.658-2.758,1.519-1.276,2.182-.75-.335.384,1.582.717,2.488.882,2.393,1.718,4.8,2.561,7.209q3.537,10.107,6.977,20.248c3.228,9.46,7.56,19.181,9.726,28.956.353,1.586,2.789.916,2.438-.67Z" transform="translate(-152.609 -197.243)" fill="#2d1a14"/>
          </g>
        </g>
        <g id="Grupo_131026" data-name="Grupo 131026" transform="translate(184.381 220.372)">
          <g id="Grupo_131025" data-name="Grupo 131025" transform="translate(0)">
            <path id="Trazado_122858" data-name="Trazado 122858" d="M176.4,203.739a79.622,79.622,0,0,0,43.5,43.427c1.19.49,1.71-1.448.532-1.932a77.374,77.374,0,0,1-42.1-42.027c-.485-1.174-2.425-.658-1.932.532Z" transform="translate(-176.319 -202.544)" fill="#2d1a14"/>
          </g>
        </g>
        <path id="Trazado_122859" data-name="Trazado 122859" d="M214.349,149.786c-7.3-.286-14.132-3.5-21.247-5.164s-15.562-1.367-20.5,4.02c-1.328,1.448-2.464,3.295-4.347,3.861-2.182.658-4.416-.668-6.313-1.93-5.484-3.65-11.129-7.313-17.506-8.968s-13.719-.993-18.712,3.3c-5.864,5.046-7.107,13.624-6.8,21.353.39,9.805,2.706,19.673,7.8,28.06s13.14,15.182,22.624,17.695a20.8,20.8,0,0,0,9.222.569c7.53-1.454,12.675-8.156,17.8-13.861s12.364-11.221,19.773-9.232c2.736.733,5.092,2.427,7.532,3.868a46.453,46.453,0,0,0,43.855,1.393c4.564-2.32,8.739-5.407,13.486-7.321a30.3,30.3,0,0,1,19.955-.869c9.929,3.027,17.542,10.89,26.6,15.96a51.85,51.85,0,0,0,40.888,3.989c6.2-2.023,12.738-6.319,13.2-12.824.236-3.36-1.251-6.717-.7-10.041,1.194-7.193,10.565-9.49,17.788-8.479s15.009,3.589,21.45.171c7.666-4.067,9.153-14.826,6.352-23.037-4.723-13.833-18.6-23.281-33.075-25.338s-29.261,2.368-41.989,9.557c-7.124,4.026-15,9.118-22.838,6.762-6.535-1.962-10.817-8.665-17.369-10.563-8.936-2.586-16.352,4.784-25.113,4.623-5.99-.112-11.266-2.872-17.1-3.5-6.715-.723-9.545,2.97-13.965,7.361C229.562,146.716,222.277,150.094,214.349,149.786Z" transform="translate(-51.172 -60.638)" fill="#2d1a14"/>
        <path id="Trazado_122860" data-name="Trazado 122860" d="M293.869,167.324a9.363,9.363,0,0,1-2.037-.435c-5.153-1.578-10-4.989-12.06-9.972a8.983,8.983,0,0,0-1.142-2.322,2.143,2.143,0,0,0-2.287-.827,2.387,2.387,0,0,0-1.263,2.291,26.527,26.527,0,0,1,.106,2.777c-.114.922-.747,1.9-1.676,1.932a.874.874,0,0,1-.62-.191,1.2,1.2,0,0,1-.272-.443,14.3,14.3,0,0,1-1.131-6.033,6.509,6.509,0,0,1,.7-2.994c1.032-1.836,3.232-2.608,5.243-3.236-.006-.406-.546-.532-.953-.532l-3.738-.012a3.28,3.28,0,0,0-1.335.181,3.791,3.791,0,0,0-1.383,1.4,13.092,13.092,0,0,1-3.38,3.226,1.056,1.056,0,0,1-.9.238c-.408-.15-.477-.695-.437-1.127.228-2.395,1.67-4.477,3.065-6.435a3.647,3.647,0,0,1,1.156-1.186,3.373,3.373,0,0,1,1.241-.317,28.271,28.271,0,0,1,8.9.382,37.961,37.961,0,0,0-2.6-4.644c-1.489-2.519-4.9,1.562-6.927,2.06-1.3.323-2.494.248-3.3-.827a.576.576,0,0,1-.152-.467.651.651,0,0,1,.215-.295,24.306,24.306,0,0,1,5.787-3.969c2.151-1.056,5.074-2.852,7.02-.6q4.829,5.6,9.663,11.194a53.026,53.026,0,0,1,5.588,7.284,17.718,17.718,0,0,1,2.74,8.665,6.59,6.59,0,0,1-1.131,4.124A2.91,2.91,0,0,1,293.869,167.324Z" transform="translate(99.82 -53.001)" fill="#f3725f"/>
        <path id="Trazado_122861" data-name="Trazado 122861" d="M278.965,151.141c1.282-1.335,1.347-3.451.845-5.233s-1.473-3.4-2.041-5.157-.666-3.847.459-5.316c1.991,4.117,4.1,8.19,6.084,12.308a14.956,14.956,0,0,1,1.792,5.34,7.6,7.6,0,0,1-3.092,6.573C281.88,157.131,280.094,153.666,278.965,151.141Z" transform="translate(112.26 -51.379)" fill="#f3725f"/>
        <path id="Trazado_122862" data-name="Trazado 122862" d="M101.071,179.763a9.351,9.351,0,0,0,1.316-1.617c3.025-4.461,4.662-10.158,3.138-15.33a8.981,8.981,0,0,1-.567-2.525,2.145,2.145,0,0,1,1.263-2.078,2.392,2.392,0,0,1,2.421.991,26.566,26.566,0,0,0,1.66,2.23,2.045,2.045,0,0,0,2.515.453.868.868,0,0,0,.364-.536,1.248,1.248,0,0,0-.065-.516,14.306,14.306,0,0,0-2.9-5.407,6.487,6.487,0,0,0-2.421-1.9c-1.956-.782-4.152-.006-6.112.768-.25-.319.093-.758.408-1.014l2.9-2.352a3.309,3.309,0,0,1,1.154-.7,3.794,3.794,0,0,1,1.952.221,13.047,13.047,0,0,0,4.658.392,1.049,1.049,0,0,0,.849-.378c.221-.372-.065-.839-.368-1.15-1.68-1.725-4.109-2.442-6.425-3.092a3.653,3.653,0,0,0-1.643-.2,3.466,3.466,0,0,0-1.166.532,28.173,28.173,0,0,0-6.689,5.879,37.789,37.789,0,0,1-.89-5.247c-.421-2.895,4.8-1.859,6.687-2.738,1.217-.567,2.1-1.371,2.052-2.714a.575.575,0,0,0-.175-.461.656.656,0,0,0-.351-.093,24.261,24.261,0,0,0-7,.538c-2.338.524-5.74.961-5.844,3.935l-.506,14.78a52.854,52.854,0,0,0,.217,9.179,17.744,17.744,0,0,0,3.3,8.468,6.6,6.6,0,0,0,3.467,2.5A2.905,2.905,0,0,0,101.071,179.763Z" transform="translate(-79.724 -45.504)" fill="#f3725f"/>
        <path id="Trazado_122863" data-name="Trazado 122863" d="M93.573,158.867c-.378-6.212-2.951-12.05-5.484-17.731a6.043,6.043,0,0,1,5.2,3.486c.792,1.765.68,3.817,1.365,5.627.5,1.322,1.4,2.456,1.98,3.748a15.947,15.947,0,0,1,1,6.22c.039,2.015,1.371,10.242-1.861,9.594C92.755,169.2,93.7,160.949,93.573,158.867Z" transform="translate(-82.928 -45.5)" fill="#f3725f"/>
        <path id="Trazado_122864" data-name="Trazado 122864" d="M203.617,139.171a1.331,1.331,0,0,1,2.08.268,35.037,35.037,0,0,0,16.9,17.122V143.636a20.574,20.574,0,0,0-41.148,0v13.207C190.447,153.364,197.168,146.841,203.617,139.171Z" transform="translate(13.35 -64.138)" fill="#2d1a14"/>
        <path id="Trazado_122865" data-name="Trazado 122865" d="M177.7,183.465a27.614,27.614,0,0,0,13.541-28.444H210.92c-.256,7.682,4.333,13.138,8.562,19.555,2.206,3.346,4.834,6.819,8.686,7.922-5.562,7.451-15.192,11.176-24.487,11.412S183.629,190.623,177.7,183.465Z" transform="translate(9.485 -31.181)" fill="#f3725f"/>
        <path id="Trazado_122866" data-name="Trazado 122866" d="M210.555,175.61c-5.73-1.01-11.529-2.874-15.893-6.762-4.1-3.654-6.394-8.594-7.634-13.827H201.3c-.256,7.682,4.333,13.138,8.562,19.555C210.086,174.921,210.318,175.265,210.555,175.61Z" transform="translate(19.108 -31.181)" fill="#2d1a14"/>
        <path id="Trazado_122867" data-name="Trazado 122867" d="M202.019,194.036h0a20.635,20.635,0,0,0,20.575-20.573V143.636a20.633,20.633,0,0,0-20.575-20.573h0a20.633,20.633,0,0,0-20.573,20.573v29.827A20.634,20.634,0,0,0,202.019,194.036Z" transform="translate(13.35 -64.138)" fill="#f3725f"/>
        <path id="Trazado_122868" data-name="Trazado 122868" d="M190.24,147.884a7.111,7.111,0,1,1-7.1-7.554A7.338,7.338,0,0,1,190.24,147.884Z" transform="translate(7.78 -46.331)" fill="#f3725f"/>
        <path id="Trazado_122869" data-name="Trazado 122869" d="M214.213,148.027a7.111,7.111,0,1,1-7.1-7.556A7.336,7.336,0,0,1,214.213,148.027Z" transform="translate(32.503 -46.186)" fill="#f3725f"/>
        <path id="Trazado_122870" data-name="Trazado 122870" d="M181.4,163.832c6.356-2.009,11.883-7,15.738-13.3a55.666,55.666,0,0,0,7.16-21.481c1.131,7.126,2.874,14.2,5.982,20.455s7.682,11.658,13.368,14.4c-.331-6.807.892-14.172.4-20.967-.461-6.376-2.054-13.553-6.64-18.357-5.184-5.432-14.012-7.227-21.058-4.589-7.193,2.7-11.562,9.9-13.606,16.852a49.258,49.258,0,0,0-1.848,13.922C180.891,151.856,181.559,163.781,181.4,163.832Z" transform="translate(12.778 -68.537)" fill="#2d1a14"/>
        <path id="Trazado_122871" data-name="Trazado 122871" d="M260.742,134.441c-3.293-5.1-11.235-4.272-16.342-.987s-9.1,8.33-14.739,10.6c-11.359,4.568-23.339-3.7-34.922-7.672-6.2-2.125-13.685-2.807-18.749,1.349-1.412,1.158-2.6,2.667-4.28,3.38-4.912,2.078-9.324-3.461-12.811-7.5-11.052-12.779-32.756-14.319-45.5-3.228" transform="translate(-56.828 -64.247)" fill="none" stroke="#2d1a14" stroke-linecap="round" stroke-linejoin="round" stroke-width="1.353"/>
        <path id="Trazado_122872" data-name="Trazado 122872" d="M199.167,139.139c5.332-2.86,11.863-5.736,17.13-2.756,1.515.857,2.752,2.133,4.223,3.063,3.721,2.35,8.584,2.214,12.734.752s7.77-4.091,11.383-6.606c12.249-8.517,26.583-16.35,41.318-14.008,7.731,1.231,16.206,5.086,22.838.926" transform="translate(31.625 -68.159)" fill="none" stroke="#2d1a14" stroke-linecap="round" stroke-linejoin="round" stroke-width="1.353"/>
        <path id="Trazado_122873" data-name="Trazado 122873" d="M187.462,139c3.591.7,5.842,5.285,9.492,5.046" transform="translate(19.554 -47.706)" fill="none" stroke="#2d1a14" stroke-linecap="round" stroke-linejoin="round" stroke-width="1.353"/>
        <path id="Trazado_122874" data-name="Trazado 122874" d="M194.513,143.807c1.3.4,2.622-.565,3.459-1.633s1.513-2.35,2.7-3" transform="translate(26.826 -47.525)" fill="none" stroke="#2d1a14" stroke-linecap="round" stroke-linejoin="round" stroke-width="1.353"/>
        <path id="Trazado_122875" data-name="Trazado 122875" d="M200.923,155.244a8.286,8.286,0,0,0-6.325-7.211,4.933,4.933,0,0,0-3.608.429,4.716,4.716,0,0,0-2,3.413,13.955,13.955,0,0,0,.23,4.063Z" transform="translate(21.057 -38.543)" fill="#fffaf5"/>
        <path id="Trazado_122876" data-name="Trazado 122876" d="M191.4,146.238l6.13,3.654q-.954-2.87-1.9-5.736" transform="translate(23.614 -42.386)" fill="none" stroke="#2d1a14" stroke-linecap="round" stroke-linejoin="round" stroke-width="0.451"/>
        <line id="Línea_155" data-name="Línea 155" x2="4.452" y2="0.128" transform="translate(210.051 113.33)" fill="none" stroke="#2d1a14" stroke-linecap="round" stroke-linejoin="round" stroke-width="0.451"/>
        <path id="Trazado_122877" data-name="Trazado 122877" d="M186.7,143.057a4.665,4.665,0,0,0,7.231,1.818" transform="translate(18.767 -43.519)" fill="none" stroke="#2d1a14" stroke-linecap="round" stroke-linejoin="round" stroke-width="0.902"/>
        <path id="Trazado_122878" data-name="Trazado 122878" d="M195.1,145.03a4.664,4.664,0,0,0,7.136-2.165" transform="translate(27.43 -43.717)" fill="none" stroke="#2d1a14" stroke-linecap="round" stroke-linejoin="round" stroke-width="0.902"/>
        <path id="Trazado_122879" data-name="Trazado 122879" d="M159.092,88.321c-1.177-.294-25.282-15.581-25.282-15.581s14.7,25.576,14.11,24.694-32.337-37.923-32.337-37.923l15.443,6.082L118.817,44.224S160.268,88.615,159.092,88.321Z" transform="translate(4.055 -38.531)" fill="#ffdfa3"/>
        <path id="Trazado_122880" data-name="Trazado 122880" d="M186.241,58.1c1.2-.3,25.889-15.955,25.889-15.955S190.487,77.6,191.089,76.7,230.8,28.6,230.8,28.6l-15.814,6.229,12.5-21.883S185.037,58.4,186.241,58.1Z" transform="translate(63.355 -12.944)" fill="#ffdfa3"/>
        <circle id="Elipse_4802" data-name="Elipse 4802" cx="6.868" cy="6.868" r="6.868" transform="translate(89.294 269.147)" fill="#133d60"/>
        <path id="Trazado_122882" data-name="Trazado 122882" d="M99.286,102.766A6.869,6.869,0,1,1,92.418,95.9,6.867,6.867,0,0,1,99.286,102.766Z" transform="translate(-85.548 -92.153)" fill="#2d1a14"/>
        <path id="Trazado_122883" data-name="Trazado 122883" d="M309.49,212.631a5.189,5.189,0,1,1-5.189-5.188A5.189,5.189,0,0,1,309.49,212.631Z" transform="translate(30.1 23.667)" fill="#133d60"/>
      </g>
    </g>
  </g>
</svg>
