<svg xmlns="http://www.w3.org/2000/svg" width="85" height="85" viewBox="0 0 85 85">
  <g id="Grupo_990535" data-name="Grupo 990535" transform="translate(-180 -18082)">
    <rect id="Rectángulo_33792" data-name="Rectángulo 33792" width="85" height="85" rx="5" transform="translate(180 18082)" fill="#9aeccd"/>
    <g id="Grupo_80313" data-name="Grupo 80313" transform="translate(187.443 18096.18)">
      <g id="Grupo_80111" data-name="Grupo 80111" transform="translate(31.991)">
        <path id="Trazado_113526" data-name="Trazado 113526" d="M294.882,1043.023l-22.411-22.412a1.119,1.119,0,0,1,0-1.583h0a1.12,1.12,0,0,1,1.584,0l22.411,22.411a1.119,1.119,0,0,1,0,1.584h0A1.12,1.12,0,0,1,294.882,1043.023Z" transform="translate(-272.143 -1018.7)" fill="#bfefdd"/>
      </g>
      <g id="Grupo_80112" data-name="Grupo 80112" transform="translate(42.988 3)">
        <path id="Trazado_113527" data-name="Trazado 113527" d="M345.734,1046.715l-8.414-8.414a1.12,1.12,0,0,1,0-1.583h0a1.119,1.119,0,0,1,1.584,0l8.413,8.413a1.119,1.119,0,0,1,0,1.584h0A1.119,1.119,0,0,1,345.734,1046.715Z" transform="translate(-336.993 -1036.39)" fill="#bfefdd"/>
      </g>
      <g id="Grupo_80113" data-name="Grupo 80113" transform="translate(23.994)">
        <path id="Trazado_113528" data-name="Trazado 113528" d="M255.724,1051.018l-30.407-30.407a1.118,1.118,0,0,1,0-1.583h0a1.119,1.119,0,0,1,1.583,0l30.407,30.407a1.119,1.119,0,0,1,0,1.583h0A1.119,1.119,0,0,1,255.724,1051.018Z" transform="translate(-224.989 -1018.7)" fill="#bfefdd"/>
      </g>
      <g id="Grupo_80114" data-name="Grupo 80114" transform="translate(17.667 1.668)">
        <path id="Trazado_113529" data-name="Trazado 113529" d="M223.07,1065.515,188,1030.449a1.119,1.119,0,0,1,0-1.583h0a1.118,1.118,0,0,1,1.583,0l35.067,35.067a1.12,1.12,0,0,1,0,1.583h0A1.119,1.119,0,0,1,223.07,1065.515Z" transform="translate(-187.675 -1028.537)" fill="#bfefdd"/>
      </g>
      <g id="Grupo_80115" data-name="Grupo 80115" transform="translate(12.407 4.405)">
        <path id="Trazado_113530" data-name="Trazado 113530" d="M194.58,1084.177l-37.589-37.589a1.12,1.12,0,0,1,0-1.584h0a1.12,1.12,0,0,1,1.583,0l37.589,37.59a1.12,1.12,0,0,1,0,1.583h0A1.119,1.119,0,0,1,194.58,1084.177Z" transform="translate(-156.663 -1044.677)" fill="#bfefdd"/>
      </g>
      <g id="Grupo_80116" data-name="Grupo 80116" transform="translate(8.002 8.002)">
        <path id="Trazado_113531" data-name="Trazado 113531" d="M169.412,1106.195l-38.4-38.4a1.121,1.121,0,0,1,0-1.584h0a1.12,1.12,0,0,1,1.584,0l38.4,38.4a1.121,1.121,0,0,1,0,1.584h0A1.121,1.121,0,0,1,169.412,1106.195Z" transform="translate(-130.686 -1065.885)" fill="#bfefdd"/>
      </g>
      <g id="Grupo_80117" data-name="Grupo 80117" transform="translate(4.406 12.407)">
        <path id="Trazado_113532" data-name="Trazado 113532" d="M147.4,1131.364l-37.589-37.589a1.12,1.12,0,0,1,0-1.583h0a1.119,1.119,0,0,1,1.584,0l37.589,37.589a1.119,1.119,0,0,1,0,1.584h0A1.12,1.12,0,0,1,147.4,1131.364Z" transform="translate(-109.478 -1091.863)" fill="#bfefdd"/>
      </g>
      <g id="Grupo_80118" data-name="Grupo 80118" transform="translate(1.668 17.666)">
        <path id="Trazado_113533" data-name="Trazado 113533" d="M128.731,1159.854l-35.067-35.067a1.119,1.119,0,0,1,0-1.583h0a1.118,1.118,0,0,1,1.583,0l35.067,35.066a1.12,1.12,0,0,1,0,1.584h0A1.118,1.118,0,0,1,128.731,1159.854Z" transform="translate(-93.336 -1122.875)" fill="#bfefdd"/>
      </g>
      <g id="Grupo_80119" data-name="Grupo 80119" transform="translate(0 23.994)">
        <path id="Trazado_113534" data-name="Trazado 113534" d="M114.235,1192.508,83.827,1162.1a1.119,1.119,0,0,1,0-1.583h0a1.118,1.118,0,0,1,1.583,0l30.408,30.408a1.119,1.119,0,0,1,0,1.583h0A1.119,1.119,0,0,1,114.235,1192.508Z" transform="translate(-83.499 -1160.189)" fill="#bfefdd"/>
      </g>
      <g id="Grupo_80120" data-name="Grupo 80120" transform="translate(0 31.991)">
        <path id="Trazado_113535" data-name="Trazado 113535" d="M106.238,1231.665l-22.411-22.411a1.119,1.119,0,0,1,0-1.584h0a1.119,1.119,0,0,1,1.583,0l22.411,22.411a1.12,1.12,0,0,1,0,1.583h0A1.12,1.12,0,0,1,106.238,1231.665Z" transform="translate(-83.499 -1207.343)" fill="#bfefdd"/>
      </g>
      <g id="Grupo_80121" data-name="Grupo 80121" transform="translate(3 42.988)">
        <path id="Trazado_113536" data-name="Trazado 113536" d="M109.932,1282.517l-8.413-8.413a1.12,1.12,0,0,1,0-1.584h0a1.12,1.12,0,0,1,1.583,0l8.414,8.414a1.12,1.12,0,0,1,0,1.583h0A1.119,1.119,0,0,1,109.932,1282.517Z" transform="translate(-101.191 -1272.193)" fill="#bfefdd"/>
      </g>
    </g>
    <g id="trabajo-excesivo" transform="translate(195 18092)">
      <g id="Grupo_990533" data-name="Grupo 990533" transform="translate(1.035 4.871)">
        <g id="Grupo_990513" data-name="Grupo 990513" transform="translate(57.954 20.698)">
          <path id="Trazado_625844" data-name="Trazado 625844" d="M460.14,198.692v10.349a1.035,1.035,0,0,1-1.035,1.035h-2.07A1.035,1.035,0,0,1,456,209.041V198.692a1.035,1.035,0,0,1,1.035-1.035h2.07A1.035,1.035,0,0,1,460.14,198.692Z" transform="translate(-456 -197.657)" fill="#d3a06c"/>
        </g>
        <g id="Grupo_990514" data-name="Grupo 990514" transform="translate(41.396 53.815)">
          <path id="Trazado_625845" data-name="Trazado 625845" d="M342.488,456.762a1.033,1.033,0,0,1-1.035,1.035H329.035A1.035,1.035,0,0,1,328,456.762a3.1,3.1,0,0,1,3.1-3.1h8.279A3.105,3.105,0,0,1,342.488,456.762Z" transform="translate(-328 -453.657)" fill="#d3a06c"/>
        </g>
        <g id="Grupo_990515" data-name="Grupo 990515" transform="translate(46.57 47.605)">
          <path id="Trazado_625846" data-name="Trazado 625846" d="M368,405.657h4.14v6.209H368Z" transform="translate(-368 -405.657)" fill="#b27946"/>
        </g>
        <g id="Grupo_990516" data-name="Grupo 990516" transform="translate(37.256 43.466)">
          <path id="Trazado_625847" data-name="Trazado 625847" d="M316.7,373.657l3.837,3.837a1.037,1.037,0,0,1-.732.3H296v-4.14h20.7Z" transform="translate(-296 -373.657)" fill="#d3a06c"/>
        </g>
        <g id="Grupo_990517" data-name="Grupo 990517" transform="translate(57.954 37.256)">
          <path id="Trazado_625848" data-name="Trazado 625848" d="M460.14,326.692v8.279a1.037,1.037,0,0,1-.3.732L456,331.866v-5.174a1.035,1.035,0,0,1,1.035-1.035h2.07A1.035,1.035,0,0,1,460.14,326.692Z" transform="translate(-456 -325.657)" fill="#d3a06c"/>
        </g>
        <g id="Grupo_990518" data-name="Grupo 990518" transform="translate(37.256 35.186)">
          <path id="Trazado_625849" data-name="Trazado 625849" d="M302.209,309.657l10.349,2.07a6.209,6.209,0,0,1-6.209,6.209H296v-7.244Z" transform="translate(-296 -309.657)" fill="#969faa"/>
        </g>
        <g id="Grupo_990519" data-name="Grupo 990519" transform="translate(22.768 19.663)">
          <path id="Trazado_625850" data-name="Trazado 625850" d="M202.1,198.461l-2.579,2.579H184V196.9h8.279l1.8-2.155a14.955,14.955,0,0,1,8.552-5.089,12.42,12.42,0,0,1,12.419,12.419v5.174L204.7,205.18A10,10,0,0,0,202.1,198.461Z" transform="translate(-184 -189.657)" fill="#fcd770"/>
        </g>
        <g id="Grupo_990520" data-name="Grupo 990520" transform="translate(26.907)">
          <path id="Trazado_625851" data-name="Trazado 625851" d="M223.258,47.226h0a4.138,4.138,0,0,0-3.115,3.883h0a5.464,5.464,0,0,1-4.14-5.3v-.166a5.467,5.467,0,0,1,2.288-4.447l4.956-3.539,1.035,3.1a7.068,7.068,0,0,1,5-2.07h.177a7.243,7.243,0,0,1,7.244,7.244v3.279a10.657,10.657,0,0,1-3.978,8.305,12.428,12.428,0,0,0-2.231-.2v-3.1a2.072,2.072,0,0,0,2.07-2.079v-.052a2.009,2.009,0,0,0-2.012-2.009h-.058a2.069,2.069,0,0,0-2.07-2.07h-3.1A3.093,3.093,0,0,1,223.258,47.226Z" transform="translate(-216 -37.657)" fill="#656d78"/>
        </g>
        <g id="Grupo_990521" data-name="Grupo 990521" transform="translate(6.209 2.07)">
          <path id="Trazado_625852" data-name="Trazado 625852" d="M66.273,74.1a1.806,1.806,0,0,1-1.728,2.323h-.992a1.8,1.8,0,0,1-1.728-1.286L58.551,64.231,56.076,55.98A1.806,1.806,0,0,1,57.8,53.657H58.8a1.8,1.8,0,0,1,1.728,1.286Z" transform="translate(-56 -53.657)" fill="#ccd1d9"/>
        </g>
        <g id="Grupo_990522" data-name="Grupo 990522" transform="translate(4.14 35.186)">
          <path id="Trazado_625853" data-name="Trazado 625853" d="M73.117,322.076V333.46H67.942v-1.035a1.035,1.035,0,0,0,1.035-1.035V316.9a1.035,1.035,0,0,0-1.035-1.035H51.384a1.035,1.035,0,0,0-1.035,1.035v3.1H40V309.657H73.117v12.419Z" transform="translate(-40 -309.657)" fill="#cf9e76"/>
        </g>
        <g id="Grupo_990523" data-name="Grupo 990523" transform="translate(2.07 31.047)">
          <path id="Trazado_625854" data-name="Trazado 625854" d="M61.256,278.692v2.07a1.035,1.035,0,0,1-1.035,1.035H25.035A1.035,1.035,0,0,1,24,280.762v-2.07a1.035,1.035,0,0,1,1.035-1.035H60.221A1.035,1.035,0,0,1,61.256,278.692Z" transform="translate(-24 -277.657)" fill="#d3a06c"/>
        </g>
        <g id="Grupo_990524" data-name="Grupo 990524" transform="translate(18.628 26.907)">
          <path id="Trazado_625855" data-name="Trazado 625855" d="M156.14,245.657v4.14H152A4.14,4.14,0,0,1,156.14,245.657Z" transform="translate(-152 -245.657)" fill="#f0d0b4"/>
        </g>
        <g id="Grupo_990525" data-name="Grupo 990525" transform="translate(31.047 9.569)">
          <path id="Trazado_625856" data-name="Trazado 625856" d="M260.419,116.486v.052a2.072,2.072,0,0,1-2.07,2.079v3.1a14.961,14.961,0,0,0-5.123,2.066c-.067,0-.135,0-.2,0A5.024,5.024,0,0,1,248,118.768v-3.129c0-.043,0-.084,0-.127a4.138,4.138,0,0,1,3.115-3.883h0a3.092,3.092,0,0,0,2.056.78h3.1a2.069,2.069,0,0,1,2.07,2.07h.058A2.009,2.009,0,0,1,260.419,116.486Z" transform="translate(-248 -111.627)" fill="#f0d0b4"/>
        </g>
        <g id="Grupo_990526" data-name="Grupo 990526" transform="translate(18.628 53.815)">
          <path id="Trazado_625857" data-name="Trazado 625857" d="M166.489,453.657v3.1a1.035,1.035,0,0,1-1.035,1.035H152v-4.14Z" transform="translate(-152 -453.657)" fill="#ccd1d9"/>
        </g>
        <g id="Grupo_990527" data-name="Grupo 990527" transform="translate(18.628 45.535)">
          <path id="Trazado_625858" data-name="Trazado 625858" d="M152,389.657h14.489v4.14H152Z" transform="translate(-152 -389.657)" fill="#ccd1d9"/>
        </g>
        <g id="Grupo_990528" data-name="Grupo 990528" transform="translate(0 49.675)">
          <path id="Trazado_625859" data-name="Trazado 625859" d="M8,421.657H26.628v4.14H8Z" transform="translate(-8 -421.657)" fill="#ccd1d9"/>
        </g>
        <g id="Grupo_990529" data-name="Grupo 990529" transform="translate(18.628 49.675)">
          <path id="Trazado_625860" data-name="Trazado 625860" d="M152,421.657h14.489v4.14H152Z" transform="translate(-152 -421.657)" fill="#e6e9ed"/>
        </g>
        <g id="Grupo_990530" data-name="Grupo 990530" transform="translate(14.489 41.396)">
          <path id="Trazado_625861" data-name="Trazado 625861" d="M138.628,358.692v3.1H120v-3.1a1.035,1.035,0,0,1,1.035-1.035h16.558A1.035,1.035,0,0,1,138.628,358.692Z" transform="translate(-120 -357.657)" fill="#e6e9ed"/>
        </g>
        <g id="Grupo_990531" data-name="Grupo 990531" transform="translate(0 53.815)">
          <path id="Trazado_625862" data-name="Trazado 625862" d="M26.628,453.657v4.14H9.035A1.035,1.035,0,0,1,8,456.762v-3.1Z" transform="translate(-8 -453.657)" fill="#e6e9ed"/>
        </g>
        <g id="Grupo_990532" data-name="Grupo 990532" transform="translate(0 45.535)">
          <path id="Trazado_625863" data-name="Trazado 625863" d="M26.628,389.657v4.14H8v-3.1a1.035,1.035,0,0,1,1.035-1.035H26.628Z" transform="translate(-8 -389.657)" fill="#e6e9ed"/>
        </g>
      </g>
      <g id="Grupo_990534" data-name="Grupo 990534" transform="translate(0 0)">
        <path id="Trazado_625864" data-name="Trazado 625864" d="M64.163,58.592V48.243a2.072,2.072,0,0,0-2.07-2.07h-2.07a2.072,2.072,0,0,0-2.07,2.07V58.592a2.072,2.072,0,0,0,2.07,2.07v2.07a2.072,2.072,0,0,0-2.07,2.07v4.14H53.7a7.221,7.221,0,0,0,2.181-5.174V58.592a13.477,13.477,0,0,0-9.163-12.751,11.63,11.63,0,0,0,2.954-7.772V35.824h-2.07v2.245a9.573,9.573,0,0,1-3.248,7.208c-.294-.042-.592-.076-.892-.1V43.926a3.118,3.118,0,0,0,2.07-2.935v-.052a3.049,3.049,0,0,0-2.209-2.929,3.11,3.11,0,0,0-2.966-2.185h-3.1a2.072,2.072,0,0,1-2.07-2.07h-2.07a4.113,4.113,0,0,0,.458,1.89,5.174,5.174,0,0,0-2.293,2.906,4.424,4.424,0,0,1-2.3-3.888V34.5a4.439,4.439,0,0,1,1.855-3.6l3.816-2.725,1.121,3.364,1.184-1.184a5.992,5.992,0,0,1,4.265-1.767H41.4V26.51h-.178a8.043,8.043,0,0,0-4.489,1.355l-1-3.011-6.1,4.354A6.512,6.512,0,0,0,26.907,34.5v.165a6.489,6.489,0,0,0,4.14,6.057v2.5a6.067,6.067,0,0,0,3.769,5.608A15.873,15.873,0,0,0,33.083,50.6L31.6,52.382H23.8a5.183,5.183,0,0,0-5.07,4.14H8.279V43.236a3.523,3.523,0,0,1,.944-2.388l2.853,9.51a2.822,2.822,0,0,0,2.72,2.024h.992a2.84,2.84,0,0,0,2.72-3.656L12.761,29.569a2.822,2.822,0,0,0-2.72-2.024H9.049A2.84,2.84,0,0,0,6.329,31.2l2.245,7.482a5.612,5.612,0,0,0-2.364,4.553V56.522H4.14a2.072,2.072,0,0,0-2.07,2.07v2.07a2.072,2.072,0,0,0,2.07,2.07v8.279H2.07A2.072,2.072,0,0,0,0,73.08V83.429A2.072,2.072,0,0,0,2.07,85.5H33.117a2.072,2.072,0,0,0,2.07-2.07V68.941a2.072,2.072,0,0,0-2.07-2.07H16.558a2.072,2.072,0,0,0-2.07,2.07v2.07H6.209V62.732H37.256V85.5h2.07V75.15H46.57v4.14H45.535a4.144,4.144,0,0,0-4.14,4.14,2.072,2.072,0,0,0,2.07,2.07H55.884a2.072,2.072,0,0,0,2.07-2.07,4.144,4.144,0,0,0-4.14-4.14H52.78V75.15h9.314a2.072,2.072,0,0,0,2.07-2.07V64.8a2.072,2.072,0,0,0-2.07-2.07v-2.07a2.072,2.072,0,0,0,2.07-2.07ZM8.279,30.385a.771.771,0,0,1,.77-.77h.992a.775.775,0,0,1,.737.549l5.748,19.158a.77.77,0,0,1-.738.991H14.8a.775.775,0,0,1-.737-.549L8.311,30.606a.766.766,0,0,1-.032-.221Zm10.349,42.7v2.07H2.07V73.08Zm2.07,0H33.117v2.07H20.7Zm0,4.14H33.117v2.07H20.7Zm-2.07,2.07H2.07V77.22H18.628ZM2.07,83.429V81.36H18.628v2.07Zm18.628,0V81.36H33.117v2.07Zm-4.14-14.489H33.117v2.07H16.558ZM62.094,64.8v6.816l-2.07-2.07V64.8ZM40.986,57.361l.836-.836a8.931,8.931,0,0,1,1.6,4.3l-2.1.349a2.058,2.058,0,0,0,.067-.514v-2.07a2.058,2.058,0,0,0-.41-1.231Zm-1.66,6.248,5.158-.86L53.746,64.6a5.182,5.182,0,0,1-5.106,4.34H39.326ZM33.117,43.22V40.091a3.1,3.1,0,0,1,1.9-2.859,4.113,4.113,0,0,0,2.241.662h3.1A1.036,1.036,0,0,1,41.4,38.929v1.035h1.1a.975.975,0,0,1,.974.974v.052a1.04,1.04,0,0,1-1.035,1.043H41.4v3.317a16.025,16.025,0,0,0-4.377,1.855,3.992,3.992,0,0,1-3.9-3.986Zm-.55,11.233,2.107-2.528a13.96,13.96,0,0,1,7.864-4.715A11.4,11.4,0,0,1,53.814,58.592V62.5L45.5,60.841a11,11,0,0,0-2.149-5.733,3.934,3.934,0,0,1,2.185-.656v-2.07a5.993,5.993,0,0,0-4.265,1.767L38.9,56.522H24.837v-2.07h7.729Zm-9.8.178v1.892H20.876A3.12,3.12,0,0,1,22.768,54.63ZM4.14,58.592H39.326v2.07H4.14ZM39.326,71.011H58.56l2.07,2.07h-21.3Zm16.56,12.419H43.466a2.072,2.072,0,0,1,2.07-2.07h8.279A2.074,2.074,0,0,1,55.886,83.429ZM50.71,79.29H48.64V75.15h2.07Zm9.314-31.047h2.07V58.592H60.024Z" transform="translate(0 -21.639)"/>
        <path id="Trazado_625865" data-name="Trazado 625865" d="M337.717,6.478l-.219.109a2.709,2.709,0,0,0,0,4.847l1.144.572.925-1.851-1.144-.572a.64.64,0,0,1,0-1.144l.219-.109a2.709,2.709,0,0,0,0-4.847l-.034-.017a.97.97,0,0,1-.252-1.554l.448-.448L337.338,0l-.448.448a3.04,3.04,0,0,0,.791,4.869l.034.017a.64.64,0,0,1,0,1.144Z" transform="translate(-292.534 0)"/>
        <path id="Trazado_625866" data-name="Trazado 625866" d="M385.717,6.478l-.219.109a2.709,2.709,0,0,0,0,4.847l1.144.572.925-1.851-1.144-.572a.64.64,0,0,1,0-1.144l.219-.109a2.709,2.709,0,0,0,0-4.847l-.034-.017a.97.97,0,0,1-.252-1.554l.448-.448L385.338,0l-.448.448a3.04,3.04,0,0,0,.791,4.869l.034.017a.64.64,0,0,1,0,1.144Z" transform="translate(-334.325 0)"/>
        <path id="Trazado_625867" data-name="Trazado 625867" d="M433.717,6.478l-.219.109a2.709,2.709,0,0,0,0,4.847l1.144.572.925-1.851-1.144-.572a.64.64,0,0,1,0-1.144l.219-.109a2.709,2.709,0,0,0,0-4.847l-.034-.017a.97.97,0,0,1-.252-1.554l.448-.448L433.338,0l-.448.448a3.04,3.04,0,0,0,.791,4.869l.034.017a.64.64,0,0,1,0,1.144Z" transform="translate(-376.116 0)"/>
      </g>
    </g>
  </g>
</svg>
